<?xml version="1.0" encoding="UTF-8" standalone="no"?><svg xmlns="http://www.w3.org/2000/svg" xmlns:xlink="http://www.w3.org/1999/xlink" contentScriptType="application/ecmascript" contentStyleType="text/css" height="870px" preserveAspectRatio="none" style="width:494px;height:870px;background:#FFFFFF;" version="1.1" viewBox="0 0 494 870" width="494px" zoomAndPan="magnify"><defs><filter height="300%" id="f2gpwcyp1v6zc" width="300%" x="-1" y="-1"><feGaussianBlur result="blurOut" stdDeviation="2.0"/><feColorMatrix in="blurOut" result="blurOut2" type="matrix" values="0 0 0 0 0 0 0 0 0 0 0 0 0 0 0 0 0 0 .4 0"/><feOffset dx="4.0" dy="4.0" in="blurOut2" result="blurOut3"/><feBlend in="SourceGraphic" in2="blurOut3" mode="normal"/></filter></defs><g><rect fill="#FFFFFF" filter="url(#f2gpwcyp1v6zc)" height="667.7344" style="stroke:#A80036;stroke-width:1.0;" width="10" x="69.5" y="99.6094"/><rect fill="#FFFFFF" filter="url(#f2gpwcyp1v6zc)" height="30.3516" style="stroke:#A80036;stroke-width:1.0;" width="10" x="418.5" y="121.9609"/><rect fill="#FFFFFF" filter="url(#f2gpwcyp1v6zc)" height="30.3516" style="stroke:#A80036;stroke-width:1.0;" width="10" x="418.5" y="182.6641"/><rect fill="#FFFFFF" filter="url(#f2gpwcyp1v6zc)" height="30.3516" style="stroke:#A80036;stroke-width:1.0;" width="10" x="418.5" y="243.3672"/><rect fill="#FFFFFF" filter="url(#f2gpwcyp1v6zc)" height="30.3516" style="stroke:#A80036;stroke-width:1.0;" width="10" x="418.5" y="304.0703"/><rect fill="#FFFFFF" filter="url(#f2gpwcyp1v6zc)" height="55.7031" style="stroke:#A80036;stroke-width:1.0;" width="10" x="418.5" y="364.7734"/><rect fill="#FFFFFF" filter="url(#f2gpwcyp1v6zc)" height="62.7031" style="stroke:#A80036;stroke-width:1.0;" width="10" x="418.5" y="450.8281"/><rect fill="#FFFFFF" filter="url(#f2gpwcyp1v6zc)" height="88.0547" style="stroke:#A80036;stroke-width:1.0;" width="10" x="418.5" y="543.8828"/><rect fill="#FFFFFF" filter="url(#f2gpwcyp1v6zc)" height="44.3516" style="stroke:#A80036;stroke-width:1.0;" width="10" x="418.5" y="662.2891"/><rect fill="#FFFFFF" filter="url(#f2gpwcyp1v6zc)" height="30.3516" style="stroke:#A80036;stroke-width:1.0;" width="10" x="418.5" y="736.9922"/><rect fill="#FFFFFF" filter="url(#f2gpwcyp1v6zc)" height="79.0547" style="stroke:#000000;stroke-width:2.0;" width="450.5" x="20" y="379.7734"/><rect fill="#FFFFFF" filter="url(#f2gpwcyp1v6zc)" height="79.0547" style="stroke:#000000;stroke-width:2.0;" width="450.5" x="20" y="472.8281"/><rect fill="#FFFFFF" filter="url(#f2gpwcyp1v6zc)" height="111.4063" style="stroke:#000000;stroke-width:2.0;" width="470.5" x="10" y="565.8828"/><rect fill="#FFFFFF" filter="url(#f2gpwcyp1v6zc)" height="79.0547" style="stroke:#000000;stroke-width:2.0;" width="450.5" x="20" y="591.2344"/><line style="stroke:#A80036;stroke-width:1.0;stroke-dasharray:5.0,5.0;" x1="74" x2="74" y1="89.6094" y2="785.3438"/><line style="stroke:#A80036;stroke-width:1.0;stroke-dasharray:5.0,5.0;" x1="423.5" x2="423.5" y1="89.6094" y2="785.3438"/><text fill="#000000" font-family="sans-serif" font-size="14" lengthAdjust="spacing" textLength="83" x="30" y="86.5332">Administrator</text><ellipse cx="74.5" cy="15" fill="#FEFECE" filter="url(#f2gpwcyp1v6zc)" rx="8" ry="8" style="stroke:#A80036;stroke-width:2.0;"/><path d="M74.5,23 L74.5,50 M61.5,31 L87.5,31 M74.5,50 L61.5,65 M74.5,50 L87.5,65 " fill="none" filter="url(#f2gpwcyp1v6zc)" style="stroke:#A80036;stroke-width:2.0;"/><text fill="#000000" font-family="sans-serif" font-size="14" lengthAdjust="spacing" textLength="83" x="30" y="798.877">Administrator</text><ellipse cx="74.5" cy="811.9531" fill="#FEFECE" filter="url(#f2gpwcyp1v6zc)" rx="8" ry="8" style="stroke:#A80036;stroke-width:2.0;"/><path d="M74.5,819.9531 L74.5,846.9531 M61.5,827.9531 L87.5,827.9531 M74.5,846.9531 L61.5,861.9531 M74.5,846.9531 L87.5,861.9531 " fill="none" filter="url(#f2gpwcyp1v6zc)" style="stroke:#A80036;stroke-width:2.0;"/><rect fill="#FEFECE" filter="url(#f2gpwcyp1v6zc)" height="31.6094" style="stroke:#A80036;stroke-width:1.5;" width="70" x="386.5" y="53"/><text fill="#000000" font-family="sans-serif" font-size="14" lengthAdjust="spacing" textLength="56" x="393.5" y="74.5332">SYSTEM</text><rect fill="#FEFECE" filter="url(#f2gpwcyp1v6zc)" height="31.6094" style="stroke:#A80036;stroke-width:1.5;" width="70" x="386.5" y="784.3438"/><text fill="#000000" font-family="sans-serif" font-size="14" lengthAdjust="spacing" textLength="56" x="393.5" y="805.877">SYSTEM</text><rect fill="#FFFFFF" filter="url(#f2gpwcyp1v6zc)" height="667.7344" style="stroke:#A80036;stroke-width:1.0;" width="10" x="69.5" y="99.6094"/><rect fill="#FFFFFF" filter="url(#f2gpwcyp1v6zc)" height="30.3516" style="stroke:#A80036;stroke-width:1.0;" width="10" x="418.5" y="121.9609"/><rect fill="#FFFFFF" filter="url(#f2gpwcyp1v6zc)" height="30.3516" style="stroke:#A80036;stroke-width:1.0;" width="10" x="418.5" y="182.6641"/><rect fill="#FFFFFF" filter="url(#f2gpwcyp1v6zc)" height="30.3516" style="stroke:#A80036;stroke-width:1.0;" width="10" x="418.5" y="243.3672"/><rect fill="#FFFFFF" filter="url(#f2gpwcyp1v6zc)" height="30.3516" style="stroke:#A80036;stroke-width:1.0;" width="10" x="418.5" y="304.0703"/><rect fill="#FFFFFF" filter="url(#f2gpwcyp1v6zc)" height="55.7031" style="stroke:#A80036;stroke-width:1.0;" width="10" x="418.5" y="364.7734"/><rect fill="#FFFFFF" filter="url(#f2gpwcyp1v6zc)" height="62.7031" style="stroke:#A80036;stroke-width:1.0;" width="10" x="418.5" y="450.8281"/><rect fill="#FFFFFF" filter="url(#f2gpwcyp1v6zc)" height="88.0547" style="stroke:#A80036;stroke-width:1.0;" width="10" x="418.5" y="543.8828"/><rect fill="#FFFFFF" filter="url(#f2gpwcyp1v6zc)" height="44.3516" style="stroke:#A80036;stroke-width:1.0;" width="10" x="418.5" y="662.2891"/><rect fill="#FFFFFF" filter="url(#f2gpwcyp1v6zc)" height="30.3516" style="stroke:#A80036;stroke-width:1.0;" width="10" x="418.5" y="736.9922"/><polygon fill="#A80036" points="406.5,117.9609,416.5,121.9609,406.5,125.9609,410.5,121.9609" style="stroke:#A80036;stroke-width:1.0;"/><line style="stroke:#A80036;stroke-width:1.0;" x1="79.5" x2="412.5" y1="121.9609" y2="121.9609"/><text fill="#000000" font-family="sans-serif" font-size="13" font-weight="bold" lengthAdjust="spacing" textLength="7" x="86.5" y="117.1045">1</text><text fill="#000000" font-family="sans-serif" font-size="13" lengthAdjust="spacing" textLength="123" x="97.5" y="117.1045">Create a new vaccine</text><polygon fill="#A80036" points="90.5,148.3125,80.5,152.3125,90.5,156.3125,86.5,152.3125" style="stroke:#A80036;stroke-width:1.0;"/><line style="stroke:#A80036;stroke-width:1.0;stroke-dasharray:2.0,2.0;" x1="84.5" x2="422.5" y1="152.3125" y2="152.3125"/><text fill="#000000" font-family="sans-serif" font-size="13" font-weight="bold" lengthAdjust="spacing" textLength="7" x="96.5" y="147.4561">2</text><text fill="#000000" font-family="sans-serif" font-size="13" lengthAdjust="spacing" textLength="244" x="107.5" y="147.4561">Request for selection of one Vaccine Type</text><polygon fill="#A80036" points="406.5,178.6641,416.5,182.6641,406.5,186.6641,410.5,182.6641" style="stroke:#A80036;stroke-width:1.0;"/><line style="stroke:#A80036;stroke-width:1.0;" x1="79.5" x2="412.5" y1="182.6641" y2="182.6641"/><text fill="#000000" font-family="sans-serif" font-size="13" font-weight="bold" lengthAdjust="spacing" textLength="7" x="86.5" y="177.8076">3</text><text fill="#000000" font-family="sans-serif" font-size="13" lengthAdjust="spacing" textLength="120" x="97.5" y="177.8076">Select Vaccine Type</text><polygon fill="#A80036" points="90.5,209.0156,80.5,213.0156,90.5,217.0156,86.5,213.0156" style="stroke:#A80036;stroke-width:1.0;"/><line style="stroke:#A80036;stroke-width:1.0;stroke-dasharray:2.0,2.0;" x1="84.5" x2="422.5" y1="213.0156" y2="213.0156"/><text fill="#000000" font-family="sans-serif" font-size="13" font-weight="bold" lengthAdjust="spacing" textLength="7" x="96.5" y="208.1592">4</text><text fill="#000000" font-family="sans-serif" font-size="13" lengthAdjust="spacing" textLength="120" x="107.5" y="208.1592">Request brand name</text><polygon fill="#A80036" points="406.5,239.3672,416.5,243.3672,406.5,247.3672,410.5,243.3672" style="stroke:#A80036;stroke-width:1.0;"/><line style="stroke:#A80036;stroke-width:1.0;" x1="79.5" x2="412.5" y1="243.3672" y2="243.3672"/><text fill="#000000" font-family="sans-serif" font-size="13" font-weight="bold" lengthAdjust="spacing" textLength="7" x="86.5" y="238.5107">5</text><text fill="#000000" font-family="sans-serif" font-size="13" lengthAdjust="spacing" textLength="161" x="97.5" y="238.5107">Type requested brand name</text><polygon fill="#A80036" points="90.5,269.7188,80.5,273.7188,90.5,277.7188,86.5,273.7188" style="stroke:#A80036;stroke-width:1.0;"/><line style="stroke:#A80036;stroke-width:1.0;stroke-dasharray:2.0,2.0;" x1="84.5" x2="422.5" y1="273.7188" y2="273.7188"/><text fill="#000000" font-family="sans-serif" font-size="13" font-weight="bold" lengthAdjust="spacing" textLength="7" x="96.5" y="268.8623">6</text><text fill="#000000" font-family="sans-serif" font-size="13" lengthAdjust="spacing" textLength="148" x="107.5" y="268.8623">Request number of doses</text><polygon fill="#A80036" points="406.5,300.0703,416.5,304.0703,406.5,308.0703,410.5,304.0703" style="stroke:#A80036;stroke-width:1.0;"/><line style="stroke:#A80036;stroke-width:1.0;" x1="79.5" x2="412.5" y1="304.0703" y2="304.0703"/><text fill="#000000" font-family="sans-serif" font-size="13" font-weight="bold" lengthAdjust="spacing" textLength="7" x="86.5" y="299.2139">7</text><text fill="#000000" font-family="sans-serif" font-size="13" lengthAdjust="spacing" textLength="189" x="97.5" y="299.2139">Type requested number of doses</text><polygon fill="#A80036" points="90.5,330.4219,80.5,334.4219,90.5,338.4219,86.5,334.4219" style="stroke:#A80036;stroke-width:1.0;"/><line style="stroke:#A80036;stroke-width:1.0;stroke-dasharray:2.0,2.0;" x1="84.5" x2="422.5" y1="334.4219" y2="334.4219"/><text fill="#000000" font-family="sans-serif" font-size="13" font-weight="bold" lengthAdjust="spacing" textLength="7" x="96.5" y="329.5654">8</text><text fill="#000000" font-family="sans-serif" font-size="13" lengthAdjust="spacing" textLength="226" x="107.5" y="329.5654">Request number of different age groups</text><polygon fill="#A80036" points="406.5,360.7734,416.5,364.7734,406.5,368.7734,410.5,364.7734" style="stroke:#A80036;stroke-width:1.0;"/><line style="stroke:#A80036;stroke-width:1.0;" x1="79.5" x2="412.5" y1="364.7734" y2="364.7734"/><text fill="#000000" font-family="sans-serif" font-size="13" font-weight="bold" lengthAdjust="spacing" textLength="7" x="86.5" y="359.917">9</text><text fill="#000000" font-family="sans-serif" font-size="13" lengthAdjust="spacing" textLength="267" x="97.5" y="359.917">Type requested number of different age groups</text><path d="M20,379.7734 L93,379.7734 L93,387.7734 L83,397.7734 L20,397.7734 L20,379.7734 " fill="#EEEEEE" style="stroke:#000000;stroke-width:1.0;"/><rect fill="none" height="79.0547" style="stroke:#000000;stroke-width:2.0;" width="450.5" x="20" y="379.7734"/><text fill="#000000" font-family="sans-serif" font-size="13" font-weight="bold" lengthAdjust="spacing" textLength="28" x="35" y="394.2686">loop</text><text fill="#000000" font-family="sans-serif" font-size="11" font-weight="bold" lengthAdjust="spacing" textLength="183" x="108" y="393.1924">[number of different age groups]</text><polygon fill="#A80036" points="90.5,416.4766,80.5,420.4766,90.5,424.4766,86.5,420.4766" style="stroke:#A80036;stroke-width:1.0;"/><line style="stroke:#A80036;stroke-width:1.0;stroke-dasharray:2.0,2.0;" x1="84.5" x2="422.5" y1="420.4766" y2="420.4766"/><text fill="#000000" font-family="sans-serif" font-size="13" font-weight="bold" lengthAdjust="spacing" textLength="14" x="96.5" y="415.6201">10</text><text fill="#000000" font-family="sans-serif" font-size="13" lengthAdjust="spacing" textLength="153" x="114.5" y="415.6201">Request age group interval</text><polygon fill="#A80036" points="406.5,446.8281,416.5,450.8281,406.5,454.8281,410.5,450.8281" style="stroke:#A80036;stroke-width:1.0;"/><line style="stroke:#A80036;stroke-width:1.0;" x1="79.5" x2="412.5" y1="450.8281" y2="450.8281"/><text fill="#000000" font-family="sans-serif" font-size="13" font-weight="bold" lengthAdjust="spacing" textLength="14" x="86.5" y="445.9717">11</text><text fill="#000000" font-family="sans-serif" font-size="13" lengthAdjust="spacing" textLength="194" x="104.5" y="445.9717">Type requested age group interval</text><path d="M20,472.8281 L93,472.8281 L93,480.8281 L83,490.8281 L20,490.8281 L20,472.8281 " fill="#EEEEEE" style="stroke:#000000;stroke-width:1.0;"/><rect fill="none" height="79.0547" style="stroke:#000000;stroke-width:2.0;" width="450.5" x="20" y="472.8281"/><text fill="#000000" font-family="sans-serif" font-size="13" font-weight="bold" lengthAdjust="spacing" textLength="28" x="35" y="487.3232">loop</text><text fill="#000000" font-family="sans-serif" font-size="11" font-weight="bold" lengthAdjust="spacing" textLength="317" x="108" y="486.2471">[number of different age groups times number of doses]</text><polygon fill="#A80036" points="90.5,509.5313,80.5,513.5313,90.5,517.5313,86.5,513.5313" style="stroke:#A80036;stroke-width:1.0;"/><line style="stroke:#A80036;stroke-width:1.0;stroke-dasharray:2.0,2.0;" x1="84.5" x2="422.5" y1="513.5313" y2="513.5313"/><text fill="#000000" font-family="sans-serif" font-size="13" font-weight="bold" lengthAdjust="spacing" textLength="14" x="96.5" y="508.6748">12</text><text fill="#000000" font-family="sans-serif" font-size="13" lengthAdjust="spacing" textLength="261" x="114.5" y="508.6748">Request dosage for each dose and ageGroup</text><polygon fill="#A80036" points="406.5,539.8828,416.5,543.8828,406.5,547.8828,410.5,543.8828" style="stroke:#A80036;stroke-width:1.0;"/><line style="stroke:#A80036;stroke-width:1.0;" x1="79.5" x2="412.5" y1="543.8828" y2="543.8828"/><text fill="#000000" font-family="sans-serif" font-size="13" font-weight="bold" lengthAdjust="spacing" textLength="14" x="86.5" y="539.0264">13</text><text fill="#000000" font-family="sans-serif" font-size="13" lengthAdjust="spacing" textLength="302" x="104.5" y="539.0264">Type requested dosage for each dose and ageGroup</text><path d="M10,565.8828 L71,565.8828 L71,573.8828 L61,583.8828 L10,583.8828 L10,565.8828 " fill="#EEEEEE" style="stroke:#000000;stroke-width:1.0;"/><rect fill="none" height="111.4063" style="stroke:#000000;stroke-width:2.0;" width="470.5" x="10" y="565.8828"/><text fill="#000000" font-family="sans-serif" font-size="13" font-weight="bold" lengthAdjust="spacing" textLength="16" x="25" y="580.3779">alt</text><text fill="#000000" font-family="sans-serif" font-size="11" font-weight="bold" lengthAdjust="spacing" textLength="200" x="86" y="579.3018">[if number of dose is greater than 1]</text><path d="M20,591.2344 L93,591.2344 L93,599.2344 L83,609.2344 L20,609.2344 L20,591.2344 " fill="#EEEEEE" style="stroke:#000000;stroke-width:1.0;"/><rect fill="none" height="79.0547" style="stroke:#000000;stroke-width:2.0;" width="450.5" x="20" y="591.2344"/><text fill="#000000" font-family="sans-serif" font-size="13" font-weight="bold" lengthAdjust="spacing" textLength="28" x="35" y="605.7295">loop</text><text fill="#000000" font-family="sans-serif" font-size="11" font-weight="bold" lengthAdjust="spacing" textLength="166" x="108" y="604.6533">[number of doses minus one]</text><polygon fill="#A80036" points="90.5,627.9375,80.5,631.9375,90.5,635.9375,86.5,631.9375" style="stroke:#A80036;stroke-width:1.0;"/><line style="stroke:#A80036;stroke-width:1.0;stroke-dasharray:2.0,2.0;" x1="84.5" x2="422.5" y1="631.9375" y2="631.9375"/><text fill="#000000" font-family="sans-serif" font-size="13" font-weight="bold" lengthAdjust="spacing" textLength="14" x="96.5" y="627.0811">14</text><text fill="#000000" font-family="sans-serif" font-size="13" lengthAdjust="spacing" textLength="183" x="114.5" y="627.0811">Request interval between doses</text><polygon fill="#A80036" points="406.5,658.2891,416.5,662.2891,406.5,666.2891,410.5,662.2891" style="stroke:#A80036;stroke-width:1.0;"/><line style="stroke:#A80036;stroke-width:1.0;" x1="79.5" x2="412.5" y1="662.2891" y2="662.2891"/><text fill="#000000" font-family="sans-serif" font-size="13" font-weight="bold" lengthAdjust="spacing" textLength="14" x="86.5" y="657.4326">15</text><text fill="#000000" font-family="sans-serif" font-size="13" lengthAdjust="spacing" textLength="224" x="104.5" y="657.4326">Type requested interval between doses</text><polygon fill="#A80036" points="90.5,702.6406,80.5,706.6406,90.5,710.6406,86.5,706.6406" style="stroke:#A80036;stroke-width:1.0;"/><line style="stroke:#A80036;stroke-width:1.0;stroke-dasharray:2.0,2.0;" x1="84.5" x2="422.5" y1="706.6406" y2="706.6406"/><text fill="#000000" font-family="sans-serif" font-size="13" font-weight="bold" lengthAdjust="spacing" textLength="14" x="96.5" y="701.7842">16</text><text fill="#000000" font-family="sans-serif" font-size="13" lengthAdjust="spacing" textLength="247" x="114.5" y="701.7842">Shows the data and request a confirmation</text><polygon fill="#A80036" points="406.5,732.9922,416.5,736.9922,406.5,740.9922,410.5,736.9922" style="stroke:#A80036;stroke-width:1.0;"/><line style="stroke:#A80036;stroke-width:1.0;" x1="79.5" x2="412.5" y1="736.9922" y2="736.9922"/><text fill="#000000" font-family="sans-serif" font-size="13" font-weight="bold" lengthAdjust="spacing" textLength="14" x="86.5" y="732.1357">17</text><text fill="#000000" font-family="sans-serif" font-size="13" lengthAdjust="spacing" textLength="102" x="104.5" y="732.1357">Confirms the data</text><polygon fill="#A80036" points="85.5,763.3438,75.5,767.3438,85.5,771.3438,81.5,767.3438" style="stroke:#A80036;stroke-width:1.0;"/><line style="stroke:#A80036;stroke-width:1.0;stroke-dasharray:2.0,2.0;" x1="79.5" x2="422.5" y1="767.3438" y2="767.3438"/><text fill="#000000" font-family="sans-serif" font-size="13" font-weight="bold" lengthAdjust="spacing" textLength="14" x="91.5" y="762.4873">18</text><text fill="#000000" font-family="sans-serif" font-size="13" lengthAdjust="spacing" textLength="152" x="109.5" y="762.4873">Informs operation success</text><!--MD5=[243fcab7fd3e22e4c6257a9d031b117c]
@startuml

autonumber

actor "Administrator" as Admin

activate Admin

"Admin" -> SYSTEM: Create a new vaccine
activate "SYSTEM"
"Admin" <- - SYSTEM: Request for selection of one Vaccine Type
deactivate "SYSTEM"

"Admin" -> SYSTEM: Select Vaccine Type
activate "SYSTEM"

"Admin" <- - SYSTEM: Request brand name
deactivate "SYSTEM"

"Admin" -> SYSTEM: Type requested brand name
activate "SYSTEM"

"Admin" <- - SYSTEM: Request number of doses
deactivate "SYSTEM"

"Admin" -> SYSTEM: Type requested number of doses
activate "SYSTEM"

"Admin" <- - SYSTEM: Request number of different age groups
deactivate "SYSTEM"

"Admin" -> SYSTEM: Type requested number of different age groups
activate "SYSTEM"

loop number of different age groups

"Admin" <- - SYSTEM: Request age group interval
deactivate "SYSTEM"

"Admin" -> SYSTEM: Type requested age group interval
activate "SYSTEM"

end

loop number of different age groups times number of doses

"Admin" <- - SYSTEM: Request dosage for each dose and ageGroup
deactivate "SYSTEM"

"Admin" -> SYSTEM: Type requested dosage for each dose and ageGroup
activate "SYSTEM"

end

alt if number of dose is greater than 1

loop number of doses minus one

"Admin" <- - SYSTEM:  Request interval between doses
deactivate "SYSTEM"

"Admin" -> SYSTEM: Type requested interval between doses
activate "SYSTEM"

end
end

"Admin" <- - SYSTEM: Shows the data and request a confirmation
deactivate "SYSTEM"

"Admin" -> SYSTEM: Confirms the data
activate "SYSTEM"

"Admin" <- - SYSTEM: Informs operation success
deactivate "SYSTEM"

deactivate Admin

@enduml

PlantUML version 1.2022.1(Tue Feb 01 18:19:58 GMT 2022)
(GPL source distribution)
Java Runtime: OpenJDK Runtime Environment
JVM: OpenJDK 64-Bit Server VM
Default Encoding: Cp1252
Language: pt
Country: PT
--></g></svg>