<?xml version="1.0" encoding="UTF-8" standalone="no"?><svg xmlns="http://www.w3.org/2000/svg" xmlns:xlink="http://www.w3.org/1999/xlink" contentScriptType="application/ecmascript" contentStyleType="text/css" height="596px" preserveAspectRatio="none" style="width:440px;height:596px;background:#FFFFFF;" version="1.1" viewBox="0 0 440 596" width="440px" zoomAndPan="magnify"><defs><filter height="300%" id="fer6dj32h2x1u" width="300%" x="-1" y="-1"><feGaussianBlur result="blurOut" stdDeviation="2.0"/><feColorMatrix in="blurOut" result="blurOut2" type="matrix" values="0 0 0 0 0 0 0 0 0 0 0 0 0 0 0 0 0 0 .4 0"/><feOffset dx="4.0" dy="4.0" in="blurOut2" result="blurOut3"/><feBlend in="SourceGraphic" in2="blurOut3" mode="normal"/></filter></defs><g><!--MD5=[02e4b9b7573f1156f41e60aa5b4e25a4]
class Company--><rect codeLine="2" fill="#FEFECE" filter="url(#fer6dj32h2x1u)" height="75.6719" id="Company" style="stroke:#A80036;stroke-width:1.5;" width="115" x="193" y="144"/><ellipse cx="221.5" cy="160" fill="#ADD1B2" rx="11" ry="11" style="stroke:#A80036;stroke-width:1.0;"/><path d="M223.5,156.5 Q223.7031,156 223.9375,155.75 Q224.1719,155.5 224.4375,155.5 Q224.9063,155.5 225.2031,155.7813 Q225.5,156.0625 225.5,156.7188 L225.5,158.2813 Q225.5,158.9375 225.2188,159.2188 Q224.9375,159.5 224.5,159.5 Q224.1094,159.5 223.8594,159.3281 Q223.6094,159.1563 223.5,158.7031 Q223.4531,158.3906 223.2813,158.2188 Q222.9688,157.8906 222.4063,157.7031 Q221.8438,157.5 221.2813,157.5 Q220.5781,157.5 219.9844,157.7813 Q219.4063,158.0625 218.9531,158.6875 Q218.5,159.3125 218.5,160.1719 L218.5,161.0938 Q218.5,162.125 219.3438,162.8125 Q220.1875,163.5 221.6875,163.5 Q222.5781,163.5 223.2031,163.2969 Q223.5625,163.1875 223.9688,162.8281 Q224.2344,162.625 224.375,162.5625 Q224.5156,162.5 224.6875,162.5 Q225.0156,162.5 225.25,162.7656 Q225.5,163.0156 225.5,163.375 Q225.5,163.7188 225.1563,164.125 Q224.6563,164.7188 223.8594,165.0469 Q222.8125,165.5 221.5313,165.5 Q220.0313,165.5 218.8281,164.9063 Q217.8594,164.4375 217.1719,163.4219 Q216.5,162.4063 216.5,161.2031 L216.5,160.1094 Q216.5,158.8594 217.0938,157.7656 Q217.7031,156.6719 218.75,156.0938 Q219.8125,155.5 221,155.5 Q221.7188,155.5 222.3438,155.75 Q222.9688,156 223.5,156.5 Z " fill="#000000"/><text fill="#000000" font-family="sans-serif" font-size="12" lengthAdjust="spacing" textLength="53" x="238.5" y="164.9102">Company</text><line style="stroke:#A80036;stroke-width:1.5;" x1="194" x2="307" y1="176" y2="176"/><rect fill="none" height="6" style="stroke:#C82930;stroke-width:1.0;" width="6" x="201" y="184"/><text fill="#000000" font-family="sans-serif" font-size="11" lengthAdjust="spacing" textLength="55" x="213" y="191.4189">designation</text><line style="stroke:#A80036;stroke-width:1.5;" x1="194" x2="307" y1="197.8359" y2="197.8359"/><ellipse cx="204" cy="208.8359" fill="#84BE84" rx="3" ry="3" style="stroke:#038048;stroke-width:1.0;"/><text fill="#000000" font-family="sans-serif" font-size="11" lengthAdjust="spacing" textLength="89" x="213" y="213.2549">getVaccineStore()</text><!--MD5=[f569afd9272271957300b6d3f7825f41]
class NewVaccineUI--><rect codeLine="6" fill="#FEFECE" filter="url(#fer6dj32h2x1u)" height="48" id="NewVaccineUI" style="stroke:#A80036;stroke-width:1.5;" width="112" x="125.5" y="21"/><ellipse cx="140.5" cy="37" fill="#ADD1B2" rx="11" ry="11" style="stroke:#A80036;stroke-width:1.0;"/><path d="M142.5,33.5 Q142.7031,33 142.9375,32.75 Q143.1719,32.5 143.4375,32.5 Q143.9063,32.5 144.2031,32.7813 Q144.5,33.0625 144.5,33.7188 L144.5,35.2813 Q144.5,35.9375 144.2188,36.2188 Q143.9375,36.5 143.5,36.5 Q143.1094,36.5 142.8594,36.3281 Q142.6094,36.1563 142.5,35.7031 Q142.4531,35.3906 142.2813,35.2188 Q141.9688,34.8906 141.4063,34.7031 Q140.8438,34.5 140.2813,34.5 Q139.5781,34.5 138.9844,34.7813 Q138.4063,35.0625 137.9531,35.6875 Q137.5,36.3125 137.5,37.1719 L137.5,38.0938 Q137.5,39.125 138.3438,39.8125 Q139.1875,40.5 140.6875,40.5 Q141.5781,40.5 142.2031,40.2969 Q142.5625,40.1875 142.9688,39.8281 Q143.2344,39.625 143.375,39.5625 Q143.5156,39.5 143.6875,39.5 Q144.0156,39.5 144.25,39.7656 Q144.5,40.0156 144.5,40.375 Q144.5,40.7188 144.1563,41.125 Q143.6563,41.7188 142.8594,42.0469 Q141.8125,42.5 140.5313,42.5 Q139.0313,42.5 137.8281,41.9063 Q136.8594,41.4375 136.1719,40.4219 Q135.5,39.4063 135.5,38.2031 L135.5,37.1094 Q135.5,35.8594 136.0938,34.7656 Q136.7031,33.6719 137.75,33.0938 Q138.8125,32.5 140,32.5 Q140.7188,32.5 141.3438,32.75 Q141.9688,33 142.5,33.5 Z " fill="#000000"/><text fill="#000000" font-family="sans-serif" font-size="12" lengthAdjust="spacing" textLength="80" x="154.5" y="41.9102">NewVaccineUI</text><line style="stroke:#A80036;stroke-width:1.5;" x1="126.5" x2="236.5" y1="53" y2="53"/><line style="stroke:#A80036;stroke-width:1.5;" x1="126.5" x2="236.5" y1="61" y2="61"/><!--MD5=[b544bdeb8009592daad59703134949fe]
class NewVaccineController--><rect codeLine="7" fill="#FEFECE" filter="url(#fer6dj32h2x1u)" height="75.6719" id="NewVaccineController" style="stroke:#A80036;stroke-width:1.5;" width="154" x="272.5" y="7"/><ellipse cx="287.5" cy="23" fill="#ADD1B2" rx="11" ry="11" style="stroke:#A80036;stroke-width:1.0;"/><path d="M289.5,19.5 Q289.7031,19 289.9375,18.75 Q290.1719,18.5 290.4375,18.5 Q290.9063,18.5 291.2031,18.7813 Q291.5,19.0625 291.5,19.7188 L291.5,21.2813 Q291.5,21.9375 291.2188,22.2188 Q290.9375,22.5 290.5,22.5 Q290.1094,22.5 289.8594,22.3281 Q289.6094,22.1563 289.5,21.7031 Q289.4531,21.3906 289.2813,21.2188 Q288.9688,20.8906 288.4063,20.7031 Q287.8438,20.5 287.2813,20.5 Q286.5781,20.5 285.9844,20.7813 Q285.4063,21.0625 284.9531,21.6875 Q284.5,22.3125 284.5,23.1719 L284.5,24.0938 Q284.5,25.125 285.3438,25.8125 Q286.1875,26.5 287.6875,26.5 Q288.5781,26.5 289.2031,26.2969 Q289.5625,26.1875 289.9688,25.8281 Q290.2344,25.625 290.375,25.5625 Q290.5156,25.5 290.6875,25.5 Q291.0156,25.5 291.25,25.7656 Q291.5,26.0156 291.5,26.375 Q291.5,26.7188 291.1563,27.125 Q290.6563,27.7188 289.8594,28.0469 Q288.8125,28.5 287.5313,28.5 Q286.0313,28.5 284.8281,27.9063 Q283.8594,27.4375 283.1719,26.4219 Q282.5,25.4063 282.5,24.2031 L282.5,23.1094 Q282.5,21.8594 283.0938,20.7656 Q283.7031,19.6719 284.75,19.0938 Q285.8125,18.5 287,18.5 Q287.7188,18.5 288.3438,18.75 Q288.9688,19 289.5,19.5 Z " fill="#000000"/><text fill="#000000" font-family="sans-serif" font-size="12" lengthAdjust="spacing" textLength="122" x="301.5" y="27.9102">NewVaccineController</text><line style="stroke:#A80036;stroke-width:1.5;" x1="273.5" x2="425.5" y1="39" y2="39"/><line style="stroke:#A80036;stroke-width:1.5;" x1="273.5" x2="425.5" y1="47" y2="47"/><ellipse cx="283.5" cy="58" fill="#84BE84" rx="3" ry="3" style="stroke:#038048;stroke-width:1.0;"/><text fill="#000000" font-family="sans-serif" font-size="11" lengthAdjust="spacing" textLength="102" x="292.5" y="62.4189">createNewVaccine()</text><ellipse cx="283.5" cy="71.8359" fill="#84BE84" rx="3" ry="3" style="stroke:#038048;stroke-width:1.0;"/><text fill="#000000" font-family="sans-serif" font-size="11" lengthAdjust="spacing" textLength="95" x="292.5" y="76.2549">saveNewVaccine()</text><!--MD5=[16e898dea44373438d7a6991ca77efa0]
class VaccineStore--><rect codeLine="12" fill="#FEFECE" filter="url(#fer6dj32h2x1u)" height="103.3438" id="VaccineStore" style="stroke:#A80036;stroke-width:1.5;" width="327" x="7" y="298"/><ellipse cx="130.25" cy="314" fill="#ADD1B2" rx="11" ry="11" style="stroke:#A80036;stroke-width:1.0;"/><path d="M132.25,310.5 Q132.4531,310 132.6875,309.75 Q132.9219,309.5 133.1875,309.5 Q133.6563,309.5 133.9531,309.7813 Q134.25,310.0625 134.25,310.7188 L134.25,312.2813 Q134.25,312.9375 133.9688,313.2188 Q133.6875,313.5 133.25,313.5 Q132.8594,313.5 132.6094,313.3281 Q132.3594,313.1563 132.25,312.7031 Q132.2031,312.3906 132.0313,312.2188 Q131.7188,311.8906 131.1563,311.7031 Q130.5938,311.5 130.0313,311.5 Q129.3281,311.5 128.7344,311.7813 Q128.1563,312.0625 127.7031,312.6875 Q127.25,313.3125 127.25,314.1719 L127.25,315.0938 Q127.25,316.125 128.0938,316.8125 Q128.9375,317.5 130.4375,317.5 Q131.3281,317.5 131.9531,317.2969 Q132.3125,317.1875 132.7188,316.8281 Q132.9844,316.625 133.125,316.5625 Q133.2656,316.5 133.4375,316.5 Q133.7656,316.5 134,316.7656 Q134.25,317.0156 134.25,317.375 Q134.25,317.7188 133.9063,318.125 Q133.4063,318.7188 132.6094,319.0469 Q131.5625,319.5 130.2813,319.5 Q128.7813,319.5 127.5781,318.9063 Q126.6094,318.4375 125.9219,317.4219 Q125.25,316.4063 125.25,315.2031 L125.25,314.1094 Q125.25,312.8594 125.8438,311.7656 Q126.4531,310.6719 127.5,310.0938 Q128.5625,309.5 129.75,309.5 Q130.4688,309.5 131.0938,309.75 Q131.7188,310 132.25,310.5 Z " fill="#000000"/><text fill="#000000" font-family="sans-serif" font-size="12" lengthAdjust="spacing" textLength="72" x="150.75" y="318.9102">VaccineStore</text><line style="stroke:#A80036;stroke-width:1.5;" x1="8" x2="333" y1="330" y2="330"/><line style="stroke:#A80036;stroke-width:1.5;" x1="8" x2="333" y1="338" y2="338"/><ellipse cx="18" cy="349" fill="#84BE84" rx="3" ry="3" style="stroke:#038048;stroke-width:1.0;"/><text fill="#000000" font-family="sans-serif" font-size="11" lengthAdjust="spacing" textLength="301" x="27" y="353.4189">createNewVaccine(brand, ageGroup,dosage, intervalDosage)</text><ellipse cx="18" cy="362.8359" fill="#84BE84" rx="3" ry="3" style="stroke:#038048;stroke-width:1.0;"/><text fill="#000000" font-family="sans-serif" font-size="11" lengthAdjust="spacing" textLength="146" x="27" y="367.2549">validateNewVaccineLocal(nv)</text><ellipse cx="18" cy="376.6719" fill="#84BE84" rx="3" ry="3" style="stroke:#038048;stroke-width:1.0;"/><text fill="#000000" font-family="sans-serif" font-size="11" lengthAdjust="spacing" textLength="150" x="27" y="381.0908">validateNewVaccineGlobal(nv)</text><ellipse cx="18" cy="390.5078" fill="#84BE84" rx="3" ry="3" style="stroke:#038048;stroke-width:1.0;"/><text fill="#000000" font-family="sans-serif" font-size="11" lengthAdjust="spacing" textLength="101" x="27" y="394.9268">addNewVaccine(nv)</text><!--MD5=[19e445fc4d3b48519cbe33da05496394]
class Vaccine--><rect codeLine="18" fill="#FEFECE" filter="url(#fer6dj32h2x1u)" height="103.3438" id="Vaccine" style="stroke:#A80036;stroke-width:1.5;" width="98" x="230.5" y="479"/><ellipse cx="255.85" cy="495" fill="#ADD1B2" rx="11" ry="11" style="stroke:#A80036;stroke-width:1.0;"/><path d="M257.85,491.5 Q258.0531,491 258.2875,490.75 Q258.5219,490.5 258.7875,490.5 Q259.2563,490.5 259.5531,490.7813 Q259.85,491.0625 259.85,491.7188 L259.85,493.2813 Q259.85,493.9375 259.5688,494.2188 Q259.2875,494.5 258.85,494.5 Q258.4594,494.5 258.2094,494.3281 Q257.9594,494.1563 257.85,493.7031 Q257.8031,493.3906 257.6313,493.2188 Q257.3188,492.8906 256.7563,492.7031 Q256.1938,492.5 255.6313,492.5 Q254.9281,492.5 254.3344,492.7813 Q253.7563,493.0625 253.3031,493.6875 Q252.85,494.3125 252.85,495.1719 L252.85,496.0938 Q252.85,497.125 253.6938,497.8125 Q254.5375,498.5 256.0375,498.5 Q256.9281,498.5 257.5531,498.2969 Q257.9125,498.1875 258.3188,497.8281 Q258.5844,497.625 258.725,497.5625 Q258.8656,497.5 259.0375,497.5 Q259.3656,497.5 259.6,497.7656 Q259.85,498.0156 259.85,498.375 Q259.85,498.7188 259.5063,499.125 Q259.0063,499.7188 258.2094,500.0469 Q257.1625,500.5 255.8813,500.5 Q254.3813,500.5 253.1781,499.9063 Q252.2094,499.4375 251.5219,498.4219 Q250.85,497.4063 250.85,496.2031 L250.85,495.1094 Q250.85,493.8594 251.4438,492.7656 Q252.0531,491.6719 253.1,491.0938 Q254.1625,490.5 255.35,490.5 Q256.0688,490.5 256.6938,490.75 Q257.3188,491 257.85,491.5 Z " fill="#000000"/><text fill="#000000" font-family="sans-serif" font-size="12" lengthAdjust="spacing" textLength="43" x="272.15" y="499.9102">Vaccine</text><line style="stroke:#A80036;stroke-width:1.5;" x1="231.5" x2="327.5" y1="511" y2="511"/><rect fill="none" height="6" style="stroke:#C82930;stroke-width:1.0;" width="6" x="238.5" y="519"/><text fill="#000000" font-family="sans-serif" font-size="11" lengthAdjust="spacing" textLength="28" x="250.5" y="526.4189">brand</text><rect fill="none" height="6" style="stroke:#C82930;stroke-width:1.0;" width="6" x="238.5" y="532.8359"/><text fill="#000000" font-family="sans-serif" font-size="11" lengthAdjust="spacing" textLength="48" x="250.5" y="540.2549">ageGroup</text><rect fill="none" height="6" style="stroke:#C82930;stroke-width:1.0;" width="6" x="238.5" y="546.6719"/><text fill="#000000" font-family="sans-serif" font-size="11" lengthAdjust="spacing" textLength="36" x="250.5" y="554.0908">dosage</text><rect fill="none" height="6" style="stroke:#C82930;stroke-width:1.0;" width="6" x="238.5" y="560.5078"/><text fill="#000000" font-family="sans-serif" font-size="11" lengthAdjust="spacing" textLength="72" x="250.5" y="567.9268">intervalDosage</text><line style="stroke:#A80036;stroke-width:1.5;" x1="231.5" x2="327.5" y1="574.3438" y2="574.3438"/><!--MD5=[dfc247278aac100883c76934d392fa3c]
link NewVaccineUI to NewVaccineController--><path codeLine="25" d="M237.61,45 C247.41,45 257.21,45 267.01,45 " fill="none" id="NewVaccineUI-to-NewVaccineController" style="stroke:#A80036;stroke-width:1.0;stroke-dasharray:7.0,7.0;"/><polygon fill="#A80036" points="272.14,45,263.14,41,267.14,45,263.14,49,272.14,45" style="stroke:#A80036;stroke-width:1.0;"/><!--MD5=[ef8bee665db2d6680aaae8921349e302]
link NewVaccineController to Company--><path codeLine="26" d="M322.19,83.25 C309.31,100.81 293.91,121.81 280.69,139.84 " fill="none" id="NewVaccineController-to-Company" style="stroke:#A80036;stroke-width:1.0;stroke-dasharray:7.0,7.0;"/><polygon fill="#A80036" points="277.73,143.87,286.2801,138.9818,280.6887,139.8393,279.8311,134.2479,277.73,143.87" style="stroke:#A80036;stroke-width:1.0;"/><!--MD5=[dafc3ad0e179f3897c7ab7578eee9ba7]
link NewVaccineController to Vaccine--><path codeLine="27" d="M355.89,83.06 C365.81,148.51 380.92,288.29 351.5,401 C344.78,426.75 331.62,452.8 318.38,474.65 " fill="none" id="NewVaccineController-to-Vaccine" style="stroke:#A80036;stroke-width:1.0;stroke-dasharray:7.0,7.0;"/><polygon fill="#A80036" points="315.73,478.96,323.84,473.3717,318.3401,474.6954,317.0165,469.1955,315.73,478.96" style="stroke:#A80036;stroke-width:1.0;"/><!--MD5=[f2e0045a3c67c0696cf082af1b4c8493]
link Company to VaccineStore--><path codeLine="28" d="M232.55,220.14 C222.14,241.67 208.83,269.2 197.22,293.23 " fill="none" id="Company-to-VaccineStore" style="stroke:#A80036;stroke-width:1.0;"/><polygon fill="#A80036" points="194.92,297.99,202.4338,291.6227,197.0929,293.4869,195.2288,288.146,194.92,297.99" style="stroke:#A80036;stroke-width:1.0;"/><text fill="#000000" font-family="sans-serif" font-size="13" lengthAdjust="spacing" textLength="28" x="219.5" y="264.4951">uses</text><text fill="#000000" font-family="sans-serif" font-size="13" lengthAdjust="spacing" textLength="7" x="222.1314" y="241.0428">1</text><text fill="#000000" font-family="sans-serif" font-size="13" lengthAdjust="spacing" textLength="7" x="190.8619" y="287.1171">1</text><!--MD5=[89791a9cd8c9c78fd39f4b892a053799]
link VaccineStore to Vaccine--><path codeLine="29" d="M201.44,401.32 C215.37,424.18 231.83,451.22 246.04,474.56 " fill="none" id="VaccineStore-to-Vaccine" style="stroke:#A80036;stroke-width:1.0;"/><polygon fill="#A80036" points="248.67,478.87,247.4073,469.1024,246.0703,474.599,240.5737,473.262,248.67,478.87" style="stroke:#A80036;stroke-width:1.0;"/><text fill="#000000" font-family="sans-serif" font-size="13" lengthAdjust="spacing" textLength="37" x="229.5" y="445.4951">knows</text><text fill="#000000" font-family="sans-serif" font-size="13" lengthAdjust="spacing" textLength="7" x="198.1273" y="422.854">1</text><text fill="#000000" font-family="sans-serif" font-size="13" lengthAdjust="spacing" textLength="5" x="238.983" y="467.9802">*</text><!--MD5=[d7b2d64466a69317d074263576d3ab92]
@startuml

class Company{
- designation
+ getVaccineStore()
}
class NewVaccineUI
class NewVaccineController{
+ createNewVaccine()
+ saveNewVaccine()
}

class VaccineStore{
+ createNewVaccine(brand, ageGroup,dosage, intervalDosage)
+ validateNewVaccineLocal(nv)
+ validateNewVaccineGlobal(nv)
+ addNewVaccine(nv)
}
class Vaccine{
- brand
- ageGroup
- dosage
- intervalDosage
}

NewVaccineUI .> NewVaccineController
NewVaccineController ..> Company
NewVaccineController ..> Vaccine
Company"1" - ->  "1"VaccineStore : uses
VaccineStore"1" - -> "*"Vaccine : knows
@enduml

PlantUML version 1.2022.1(Tue Feb 01 18:19:58 GMT 2022)
(GPL source distribution)
Java Runtime: OpenJDK Runtime Environment
JVM: OpenJDK 64-Bit Server VM
Default Encoding: Cp1252
Language: pt
Country: PT
--></g></svg>