<?xml version="1.0" encoding="UTF-8" standalone="no"?><svg xmlns="http://www.w3.org/2000/svg" xmlns:xlink="http://www.w3.org/1999/xlink" contentStyleType="text/css" height="964px" preserveAspectRatio="none" style="width:1189px;height:964px;background:#FFFFFF;" version="1.1" viewBox="0 0 1189 964" width="1189px" zoomAndPan="magnify"><defs/><g><rect height="27.6094" style="stroke:#00000000;stroke-width:1.0;fill:none;" width="291" x="448" y="10"/><text fill="#000000" font-family="sans-serif" font-size="14" font-weight="bold" lengthAdjust="spacing" textLength="281" x="453" y="29.5332">US017_SD_CreateVaccineAdministration</text><rect fill="#FFFFFF" height="831.2734" style="stroke:#181818;stroke-width:1.0;" width="10" x="244" y="108.5703"/><rect fill="#FFFFFF" height="30" style="stroke:#181818;stroke-width:1.0;" width="10" x="553" y="138.9219"/><rect fill="#FFFFFF" height="30" style="stroke:#181818;stroke-width:1.0;" width="10" x="553" y="199.2734"/><rect fill="#FFFFFF" height="30" style="stroke:#181818;stroke-width:1.0;" width="10" x="553" y="259.625"/><rect fill="#FFFFFF" height="30" style="stroke:#181818;stroke-width:1.0;" width="10" x="553" y="319.9766"/><rect fill="#FFFFFF" height="30" style="stroke:#181818;stroke-width:1.0;" width="10" x="553" y="380.3281"/><rect fill="#FFFFFF" height="30" style="stroke:#181818;stroke-width:1.0;" width="10" x="553" y="440.6797"/><rect fill="#FFFFFF" height="30" style="stroke:#181818;stroke-width:1.0;" width="10" x="553" y="501.0313"/><rect fill="#FFFFFF" height="30" style="stroke:#181818;stroke-width:1.0;" width="10" x="553" y="561.3828"/><rect fill="#FFFFFF" height="30" style="stroke:#181818;stroke-width:1.0;" width="10" x="553" y="621.7344"/><rect fill="#FFFFFF" height="30" style="stroke:#181818;stroke-width:1.0;" width="10" x="553" y="682.0859"/><rect fill="#FFFFFF" height="30" style="stroke:#181818;stroke-width:1.0;" width="10" x="553" y="742.4375"/><rect fill="#FFFFFF" height="30" style="stroke:#181818;stroke-width:1.0;" width="10" x="553" y="802.7891"/><rect fill="#FFFFFF" height="30" style="stroke:#181818;stroke-width:1.0;" width="10" x="553" y="863.1406"/><line style="stroke:#181818;stroke-width:0.5;stroke-dasharray:5.0,5.0;" x1="248.5" x2="248.5" y1="76.2188" y2="957.8438"/><line style="stroke:#181818;stroke-width:0.5;stroke-dasharray:5.0,5.0;" x1="557.5" x2="557.5" y1="76.2188" y2="957.8438"/><line style="stroke:#181818;stroke-width:0.5;stroke-dasharray:5.0,5.0;" x1="1104" x2="1104" y1="934.4922" y2="957.8438"/><rect fill="#E2E2F0" height="31.6094" rx="2.5" ry="2.5" style="stroke:#181818;stroke-width:0.5;" width="201" x="148.5" y="43.6094"/><text fill="#000000" font-family="sans-serif" font-size="14" lengthAdjust="spacing" textLength="187" x="155.5" y="65.1426">VaccineAdministrationMapper</text><rect fill="#E2E2F0" height="31.6094" rx="2.5" ry="2.5" style="stroke:#181818;stroke-width:0.5;" width="183" x="466.5" y="43.6094"/><text fill="#000000" font-family="sans-serif" font-size="14" lengthAdjust="spacing" textLength="169" x="473.5" y="65.1426">VaccineAdministrationDTO</text><rect fill="#FFFFFF" height="831.2734" style="stroke:#181818;stroke-width:1.0;" width="10" x="244" y="108.5703"/><rect fill="#FFFFFF" height="30" style="stroke:#181818;stroke-width:1.0;" width="10" x="553" y="138.9219"/><rect fill="#FFFFFF" height="30" style="stroke:#181818;stroke-width:1.0;" width="10" x="553" y="199.2734"/><rect fill="#FFFFFF" height="30" style="stroke:#181818;stroke-width:1.0;" width="10" x="553" y="259.625"/><rect fill="#FFFFFF" height="30" style="stroke:#181818;stroke-width:1.0;" width="10" x="553" y="319.9766"/><rect fill="#FFFFFF" height="30" style="stroke:#181818;stroke-width:1.0;" width="10" x="553" y="380.3281"/><rect fill="#FFFFFF" height="30" style="stroke:#181818;stroke-width:1.0;" width="10" x="553" y="440.6797"/><rect fill="#FFFFFF" height="30" style="stroke:#181818;stroke-width:1.0;" width="10" x="553" y="501.0313"/><rect fill="#FFFFFF" height="30" style="stroke:#181818;stroke-width:1.0;" width="10" x="553" y="561.3828"/><rect fill="#FFFFFF" height="30" style="stroke:#181818;stroke-width:1.0;" width="10" x="553" y="621.7344"/><rect fill="#FFFFFF" height="30" style="stroke:#181818;stroke-width:1.0;" width="10" x="553" y="682.0859"/><rect fill="#FFFFFF" height="30" style="stroke:#181818;stroke-width:1.0;" width="10" x="553" y="742.4375"/><rect fill="#FFFFFF" height="30" style="stroke:#181818;stroke-width:1.0;" width="10" x="553" y="802.7891"/><rect fill="#FFFFFF" height="30" style="stroke:#181818;stroke-width:1.0;" width="10" x="553" y="863.1406"/><ellipse cx="7.5" cy="107.8203" fill="none" rx="4" ry="4" style="stroke:#181818;stroke-width:1.5;"/><polygon fill="#181818" points="232,104.5703,242,108.5703,232,112.5703,236,108.5703" style="stroke:#181818;stroke-width:1.0;"/><line style="stroke:#181818;stroke-width:1.0;" x1="12" x2="238" y1="108.5703" y2="108.5703"/><text fill="#000000" font-family="sans-serif" font-size="13" font-weight="bold" lengthAdjust="spacing" textLength="7" x="15" y="103.7139">1</text><text fill="#000000" font-family="sans-serif" font-size="13" lengthAdjust="spacing" textLength="206" x="26" y="103.7139">toModel(vaccineAdministrationDTO)</text><polygon fill="#181818" points="541,134.9219,551,138.9219,541,142.9219,545,138.9219" style="stroke:#181818;stroke-width:1.0;"/><line style="stroke:#181818;stroke-width:1.0;" x1="254" x2="547" y1="138.9219" y2="138.9219"/><text fill="#000000" font-family="sans-serif" font-size="13" font-weight="bold" lengthAdjust="spacing" textLength="7" x="261" y="134.0654">2</text><text fill="#000000" font-family="sans-serif" font-size="13" lengthAdjust="spacing" textLength="250" x="272" y="134.0654">vaccinationCenter = getVaccinationCenter()</text><polygon fill="#181818" points="541,195.2734,551,199.2734,541,203.2734,545,199.2734" style="stroke:#181818;stroke-width:1.0;"/><line style="stroke:#181818;stroke-width:1.0;" x1="254" x2="547" y1="199.2734" y2="199.2734"/><text fill="#000000" font-family="sans-serif" font-size="13" font-weight="bold" lengthAdjust="spacing" textLength="7" x="261" y="194.417">3</text><text fill="#000000" font-family="sans-serif" font-size="13" lengthAdjust="spacing" textLength="176" x="272" y="194.417">snsNumber = getSnsNumber()</text><polygon fill="#181818" points="541,255.625,551,259.625,541,263.625,545,259.625" style="stroke:#181818;stroke-width:1.0;"/><line style="stroke:#181818;stroke-width:1.0;" x1="254" x2="547" y1="259.625" y2="259.625"/><text fill="#000000" font-family="sans-serif" font-size="13" font-weight="bold" lengthAdjust="spacing" textLength="7" x="261" y="254.7686">4</text><text fill="#000000" font-family="sans-serif" font-size="13" lengthAdjust="spacing" textLength="200" x="272" y="254.7686">vaccineName = getVaccineName()</text><polygon fill="#181818" points="541,315.9766,551,319.9766,541,323.9766,545,319.9766" style="stroke:#181818;stroke-width:1.0;"/><line style="stroke:#181818;stroke-width:1.0;" x1="254" x2="547" y1="319.9766" y2="319.9766"/><text fill="#000000" font-family="sans-serif" font-size="13" font-weight="bold" lengthAdjust="spacing" textLength="7" x="261" y="315.1201">5</text><text fill="#000000" font-family="sans-serif" font-size="13" lengthAdjust="spacing" textLength="190" x="272" y="315.1201">doseNumber = getDoseNumber()</text><polygon fill="#181818" points="541,376.3281,551,380.3281,541,384.3281,545,380.3281" style="stroke:#181818;stroke-width:1.0;"/><line style="stroke:#181818;stroke-width:1.0;" x1="254" x2="547" y1="380.3281" y2="380.3281"/><text fill="#000000" font-family="sans-serif" font-size="13" font-weight="bold" lengthAdjust="spacing" textLength="7" x="261" y="375.4717">6</text><text fill="#000000" font-family="sans-serif" font-size="13" lengthAdjust="spacing" textLength="164" x="272" y="375.4717">lotNumber = getLotNumber()</text><polygon fill="#181818" points="541,436.6797,551,440.6797,541,444.6797,545,440.6797" style="stroke:#181818;stroke-width:1.0;"/><line style="stroke:#181818;stroke-width:1.0;" x1="254" x2="547" y1="440.6797" y2="440.6797"/><text fill="#000000" font-family="sans-serif" font-size="13" font-weight="bold" lengthAdjust="spacing" textLength="7" x="261" y="435.8232">7</text><text fill="#000000" font-family="sans-serif" font-size="13" lengthAdjust="spacing" textLength="202" x="272" y="435.8232">scheduleData = getScheduleData()</text><polygon fill="#181818" points="541,497.0313,551,501.0313,541,505.0313,545,501.0313" style="stroke:#181818;stroke-width:1.0;"/><line style="stroke:#181818;stroke-width:1.0;" x1="254" x2="547" y1="501.0313" y2="501.0313"/><text fill="#000000" font-family="sans-serif" font-size="13" font-weight="bold" lengthAdjust="spacing" textLength="7" x="261" y="496.1748">8</text><text fill="#000000" font-family="sans-serif" font-size="13" lengthAdjust="spacing" textLength="204" x="272" y="496.1748">scheduleTime = getScheduleTime()</text><polygon fill="#181818" points="541,557.3828,551,561.3828,541,565.3828,545,561.3828" style="stroke:#181818;stroke-width:1.0;"/><line style="stroke:#181818;stroke-width:1.0;" x1="254" x2="547" y1="561.3828" y2="561.3828"/><text fill="#000000" font-family="sans-serif" font-size="13" font-weight="bold" lengthAdjust="spacing" textLength="7" x="261" y="556.5264">9</text><text fill="#000000" font-family="sans-serif" font-size="13" lengthAdjust="spacing" textLength="164" x="272" y="556.5264">arrivalDate = getArrivalDate()</text><polygon fill="#181818" points="541,617.7344,551,621.7344,541,625.7344,545,621.7344" style="stroke:#181818;stroke-width:1.0;"/><line style="stroke:#181818;stroke-width:1.0;" x1="254" x2="547" y1="621.7344" y2="621.7344"/><text fill="#000000" font-family="sans-serif" font-size="13" font-weight="bold" lengthAdjust="spacing" textLength="14" x="261" y="616.8779">10</text><text fill="#000000" font-family="sans-serif" font-size="13" lengthAdjust="spacing" textLength="166" x="279" y="616.8779">arrivalTime = getArrivalTime()</text><polygon fill="#181818" points="541,678.0859,551,682.0859,541,686.0859,545,682.0859" style="stroke:#181818;stroke-width:1.0;"/><line style="stroke:#181818;stroke-width:1.0;" x1="254" x2="547" y1="682.0859" y2="682.0859"/><text fill="#000000" font-family="sans-serif" font-size="13" font-weight="bold" lengthAdjust="spacing" textLength="14" x="261" y="677.2295">11</text><text fill="#000000" font-family="sans-serif" font-size="13" lengthAdjust="spacing" textLength="260" x="279" y="677.2295">administrationDate = getAdministrationDate()</text><polygon fill="#181818" points="541,738.4375,551,742.4375,541,746.4375,545,742.4375" style="stroke:#181818;stroke-width:1.0;"/><line style="stroke:#181818;stroke-width:1.0;" x1="254" x2="547" y1="742.4375" y2="742.4375"/><text fill="#000000" font-family="sans-serif" font-size="13" font-weight="bold" lengthAdjust="spacing" textLength="14" x="261" y="737.5811">12</text><text fill="#000000" font-family="sans-serif" font-size="13" lengthAdjust="spacing" textLength="262" x="279" y="737.5811">administrationTime = getAdministrationTime()</text><polygon fill="#181818" points="541,798.7891,551,802.7891,541,806.7891,545,802.7891" style="stroke:#181818;stroke-width:1.0;"/><line style="stroke:#181818;stroke-width:1.0;" x1="254" x2="547" y1="802.7891" y2="802.7891"/><text fill="#000000" font-family="sans-serif" font-size="13" font-weight="bold" lengthAdjust="spacing" textLength="14" x="261" y="797.9326">13</text><text fill="#000000" font-family="sans-serif" font-size="13" lengthAdjust="spacing" textLength="178" x="279" y="797.9326">leavingDate = getLeavingDate()</text><polygon fill="#181818" points="541,859.1406,551,863.1406,541,867.1406,545,863.1406" style="stroke:#181818;stroke-width:1.0;"/><line style="stroke:#181818;stroke-width:1.0;" x1="254" x2="547" y1="863.1406" y2="863.1406"/><text fill="#000000" font-family="sans-serif" font-size="13" font-weight="bold" lengthAdjust="spacing" textLength="14" x="261" y="858.2842">14</text><text fill="#000000" font-family="sans-serif" font-size="13" lengthAdjust="spacing" textLength="179" x="279" y="858.2842">leavingTime = getLeavingDate()</text><polygon fill="#181818" points="1014,935.8438,1024,939.8438,1014,943.8438,1018,939.8438" style="stroke:#181818;stroke-width:1.0;"/><line style="stroke:#181818;stroke-width:1.0;" x1="249" x2="1020" y1="939.8438" y2="939.8438"/><text fill="#000000" font-family="sans-serif" font-size="13" font-weight="bold" lengthAdjust="spacing" textLength="14" x="256" y="926.8115">15</text><text fill="#000000" font-family="sans-serif" font-size="13" lengthAdjust="spacing" textLength="726" x="274" y="918.6357">VaccineAdministration(vaccinationCenter, snsNumber,  vaccineName, doseNumber, lotNumber, scheduleData, scheduleTime,</text><text fill="#000000" font-family="sans-serif" font-size="13" lengthAdjust="spacing" textLength="515" x="274" y="934.9873">arrivalDate, arrivalTime, administrationDate, administrationTime, leavingDate, leavingTime)</text><rect fill="#E2E2F0" height="31.6094" rx="2.5" ry="2.5" style="stroke:#181818;stroke-width:0.5;" width="157" x="1026" y="905.2344"/><text fill="#000000" font-family="sans-serif" font-size="14" lengthAdjust="spacing" textLength="143" x="1033" y="926.7676">:VaccineAdministration</text><!--MD5=[012af5f271a2aecd28b408855dcd426c]
@startuml
title US017_SD_CreateVaccineAdministration
participant VaccineAdministrationMapper as VAM
participant VaccineAdministrationDTO as VADTO
participant ":VaccineAdministration" as VA

hide footbox
autonumber

[o-> VAM : toModel(vaccineAdministrationDTO)
activate VAM
VAM -> VADTO : vaccinationCenter = getVaccinationCenter()
activate VADTO
deactivate VADTO
VAM -> VADTO : snsNumber = getSnsNumber()
activate VADTO
deactivate VADTO
VAM -> VADTO : vaccineName = getVaccineName()
activate VADTO
deactivate VADTO
VAM -> VADTO : doseNumber = getDoseNumber()
activate VADTO
deactivate VADTO
VAM -> VADTO : lotNumber = getLotNumber()
activate VADTO
deactivate VADTO
VAM -> VADTO : scheduleData = getScheduleData()
activate VADTO
deactivate VADTO
VAM -> VADTO : scheduleTime = getScheduleTime()
activate VADTO
deactivate VADTO
VAM -> VADTO : arrivalDate = getArrivalDate()
activate VADTO
deactivate VADTO
VAM -> VADTO : arrivalTime = getArrivalTime()
activate VADTO
deactivate VADTO
VAM -> VADTO : administrationDate = getAdministrationDate()
activate VADTO
deactivate VADTO
VAM -> VADTO : administrationTime = getAdministrationTime()
activate VADTO
deactivate VADTO
VAM -> VADTO : leavingDate = getLeavingDate()
activate VADTO
deactivate VADTO
VAM -> VADTO : leavingTime = getLeavingDate()
activate VADTO
deactivate VADTO
VAM -> VA ** : VaccineAdministration(vaccinationCenter, snsNumber,  vaccineName, doseNumber, lotNumber, scheduleData, scheduleTime, \narrivalDate, arrivalTime, administrationDate, administrationTime, leavingDate, leavingTime)
deactivate VAM

@enduml

PlantUML version 1.2022.4(Sat Apr 09 14:29:17 BST 2022)
(GPL source distribution)
Java Runtime: OpenJDK Runtime Environment
JVM: OpenJDK 64-Bit Server VM
Default Encoding: Cp1252
Language: pt
Country: PT
--></g></svg>