<?xml version="1.0" encoding="UTF-8" standalone="no"?><svg xmlns="http://www.w3.org/2000/svg" xmlns:xlink="http://www.w3.org/1999/xlink" contentStyleType="text/css" height="1199px" preserveAspectRatio="none" style="width:1941px;height:1199px;background:#FFFFFF;" version="1.1" viewBox="0 0 1941 1199" width="1941px" zoomAndPan="magnify"><defs/><g><rect height="27.6094" style="stroke:#00000000;stroke-width:1.0;fill:none;" width="315" x="814.5" y="10"/><text fill="#000000" font-family="sans-serif" font-size="14" font-weight="bold" lengthAdjust="spacing" textLength="305" x="819.5" y="29.5332">US017_SD_VaccineAdministrationListToDTO</text><rect fill="#FFFFFF" height="1075.1953" style="stroke:#181818;stroke-width:1.0;" width="10" x="230" y="108.5703"/><rect fill="#FFFFFF" height="819.9219" style="stroke:#181818;stroke-width:1.0;" width="10" x="235" y="275.2344"/><rect fill="#FFFFFF" height="30" style="stroke:#181818;stroke-width:1.0;" width="10" x="604" y="1137.7656"/><rect fill="#FFFFFF" height="30" style="stroke:#181818;stroke-width:1.0;" width="10" x="1038" y="206.8828"/><rect fill="#FFFFFF" height="30" style="stroke:#181818;stroke-width:1.0;" width="10" x="1397" y="310.5859"/><rect fill="#FFFFFF" height="30" style="stroke:#181818;stroke-width:1.0;" width="10" x="1397" y="370.9375"/><rect fill="#FFFFFF" height="30" style="stroke:#181818;stroke-width:1.0;" width="10" x="1397" y="431.2891"/><rect fill="#FFFFFF" height="30" style="stroke:#181818;stroke-width:1.0;" width="10" x="1397" y="491.6406"/><rect fill="#FFFFFF" height="30" style="stroke:#181818;stroke-width:1.0;" width="10" x="1397" y="551.9922"/><rect fill="#FFFFFF" height="30" style="stroke:#181818;stroke-width:1.0;" width="10" x="1397" y="612.3438"/><rect fill="#FFFFFF" height="30" style="stroke:#181818;stroke-width:1.0;" width="10" x="1397" y="672.6953"/><rect fill="#FFFFFF" height="30" style="stroke:#181818;stroke-width:1.0;" width="10" x="1397" y="733.0469"/><rect fill="#FFFFFF" height="30" style="stroke:#181818;stroke-width:1.0;" width="10" x="1397" y="793.3984"/><rect fill="#FFFFFF" height="30" style="stroke:#181818;stroke-width:1.0;" width="10" x="1397" y="853.75"/><rect fill="#FFFFFF" height="30" style="stroke:#181818;stroke-width:1.0;" width="10" x="1397" y="914.1016"/><rect fill="#FFFFFF" height="30" style="stroke:#181818;stroke-width:1.0;" width="10" x="1397" y="974.4531"/><rect fill="#FFFFFF" height="30" style="stroke:#181818;stroke-width:1.0;" width="10" x="1397" y="1034.8047"/><rect height="1009.5859" style="stroke:#000000;stroke-width:1.5;fill:none;" width="1810.5" x="124.5" y="166.1797"/><line style="stroke:#181818;stroke-width:0.5;fill:none;stroke-dasharray:5.0,5.0;" x1="234.5" x2="234.5" y1="76.2188" y2="1192.7656"/><line style="stroke:#181818;stroke-width:0.5;fill:none;stroke-dasharray:5.0,5.0;" x1="609" x2="609" y1="147.875" y2="1192.7656"/><line style="stroke:#181818;stroke-width:0.5;fill:none;stroke-dasharray:5.0,5.0;" x1="1043" x2="1043" y1="76.2188" y2="1192.7656"/><line style="stroke:#181818;stroke-width:0.5;fill:none;stroke-dasharray:5.0,5.0;" x1="1402" x2="1402" y1="76.2188" y2="1192.7656"/><line style="stroke:#181818;stroke-width:0.5;fill:none;stroke-dasharray:5.0,5.0;" x1="1744" x2="1744" y1="1104.1094" y2="1192.7656"/><rect fill="#E2E2F0" height="31.6094" rx="2.5" ry="2.5" style="stroke:#181818;stroke-width:0.5;" width="201" x="134.5" y="43.6094"/><text fill="#000000" font-family="sans-serif" font-size="14" lengthAdjust="spacing" textLength="187" x="141.5" y="65.1426">VaccineAdministrationMapper</text><rect fill="#E2E2F0" height="31.6094" rx="2.5" ry="2.5" style="stroke:#181818;stroke-width:0.5;" width="396" x="845" y="43.6094"/><text fill="#000000" font-family="sans-serif" font-size="14" lengthAdjust="spacing" textLength="382" x="852" y="65.1426">vaccineAdministrationList : ArrayList&lt;VaccineAdministration&gt;</text><rect fill="#E2E2F0" height="31.6094" rx="2.5" ry="2.5" style="stroke:#181818;stroke-width:0.5;" width="302" x="1251" y="43.6094"/><text fill="#000000" font-family="sans-serif" font-size="14" lengthAdjust="spacing" textLength="288" x="1258" y="65.1426">vaccineAdministration : VaccineAdministration</text><rect fill="#FFFFFF" height="1075.1953" style="stroke:#181818;stroke-width:1.0;" width="10" x="230" y="108.5703"/><rect fill="#FFFFFF" height="819.9219" style="stroke:#181818;stroke-width:1.0;" width="10" x="235" y="275.2344"/><rect fill="#FFFFFF" height="30" style="stroke:#181818;stroke-width:1.0;" width="10" x="604" y="1137.7656"/><rect fill="#FFFFFF" height="30" style="stroke:#181818;stroke-width:1.0;" width="10" x="1038" y="206.8828"/><rect fill="#FFFFFF" height="30" style="stroke:#181818;stroke-width:1.0;" width="10" x="1397" y="310.5859"/><rect fill="#FFFFFF" height="30" style="stroke:#181818;stroke-width:1.0;" width="10" x="1397" y="370.9375"/><rect fill="#FFFFFF" height="30" style="stroke:#181818;stroke-width:1.0;" width="10" x="1397" y="431.2891"/><rect fill="#FFFFFF" height="30" style="stroke:#181818;stroke-width:1.0;" width="10" x="1397" y="491.6406"/><rect fill="#FFFFFF" height="30" style="stroke:#181818;stroke-width:1.0;" width="10" x="1397" y="551.9922"/><rect fill="#FFFFFF" height="30" style="stroke:#181818;stroke-width:1.0;" width="10" x="1397" y="612.3438"/><rect fill="#FFFFFF" height="30" style="stroke:#181818;stroke-width:1.0;" width="10" x="1397" y="672.6953"/><rect fill="#FFFFFF" height="30" style="stroke:#181818;stroke-width:1.0;" width="10" x="1397" y="733.0469"/><rect fill="#FFFFFF" height="30" style="stroke:#181818;stroke-width:1.0;" width="10" x="1397" y="793.3984"/><rect fill="#FFFFFF" height="30" style="stroke:#181818;stroke-width:1.0;" width="10" x="1397" y="853.75"/><rect fill="#FFFFFF" height="30" style="stroke:#181818;stroke-width:1.0;" width="10" x="1397" y="914.1016"/><rect fill="#FFFFFF" height="30" style="stroke:#181818;stroke-width:1.0;" width="10" x="1397" y="974.4531"/><rect fill="#FFFFFF" height="30" style="stroke:#181818;stroke-width:1.0;" width="10" x="1397" y="1034.8047"/><ellipse cx="7.5" cy="107.8203" fill="none" rx="4" ry="4" style="stroke:#181818;stroke-width:1.5;"/><polygon fill="#181818" points="218,104.5703,228,108.5703,218,112.5703,222,108.5703" style="stroke:#181818;stroke-width:1.0;"/><line style="stroke:#181818;stroke-width:1.0;" x1="12" x2="224" y1="108.5703" y2="108.5703"/><text fill="#000000" font-family="sans-serif" font-size="13" font-weight="bold" lengthAdjust="spacing" textLength="7" x="15" y="103.7139">1</text><text fill="#000000" font-family="sans-serif" font-size="13" lengthAdjust="spacing" textLength="192" x="26" y="103.7139">toDTO(vaccineAdministrationList)</text><polygon fill="#181818" points="371,134.9219,381,138.9219,371,142.9219,375,138.9219" style="stroke:#181818;stroke-width:1.0;"/><line style="stroke:#181818;stroke-width:1.0;stroke-dasharray:2.0,2.0;" x1="240" x2="377" y1="138.9219" y2="138.9219"/><text fill="#000000" font-family="sans-serif" font-size="13" font-weight="bold" lengthAdjust="spacing" textLength="7" x="247" y="134.0654">2</text><text fill="#000000" font-family="sans-serif" font-size="13" lengthAdjust="spacing" textLength="44" x="258" y="134.0654">create()</text><rect fill="#E2E2F0" height="31.6094" rx="2.5" ry="2.5" style="stroke:#181818;stroke-width:0.5;" width="452" x="383" y="116.5703"/><text fill="#000000" font-family="sans-serif" font-size="14" lengthAdjust="spacing" textLength="438" x="390" y="138.1035">vaccineAdministrationDTOList: ArrayList&lt;VaccineAdministrationDTO&gt;</text><path d="M124.5,166.1797 L197.5,166.1797 L197.5,174.5313 L187.5,184.5313 L124.5,184.5313 L124.5,166.1797 " fill="#EEEEEE" style="stroke:#000000;stroke-width:1.5;"/><rect fill="none" height="1009.5859" style="stroke:#000000;stroke-width:1.5;" width="1810.5" x="124.5" y="166.1797"/><text fill="#000000" font-family="sans-serif" font-size="13" font-weight="bold" lengthAdjust="spacing" textLength="28" x="139.5" y="180.6748">loop</text><text fill="#000000" font-family="sans-serif" font-size="11" font-weight="bold" lengthAdjust="spacing" textLength="340" x="212.5" y="179.5986">[for each vaccine administration in vaccineAdministrationList]</text><polygon fill="#181818" points="1026,202.8828,1036,206.8828,1026,210.8828,1030,206.8828" style="stroke:#181818;stroke-width:1.0;"/><line style="stroke:#181818;stroke-width:1.0;" x1="240" x2="1032" y1="206.8828" y2="206.8828"/><text fill="#000000" font-family="sans-serif" font-size="13" font-weight="bold" lengthAdjust="spacing" textLength="7" x="247" y="202.0264">3</text><text fill="#000000" font-family="sans-serif" font-size="13" lengthAdjust="spacing" textLength="171" x="258" y="202.0264">vaccineAdministration = get(i)</text><line style="stroke:#181818;stroke-width:1.0;" x1="240" x2="287" y1="262.2344" y2="262.2344"/><line style="stroke:#181818;stroke-width:1.0;" x1="287" x2="287" y1="262.2344" y2="275.2344"/><line style="stroke:#181818;stroke-width:1.0;" x1="246" x2="287" y1="275.2344" y2="275.2344"/><polygon fill="#181818" points="256,271.2344,246,275.2344,256,279.2344,252,275.2344" style="stroke:#181818;stroke-width:1.0;"/><text fill="#000000" font-family="sans-serif" font-size="13" font-weight="bold" lengthAdjust="spacing" textLength="7" x="252" y="257.3779">4</text><text fill="#000000" font-family="sans-serif" font-size="13" lengthAdjust="spacing" textLength="339" x="263" y="257.3779">vaccineAdministrationDTO = toDTO(vaccineAdministration)</text><polygon fill="#181818" points="1385,306.5859,1395,310.5859,1385,314.5859,1389,310.5859" style="stroke:#181818;stroke-width:1.0;"/><line style="stroke:#181818;stroke-width:1.0;" x1="245" x2="1391" y1="310.5859" y2="310.5859"/><text fill="#000000" font-family="sans-serif" font-size="13" font-weight="bold" lengthAdjust="spacing" textLength="7" x="252" y="305.7295">5</text><text fill="#000000" font-family="sans-serif" font-size="13" lengthAdjust="spacing" textLength="250" x="263" y="305.7295">vaccinationCenter = getVaccinationCenter()</text><polygon fill="#181818" points="1385,366.9375,1395,370.9375,1385,374.9375,1389,370.9375" style="stroke:#181818;stroke-width:1.0;"/><line style="stroke:#181818;stroke-width:1.0;" x1="245" x2="1391" y1="370.9375" y2="370.9375"/><text fill="#000000" font-family="sans-serif" font-size="13" font-weight="bold" lengthAdjust="spacing" textLength="7" x="252" y="366.0811">6</text><text fill="#000000" font-family="sans-serif" font-size="13" lengthAdjust="spacing" textLength="176" x="263" y="366.0811">snsNumber = getSnsNumber()</text><polygon fill="#181818" points="1385,427.2891,1395,431.2891,1385,435.2891,1389,431.2891" style="stroke:#181818;stroke-width:1.0;"/><line style="stroke:#181818;stroke-width:1.0;" x1="245" x2="1391" y1="431.2891" y2="431.2891"/><text fill="#000000" font-family="sans-serif" font-size="13" font-weight="bold" lengthAdjust="spacing" textLength="7" x="252" y="426.4326">7</text><text fill="#000000" font-family="sans-serif" font-size="13" lengthAdjust="spacing" textLength="200" x="263" y="426.4326">vaccineName = getVaccineName()</text><polygon fill="#181818" points="1385,487.6406,1395,491.6406,1385,495.6406,1389,491.6406" style="stroke:#181818;stroke-width:1.0;"/><line style="stroke:#181818;stroke-width:1.0;" x1="245" x2="1391" y1="491.6406" y2="491.6406"/><text fill="#000000" font-family="sans-serif" font-size="13" font-weight="bold" lengthAdjust="spacing" textLength="7" x="252" y="486.7842">8</text><text fill="#000000" font-family="sans-serif" font-size="13" lengthAdjust="spacing" textLength="190" x="263" y="486.7842">doseNumber = getDoseNumber()</text><polygon fill="#181818" points="1385,547.9922,1395,551.9922,1385,555.9922,1389,551.9922" style="stroke:#181818;stroke-width:1.0;"/><line style="stroke:#181818;stroke-width:1.0;" x1="245" x2="1391" y1="551.9922" y2="551.9922"/><text fill="#000000" font-family="sans-serif" font-size="13" font-weight="bold" lengthAdjust="spacing" textLength="7" x="252" y="547.1357">9</text><text fill="#000000" font-family="sans-serif" font-size="13" lengthAdjust="spacing" textLength="164" x="263" y="547.1357">lotNumber = getLotNumber()</text><polygon fill="#181818" points="1385,608.3438,1395,612.3438,1385,616.3438,1389,612.3438" style="stroke:#181818;stroke-width:1.0;"/><line style="stroke:#181818;stroke-width:1.0;" x1="245" x2="1391" y1="612.3438" y2="612.3438"/><text fill="#000000" font-family="sans-serif" font-size="13" font-weight="bold" lengthAdjust="spacing" textLength="14" x="252" y="607.4873">10</text><text fill="#000000" font-family="sans-serif" font-size="13" lengthAdjust="spacing" textLength="202" x="270" y="607.4873">scheduleData = getScheduleData()</text><polygon fill="#181818" points="1385,668.6953,1395,672.6953,1385,676.6953,1389,672.6953" style="stroke:#181818;stroke-width:1.0;"/><line style="stroke:#181818;stroke-width:1.0;" x1="245" x2="1391" y1="672.6953" y2="672.6953"/><text fill="#000000" font-family="sans-serif" font-size="13" font-weight="bold" lengthAdjust="spacing" textLength="14" x="252" y="667.8389">11</text><text fill="#000000" font-family="sans-serif" font-size="13" lengthAdjust="spacing" textLength="204" x="270" y="667.8389">scheduleTime = getScheduleTime()</text><polygon fill="#181818" points="1385,729.0469,1395,733.0469,1385,737.0469,1389,733.0469" style="stroke:#181818;stroke-width:1.0;"/><line style="stroke:#181818;stroke-width:1.0;" x1="245" x2="1391" y1="733.0469" y2="733.0469"/><text fill="#000000" font-family="sans-serif" font-size="13" font-weight="bold" lengthAdjust="spacing" textLength="14" x="252" y="728.1904">12</text><text fill="#000000" font-family="sans-serif" font-size="13" lengthAdjust="spacing" textLength="164" x="270" y="728.1904">arrivalDate = getArrivalDate()</text><polygon fill="#181818" points="1385,789.3984,1395,793.3984,1385,797.3984,1389,793.3984" style="stroke:#181818;stroke-width:1.0;"/><line style="stroke:#181818;stroke-width:1.0;" x1="245" x2="1391" y1="793.3984" y2="793.3984"/><text fill="#000000" font-family="sans-serif" font-size="13" font-weight="bold" lengthAdjust="spacing" textLength="14" x="252" y="788.542">13</text><text fill="#000000" font-family="sans-serif" font-size="13" lengthAdjust="spacing" textLength="166" x="270" y="788.542">arrivalTime = getArrivalTime()</text><polygon fill="#181818" points="1385,849.75,1395,853.75,1385,857.75,1389,853.75" style="stroke:#181818;stroke-width:1.0;"/><line style="stroke:#181818;stroke-width:1.0;" x1="245" x2="1391" y1="853.75" y2="853.75"/><text fill="#000000" font-family="sans-serif" font-size="13" font-weight="bold" lengthAdjust="spacing" textLength="14" x="252" y="848.8936">14</text><text fill="#000000" font-family="sans-serif" font-size="13" lengthAdjust="spacing" textLength="260" x="270" y="848.8936">administrationDate = getAdministrationDate()</text><polygon fill="#181818" points="1385,910.1016,1395,914.1016,1385,918.1016,1389,914.1016" style="stroke:#181818;stroke-width:1.0;"/><line style="stroke:#181818;stroke-width:1.0;" x1="245" x2="1391" y1="914.1016" y2="914.1016"/><text fill="#000000" font-family="sans-serif" font-size="13" font-weight="bold" lengthAdjust="spacing" textLength="14" x="252" y="909.2451">15</text><text fill="#000000" font-family="sans-serif" font-size="13" lengthAdjust="spacing" textLength="262" x="270" y="909.2451">administrationTime = getAdministrationTime()</text><polygon fill="#181818" points="1385,970.4531,1395,974.4531,1385,978.4531,1389,974.4531" style="stroke:#181818;stroke-width:1.0;"/><line style="stroke:#181818;stroke-width:1.0;" x1="245" x2="1391" y1="974.4531" y2="974.4531"/><text fill="#000000" font-family="sans-serif" font-size="13" font-weight="bold" lengthAdjust="spacing" textLength="14" x="252" y="969.5967">16</text><text fill="#000000" font-family="sans-serif" font-size="13" lengthAdjust="spacing" textLength="178" x="270" y="969.5967">leavingDate = getLeavingDate()</text><polygon fill="#181818" points="1385,1030.8047,1395,1034.8047,1385,1038.8047,1389,1034.8047" style="stroke:#181818;stroke-width:1.0;"/><line style="stroke:#181818;stroke-width:1.0;" x1="245" x2="1391" y1="1034.8047" y2="1034.8047"/><text fill="#000000" font-family="sans-serif" font-size="13" font-weight="bold" lengthAdjust="spacing" textLength="14" x="252" y="1029.9482">17</text><text fill="#000000" font-family="sans-serif" font-size="13" lengthAdjust="spacing" textLength="179" x="270" y="1029.9482">leavingTime = getLeavingDate()</text><polygon fill="#181818" points="1551,1091.1563,1561,1095.1563,1551,1099.1563,1555,1095.1563" style="stroke:#181818;stroke-width:1.0;"/><line style="stroke:#181818;stroke-width:1.0;stroke-dasharray:2.0,2.0;" x1="240" x2="1557" y1="1095.1563" y2="1095.1563"/><text fill="#000000" font-family="sans-serif" font-size="13" font-weight="bold" lengthAdjust="spacing" textLength="14" x="247" y="1090.2998">18</text><text fill="#000000" font-family="sans-serif" font-size="13" lengthAdjust="spacing" textLength="1267" x="265" y="1090.2998">VaccineAdministrationDTO(vaccinationCenter, snsNumber, vaccineName, doseNumber, lotNumber, scheduleData, scheduleTime, arrivalDate, arrivalTime, administrationDate, administrationTime, leavingDate, leavingTime)</text><rect fill="#E2E2F0" height="31.6094" rx="2.5" ry="2.5" style="stroke:#181818;stroke-width:0.5;" width="362" x="1563" y="1072.8047"/><text fill="#000000" font-family="sans-serif" font-size="14" lengthAdjust="spacing" textLength="348" x="1570" y="1094.3379">vaccineAdministrationDTO : VaccineAdministrationDTO</text><polygon fill="#181818" points="592,1133.7656,602,1137.7656,592,1141.7656,596,1137.7656" style="stroke:#181818;stroke-width:1.0;"/><line style="stroke:#181818;stroke-width:1.0;" x1="240" x2="598" y1="1137.7656" y2="1137.7656"/><text fill="#000000" font-family="sans-serif" font-size="13" font-weight="bold" lengthAdjust="spacing" textLength="14" x="247" y="1132.9092">19</text><text fill="#000000" font-family="sans-serif" font-size="13" lengthAdjust="spacing" textLength="181" x="265" y="1132.9092">add(vaccineAdministrationDTO)</text><!--MD5=[c778816d8376f940f7bf37e77263c6ba]
@startuml
title US017_SD_VaccineAdministrationListToDTO
hide footbox
autonumber
participant VaccineAdministrationMapper as VAM
participant "vaccineAdministrationDTOList: ArrayList<VaccineAdministrationDTO>" as DTOList
participant "vaccineAdministrationList : ArrayList<VaccineAdministration>" as list
participant "vaccineAdministration : VaccineAdministration" as VA
participant "vaccineAdministrationDTO : VaccineAdministrationDTO" as DTOObj


[o-> VAM : toDTO(vaccineAdministrationList)
activate VAM
VAM - -> DTOList ** : create()
loop for each vaccine administration in vaccineAdministrationList
VAM -> list : vaccineAdministration = get(i)
activate list
deactivate list
VAM -> VAM : vaccineAdministrationDTO = toDTO(vaccineAdministration)
activate VAM
VAM -> VA : vaccinationCenter = getVaccinationCenter()
activate VA
deactivate VA
VAM -> VA : snsNumber = getSnsNumber()
activate VA
deactivate VA
VAM -> VA : vaccineName = getVaccineName()
activate VA
deactivate VA
VAM -> VA : doseNumber = getDoseNumber()
activate VA
deactivate VA
VAM -> VA : lotNumber = getLotNumber()
activate VA
deactivate VA
VAM -> VA : scheduleData = getScheduleData()
activate VA
deactivate VA
VAM -> VA : scheduleTime = getScheduleTime()
activate VA
deactivate VA
VAM -> VA : arrivalDate = getArrivalDate()
activate VA
deactivate VA
VAM -> VA : arrivalTime = getArrivalTime()
activate VA
deactivate VA
VAM -> VA : administrationDate = getAdministrationDate()
activate VA
deactivate VA
VAM -> VA : administrationTime = getAdministrationTime()
activate VA
deactivate VA
VAM -> VA : leavingDate = getLeavingDate()
activate VA
deactivate VA
VAM -> VA : leavingTime = getLeavingDate()
activate VA
deactivate VA
VAM - -> DTOObj ** : VaccineAdministrationDTO(vaccinationCenter, snsNumber, vaccineName, doseNumber, lotNumber, scheduleData, scheduleTime, arrivalDate, arrivalTime, administrationDate, administrationTime, leavingDate, leavingTime)
deactivate VAM
VAM -> DTOList : add(vaccineAdministrationDTO)
activate DTOList
deactivate DTOList
end
@enduml

PlantUML version 1.2022.4(Sat Apr 09 14:29:17 BST 2022)
(GPL source distribution)
Java Runtime: OpenJDK Runtime Environment
JVM: OpenJDK 64-Bit Server VM
Default Encoding: Cp1252
Language: pt
Country: PT
--></g></svg>