<?xml version="1.0" encoding="UTF-8" standalone="no"?><svg xmlns="http://www.w3.org/2000/svg" xmlns:xlink="http://www.w3.org/1999/xlink" contentStyleType="text/css" height="1564px" preserveAspectRatio="none" style="width:3383px;height:1564px;background:#FFFFFF;" version="1.1" viewBox="0 0 3383 1564" width="3383px" zoomAndPan="magnify"><defs/><g><rect fill="#FFFFFF" height="1471.0781" style="stroke:#181818;stroke-width:1.0;" width="10" x="44.5" y="47.6094"/><rect fill="#FFFFFF" height="175.9219" style="stroke:#181818;stroke-width:1.0;" width="10" x="327.5" y="69.9609"/><rect fill="#FFFFFF" height="932.6406" style="stroke:#181818;stroke-width:1.0;" width="10" x="327.5" y="276.2344"/><rect fill="#FFFFFF" height="270.4609" style="stroke:#181818;stroke-width:1.0;" width="10" x="327.5" y="1239.2266"/><rect fill="#FFFFFF" height="92.9609" style="stroke:#181818;stroke-width:1.0;" width="10" x="807.5" y="110.3125"/><rect fill="#FFFFFF" height="879.9375" style="stroke:#181818;stroke-width:1.0;" width="10" x="807.5" y="306.5859"/><rect fill="#FFFFFF" height="163.3125" style="stroke:#181818;stroke-width:1.0;" width="10" x="807.5" y="1269.5781"/><rect fill="#FFFFFF" height="30" style="stroke:#181818;stroke-width:1.0;" width="10" x="1134.5" y="142.9219"/><rect fill="#FFFFFF" height="30" style="stroke:#181818;stroke-width:1.0;" width="10" x="1203" y="379.5469"/><rect fill="#FFFFFF" height="30" style="stroke:#181818;stroke-width:1.0;" width="10" x="1203" y="439.8984"/><rect fill="#FFFFFF" height="30" style="stroke:#181818;stroke-width:1.0;" width="10" x="1203" y="525.6016"/><rect fill="#FFFFFF" height="30" style="stroke:#181818;stroke-width:1.0;" width="10" x="1299" y="646.3047"/><rect fill="#FFFFFF" height="30" style="stroke:#181818;stroke-width:1.0;" width="10" x="1396.5" y="585.9531"/><rect fill="#FFFFFF" height="90.7031" style="stroke:#181818;stroke-width:1.0;" width="10" x="1466.5" y="792.6172"/><rect fill="#FFFFFF" height="60.3516" style="stroke:#181818;stroke-width:1.0;" width="10" x="1466.5" y="960.1172"/><rect fill="#FFFFFF" height="60.3516" style="stroke:#181818;stroke-width:1.0;" width="10" x="1466.5" y="1050.8203"/><rect fill="#FFFFFF" height="60.3516" style="stroke:#181818;stroke-width:1.0;" width="10" x="1864.5" y="822.9688"/><rect fill="#FFFFFF" height="30" style="stroke:#181818;stroke-width:1.0;" width="10" x="1864.5" y="990.4688"/><rect fill="#FFFFFF" height="30" style="stroke:#181818;stroke-width:1.0;" width="10" x="1864.5" y="1081.1719"/><rect fill="#FFFFFF" height="30" style="stroke:#181818;stroke-width:1.0;" width="10" x="2117.5" y="853.3203"/><rect fill="#FFFFFF" height="30" style="stroke:#181818;stroke-width:1.0;" width="10" x="2117.5" y="1402.8906"/><rect fill="#FFFFFF" height="30" style="stroke:#181818;stroke-width:1.0;" width="10" x="2596.5" y="1342.5391"/><rect fill="#FFFFFF" height="30" style="stroke:#181818;stroke-width:1.0;" width="10" x="2938" y="1141.5234"/><rect height="694.625" style="stroke:#000000;stroke-width:1.5;fill:none;" width="2486.5" x="684" y="484.8984"/><line style="stroke:#181818;stroke-width:0.5;fill:none;stroke-dasharray:5.0,5.0;" x1="49" x2="49" y1="37.6094" y2="1527.6875"/><line style="stroke:#181818;stroke-width:0.5;fill:none;stroke-dasharray:5.0,5.0;" x1="332" x2="332" y1="37.6094" y2="1527.6875"/><line style="stroke:#181818;stroke-width:0.5;fill:none;stroke-dasharray:5.0,5.0;" x1="812" x2="812" y1="109.2656" y2="1527.6875"/><line style="stroke:#181818;stroke-width:0.5;fill:none;stroke-dasharray:5.0,5.0;" x1="1139" x2="1139" y1="37.6094" y2="1527.6875"/><line style="stroke:#181818;stroke-width:0.5;fill:none;stroke-dasharray:5.0,5.0;" x1="1208" x2="1208" y1="37.6094" y2="1527.6875"/><line style="stroke:#181818;stroke-width:0.5;fill:none;stroke-dasharray:5.0,5.0;" x1="1304" x2="1304" y1="37.6094" y2="1527.6875"/><line style="stroke:#181818;stroke-width:0.5;fill:none;stroke-dasharray:5.0,5.0;" x1="1401" x2="1401" y1="37.6094" y2="1527.6875"/><line style="stroke:#181818;stroke-width:0.5;fill:none;stroke-dasharray:5.0,5.0;" x1="1471" x2="1471" y1="37.6094" y2="1527.6875"/><line style="stroke:#181818;stroke-width:0.5;fill:none;stroke-dasharray:5.0,5.0;" x1="1869" x2="1869" y1="37.6094" y2="1527.6875"/><line style="stroke:#181818;stroke-width:0.5;fill:none;stroke-dasharray:5.0,5.0;" x1="2122" x2="2122" y1="37.6094" y2="1527.6875"/><line style="stroke:#181818;stroke-width:0.5;fill:none;stroke-dasharray:5.0,5.0;" x1="2385.5" x2="2385.5" y1="758.9609" y2="1527.6875"/><line style="stroke:#181818;stroke-width:0.5;fill:none;stroke-dasharray:5.0,5.0;" x1="2601.5" x2="2601.5" y1="1308.8828" y2="1527.6875"/><line style="stroke:#181818;stroke-width:0.5;fill:none;stroke-dasharray:5.0,5.0;" x1="2942.5" x2="2942.5" y1="212.2266" y2="1527.6875"/><line style="stroke:#181818;stroke-width:0.5;fill:none;stroke-dasharray:5.0,5.0;" x1="3273.5" x2="3273.5" y1="345.8906" y2="1527.6875"/><rect fill="#E2E2F0" height="31.6094" rx="2.5" ry="2.5" style="stroke:#181818;stroke-width:0.5;" width="89" x="5" y="5"/><text fill="#000000" font-family="sans-serif" font-size="14" lengthAdjust="spacing" textLength="75" x="12" y="26.5332">Coordinator</text><rect fill="#E2E2F0" height="31.6094" rx="2.5" ry="2.5" style="stroke:#181818;stroke-width:0.5;" width="89" x="5" y="1526.6875"/><text fill="#000000" font-family="sans-serif" font-size="14" lengthAdjust="spacing" textLength="75" x="12" y="1548.2207">Coordinator</text><rect fill="#E2E2F0" height="31.6094" rx="2.5" ry="2.5" style="stroke:#181818;stroke-width:0.5;" width="187" x="239" y="5"/><text fill="#000000" font-family="sans-serif" font-size="14" lengthAdjust="spacing" textLength="173" x="246" y="26.5332">ImportLegacySystemDataUI</text><rect fill="#E2E2F0" height="31.6094" rx="2.5" ry="2.5" style="stroke:#181818;stroke-width:0.5;" width="187" x="239" y="1526.6875"/><text fill="#000000" font-family="sans-serif" font-size="14" lengthAdjust="spacing" textLength="173" x="246" y="1548.2207">ImportLegacySystemDataUI</text><rect fill="#E2E2F0" height="31.6094" rx="2.5" ry="2.5" style="stroke:#181818;stroke-width:0.5;" width="237" x="694" y="1526.6875"/><text fill="#000000" font-family="sans-serif" font-size="14" lengthAdjust="spacing" textLength="223" x="701" y="1548.2207">ImportLegacySystemDataController</text><rect fill="#E2E2F0" height="31.6094" rx="2.5" ry="2.5" style="stroke:#181818;stroke-width:0.5;" width="43" x="1118" y="5"/><text fill="#000000" font-family="sans-serif" font-size="14" lengthAdjust="spacing" textLength="29" x="1125" y="26.5332">:App</text><rect fill="#E2E2F0" height="31.6094" rx="2.5" ry="2.5" style="stroke:#181818;stroke-width:0.5;" width="43" x="1118" y="1526.6875"/><text fill="#000000" font-family="sans-serif" font-size="14" lengthAdjust="spacing" textLength="29" x="1125" y="1548.2207">:App</text><rect fill="#E2E2F0" height="31.6094" rx="2.5" ry="2.5" style="stroke:#181818;stroke-width:0.5;" width="74" x="1171" y="5"/><text fill="#000000" font-family="sans-serif" font-size="14" lengthAdjust="spacing" textLength="60" x="1178" y="26.5332">Company</text><rect fill="#E2E2F0" height="31.6094" rx="2.5" ry="2.5" style="stroke:#181818;stroke-width:0.5;" width="74" x="1171" y="1526.6875"/><text fill="#000000" font-family="sans-serif" font-size="14" lengthAdjust="spacing" textLength="60" x="1178" y="1548.2207">Company</text><rect fill="#E2E2F0" height="31.6094" rx="2.5" ry="2.5" style="stroke:#181818;stroke-width:0.5;" width="98" x="1255" y="5"/><text fill="#000000" font-family="sans-serif" font-size="14" lengthAdjust="spacing" textLength="84" x="1262" y="26.5332">VaccineStore</text><rect fill="#E2E2F0" height="31.6094" rx="2.5" ry="2.5" style="stroke:#181818;stroke-width:0.5;" width="98" x="1255" y="1526.6875"/><text fill="#000000" font-family="sans-serif" font-size="14" lengthAdjust="spacing" textLength="84" x="1262" y="1548.2207">VaccineStore</text><rect fill="#E2E2F0" height="31.6094" rx="2.5" ry="2.5" style="stroke:#181818;stroke-width:0.5;" width="77" x="1363" y="5"/><text fill="#000000" font-family="sans-serif" font-size="14" lengthAdjust="spacing" textLength="63" x="1370" y="26.5332">UserStore</text><rect fill="#E2E2F0" height="31.6094" rx="2.5" ry="2.5" style="stroke:#181818;stroke-width:0.5;" width="77" x="1363" y="1526.6875"/><text fill="#000000" font-family="sans-serif" font-size="14" lengthAdjust="spacing" textLength="63" x="1370" y="1548.2207">UserStore</text><rect fill="#E2E2F0" height="31.6094" rx="2.5" ry="2.5" style="stroke:#181818;stroke-width:0.5;" width="43" x="1450" y="5"/><text fill="#000000" font-family="sans-serif" font-size="14" lengthAdjust="spacing" textLength="29" x="1457" y="26.5332">User</text><rect fill="#E2E2F0" height="31.6094" rx="2.5" ry="2.5" style="stroke:#181818;stroke-width:0.5;" width="43" x="1450" y="1526.6875"/><text fill="#000000" font-family="sans-serif" font-size="14" lengthAdjust="spacing" textLength="29" x="1457" y="1548.2207">User</text><rect fill="#E2E2F0" height="31.6094" rx="2.5" ry="2.5" style="stroke:#181818;stroke-width:0.5;" width="187" x="1776" y="5"/><text fill="#000000" font-family="sans-serif" font-size="14" lengthAdjust="spacing" textLength="173" x="1783" y="26.5332">VaccineAdministrationStore</text><rect fill="#E2E2F0" height="31.6094" rx="2.5" ry="2.5" style="stroke:#181818;stroke-width:0.5;" width="187" x="1776" y="1526.6875"/><text fill="#000000" font-family="sans-serif" font-size="14" lengthAdjust="spacing" textLength="173" x="1783" y="1548.2207">VaccineAdministrationStore</text><rect fill="#E2E2F0" height="31.6094" rx="2.5" ry="2.5" style="stroke:#181818;stroke-width:0.5;" width="201" x="2022" y="5"/><text fill="#000000" font-family="sans-serif" font-size="14" lengthAdjust="spacing" textLength="187" x="2029" y="26.5332">VaccineAdministrationMapper</text><rect fill="#E2E2F0" height="31.6094" rx="2.5" ry="2.5" style="stroke:#181818;stroke-width:0.5;" width="201" x="2022" y="1526.6875"/><text fill="#000000" font-family="sans-serif" font-size="14" lengthAdjust="spacing" textLength="187" x="2029" y="1548.2207">VaccineAdministrationMapper</text><rect fill="#E2E2F0" height="31.6094" rx="2.5" ry="2.5" style="stroke:#181818;stroke-width:0.5;" width="183" x="2294.5" y="1526.6875"/><text fill="#000000" font-family="sans-serif" font-size="14" lengthAdjust="spacing" textLength="169" x="2301.5" y="1548.2207">VaccineAdministrationDTO</text><rect fill="#E2E2F0" height="31.6094" rx="2.5" ry="2.5" style="stroke:#181818;stroke-width:0.5;" width="228" x="2487.5" y="1526.6875"/><text fill="#000000" font-family="sans-serif" font-size="14" lengthAdjust="spacing" textLength="214" x="2494.5" y="1548.2207">sortingAlgorithm :SortingAlgorithm</text><rect fill="#E2E2F0" height="31.6094" rx="2.5" ry="2.5" style="stroke:#181818;stroke-width:0.5;" width="435" x="2725.5" y="1526.6875"/><text fill="#000000" font-family="sans-serif" font-size="14" lengthAdjust="spacing" textLength="421" x="2732.5" y="1548.2207">vaccineAdministrationListToSort :ArrayList&lt;VaccineAdministration&gt;</text><rect fill="#E2E2F0" height="31.6094" rx="2.5" ry="2.5" style="stroke:#181818;stroke-width:0.5;" width="207" x="3170.5" y="1526.6875"/><text fill="#000000" font-family="sans-serif" font-size="14" lengthAdjust="spacing" textLength="193" x="3177.5" y="1548.2207">errorLines : ArrayList&lt;Integer&gt;</text><rect fill="#FFFFFF" height="1471.0781" style="stroke:#181818;stroke-width:1.0;" width="10" x="44.5" y="47.6094"/><rect fill="#FFFFFF" height="175.9219" style="stroke:#181818;stroke-width:1.0;" width="10" x="327.5" y="69.9609"/><rect fill="#FFFFFF" height="932.6406" style="stroke:#181818;stroke-width:1.0;" width="10" x="327.5" y="276.2344"/><rect fill="#FFFFFF" height="270.4609" style="stroke:#181818;stroke-width:1.0;" width="10" x="327.5" y="1239.2266"/><rect fill="#FFFFFF" height="92.9609" style="stroke:#181818;stroke-width:1.0;" width="10" x="807.5" y="110.3125"/><rect fill="#FFFFFF" height="879.9375" style="stroke:#181818;stroke-width:1.0;" width="10" x="807.5" y="306.5859"/><rect fill="#FFFFFF" height="163.3125" style="stroke:#181818;stroke-width:1.0;" width="10" x="807.5" y="1269.5781"/><rect fill="#FFFFFF" height="30" style="stroke:#181818;stroke-width:1.0;" width="10" x="1134.5" y="142.9219"/><rect fill="#FFFFFF" height="30" style="stroke:#181818;stroke-width:1.0;" width="10" x="1203" y="379.5469"/><rect fill="#FFFFFF" height="30" style="stroke:#181818;stroke-width:1.0;" width="10" x="1203" y="439.8984"/><rect fill="#FFFFFF" height="30" style="stroke:#181818;stroke-width:1.0;" width="10" x="1203" y="525.6016"/><rect fill="#FFFFFF" height="30" style="stroke:#181818;stroke-width:1.0;" width="10" x="1299" y="646.3047"/><rect fill="#FFFFFF" height="30" style="stroke:#181818;stroke-width:1.0;" width="10" x="1396.5" y="585.9531"/><rect fill="#FFFFFF" height="90.7031" style="stroke:#181818;stroke-width:1.0;" width="10" x="1466.5" y="792.6172"/><rect fill="#FFFFFF" height="60.3516" style="stroke:#181818;stroke-width:1.0;" width="10" x="1466.5" y="960.1172"/><rect fill="#FFFFFF" height="60.3516" style="stroke:#181818;stroke-width:1.0;" width="10" x="1466.5" y="1050.8203"/><rect fill="#FFFFFF" height="60.3516" style="stroke:#181818;stroke-width:1.0;" width="10" x="1864.5" y="822.9688"/><rect fill="#FFFFFF" height="30" style="stroke:#181818;stroke-width:1.0;" width="10" x="1864.5" y="990.4688"/><rect fill="#FFFFFF" height="30" style="stroke:#181818;stroke-width:1.0;" width="10" x="1864.5" y="1081.1719"/><rect fill="#FFFFFF" height="30" style="stroke:#181818;stroke-width:1.0;" width="10" x="2117.5" y="853.3203"/><rect fill="#FFFFFF" height="30" style="stroke:#181818;stroke-width:1.0;" width="10" x="2117.5" y="1402.8906"/><rect fill="#FFFFFF" height="30" style="stroke:#181818;stroke-width:1.0;" width="10" x="2596.5" y="1342.5391"/><rect fill="#FFFFFF" height="30" style="stroke:#181818;stroke-width:1.0;" width="10" x="2938" y="1141.5234"/><polygon fill="#181818" points="315.5,65.9609,325.5,69.9609,315.5,73.9609,319.5,69.9609" style="stroke:#181818;stroke-width:1.0;"/><line style="stroke:#181818;stroke-width:1.0;" x1="54.5" x2="321.5" y1="69.9609" y2="69.9609"/><text fill="#000000" font-family="sans-serif" font-size="13" font-weight="bold" lengthAdjust="spacing" textLength="7" x="61.5" y="65.1045">1</text><text fill="#000000" font-family="sans-serif" font-size="13" lengthAdjust="spacing" textLength="243" x="72.5" y="65.1045">Asks to import data from a legacy system</text><polygon fill="#181818" points="682,96.3125,692,100.3125,682,104.3125,686,100.3125" style="stroke:#181818;stroke-width:1.0;"/><line style="stroke:#181818;stroke-width:1.0;" x1="337.5" x2="688" y1="100.3125" y2="100.3125"/><text fill="#000000" font-family="sans-serif" font-size="13" font-weight="bold" lengthAdjust="spacing" textLength="7" x="344.5" y="95.4561">2</text><text fill="#000000" font-family="sans-serif" font-size="13" lengthAdjust="spacing" textLength="213" x="355.5" y="95.4561">ImportLegacySystemDataController()</text><rect fill="#E2E2F0" height="31.6094" rx="2.5" ry="2.5" style="stroke:#181818;stroke-width:0.5;" width="237" x="694" y="77.9609"/><text fill="#000000" font-family="sans-serif" font-size="14" lengthAdjust="spacing" textLength="223" x="701" y="99.4941">ImportLegacySystemDataController</text><polygon fill="#181818" points="1122.5,138.9219,1132.5,142.9219,1122.5,146.9219,1126.5,142.9219" style="stroke:#181818;stroke-width:1.0;"/><line style="stroke:#181818;stroke-width:1.0;" x1="817.5" x2="1128.5" y1="142.9219" y2="142.9219"/><text fill="#000000" font-family="sans-serif" font-size="13" font-weight="bold" lengthAdjust="spacing" textLength="7" x="824.5" y="138.0654">3</text><text fill="#000000" font-family="sans-serif" font-size="13" lengthAdjust="spacing" textLength="112" x="835.5" y="138.0654">app = getInstance()</text><polygon fill="#181818" points="2713.5,199.2734,2723.5,203.2734,2713.5,207.2734,2717.5,203.2734" style="stroke:#181818;stroke-width:1.0;"/><line style="stroke:#181818;stroke-width:1.0;" x1="812.5" x2="2719.5" y1="203.2734" y2="203.2734"/><text fill="#000000" font-family="sans-serif" font-size="13" font-weight="bold" lengthAdjust="spacing" textLength="7" x="819.5" y="198.417">4</text><text fill="#000000" font-family="sans-serif" font-size="13" lengthAdjust="spacing" textLength="369" x="830.5" y="198.417">vaccineAdministrationList = ArrayList&lt;VaccineAdministration&gt;()</text><rect fill="#E2E2F0" height="31.6094" rx="2.5" ry="2.5" style="stroke:#181818;stroke-width:0.5;" width="435" x="2725.5" y="180.9219"/><text fill="#000000" font-family="sans-serif" font-size="14" lengthAdjust="spacing" textLength="421" x="2732.5" y="202.4551">vaccineAdministrationListToSort :ArrayList&lt;VaccineAdministration&gt;</text><polygon fill="#181818" points="65.5,241.8828,55.5,245.8828,65.5,249.8828,61.5,245.8828" style="stroke:#181818;stroke-width:1.0;"/><line style="stroke:#181818;stroke-width:1.0;stroke-dasharray:2.0,2.0;" x1="59.5" x2="331.5" y1="245.8828" y2="245.8828"/><text fill="#000000" font-family="sans-serif" font-size="13" font-weight="bold" lengthAdjust="spacing" textLength="7" x="71.5" y="241.0264">5</text><text fill="#000000" font-family="sans-serif" font-size="13" lengthAdjust="spacing" textLength="141" x="82.5" y="241.0264">Requests data (file path)</text><polygon fill="#181818" points="315.5,272.2344,325.5,276.2344,315.5,280.2344,319.5,276.2344" style="stroke:#181818;stroke-width:1.0;"/><line style="stroke:#181818;stroke-width:1.0;" x1="54.5" x2="321.5" y1="276.2344" y2="276.2344"/><text fill="#000000" font-family="sans-serif" font-size="13" font-weight="bold" lengthAdjust="spacing" textLength="7" x="61.5" y="271.3779">6</text><text fill="#000000" font-family="sans-serif" font-size="13" lengthAdjust="spacing" textLength="125" x="72.5" y="271.3779">Types requested data</text><polygon fill="#181818" points="795.5,302.5859,805.5,306.5859,795.5,310.5859,799.5,306.5859" style="stroke:#181818;stroke-width:1.0;"/><line style="stroke:#181818;stroke-width:1.0;" x1="337.5" x2="801.5" y1="306.5859" y2="306.5859"/><text fill="#000000" font-family="sans-serif" font-size="13" font-weight="bold" lengthAdjust="spacing" textLength="7" x="344.5" y="301.7295">7</text><text fill="#000000" font-family="sans-serif" font-size="13" lengthAdjust="spacing" textLength="369" x="355.5" y="301.7295">importVaccineAdministrations(vaccineAdministrationsStringList)</text><polygon fill="#181818" points="3158.5,332.9375,3168.5,336.9375,3158.5,340.9375,3162.5,336.9375" style="stroke:#181818;stroke-width:1.0;"/><line style="stroke:#181818;stroke-width:1.0;" x1="817.5" x2="3164.5" y1="336.9375" y2="336.9375"/><text fill="#000000" font-family="sans-serif" font-size="13" font-weight="bold" lengthAdjust="spacing" textLength="7" x="824.5" y="332.0811">8</text><text fill="#000000" font-family="sans-serif" font-size="13" lengthAdjust="spacing" textLength="149" x="835.5" y="332.0811">errorLines = ArrayList&lt;&gt;()</text><rect fill="#E2E2F0" height="31.6094" rx="2.5" ry="2.5" style="stroke:#181818;stroke-width:0.5;" width="207" x="3170.5" y="314.5859"/><text fill="#000000" font-family="sans-serif" font-size="14" lengthAdjust="spacing" textLength="193" x="3177.5" y="336.1191">errorLines : ArrayList&lt;Integer&gt;</text><polygon fill="#181818" points="1191,375.5469,1201,379.5469,1191,383.5469,1195,379.5469" style="stroke:#181818;stroke-width:1.0;"/><line style="stroke:#181818;stroke-width:1.0;" x1="817.5" x2="1197" y1="379.5469" y2="379.5469"/><text fill="#000000" font-family="sans-serif" font-size="13" font-weight="bold" lengthAdjust="spacing" textLength="7" x="824.5" y="374.6904">9</text><text fill="#000000" font-family="sans-serif" font-size="13" lengthAdjust="spacing" textLength="156" x="835.5" y="374.6904">userStore = getUserStore()</text><polygon fill="#181818" points="1191,435.8984,1201,439.8984,1191,443.8984,1195,439.8984" style="stroke:#181818;stroke-width:1.0;"/><line style="stroke:#181818;stroke-width:1.0;" x1="817.5" x2="1197" y1="439.8984" y2="439.8984"/><text fill="#000000" font-family="sans-serif" font-size="13" font-weight="bold" lengthAdjust="spacing" textLength="14" x="824.5" y="435.042">10</text><text fill="#000000" font-family="sans-serif" font-size="13" lengthAdjust="spacing" textLength="194" x="842.5" y="435.042">vaccineStore = getVaccineStore()</text><path d="M684,484.8984 L757,484.8984 L757,493.25 L747,503.25 L684,503.25 L684,484.8984 " fill="#EEEEEE" style="stroke:#000000;stroke-width:1.5;"/><rect fill="none" height="694.625" style="stroke:#000000;stroke-width:1.5;" width="2486.5" x="684" y="484.8984"/><text fill="#000000" font-family="sans-serif" font-size="13" font-weight="bold" lengthAdjust="spacing" textLength="28" x="699" y="499.3936">loop</text><text fill="#000000" font-family="sans-serif" font-size="11" font-weight="bold" lengthAdjust="spacing" textLength="289" x="772" y="498.3174">[for each String in vaccineAdministrationsStringList]</text><polygon fill="#181818" points="1191,521.6016,1201,525.6016,1191,529.6016,1195,525.6016" style="stroke:#181818;stroke-width:1.0;"/><line style="stroke:#181818;stroke-width:1.0;" x1="817.5" x2="1197" y1="525.6016" y2="525.6016"/><text fill="#000000" font-family="sans-serif" font-size="13" font-weight="bold" lengthAdjust="spacing" textLength="14" x="824.5" y="520.7451">11</text><text fill="#000000" font-family="sans-serif" font-size="13" lengthAdjust="spacing" textLength="95" x="842.5" y="520.7451">getActorCenter()</text><polygon fill="#181818" points="1384.5,581.9531,1394.5,585.9531,1384.5,589.9531,1388.5,585.9531" style="stroke:#181818;stroke-width:1.0;"/><line style="stroke:#181818;stroke-width:1.0;" x1="817.5" x2="1390.5" y1="585.9531" y2="585.9531"/><text fill="#000000" font-family="sans-serif" font-size="13" font-weight="bold" lengthAdjust="spacing" textLength="14" x="824.5" y="581.0967">12</text><text fill="#000000" font-family="sans-serif" font-size="13" lengthAdjust="spacing" textLength="244" x="842.5" y="581.0967">user = getUserBySnsNumber(snsNumber)</text><polygon fill="#181818" points="1287,642.3047,1297,646.3047,1287,650.3047,1291,646.3047" style="stroke:#181818;stroke-width:1.0;"/><line style="stroke:#181818;stroke-width:1.0;" x1="817.5" x2="1293" y1="646.3047" y2="646.3047"/><text fill="#000000" font-family="sans-serif" font-size="13" font-weight="bold" lengthAdjust="spacing" textLength="14" x="824.5" y="641.4482">13</text><text fill="#000000" font-family="sans-serif" font-size="13" lengthAdjust="spacing" textLength="259" x="842.5" y="641.4482">vaccine = getVaccineByName(vaccineName)</text><line style="stroke:#181818;stroke-width:1.0;" x1="817.5" x2="859.5" y1="706.6563" y2="706.6563"/><line style="stroke:#181818;stroke-width:1.0;" x1="859.5" x2="859.5" y1="706.6563" y2="719.6563"/><line style="stroke:#181818;stroke-width:1.0;" x1="818.5" x2="859.5" y1="719.6563" y2="719.6563"/><polygon fill="#181818" points="828.5,715.6563,818.5,719.6563,828.5,723.6563,824.5,719.6563" style="stroke:#181818;stroke-width:1.0;"/><text fill="#000000" font-family="sans-serif" font-size="13" font-weight="bold" lengthAdjust="spacing" textLength="14" x="824.5" y="701.7998">14</text><text fill="#000000" font-family="sans-serif" font-size="13" lengthAdjust="spacing" textLength="285" x="842.5" y="701.7998">doseNumber = getIntFromDoseString(doseString)</text><polygon fill="#181818" points="2282.5,746.0078,2292.5,750.0078,2282.5,754.0078,2286.5,750.0078" style="stroke:#181818;stroke-width:1.0;"/><line style="stroke:#181818;stroke-width:1.0;" x1="817.5" x2="2288.5" y1="750.0078" y2="750.0078"/><text fill="#000000" font-family="sans-serif" font-size="13" font-weight="bold" lengthAdjust="spacing" textLength="14" x="824.5" y="745.1514">15</text><text fill="#000000" font-family="sans-serif" font-size="13" lengthAdjust="spacing" textLength="1435" x="842.5" y="745.1514">vaccineAdministrationDTO = VaccineAdministrationDTO(vaccinationCenter, snsNumber, vaccineName, doseNumber, lotNumber, scheduleData, scheduleTime, arrivalDate, arrivalTime, administrationDate, administrationTime, leavingDate, leavingTime)</text><rect fill="#E2E2F0" height="31.6094" rx="2.5" ry="2.5" style="stroke:#181818;stroke-width:0.5;" width="183" x="2294.5" y="727.6563"/><text fill="#000000" font-family="sans-serif" font-size="14" lengthAdjust="spacing" textLength="169" x="2301.5" y="749.1895">VaccineAdministrationDTO</text><polygon fill="#181818" points="1454.5,788.6172,1464.5,792.6172,1454.5,796.6172,1458.5,792.6172" style="stroke:#181818;stroke-width:1.0;"/><line style="stroke:#181818;stroke-width:1.0;" x1="817.5" x2="1460.5" y1="792.6172" y2="792.6172"/><text fill="#000000" font-family="sans-serif" font-size="13" font-weight="bold" lengthAdjust="spacing" textLength="14" x="824.5" y="787.7607">16</text><text fill="#000000" font-family="sans-serif" font-size="13" lengthAdjust="spacing" textLength="493" x="842.5" y="787.7607">vaccineAdministration = createNewVaccineAdministration(vaccineAdministrationDTO)</text><polygon fill="#181818" points="1852.5,818.9688,1862.5,822.9688,1852.5,826.9688,1856.5,822.9688" style="stroke:#181818;stroke-width:1.0;"/><line style="stroke:#181818;stroke-width:1.0;" x1="1476.5" x2="1858.5" y1="822.9688" y2="822.9688"/><text fill="#000000" font-family="sans-serif" font-size="13" font-weight="bold" lengthAdjust="spacing" textLength="14" x="1483.5" y="818.1123">17</text><text fill="#000000" font-family="sans-serif" font-size="13" lengthAdjust="spacing" textLength="351" x="1501.5" y="818.1123">createNewVaccineAdministration(vaccineAdministrationDTO)</text><polygon fill="#181818" points="2105.5,849.3203,2115.5,853.3203,2105.5,857.3203,2109.5,853.3203" style="stroke:#181818;stroke-width:1.0;"/><line style="stroke:#181818;stroke-width:1.0;" x1="1874.5" x2="2111.5" y1="853.3203" y2="853.3203"/><text fill="#000000" font-family="sans-serif" font-size="13" font-weight="bold" lengthAdjust="spacing" textLength="14" x="1881.5" y="848.4639">18</text><text fill="#000000" font-family="sans-serif" font-size="13" lengthAdjust="spacing" textLength="206" x="1899.5" y="848.4639">toModel(vaccineAdministrationDTO)</text><rect height="41.4453" style="stroke:#000000;stroke-width:1.5;fill:none;" width="236" x="2019" y="891.3203"/><path d="M2019,891.3203 L2081,891.3203 L2081,899.3203 L2071,909.3203 L2019,909.3203 L2019,891.3203 " fill="#EEEEEE" style="stroke:#000000;stroke-width:2.0;"/><text fill="#000000" font-family="sans-serif" font-size="13" font-weight="bold" lengthAdjust="spacing" textLength="17" x="2032" y="906.8154">ref</text><text fill="#000000" font-family="sans-serif" font-size="12" lengthAdjust="spacing" textLength="228" x="2023" y="925.7773">US017_SD_CreateVaccineAdministration</text><polygon fill="#181818" points="1454.5,956.1172,1464.5,960.1172,1454.5,964.1172,1458.5,960.1172" style="stroke:#181818;stroke-width:1.0;"/><line style="stroke:#181818;stroke-width:1.0;" x1="817.5" x2="1460.5" y1="960.1172" y2="960.1172"/><text fill="#000000" font-family="sans-serif" font-size="13" font-weight="bold" lengthAdjust="spacing" textLength="14" x="824.5" y="955.2607">19</text><text fill="#000000" font-family="sans-serif" font-size="13" lengthAdjust="spacing" textLength="325" x="842.5" y="955.2607">checkForDuplicateAdministration(vaccineAdministration)</text><polygon fill="#181818" points="1852.5,986.4688,1862.5,990.4688,1852.5,994.4688,1856.5,990.4688" style="stroke:#181818;stroke-width:1.0;"/><line style="stroke:#181818;stroke-width:1.0;" x1="1476.5" x2="1858.5" y1="990.4688" y2="990.4688"/><text fill="#000000" font-family="sans-serif" font-size="13" font-weight="bold" lengthAdjust="spacing" textLength="14" x="1483.5" y="985.6123">20</text><text fill="#000000" font-family="sans-serif" font-size="13" lengthAdjust="spacing" textLength="325" x="1501.5" y="985.6123">checkForDuplicateAdministration(vaccineAdministration)</text><polygon fill="#181818" points="1454.5,1046.8203,1464.5,1050.8203,1454.5,1054.8203,1458.5,1050.8203" style="stroke:#181818;stroke-width:1.0;"/><line style="stroke:#181818;stroke-width:1.0;" x1="817.5" x2="1460.5" y1="1050.8203" y2="1050.8203"/><text fill="#000000" font-family="sans-serif" font-size="13" font-weight="bold" lengthAdjust="spacing" textLength="14" x="824.5" y="1045.9639">21</text><text fill="#000000" font-family="sans-serif" font-size="13" lengthAdjust="spacing" textLength="315" x="842.5" y="1045.9639">saveNewVaccineAdministration(vaccineAdministration)</text><polygon fill="#181818" points="1852.5,1077.1719,1862.5,1081.1719,1852.5,1085.1719,1856.5,1081.1719" style="stroke:#181818;stroke-width:1.0;"/><line style="stroke:#181818;stroke-width:1.0;" x1="1476.5" x2="1858.5" y1="1081.1719" y2="1081.1719"/><text fill="#000000" font-family="sans-serif" font-size="13" font-weight="bold" lengthAdjust="spacing" textLength="14" x="1483.5" y="1076.3154">22</text><text fill="#000000" font-family="sans-serif" font-size="13" lengthAdjust="spacing" textLength="315" x="1501.5" y="1076.3154">saveNewVaccineAdministration(vaccineAdministration)</text><polygon fill="#181818" points="2926,1137.5234,2936,1141.5234,2926,1145.5234,2930,1141.5234" style="stroke:#181818;stroke-width:1.0;"/><line style="stroke:#181818;stroke-width:1.0;" x1="817.5" x2="2932" y1="1141.5234" y2="1141.5234"/><text fill="#000000" font-family="sans-serif" font-size="13" font-weight="bold" lengthAdjust="spacing" textLength="14" x="824.5" y="1136.667">23</text><text fill="#000000" font-family="sans-serif" font-size="13" lengthAdjust="spacing" textLength="155" x="842.5" y="1136.667">add(vaccineAdministration)</text><polygon fill="#181818" points="65.5,1204.875,55.5,1208.875,65.5,1212.875,61.5,1208.875" style="stroke:#181818;stroke-width:1.0;"/><line style="stroke:#181818;stroke-width:1.0;stroke-dasharray:2.0,2.0;" x1="59.5" x2="331.5" y1="1208.875" y2="1208.875"/><text fill="#000000" font-family="sans-serif" font-size="13" font-weight="bold" lengthAdjust="spacing" textLength="14" x="71.5" y="1204.0186">24</text><text fill="#000000" font-family="sans-serif" font-size="13" lengthAdjust="spacing" textLength="171" x="89.5" y="1204.0186">Shows sorting criteria options</text><polygon fill="#181818" points="315.5,1235.2266,325.5,1239.2266,315.5,1243.2266,319.5,1239.2266" style="stroke:#181818;stroke-width:1.0;"/><line style="stroke:#181818;stroke-width:1.0;" x1="54.5" x2="321.5" y1="1239.2266" y2="1239.2266"/><text fill="#000000" font-family="sans-serif" font-size="13" font-weight="bold" lengthAdjust="spacing" textLength="14" x="61.5" y="1234.3701">25</text><text fill="#000000" font-family="sans-serif" font-size="13" lengthAdjust="spacing" textLength="137" x="79.5" y="1234.3701">Chooses sorting criteria</text><polygon fill="#181818" points="795.5,1265.5781,805.5,1269.5781,795.5,1273.5781,799.5,1269.5781" style="stroke:#181818;stroke-width:1.0;"/><line style="stroke:#181818;stroke-width:1.0;" x1="337.5" x2="801.5" y1="1269.5781" y2="1269.5781"/><text fill="#000000" font-family="sans-serif" font-size="13" font-weight="bold" lengthAdjust="spacing" textLength="14" x="344.5" y="1264.7217">26</text><text fill="#000000" font-family="sans-serif" font-size="13" lengthAdjust="spacing" textLength="433" x="362.5" y="1264.7217">vaccineAdministrationDTOList = sortVaccineAdministrations(criteriaOption)</text><polygon fill="#181818" points="2475.5,1295.9297,2485.5,1299.9297,2475.5,1303.9297,2479.5,1299.9297" style="stroke:#181818;stroke-width:1.0;"/><line style="stroke:#181818;stroke-width:1.0;" x1="817.5" x2="2481.5" y1="1299.9297" y2="1299.9297"/><text fill="#000000" font-family="sans-serif" font-size="13" font-weight="bold" lengthAdjust="spacing" textLength="14" x="824.5" y="1295.0732">27</text><text fill="#000000" font-family="sans-serif" font-size="13" lengthAdjust="spacing" textLength="104" x="842.5" y="1295.0732">SortingAlgorithm()</text><rect fill="#E2E2F0" height="31.6094" rx="2.5" ry="2.5" style="stroke:#181818;stroke-width:0.5;" width="228" x="2487.5" y="1277.5781"/><text fill="#000000" font-family="sans-serif" font-size="14" lengthAdjust="spacing" textLength="214" x="2494.5" y="1299.1113">sortingAlgorithm :SortingAlgorithm</text><polygon fill="#181818" points="2584.5,1338.5391,2594.5,1342.5391,2584.5,1346.5391,2588.5,1342.5391" style="stroke:#181818;stroke-width:1.0;"/><line style="stroke:#181818;stroke-width:1.0;" x1="817.5" x2="2590.5" y1="1342.5391" y2="1342.5391"/><text fill="#000000" font-family="sans-serif" font-size="13" font-weight="bold" lengthAdjust="spacing" textLength="14" x="824.5" y="1337.6826">28</text><text fill="#000000" font-family="sans-serif" font-size="13" lengthAdjust="spacing" textLength="345" x="842.5" y="1337.6826">vaccineAdministrationListToSort = sortList(criteria,order,list)</text><polygon fill="#181818" points="2105.5,1398.8906,2115.5,1402.8906,2105.5,1406.8906,2109.5,1402.8906" style="stroke:#181818;stroke-width:1.0;"/><line style="stroke:#181818;stroke-width:1.0;" x1="817.5" x2="2111.5" y1="1402.8906" y2="1402.8906"/><text fill="#000000" font-family="sans-serif" font-size="13" font-weight="bold" lengthAdjust="spacing" textLength="14" x="824.5" y="1398.0342">29</text><text fill="#000000" font-family="sans-serif" font-size="13" lengthAdjust="spacing" textLength="230" x="842.5" y="1398.0342">toDTO(vaccineAdministrationListToSort)</text><rect height="41.4453" style="stroke:#000000;stroke-width:1.5;fill:none;" width="258" x="2019" y="1440.8906"/><path d="M2019,1440.8906 L2081,1440.8906 L2081,1448.8906 L2071,1458.8906 L2019,1458.8906 L2019,1440.8906 " fill="#EEEEEE" style="stroke:#000000;stroke-width:2.0;"/><text fill="#000000" font-family="sans-serif" font-size="13" font-weight="bold" lengthAdjust="spacing" textLength="17" x="2032" y="1456.3857">ref</text><text fill="#000000" font-family="sans-serif" font-size="12" lengthAdjust="spacing" textLength="250" x="2023" y="1475.3477">US017_SD_VaccineAdministrationListToDTO</text><polygon fill="#181818" points="65.5,1505.6875,55.5,1509.6875,65.5,1513.6875,61.5,1509.6875" style="stroke:#181818;stroke-width:1.0;"/><line style="stroke:#181818;stroke-width:1.0;stroke-dasharray:2.0,2.0;" x1="59.5" x2="331.5" y1="1509.6875" y2="1509.6875"/><text fill="#000000" font-family="sans-serif" font-size="13" font-weight="bold" lengthAdjust="spacing" textLength="14" x="71.5" y="1504.8311">30</text><text fill="#000000" font-family="sans-serif" font-size="13" lengthAdjust="spacing" textLength="125" x="89.5" y="1504.8311">Shows all data sorted</text><!--MD5=[b1b5e65b79757f35b378d942fe5c1ba5]
@startuml

participant Coordinator as coord
participant ImportLegacySystemDataUI as UI
participant ImportLegacySystemDataController as CTRL
participant ":App" as APP
participant Company as COMP
participant VaccineStore as VS
participant UserStore as US
participant User as U
participant VaccineAdministrationStore as VAS
participant VaccineAdministrationMapper as VAM
participant VaccineAdministrationDTO as VADTO
participant "sortingAlgorithm :SortingAlgorithm" as SA
participant "vaccineAdministrationListToSort :ArrayList<VaccineAdministration>" as VALIST
autonumber


activate  coord

coord -> UI : Asks to import data from a legacy system
activate UI
UI -> CTRL ** : ImportLegacySystemDataController()
activate CTRL
CTRL -> APP : app = getInstance()
activate APP
deactivate APP
CTRL -> VALIST ** : vaccineAdministrationList = ArrayList<VaccineAdministration>()
deactivate CTRL
UI - -> coord : Requests data (file path)
deactivate UI



coord -> UI : Types requested data
activate UI
UI -> CTRL : importVaccineAdministrations(vaccineAdministrationsStringList)
activate CTRL
CTRL -> "errorLines : ArrayList<Integer>" ** : errorLines = ArrayList<>()
CTRL -> COMP : userStore = getUserStore()
activate COMP
deactivate COMP
CTRL -> COMP : vaccineStore = getVaccineStore()
activate COMP
deactivate COMP
loop for each String in vaccineAdministrationsStringList
CTRL -> COMP : getActorCenter()
activate COMP
deactivate COMP
CTRL -> US : user = getUserBySnsNumber(snsNumber)
activate US
deactivate US
CTRL -> VS : vaccine = getVaccineByName(vaccineName)
activate VS
deactivate VS
CTRL -> CTRL : doseNumber = getIntFromDoseString(doseString)
CTRL -> VADTO ** : vaccineAdministrationDTO = VaccineAdministrationDTO(vaccinationCenter, snsNumber, vaccineName, doseNumber, lotNumber, scheduleData, scheduleTime, arrivalDate, arrivalTime, administrationDate, administrationTime, leavingDate, leavingTime)
CTRL -> U : vaccineAdministration = createNewVaccineAdministration(vaccineAdministrationDTO)
activate U
U-> VAS : createNewVaccineAdministration(vaccineAdministrationDTO)
activate VAS
VAS -> VAM : toModel(vaccineAdministrationDTO)
activate VAM
deactivate VAM
ref over VAM
US017_SD_CreateVaccineAdministration
end
deactivate VAS
deactivate U
CTRL -> U : checkForDuplicateAdministration(vaccineAdministration)
activate U
U -> VAS : checkForDuplicateAdministration(vaccineAdministration)
activate VAS
deactivate VAS
deactivate U
CTRL -> U : saveNewVaccineAdministration(vaccineAdministration)
activate U
U->VAS : saveNewVaccineAdministration(vaccineAdministration)
activate VAS
deactivate VAS
deactivate U
CTRL -> VALIST :add(vaccineAdministration)
activate VALIST
deactivate VALIST
end
deactivate CTRL

UI - -> coord : Shows sorting criteria options
deactivate UI

coord -> UI : Chooses sorting criteria
activate UI
UI -> CTRL : vaccineAdministrationDTOList = sortVaccineAdministrations(criteriaOption)
activate CTRL

CTRL -> SA ** : SortingAlgorithm()

CTRL -> SA : vaccineAdministrationListToSort = sortList(criteria,order,list)
activate SA
deactivate SA
CTRL -> VAM : toDTO(vaccineAdministrationListToSort)
activate VAM
deactivate VAM
ref over VAM
US017_SD_VaccineAdministrationListToDTO
end
deactivate CTRL
UI - -> coord : Shows all data sorted
deactivate UI
@enduml

PlantUML version 1.2022.4(Sat Apr 09 14:29:17 BST 2022)
(GPL source distribution)
Java Runtime: OpenJDK Runtime Environment
JVM: OpenJDK 64-Bit Server VM
Default Encoding: Cp1252
Language: pt
Country: PT
--></g></svg>