<?xml version="1.0" encoding="UTF-8" standalone="no"?><svg xmlns="http://www.w3.org/2000/svg" xmlns:xlink="http://www.w3.org/1999/xlink" contentStyleType="text/css" height="347px" preserveAspectRatio="none" style="width:389px;height:347px;background:#FFFFFF;" version="1.1" viewBox="0 0 389 347" width="389px" zoomAndPan="magnify"><defs/><g><!--MD5=[bc9474904c93394f6b59770801b96c22]
class SNS User--><g id="elem_SNS User"><rect codeLine="3" fill="#F1F1F1" height="180.875" id="SNS User" rx="2.5" ry="2.5" style="stroke:#181818;stroke-width:0.5;" width="152" x="7" y="160"/><ellipse cx="49" cy="176" fill="#ADD1B2" rx="11" ry="11" style="stroke:#181818;stroke-width:1.0;"/><path d="M51,172.5 Q51.2031,172 51.4375,171.75 Q51.6719,171.5 51.9375,171.5 Q52.4063,171.5 52.7031,171.7813 Q53,172.0625 53,172.7188 L53,174.2813 Q53,174.9375 52.7188,175.2188 Q52.4375,175.5 52,175.5 Q51.6094,175.5 51.3594,175.3281 Q51.1094,175.1563 51,174.7031 Q50.9531,174.3906 50.7813,174.2188 Q50.4688,173.8906 49.9063,173.7031 Q49.3438,173.5 48.7813,173.5 Q48.0781,173.5 47.4844,173.7813 Q46.9063,174.0625 46.4531,174.6875 Q46,175.3125 46,176.1719 L46,177.0938 Q46,178.125 46.8438,178.8125 Q47.6875,179.5 49.1875,179.5 Q50.0781,179.5 50.7031,179.2969 Q51.0625,179.1875 51.4688,178.8281 Q51.7344,178.625 51.875,178.5625 Q52.0156,178.5 52.1875,178.5 Q52.5156,178.5 52.75,178.7656 Q53,179.0156 53,179.375 Q53,179.7188 52.6563,180.125 Q52.1563,180.7188 51.3594,181.0469 Q50.3125,181.5 49.0313,181.5 Q47.5313,181.5 46.3281,180.9063 Q45.3594,180.4375 44.6719,179.4219 Q44,178.4063 44,177.2031 L44,176.1094 Q44,174.8594 44.5938,173.7656 Q45.2031,172.6719 46.25,172.0938 Q47.3125,171.5 48.5,171.5 Q49.2188,171.5 49.8438,171.75 Q50.4688,172 51,172.5 Z " fill="#000000"/><text fill="#000000" font-family="sans-serif" font-size="14" lengthAdjust="spacing" textLength="60" x="69" y="181.7285">SNS User</text><line style="stroke:#181818;stroke-width:0.5;" x1="8" x2="158" y1="192" y2="192"/><rect fill="none" height="6" style="stroke:#C82930;stroke-width:1.0;" width="6" x="15" y="200"/><text fill="#000000" font-family="sans-serif" font-size="14" lengthAdjust="spacing" textLength="36" x="27" y="210.5332">Name</text><rect fill="none" height="6" style="stroke:#C82930;stroke-width:1.0;" width="6" x="15" y="217.6094"/><text fill="#000000" font-family="sans-serif" font-size="14" lengthAdjust="spacing" textLength="52" x="27" y="228.1426">Address</text><rect fill="none" height="6" style="stroke:#C82930;stroke-width:1.0;" width="6" x="15" y="235.2188"/><text fill="#000000" font-family="sans-serif" font-size="14" lengthAdjust="spacing" textLength="34" x="27" y="245.752">Email</text><rect fill="none" height="6" style="stroke:#C82930;stroke-width:1.0;" width="6" x="15" y="252.8281"/><text fill="#000000" font-family="sans-serif" font-size="14" lengthAdjust="spacing" textLength="23" x="27" y="263.3613">Sex</text><rect fill="none" height="6" style="stroke:#C82930;stroke-width:1.0;" width="6" x="15" y="270.4375"/><text fill="#000000" font-family="sans-serif" font-size="14" lengthAdjust="spacing" textLength="93" x="27" y="280.9707">Phone number</text><rect fill="none" height="6" style="stroke:#C82930;stroke-width:1.0;" width="6" x="15" y="288.0469"/><text fill="#000000" font-family="sans-serif" font-size="14" lengthAdjust="spacing" textLength="61" x="27" y="298.5801">Birth date</text><rect fill="none" height="6" style="stroke:#C82930;stroke-width:1.0;" width="6" x="15" y="305.6563"/><text fill="#000000" font-family="sans-serif" font-size="14" lengthAdjust="spacing" textLength="112" x="27" y="316.1895">SNS User number</text><rect fill="none" height="6" style="stroke:#C82930;stroke-width:1.0;" width="6" x="15" y="323.2656"/><text fill="#000000" font-family="sans-serif" font-size="14" lengthAdjust="spacing" textLength="126" x="27" y="333.7988">Citizen card number</text></g><!--MD5=[19e445fc4d3b48519cbe33da05496394]
class Vaccine--><g id="elem_Vaccine"><rect codeLine="14" fill="#F1F1F1" height="163.2656" id="Vaccine" rx="2.5" ry="2.5" style="stroke:#181818;stroke-width:0.5;" width="188" x="194" y="169"/><ellipse cx="258.75" cy="185" fill="#ADD1B2" rx="11" ry="11" style="stroke:#181818;stroke-width:1.0;"/><path d="M260.75,181.5 Q260.9531,181 261.1875,180.75 Q261.4219,180.5 261.6875,180.5 Q262.1563,180.5 262.4531,180.7813 Q262.75,181.0625 262.75,181.7188 L262.75,183.2813 Q262.75,183.9375 262.4688,184.2188 Q262.1875,184.5 261.75,184.5 Q261.3594,184.5 261.1094,184.3281 Q260.8594,184.1563 260.75,183.7031 Q260.7031,183.3906 260.5313,183.2188 Q260.2188,182.8906 259.6563,182.7031 Q259.0938,182.5 258.5313,182.5 Q257.8281,182.5 257.2344,182.7813 Q256.6563,183.0625 256.2031,183.6875 Q255.75,184.3125 255.75,185.1719 L255.75,186.0938 Q255.75,187.125 256.5938,187.8125 Q257.4375,188.5 258.9375,188.5 Q259.8281,188.5 260.4531,188.2969 Q260.8125,188.1875 261.2188,187.8281 Q261.4844,187.625 261.625,187.5625 Q261.7656,187.5 261.9375,187.5 Q262.2656,187.5 262.5,187.7656 Q262.75,188.0156 262.75,188.375 Q262.75,188.7188 262.4063,189.125 Q261.9063,189.7188 261.1094,190.0469 Q260.0625,190.5 258.7813,190.5 Q257.2813,190.5 256.0781,189.9063 Q255.1094,189.4375 254.4219,188.4219 Q253.75,187.4063 253.75,186.2031 L253.75,185.1094 Q253.75,183.8594 254.3438,182.7656 Q254.9531,181.6719 256,181.0938 Q257.0625,180.5 258.25,180.5 Q258.9688,180.5 259.5938,180.75 Q260.2188,181 260.75,181.5 Z " fill="#000000"/><text fill="#000000" font-family="sans-serif" font-size="14" lengthAdjust="spacing" textLength="50" x="279.25" y="190.7285">Vaccine</text><line style="stroke:#181818;stroke-width:0.5;" x1="195" x2="381" y1="201" y2="201"/><rect fill="none" height="6" style="stroke:#C82930;stroke-width:1.0;" width="6" x="202" y="209"/><text fill="#000000" font-family="sans-serif" font-size="14" lengthAdjust="spacing" textLength="80" x="214" y="219.5332">vaccineType</text><rect fill="none" height="6" style="stroke:#C82930;stroke-width:1.0;" width="6" x="202" y="226.6094"/><text fill="#000000" font-family="sans-serif" font-size="14" lengthAdjust="spacing" textLength="37" x="214" y="237.1426">brand</text><rect fill="none" height="6" style="stroke:#C82930;stroke-width:1.0;" width="6" x="202" y="244.2188"/><text fill="#000000" font-family="sans-serif" font-size="14" lengthAdjust="spacing" textLength="103" x="214" y="254.752">numberOfDoses</text><rect fill="none" height="6" style="stroke:#C82930;stroke-width:1.0;" width="6" x="202" y="261.8281"/><text fill="#000000" font-family="sans-serif" font-size="14" lengthAdjust="spacing" textLength="109" x="214" y="272.3613">numDifAgeGroup</text><rect fill="none" height="6" style="stroke:#C82930;stroke-width:1.0;" width="6" x="202" y="279.4375"/><text fill="#000000" font-family="sans-serif" font-size="14" lengthAdjust="spacing" textLength="64" x="214" y="289.9707">ageGroup</text><rect fill="none" height="6" style="stroke:#C82930;stroke-width:1.0;" width="6" x="202" y="297.0469"/><text fill="#000000" font-family="sans-serif" font-size="14" lengthAdjust="spacing" textLength="69" x="214" y="307.5801">dosageList</text><rect fill="none" height="6" style="stroke:#C82930;stroke-width:1.0;" width="6" x="202" y="314.6563"/><text fill="#000000" font-family="sans-serif" font-size="14" lengthAdjust="spacing" textLength="162" x="214" y="325.1895">intervalBetweenDosesList</text></g><!--MD5=[107cfa23aa516ff83d0cf17a6f9fe7ba]
class VaccineAdministration--><g id="elem_VaccineAdministration"><rect codeLine="24" fill="#F1F1F1" height="75.2188" id="VaccineAdministration" rx="2.5" ry="2.5" style="stroke:#181818;stroke-width:0.5;" width="171" x="99.5" y="7"/><ellipse cx="114.5" cy="23" fill="#ADD1B2" rx="11" ry="11" style="stroke:#181818;stroke-width:1.0;"/><path d="M116.5,19.5 Q116.7031,19 116.9375,18.75 Q117.1719,18.5 117.4375,18.5 Q117.9063,18.5 118.2031,18.7813 Q118.5,19.0625 118.5,19.7188 L118.5,21.2813 Q118.5,21.9375 118.2188,22.2188 Q117.9375,22.5 117.5,22.5 Q117.1094,22.5 116.8594,22.3281 Q116.6094,22.1563 116.5,21.7031 Q116.4531,21.3906 116.2813,21.2188 Q115.9688,20.8906 115.4063,20.7031 Q114.8438,20.5 114.2813,20.5 Q113.5781,20.5 112.9844,20.7813 Q112.4063,21.0625 111.9531,21.6875 Q111.5,22.3125 111.5,23.1719 L111.5,24.0938 Q111.5,25.125 112.3438,25.8125 Q113.1875,26.5 114.6875,26.5 Q115.5781,26.5 116.2031,26.2969 Q116.5625,26.1875 116.9688,25.8281 Q117.2344,25.625 117.375,25.5625 Q117.5156,25.5 117.6875,25.5 Q118.0156,25.5 118.25,25.7656 Q118.5,26.0156 118.5,26.375 Q118.5,26.7188 118.1563,27.125 Q117.6563,27.7188 116.8594,28.0469 Q115.8125,28.5 114.5313,28.5 Q113.0313,28.5 111.8281,27.9063 Q110.8594,27.4375 110.1719,26.4219 Q109.5,25.4063 109.5,24.2031 L109.5,23.1094 Q109.5,21.8594 110.0938,20.7656 Q110.7031,19.6719 111.75,19.0938 Q112.8125,18.5 114,18.5 Q114.7188,18.5 115.3438,18.75 Q115.9688,19 116.5,19.5 Z " fill="#000000"/><text fill="#000000" font-family="sans-serif" font-size="14" lengthAdjust="spacing" textLength="139" x="128.5" y="28.7285">VaccineAdministration</text><line style="stroke:#181818;stroke-width:0.5;" x1="100.5" x2="269.5" y1="39" y2="39"/><rect fill="none" height="6" style="stroke:#C82930;stroke-width:1.0;" width="6" x="107.5" y="47"/><text fill="#000000" font-family="sans-serif" font-size="14" lengthAdjust="spacing" textLength="50" x="119.5" y="57.5332">Vaccine</text><rect fill="none" height="6" style="stroke:#C82930;stroke-width:1.0;" width="6" x="107.5" y="64.6094"/><text fill="#000000" font-family="sans-serif" font-size="14" lengthAdjust="spacing" textLength="72" x="119.5" y="75.1426">Lot number</text></g><!--MD5=[808a101a881f8e53230a9271a2dc5ec3]
link VaccineAdministration to SNS User--><g id="link_VaccineAdministration_SNS User"><path codeLine="31" d="M156.81,82.14 C150.18,91.59 143.47,101.94 138,112 C129.83,127.02 122.2,143.52 115.37,159.71 " fill="none" id="VaccineAdministration-SNS User" style="stroke:#181818;stroke-width:1.0;"/><polygon fill="#000000" points="140.644,125.5859,147.4983,118.9927,142.3138,116.2231,140.644,125.5859" style="stroke:#000000;stroke-width:1.0;"/><text fill="#000000" font-family="sans-serif" font-size="13" lengthAdjust="spacing" textLength="92" x="152" y="126.4951">administered on</text><text fill="#000000" font-family="sans-serif" font-size="13" lengthAdjust="spacing" textLength="7" x="144.1652" y="103.7766">1</text><text fill="#000000" font-family="sans-serif" font-size="13" lengthAdjust="spacing" textLength="7" x="110.7608" y="149.0438">1</text></g><!--MD5=[d96ee281cdb1021d3c4ed227c45512e2]
link VaccineAdministration to Vaccine--><g id="link_VaccineAdministration_Vaccine"><path codeLine="32" d="M226.43,82.23 C234.83,91.29 242.94,101.44 249,112 C258.95,129.32 266.5,149.35 272.17,168.66 " fill="none" id="VaccineAdministration-Vaccine" style="stroke:#181818;stroke-width:1.0;"/><text fill="#000000" font-family="sans-serif" font-size="13" lengthAdjust="spacing" textLength="10" x="258" y="126.4951">of</text><text fill="#000000" font-family="sans-serif" font-size="13" lengthAdjust="spacing" textLength="7" x="225.9492" y="103.5964">1</text><text fill="#000000" font-family="sans-serif" font-size="13" lengthAdjust="spacing" textLength="20" x="249.8695" y="158.1576">1..*</text></g><!--MD5=[0782770ea78922aba940892da7460b9c]
@startuml
hide methods

class "SNS User"{
- Name
- Address
- Email
- Sex
- Phone number
- Birth date
- SNS User number
- Citizen card number
}

class Vaccine{
- vaccineType
- brand
- numberOfDoses
- numDifAgeGroup
- ageGroup
- dosageList
- intervalBetweenDosesList
}

class VaccineAdministration{
- Vaccine
- Lot number
}



"SNS User""1" -up- "1"VaccineAdministration : < administered on
VaccineAdministration"1" -down- "1..*"Vaccine : of
@enduml

PlantUML version 1.2022.4(Sat Apr 09 14:29:17 BST 2022)
(GPL source distribution)
Java Runtime: OpenJDK Runtime Environment
JVM: OpenJDK 64-Bit Server VM
Default Encoding: Cp1252
Language: pt
Country: PT
--></g></svg>