<?xml version="1.0" encoding="UTF-8" standalone="no"?><svg xmlns="http://www.w3.org/2000/svg" xmlns:xlink="http://www.w3.org/1999/xlink" contentScriptType="application/ecmascript" contentStyleType="text/css" height="743px" preserveAspectRatio="none" style="width:932px;height:743px;background:#FFFFFF;" version="1.1" viewBox="0 0 932 743" width="932px" zoomAndPan="magnify"><defs><filter height="300%" id="f9c37g29324sv" width="300%" x="-1" y="-1"><feGaussianBlur result="blurOut" stdDeviation="2.0"/><feColorMatrix in="blurOut" result="blurOut2" type="matrix" values="0 0 0 0 0 0 0 0 0 0 0 0 0 0 0 0 0 0 .4 0"/><feOffset dx="4.0" dy="4.0" in="blurOut2" result="blurOut3"/><feBlend in="SourceGraphic" in2="blurOut3" mode="normal"/></filter></defs><g><!--MD5=[67de922c3cb216337ce05d80892b06aa]
class CreateEmployeeUI--><rect codeLine="2" fill="#FEFECE" filter="url(#f9c37g29324sv)" height="48" id="CreateEmployeeUI" style="stroke:#A80036;stroke-width:1.5;" width="136" x="169.5" y="7"/><ellipse cx="184.5" cy="23" fill="#ADD1B2" rx="11" ry="11" style="stroke:#A80036;stroke-width:1.0;"/><path d="M186.5,19.5 Q186.7031,19 186.9375,18.75 Q187.1719,18.5 187.4375,18.5 Q187.9063,18.5 188.2031,18.7813 Q188.5,19.0625 188.5,19.7188 L188.5,21.2813 Q188.5,21.9375 188.2188,22.2188 Q187.9375,22.5 187.5,22.5 Q187.1094,22.5 186.8594,22.3281 Q186.6094,22.1563 186.5,21.7031 Q186.4531,21.3906 186.2813,21.2188 Q185.9688,20.8906 185.4063,20.7031 Q184.8438,20.5 184.2813,20.5 Q183.5781,20.5 182.9844,20.7813 Q182.4063,21.0625 181.9531,21.6875 Q181.5,22.3125 181.5,23.1719 L181.5,24.0938 Q181.5,25.125 182.3438,25.8125 Q183.1875,26.5 184.6875,26.5 Q185.5781,26.5 186.2031,26.2969 Q186.5625,26.1875 186.9688,25.8281 Q187.2344,25.625 187.375,25.5625 Q187.5156,25.5 187.6875,25.5 Q188.0156,25.5 188.25,25.7656 Q188.5,26.0156 188.5,26.375 Q188.5,26.7188 188.1563,27.125 Q187.6563,27.7188 186.8594,28.0469 Q185.8125,28.5 184.5313,28.5 Q183.0313,28.5 181.8281,27.9063 Q180.8594,27.4375 180.1719,26.4219 Q179.5,25.4063 179.5,24.2031 L179.5,23.1094 Q179.5,21.8594 180.0938,20.7656 Q180.7031,19.6719 181.75,19.0938 Q182.8125,18.5 184,18.5 Q184.7188,18.5 185.3438,18.75 Q185.9688,19 186.5,19.5 Z " fill="#000000"/><text fill="#000000" font-family="sans-serif" font-size="12" lengthAdjust="spacing" textLength="104" x="198.5" y="27.9102">CreateEmployeeUI</text><line style="stroke:#A80036;stroke-width:1.5;" x1="170.5" x2="304.5" y1="39" y2="39"/><line style="stroke:#A80036;stroke-width:1.5;" x1="170.5" x2="304.5" y1="47" y2="47"/><!--MD5=[be8824f3bfb393c5e5bcc35b042bc2db]
class CreateEmployeeController--><rect codeLine="5" fill="#FEFECE" filter="url(#f9c37g29324sv)" height="75.6719" id="CreateEmployeeController" style="stroke:#A80036;stroke-width:1.5;" width="461" x="7" y="116"/><ellipse cx="160.25" cy="132" fill="#ADD1B2" rx="11" ry="11" style="stroke:#A80036;stroke-width:1.0;"/><path d="M162.25,128.5 Q162.4531,128 162.6875,127.75 Q162.9219,127.5 163.1875,127.5 Q163.6563,127.5 163.9531,127.7813 Q164.25,128.0625 164.25,128.7188 L164.25,130.2813 Q164.25,130.9375 163.9688,131.2188 Q163.6875,131.5 163.25,131.5 Q162.8594,131.5 162.6094,131.3281 Q162.3594,131.1563 162.25,130.7031 Q162.2031,130.3906 162.0313,130.2188 Q161.7188,129.8906 161.1563,129.7031 Q160.5938,129.5 160.0313,129.5 Q159.3281,129.5 158.7344,129.7813 Q158.1563,130.0625 157.7031,130.6875 Q157.25,131.3125 157.25,132.1719 L157.25,133.0938 Q157.25,134.125 158.0938,134.8125 Q158.9375,135.5 160.4375,135.5 Q161.3281,135.5 161.9531,135.2969 Q162.3125,135.1875 162.7188,134.8281 Q162.9844,134.625 163.125,134.5625 Q163.2656,134.5 163.4375,134.5 Q163.7656,134.5 164,134.7656 Q164.25,135.0156 164.25,135.375 Q164.25,135.7188 163.9063,136.125 Q163.4063,136.7188 162.6094,137.0469 Q161.5625,137.5 160.2813,137.5 Q158.7813,137.5 157.5781,136.9063 Q156.6094,136.4375 155.9219,135.4219 Q155.25,134.4063 155.25,133.2031 L155.25,132.1094 Q155.25,130.8594 155.8438,129.7656 Q156.4531,128.6719 157.5,128.0938 Q158.5625,127.5 159.75,127.5 Q160.4688,127.5 161.0938,127.75 Q161.7188,128 162.25,128.5 Z " fill="#000000"/><text fill="#000000" font-family="sans-serif" font-size="12" lengthAdjust="spacing" textLength="146" x="180.75" y="136.9102">CreateEmployeeController</text><line style="stroke:#A80036;stroke-width:1.5;" x1="8" x2="467" y1="148" y2="148"/><line style="stroke:#A80036;stroke-width:1.5;" x1="8" x2="467" y1="156" y2="156"/><ellipse cx="18" cy="167" fill="#84BE84" rx="3" ry="3" style="stroke:#038048;stroke-width:1.0;"/><text fill="#000000" font-family="sans-serif" font-size="11" lengthAdjust="spacing" textLength="435" x="27" y="171.4189">createNewEmployee (name, address, phone number, e-mail and citizen card number, role)</text><ellipse cx="18" cy="180.8359" fill="#84BE84" rx="3" ry="3" style="stroke:#038048;stroke-width:1.0;"/><text fill="#000000" font-family="sans-serif" font-size="11" lengthAdjust="spacing" textLength="78" x="27" y="185.2549">saveEmployee()</text><!--MD5=[02e4b9b7573f1156f41e60aa5b4e25a4]
class Company--><rect codeLine="9" fill="#FEFECE" filter="url(#f9c37g29324sv)" height="75.6719" id="Company" style="stroke:#A80036;stroke-width:1.5;" width="121" x="271" y="253"/><ellipse cx="302.2" cy="269" fill="#ADD1B2" rx="11" ry="11" style="stroke:#A80036;stroke-width:1.0;"/><path d="M304.2,265.5 Q304.4031,265 304.6375,264.75 Q304.8719,264.5 305.1375,264.5 Q305.6063,264.5 305.9031,264.7813 Q306.2,265.0625 306.2,265.7188 L306.2,267.2813 Q306.2,267.9375 305.9188,268.2188 Q305.6375,268.5 305.2,268.5 Q304.8094,268.5 304.5594,268.3281 Q304.3094,268.1563 304.2,267.7031 Q304.1531,267.3906 303.9813,267.2188 Q303.6688,266.8906 303.1063,266.7031 Q302.5438,266.5 301.9813,266.5 Q301.2781,266.5 300.6844,266.7813 Q300.1063,267.0625 299.6531,267.6875 Q299.2,268.3125 299.2,269.1719 L299.2,270.0938 Q299.2,271.125 300.0438,271.8125 Q300.8875,272.5 302.3875,272.5 Q303.2781,272.5 303.9031,272.2969 Q304.2625,272.1875 304.6688,271.8281 Q304.9344,271.625 305.075,271.5625 Q305.2156,271.5 305.3875,271.5 Q305.7156,271.5 305.95,271.7656 Q306.2,272.0156 306.2,272.375 Q306.2,272.7188 305.8563,273.125 Q305.3563,273.7188 304.5594,274.0469 Q303.5125,274.5 302.2313,274.5 Q300.7313,274.5 299.5281,273.9063 Q298.5594,273.4375 297.8719,272.4219 Q297.2,271.4063 297.2,270.2031 L297.2,269.1094 Q297.2,267.8594 297.7938,266.7656 Q298.4031,265.6719 299.45,265.0938 Q300.5125,264.5 301.7,264.5 Q302.4188,264.5 303.0438,264.75 Q303.6688,265 304.2,265.5 Z " fill="#000000"/><text fill="#000000" font-family="sans-serif" font-size="12" lengthAdjust="spacing" textLength="53" x="319.8" y="273.9102">Company</text><line style="stroke:#A80036;stroke-width:1.5;" x1="272" x2="391" y1="285" y2="285"/><rect fill="none" height="6" style="stroke:#C82930;stroke-width:1.0;" width="6" x="279" y="293"/><text fill="#000000" font-family="sans-serif" font-size="11" lengthAdjust="spacing" textLength="55" x="291" y="300.4189">designation</text><line style="stroke:#A80036;stroke-width:1.5;" x1="272" x2="391" y1="306.8359" y2="306.8359"/><ellipse cx="282" cy="317.8359" fill="#84BE84" rx="3" ry="3" style="stroke:#038048;stroke-width:1.0;"/><text fill="#000000" font-family="sans-serif" font-size="11" lengthAdjust="spacing" textLength="95" x="291" y="322.2549">getEmployeeStore()</text><!--MD5=[829fb52c07ade3ad64ef85b99d1fca10]
class EmployeeStore--><rect codeLine="14" fill="#FEFECE" filter="url(#f9c37g29324sv)" height="89.5078" id="EmployeeStore" style="stroke:#A80036;stroke-width:1.5;" width="389" x="52" y="462"/><ellipse cx="200.25" cy="478" fill="#ADD1B2" rx="11" ry="11" style="stroke:#A80036;stroke-width:1.0;"/><path d="M202.25,474.5 Q202.4531,474 202.6875,473.75 Q202.9219,473.5 203.1875,473.5 Q203.6563,473.5 203.9531,473.7813 Q204.25,474.0625 204.25,474.7188 L204.25,476.2813 Q204.25,476.9375 203.9688,477.2188 Q203.6875,477.5 203.25,477.5 Q202.8594,477.5 202.6094,477.3281 Q202.3594,477.1563 202.25,476.7031 Q202.2031,476.3906 202.0313,476.2188 Q201.7188,475.8906 201.1563,475.7031 Q200.5938,475.5 200.0313,475.5 Q199.3281,475.5 198.7344,475.7813 Q198.1563,476.0625 197.7031,476.6875 Q197.25,477.3125 197.25,478.1719 L197.25,479.0938 Q197.25,480.125 198.0938,480.8125 Q198.9375,481.5 200.4375,481.5 Q201.3281,481.5 201.9531,481.2969 Q202.3125,481.1875 202.7188,480.8281 Q202.9844,480.625 203.125,480.5625 Q203.2656,480.5 203.4375,480.5 Q203.7656,480.5 204,480.7656 Q204.25,481.0156 204.25,481.375 Q204.25,481.7188 203.9063,482.125 Q203.4063,482.7188 202.6094,483.0469 Q201.5625,483.5 200.2813,483.5 Q198.7813,483.5 197.5781,482.9063 Q196.6094,482.4375 195.9219,481.4219 Q195.25,480.4063 195.25,479.2031 L195.25,478.1094 Q195.25,476.8594 195.8438,475.7656 Q196.4531,474.6719 197.5,474.0938 Q198.5625,473.5 199.75,473.5 Q200.4688,473.5 201.0938,473.75 Q201.7188,474 202.25,474.5 Z " fill="#000000"/><text fill="#000000" font-family="sans-serif" font-size="12" lengthAdjust="spacing" textLength="84" x="220.75" y="482.9102">EmployeeStore</text><line style="stroke:#A80036;stroke-width:1.5;" x1="53" x2="440" y1="494" y2="494"/><line style="stroke:#A80036;stroke-width:1.5;" x1="53" x2="440" y1="502" y2="502"/><ellipse cx="63" cy="513" fill="#84BE84" rx="3" ry="3" style="stroke:#038048;stroke-width:1.0;"/><text fill="#000000" font-family="sans-serif" font-size="11" lengthAdjust="spacing" textLength="363" x="72" y="517.4189">create(name, address, phone number, e-mail and citizen card number, role)</text><ellipse cx="63" cy="526.8359" fill="#84BE84" rx="3" ry="3" style="stroke:#038048;stroke-width:1.0;"/><text fill="#000000" font-family="sans-serif" font-size="11" lengthAdjust="spacing" textLength="126" x="72" y="531.2549">validateNewEmployee(ne)</text><ellipse cx="63" cy="540.6719" fill="#84BE84" rx="3" ry="3" style="stroke:#038048;stroke-width:1.0;"/><text fill="#000000" font-family="sans-serif" font-size="11" lengthAdjust="spacing" textLength="84" x="72" y="545.0908">addEmployee(ne)</text><!--MD5=[7421f545a0d8420c5bec41e74b387d9c]
class Employee--><rect codeLine="20" fill="#FEFECE" filter="url(#f9c37g29324sv)" height="200.1953" id="Employee" style="stroke:#A80036;stroke-width:1.5;" width="404" x="514.5" y="407"/><ellipse cx="684.75" cy="423" fill="#ADD1B2" rx="11" ry="11" style="stroke:#A80036;stroke-width:1.0;"/><path d="M686.75,419.5 Q686.9531,419 687.1875,418.75 Q687.4219,418.5 687.6875,418.5 Q688.1563,418.5 688.4531,418.7813 Q688.75,419.0625 688.75,419.7188 L688.75,421.2813 Q688.75,421.9375 688.4688,422.2188 Q688.1875,422.5 687.75,422.5 Q687.3594,422.5 687.1094,422.3281 Q686.8594,422.1563 686.75,421.7031 Q686.7031,421.3906 686.5313,421.2188 Q686.2188,420.8906 685.6563,420.7031 Q685.0938,420.5 684.5313,420.5 Q683.8281,420.5 683.2344,420.7813 Q682.6563,421.0625 682.2031,421.6875 Q681.75,422.3125 681.75,423.1719 L681.75,424.0938 Q681.75,425.125 682.5938,425.8125 Q683.4375,426.5 684.9375,426.5 Q685.8281,426.5 686.4531,426.2969 Q686.8125,426.1875 687.2188,425.8281 Q687.4844,425.625 687.625,425.5625 Q687.7656,425.5 687.9375,425.5 Q688.2656,425.5 688.5,425.7656 Q688.75,426.0156 688.75,426.375 Q688.75,426.7188 688.4063,427.125 Q687.9063,427.7188 687.1094,428.0469 Q686.0625,428.5 684.7813,428.5 Q683.2813,428.5 682.0781,427.9063 Q681.1094,427.4375 680.4219,426.4219 Q679.75,425.4063 679.75,424.2031 L679.75,423.1094 Q679.75,421.8594 680.3438,420.7656 Q680.9531,419.6719 682,419.0938 Q683.0625,418.5 684.25,418.5 Q684.9688,418.5 685.5938,418.75 Q686.2188,419 686.75,419.5 Z " fill="#000000"/><text fill="#000000" font-family="sans-serif" font-size="12" lengthAdjust="spacing" textLength="55" x="705.25" y="427.9102">Employee</text><line style="stroke:#A80036;stroke-width:1.5;" x1="515.5" x2="917.5" y1="439" y2="439"/><rect fill="none" height="6" style="stroke:#C82930;stroke-width:1.0;" width="6" x="522.5" y="447"/><text fill="#000000" font-family="sans-serif" font-size="11" lengthAdjust="spacing" textLength="8" x="534.5" y="454.4189">id</text><rect fill="none" height="6" style="stroke:#C82930;stroke-width:1.0;" width="6" x="522.5" y="460.8359"/><text fill="#000000" font-family="sans-serif" font-size="11" lengthAdjust="spacing" textLength="26" x="534.5" y="468.2549">name</text><rect fill="none" height="6" style="stroke:#C82930;stroke-width:1.0;" width="6" x="522.5" y="474.6719"/><text fill="#000000" font-family="sans-serif" font-size="11" lengthAdjust="spacing" textLength="40" x="534.5" y="482.0908">address</text><rect fill="none" height="6" style="stroke:#C82930;stroke-width:1.0;" width="6" x="522.5" y="488.5078"/><text fill="#000000" font-family="sans-serif" font-size="11" lengthAdjust="spacing" textLength="69" x="534.5" y="495.9268">phone number</text><rect fill="none" height="6" style="stroke:#C82930;stroke-width:1.0;" width="6" x="522.5" y="502.3438"/><text fill="#000000" font-family="sans-serif" font-size="11" lengthAdjust="spacing" textLength="28" x="534.5" y="509.7627">e-mail</text><rect fill="none" height="6" style="stroke:#C82930;stroke-width:1.0;" width="6" x="522.5" y="516.1797"/><text fill="#000000" font-family="sans-serif" font-size="11" lengthAdjust="spacing" textLength="95" x="534.5" y="523.5986">citizen card number</text><rect fill="none" height="6" style="stroke:#C82930;stroke-width:1.0;" width="6" x="522.5" y="530.0156"/><text fill="#000000" font-family="sans-serif" font-size="11" lengthAdjust="spacing" textLength="18" x="534.5" y="537.4346">role</text><line style="stroke:#A80036;stroke-width:1.5;" x1="515.5" x2="917.5" y1="543.8516" y2="543.8516"/><ellipse cx="525.5" cy="554.8516" fill="#84BE84" rx="3" ry="3" style="stroke:#038048;stroke-width:1.0;"/><text fill="#000000" font-family="sans-serif" font-size="11" lengthAdjust="spacing" textLength="378" x="534.5" y="559.2705">Employee(name, address, phone number, e-mail and citizen card number, role)</text><ellipse cx="525.5" cy="568.6875" fill="#84BE84" rx="3" ry="3" style="stroke:#038048;stroke-width:1.0;"/><text fill="#000000" font-family="sans-serif" font-size="11" lengthAdjust="spacing" textLength="50" x="534.5" y="573.1064">getName()</text><ellipse cx="525.5" cy="582.5234" fill="#84BE84" rx="3" ry="3" style="stroke:#038048;stroke-width:1.0;"/><text fill="#000000" font-family="sans-serif" font-size="11" lengthAdjust="spacing" textLength="47" x="534.5" y="586.9424">getEmail()</text><ellipse cx="525.5" cy="596.3594" fill="#84BE84" rx="3" ry="3" style="stroke:#038048;stroke-width:1.0;"/><text fill="#000000" font-family="sans-serif" font-size="11" lengthAdjust="spacing" textLength="44" x="534.5" y="600.7783">getRole()</text><!--MD5=[8ae808d068a8995f06b9b3ec51357f0b]
class AuthFacade--><rect codeLine="33" fill="#FEFECE" filter="url(#f9c37g29324sv)" height="61.8359" id="AuthFacade" style="stroke:#A80036;stroke-width:1.5;" width="225" x="33" y="668"/><ellipse cx="108.75" cy="684" fill="#ADD1B2" rx="11" ry="11" style="stroke:#A80036;stroke-width:1.0;"/><path d="M110.75,680.5 Q110.9531,680 111.1875,679.75 Q111.4219,679.5 111.6875,679.5 Q112.1563,679.5 112.4531,679.7813 Q112.75,680.0625 112.75,680.7188 L112.75,682.2813 Q112.75,682.9375 112.4688,683.2188 Q112.1875,683.5 111.75,683.5 Q111.3594,683.5 111.1094,683.3281 Q110.8594,683.1563 110.75,682.7031 Q110.7031,682.3906 110.5313,682.2188 Q110.2188,681.8906 109.6563,681.7031 Q109.0938,681.5 108.5313,681.5 Q107.8281,681.5 107.2344,681.7813 Q106.6563,682.0625 106.2031,682.6875 Q105.75,683.3125 105.75,684.1719 L105.75,685.0938 Q105.75,686.125 106.5938,686.8125 Q107.4375,687.5 108.9375,687.5 Q109.8281,687.5 110.4531,687.2969 Q110.8125,687.1875 111.2188,686.8281 Q111.4844,686.625 111.625,686.5625 Q111.7656,686.5 111.9375,686.5 Q112.2656,686.5 112.5,686.7656 Q112.75,687.0156 112.75,687.375 Q112.75,687.7188 112.4063,688.125 Q111.9063,688.7188 111.1094,689.0469 Q110.0625,689.5 108.7813,689.5 Q107.2813,689.5 106.0781,688.9063 Q105.1094,688.4375 104.4219,687.4219 Q103.75,686.4063 103.75,685.2031 L103.75,684.1094 Q103.75,682.8594 104.3438,681.7656 Q104.9531,680.6719 106,680.0938 Q107.0625,679.5 108.25,679.5 Q108.9688,679.5 109.5938,679.75 Q110.2188,680 110.75,680.5 Z " fill="#000000"/><text fill="#000000" font-family="sans-serif" font-size="12" lengthAdjust="spacing" textLength="65" x="129.25" y="688.9102">AuthFacade</text><line style="stroke:#A80036;stroke-width:1.5;" x1="34" x2="257" y1="700" y2="700"/><line style="stroke:#A80036;stroke-width:1.5;" x1="34" x2="257" y1="708" y2="708"/><ellipse cx="44" cy="719" fill="#84BE84" rx="3" ry="3" style="stroke:#038048;stroke-width:1.0;"/><text fill="#000000" font-family="sans-serif" font-size="11" lengthAdjust="spacing" textLength="199" x="53" y="723.4189">addUserWithRole(name, email, pwd, role)</text><!--MD5=[9c6939c8e2c89225f8e2f7f3c317ffce]
class PwdGenerator--><rect codeLine="36" fill="#FEFECE" filter="url(#f9c37g29324sv)" height="61.8359" id="PwdGenerator" style="stroke:#A80036;stroke-width:1.5;" width="111" x="293" y="668"/><ellipse cx="308" cy="684" fill="#ADD1B2" rx="11" ry="11" style="stroke:#A80036;stroke-width:1.0;"/><path d="M310,680.5 Q310.2031,680 310.4375,679.75 Q310.6719,679.5 310.9375,679.5 Q311.4063,679.5 311.7031,679.7813 Q312,680.0625 312,680.7188 L312,682.2813 Q312,682.9375 311.7188,683.2188 Q311.4375,683.5 311,683.5 Q310.6094,683.5 310.3594,683.3281 Q310.1094,683.1563 310,682.7031 Q309.9531,682.3906 309.7813,682.2188 Q309.4688,681.8906 308.9063,681.7031 Q308.3438,681.5 307.7813,681.5 Q307.0781,681.5 306.4844,681.7813 Q305.9063,682.0625 305.4531,682.6875 Q305,683.3125 305,684.1719 L305,685.0938 Q305,686.125 305.8438,686.8125 Q306.6875,687.5 308.1875,687.5 Q309.0781,687.5 309.7031,687.2969 Q310.0625,687.1875 310.4688,686.8281 Q310.7344,686.625 310.875,686.5625 Q311.0156,686.5 311.1875,686.5 Q311.5156,686.5 311.75,686.7656 Q312,687.0156 312,687.375 Q312,687.7188 311.6563,688.125 Q311.1563,688.7188 310.3594,689.0469 Q309.3125,689.5 308.0313,689.5 Q306.5313,689.5 305.3281,688.9063 Q304.3594,688.4375 303.6719,687.4219 Q303,686.4063 303,685.2031 L303,684.1094 Q303,682.8594 303.5938,681.7656 Q304.2031,680.6719 305.25,680.0938 Q306.3125,679.5 307.5,679.5 Q308.2188,679.5 308.8438,679.75 Q309.4688,680 310,680.5 Z " fill="#000000"/><text fill="#000000" font-family="sans-serif" font-size="12" lengthAdjust="spacing" textLength="79" x="322" y="688.9102">PwdGenerator</text><line style="stroke:#A80036;stroke-width:1.5;" x1="294" x2="403" y1="700" y2="700"/><line style="stroke:#A80036;stroke-width:1.5;" x1="294" x2="403" y1="708" y2="708"/><ellipse cx="304" cy="719" fill="#84BE84" rx="3" ry="3" style="stroke:#038048;stroke-width:1.0;"/><text fill="#000000" font-family="sans-serif" font-size="11" lengthAdjust="spacing" textLength="73" x="313" y="723.4189">generatePwd()</text><!--MD5=[013802062880aae1c87dbce689bd3f0b]
link CreateEmployeeUI to CreateEmployeeController--><path codeLine="41" d="M237.5,55.04 C237.5,70.71 237.5,91.91 237.5,110.58 " fill="none" id="CreateEmployeeUI-to-CreateEmployeeController" style="stroke:#A80036;stroke-width:1.0;stroke-dasharray:7.0,7.0;"/><polygon fill="#A80036" points="237.5,115.77,241.5,106.77,237.5,110.77,233.5,106.77,237.5,115.77" style="stroke:#A80036;stroke-width:1.0;"/><!--MD5=[65d7e587236201106690adc87f84cdb0]
link CreateEmployeeController to Company--><path codeLine="42" d="M263.43,192.25 C275.56,209.66 290.04,230.46 302.52,248.38 " fill="none" id="CreateEmployeeController-to-Company" style="stroke:#A80036;stroke-width:1.0;stroke-dasharray:7.0,7.0;"/><polygon fill="#A80036" points="305.65,252.87,303.7861,243.1991,302.7913,248.7678,297.2226,247.773,305.65,252.87" style="stroke:#A80036;stroke-width:1.0;"/><!--MD5=[a5edbca9f7d76e8bc253ecb1f9898da3]
link CreateEmployeeController to EmployeeStore--><path codeLine="43" d="M238.45,192.23 C240.09,255.9 243.41,385.67 245.24,456.75 " fill="none" id="CreateEmployeeController-to-EmployeeStore" style="stroke:#A80036;stroke-width:1.0;stroke-dasharray:7.0,7.0;"/><polygon fill="#A80036" points="245.37,461.76,249.1373,452.6602,245.2415,456.7617,241.14,452.8658,245.37,461.76" style="stroke:#A80036;stroke-width:1.0;"/><!--MD5=[ce859576cba61219b3cb4d2d23fdcd81]
link Company to EmployeeStore--><path codeLine="44" d="M316.69,329.28 C302.62,364.72 281.36,418.24 265.93,457.09 " fill="none" id="Company-to-EmployeeStore" style="stroke:#A80036;stroke-width:1.0;"/><polygon fill="#A80036" points="264.07,461.76,271.1191,454.8818,265.922,457.1157,263.6882,451.9185,264.07,461.76" style="stroke:#A80036;stroke-width:1.0;"/><text fill="#000000" font-family="sans-serif" font-size="13" lengthAdjust="spacing" textLength="28" x="304.5" y="373.4951">uses</text><text fill="#000000" font-family="sans-serif" font-size="13" lengthAdjust="spacing" textLength="7" x="306.7718" y="350.2052">1</text><text fill="#000000" font-family="sans-serif" font-size="13" lengthAdjust="spacing" textLength="7" x="259.2245" y="451.1673">1</text><!--MD5=[2f3bac1bdf76f0b867b8cadb6fadb6bc]
link EmployeeStore to Employee--><path codeLine="45" d="M441.06,507 C463.6,507 486.65,507 509.35,507 " fill="none" id="EmployeeStore-to-Employee" style="stroke:#A80036;stroke-width:1.0;"/><polygon fill="#A80036" points="514.49,507,505.49,503,509.49,507,505.49,511,514.49,507" style="stroke:#A80036;stroke-width:1.0;"/><text fill="#000000" font-family="sans-serif" font-size="13" lengthAdjust="spacing" textLength="37" x="459.25" y="500.4951">knows</text><text fill="#000000" font-family="sans-serif" font-size="13" lengthAdjust="spacing" textLength="7" x="448.7967" y="504.1991">1</text><text fill="#000000" font-family="sans-serif" font-size="13" lengthAdjust="spacing" textLength="5" x="501.5013" y="504.1857">*</text><!--MD5=[27d36d3e9da4627279500943321b912e]
link EmployeeStore to AuthFacade--><path codeLine="46" d="M223.07,552.07 C205.08,585.92 180.57,632.03 163.95,663.29 " fill="none" id="EmployeeStore-to-AuthFacade" style="stroke:#A80036;stroke-width:1.0;stroke-dasharray:7.0,7.0;"/><polygon fill="#A80036" points="161.56,667.79,169.3278,661.7351,163.9152,663.3794,162.2708,657.9668,161.56,667.79" style="stroke:#A80036;stroke-width:1.0;"/><!--MD5=[4d87d08479e0aedf8d2c521f16531310]
link EmployeeStore to PwdGenerator--><path codeLine="47" d="M270.16,552.07 C288.33,585.92 313.08,632.03 329.86,663.29 " fill="none" id="EmployeeStore-to-PwdGenerator" style="stroke:#A80036;stroke-width:1.0;stroke-dasharray:7.0,7.0;"/><polygon fill="#A80036" points="332.28,667.79,331.5692,657.9668,329.9248,663.3794,324.5122,661.7351,332.28,667.79" style="stroke:#A80036;stroke-width:1.0;"/><!--MD5=[8eec3b100a17528deedbce2c757da7fb]
@startuml

class CreateEmployeeUI {

}
class CreateEmployeeController{
+createNewEmployee (name, address, phone number, e-mail and citizen card number, role)
+saveEmployee()
}
class Company{
- designation
+ getEmployeeStore()
}

class EmployeeStore{
+ create(name, address, phone number, e-mail and citizen card number, role)
+ validateNewEmployee(ne)
+ addEmployee(ne)
}

class Employee{
-id
-name
-address
-phone number
-e-mail
-citizen card number
-role
+ Employee(name, address, phone number, e-mail and citizen card number, role)
+ getName()
+ getEmail()
+ getRole()
}
class AuthFacade {
+ addUserWithRole(name, email, pwd, role)
}
class PwdGenerator{
+ generatePwd()
}


CreateEmployeeUI ..> CreateEmployeeController
CreateEmployeeController  ..> Company
CreateEmployeeController ..> EmployeeStore
Company"1" - -> "1"EmployeeStore : uses
EmployeeStore"1" -right-> "*"Employee : knows
EmployeeStore ..> AuthFacade
EmployeeStore ..> PwdGenerator

@enduml

PlantUML version 1.2022.1(Tue Feb 01 18:19:58 GMT 2022)
(GPL source distribution)
Java Runtime: OpenJDK Runtime Environment
JVM: OpenJDK 64-Bit Server VM
Default Encoding: Cp1252
Language: pt
Country: PT
--></g></svg>