<?xml version="1.0" encoding="UTF-8" standalone="no"?><svg xmlns="http://www.w3.org/2000/svg" xmlns:xlink="http://www.w3.org/1999/xlink" contentScriptType="application/ecmascript" contentStyleType="text/css" height="193px" preserveAspectRatio="none" style="width:404px;height:193px;background:#FFFFFF;" version="1.1" viewBox="0 0 404 193" width="404px" zoomAndPan="magnify"><defs><filter height="300%" id="f15cbvu74uid6r" width="300%" x="-1" y="-1"><feGaussianBlur result="blurOut" stdDeviation="2.0"/><feColorMatrix in="blurOut" result="blurOut2" type="matrix" values="0 0 0 0 0 0 0 0 0 0 0 0 0 0 0 0 0 0 .4 0"/><feOffset dx="4.0" dy="4.0" in="blurOut2" result="blurOut3"/><feBlend in="SourceGraphic" in2="blurOut3" mode="normal"/></filter></defs><g><!--MD5=[e8a0ea5a19ad3a152fb07fead0fc0529]
class WaitingUser--><rect codeLine="3" fill="#FEFECE" filter="url(#f15cbvu74uid6r)" height="75.6719" id="WaitingUser" style="stroke:#A80036;stroke-width:1.5;" width="100" x="7" y="55.5"/><ellipse cx="22" cy="71.5" fill="#ADD1B2" rx="11" ry="11" style="stroke:#A80036;stroke-width:1.0;"/><path d="M24,68 Q24.2031,67.5 24.4375,67.25 Q24.6719,67 24.9375,67 Q25.4063,67 25.7031,67.2813 Q26,67.5625 26,68.2188 L26,69.7813 Q26,70.4375 25.7188,70.7188 Q25.4375,71 25,71 Q24.6094,71 24.3594,70.8281 Q24.1094,70.6563 24,70.2031 Q23.9531,69.8906 23.7813,69.7188 Q23.4688,69.3906 22.9063,69.2031 Q22.3438,69 21.7813,69 Q21.0781,69 20.4844,69.2813 Q19.9063,69.5625 19.4531,70.1875 Q19,70.8125 19,71.6719 L19,72.5938 Q19,73.625 19.8438,74.3125 Q20.6875,75 22.1875,75 Q23.0781,75 23.7031,74.7969 Q24.0625,74.6875 24.4688,74.3281 Q24.7344,74.125 24.875,74.0625 Q25.0156,74 25.1875,74 Q25.5156,74 25.75,74.2656 Q26,74.5156 26,74.875 Q26,75.2188 25.6563,75.625 Q25.1563,76.2188 24.3594,76.5469 Q23.3125,77 22.0313,77 Q20.5313,77 19.3281,76.4063 Q18.3594,75.9375 17.6719,74.9219 Q17,73.9063 17,72.7031 L17,71.6094 Q17,70.3594 17.5938,69.2656 Q18.2031,68.1719 19.25,67.5938 Q20.3125,67 21.5,67 Q22.2188,67 22.8438,67.25 Q23.4688,67.5 24,68 Z " fill="#000000"/><text fill="#000000" font-family="sans-serif" font-size="12" lengthAdjust="spacing" textLength="68" x="36" y="76.4102">WaitingUser</text><line style="stroke:#A80036;stroke-width:1.5;" x1="8" x2="106" y1="87.5" y2="87.5"/><rect fill="none" height="6" style="stroke:#C82930;stroke-width:1.0;" width="6" x="15" y="95.5"/><text fill="#000000" font-family="sans-serif" font-size="11" lengthAdjust="spacing" textLength="23" x="27" y="102.9189">User</text><rect fill="none" height="6" style="stroke:#C82930;stroke-width:1.0;" width="6" x="15" y="109.3359"/><text fill="#000000" font-family="sans-serif" font-size="11" lengthAdjust="spacing" textLength="22" x="27" y="116.7549">Time</text><line style="stroke:#A80036;stroke-width:1.5;" x1="8" x2="106" y1="123.1719" y2="123.1719"/><!--MD5=[bbd32abb87742158d8b9937325662454]
class Center--><rect codeLine="8" fill="#FEFECE" filter="url(#f15cbvu74uid6r)" height="172.5234" id="Center" style="stroke:#A80036;stroke-width:1.5;" width="213" x="177.5" y="7"/><ellipse cx="261.25" cy="23" fill="#ADD1B2" rx="11" ry="11" style="stroke:#A80036;stroke-width:1.0;"/><path d="M263.25,19.5 Q263.4531,19 263.6875,18.75 Q263.9219,18.5 264.1875,18.5 Q264.6563,18.5 264.9531,18.7813 Q265.25,19.0625 265.25,19.7188 L265.25,21.2813 Q265.25,21.9375 264.9688,22.2188 Q264.6875,22.5 264.25,22.5 Q263.8594,22.5 263.6094,22.3281 Q263.3594,22.1563 263.25,21.7031 Q263.2031,21.3906 263.0313,21.2188 Q262.7188,20.8906 262.1563,20.7031 Q261.5938,20.5 261.0313,20.5 Q260.3281,20.5 259.7344,20.7813 Q259.1563,21.0625 258.7031,21.6875 Q258.25,22.3125 258.25,23.1719 L258.25,24.0938 Q258.25,25.125 259.0938,25.8125 Q259.9375,26.5 261.4375,26.5 Q262.3281,26.5 262.9531,26.2969 Q263.3125,26.1875 263.7188,25.8281 Q263.9844,25.625 264.125,25.5625 Q264.2656,25.5 264.4375,25.5 Q264.7656,25.5 265,25.7656 Q265.25,26.0156 265.25,26.375 Q265.25,26.7188 264.9063,27.125 Q264.4063,27.7188 263.6094,28.0469 Q262.5625,28.5 261.2813,28.5 Q259.7813,28.5 258.5781,27.9063 Q257.6094,27.4375 256.9219,26.4219 Q256.25,25.4063 256.25,24.2031 L256.25,23.1094 Q256.25,21.8594 256.8438,20.7656 Q257.4531,19.6719 258.5,19.0938 Q259.5625,18.5 260.75,18.5 Q261.4688,18.5 262.0938,18.75 Q262.7188,19 263.25,19.5 Z " fill="#000000"/><text fill="#000000" font-family="sans-serif" font-size="12" lengthAdjust="spacing" textLength="37" x="281.75" y="27.9102">Center</text><line style="stroke:#A80036;stroke-width:1.5;" x1="178.5" x2="389.5" y1="39" y2="39"/><rect fill="none" height="6" style="stroke:#C82930;stroke-width:1.0;" width="6" x="185.5" y="47"/><text fill="#000000" font-family="sans-serif" font-size="11" lengthAdjust="spacing" textLength="27" x="197.5" y="54.4189">Name</text><rect fill="none" height="6" style="stroke:#C82930;stroke-width:1.0;" width="6" x="185.5" y="60.8359"/><text fill="#000000" font-family="sans-serif" font-size="11" lengthAdjust="spacing" textLength="42" x="197.5" y="68.2549">Address</text><rect fill="none" height="6" style="stroke:#C82930;stroke-width:1.0;" width="6" x="185.5" y="74.6719"/><text fill="#000000" font-family="sans-serif" font-size="11" lengthAdjust="spacing" textLength="69" x="197.5" y="82.0908">Phone number</text><rect fill="none" height="6" style="stroke:#C82930;stroke-width:1.0;" width="6" x="185.5" y="88.5078"/><text fill="#000000" font-family="sans-serif" font-size="11" lengthAdjust="spacing" textLength="71" x="197.5" y="95.9268">E-mail address</text><rect fill="none" height="6" style="stroke:#C82930;stroke-width:1.0;" width="6" x="185.5" y="102.3438"/><text fill="#000000" font-family="sans-serif" font-size="11" lengthAdjust="spacing" textLength="57" x="197.5" y="109.7627">Fax number</text><rect fill="none" height="6" style="stroke:#C82930;stroke-width:1.0;" width="6" x="185.5" y="116.1797"/><text fill="#000000" font-family="sans-serif" font-size="11" lengthAdjust="spacing" textLength="82" x="197.5" y="123.5986">Website address</text><rect fill="none" height="6" style="stroke:#C82930;stroke-width:1.0;" width="6" x="185.5" y="130.0156"/><text fill="#000000" font-family="sans-serif" font-size="11" lengthAdjust="spacing" textLength="129" x="197.5" y="137.4346">Opening and closing hours</text><rect fill="none" height="6" style="stroke:#C82930;stroke-width:1.0;" width="6" x="185.5" y="143.8516"/><text fill="#000000" font-family="sans-serif" font-size="11" lengthAdjust="spacing" textLength="60" x="197.5" y="151.2705">Slot duration</text><rect fill="none" height="6" style="stroke:#C82930;stroke-width:1.0;" width="6" x="185.5" y="157.6875"/><text fill="#000000" font-family="sans-serif" font-size="11" lengthAdjust="spacing" textLength="187" x="197.5" y="165.1064">Max number of vaccines given per slot</text><line style="stroke:#A80036;stroke-width:1.5;" x1="178.5" x2="389.5" y1="171.5234" y2="171.5234"/><!--MD5=[970bdcf3aab08bdd5ee65e7cf9a3c9bb]
link WaitingUser to Center--><path codeLine="21" d="M107.1,93.5 C127.86,93.5 152.78,93.5 177.29,93.5 " fill="none" id="WaitingUser-Center" style="stroke:#A80036;stroke-width:1.0;"/><polygon fill="#000000" points="124.25,81.6758,133.2951,84.6147,133.2951,78.7369,124.25,81.6758" style="stroke:#000000;stroke-width:1.0;"/><text fill="#000000" font-family="sans-serif" font-size="13" lengthAdjust="spacing" textLength="21" x="138.25" y="86.9951">has</text><text fill="#000000" font-family="sans-serif" font-size="13" lengthAdjust="spacing" textLength="5" x="115.1544" y="89.8222">*</text><text fill="#000000" font-family="sans-serif" font-size="13" lengthAdjust="spacing" textLength="7" x="162.5409" y="90.4617">1</text><!--MD5=[6c12af663206bfdb7885f57a396167a3]
@startuml
'https://plantuml.com/class-diagram

Class WaitingUser{
-User
-Time
}

class Center{

-Name
-Address
-Phone number
-E-mail address
-Fax number
-Website address
-Opening and closing hours
-Slot duration
-Max number of vaccines given per slot
}

Center "1"-left- "*"WaitingUser : > has

@enduml

@startuml

Class WaitingUser{
-User
-Time
}

class Center{

-Name
-Address
-Phone number
-E-mail address
-Fax number
-Website address
-Opening and closing hours
-Slot duration
-Max number of vaccines given per slot
}

Center "1"-left- "*"WaitingUser : > has

@enduml

PlantUML version 1.2022.1(Tue Feb 01 18:19:58 GMT 2022)
(GPL source distribution)
Java Runtime: OpenJDK Runtime Environment
JVM: OpenJDK 64-Bit Server VM
Default Encoding: Cp1252
Language: pt
Country: PT
--></g></svg>