<?xml version="1.0" encoding="UTF-8" standalone="no"?><svg xmlns="http://www.w3.org/2000/svg" xmlns:xlink="http://www.w3.org/1999/xlink" contentStyleType="text/css" height="417.2px" preserveAspectRatio="none" style="width:907px;height:417px;background:#FFFFFF;" version="1.1" viewBox="0 0 907 417" width="907.9px" zoomAndPan="magnify"><defs/><g><rect height="19.3266" style="stroke:#00000000;stroke-width:0.6999999999999998;fill:none;" width="137.2" x="386.4" y="7"/><text fill="#000000" font-family="sans-serif" font-size="9.8" font-weight="bold" lengthAdjust="spacing" textLength="130.2" x="389.9" y="20.6732">SD_VaccineTypeListToDTO</text><rect fill="#FFFFFF" height="330.1758" style="stroke:#181818;stroke-width:0.6999999999999998;" width="7" x="122.5" y="75.9992"/><rect fill="#FFFFFF" height="151.4844" style="stroke:#181818;stroke-width:0.6999999999999998;" width="7" x="126" y="192.6641"/><rect fill="#FFFFFF" height="21" style="stroke:#181818;stroke-width:0.6999999999999998;" width="7" x="299.6" y="373.975"/><rect fill="#FFFFFF" height="21" style="stroke:#181818;stroke-width:0.6999999999999998;" width="7" x="523.6" y="144.818"/><rect fill="#FFFFFF" height="21" style="stroke:#181818;stroke-width:0.6999999999999998;" width="7" x="695.1" y="217.4102"/><rect fill="#FFFFFF" height="21" style="stroke:#181818;stroke-width:0.6999999999999998;" width="7" x="695.1" y="259.6562"/><rect fill="#FFFFFF" height="21" style="stroke:#181818;stroke-width:0.6999999999999998;" width="7" x="695.1" y="301.9023"/><rect height="284.2492" style="stroke:#000000;stroke-width:1.0499999999999998;fill:none;" width="835.1" x="68.6" y="116.3258"/><line style="stroke:#181818;stroke-width:0.3499999999999999;fill:none;stroke-dasharray:5.0,5.0;" x1="126" x2="126" y1="53.3531" y2="412.475"/><line style="stroke:#181818;stroke-width:0.3499999999999999;fill:none;stroke-dasharray:5.0,5.0;" x1="303.1" x2="303.1" y1="103.5125" y2="412.475"/><line style="stroke:#181818;stroke-width:0.3499999999999999;fill:none;stroke-dasharray:5.0,5.0;" x1="527.1" x2="527.1" y1="53.3531" y2="412.475"/><line style="stroke:#181818;stroke-width:0.3499999999999999;fill:none;stroke-dasharray:5.0,5.0;" x1="698.6" x2="698.6" y1="53.3531" y2="412.475"/><line style="stroke:#181818;stroke-width:0.3499999999999999;fill:none;stroke-dasharray:5.0,5.0;" x1="833.7" x2="833.7" y1="350.4156" y2="412.475"/><rect fill="#E2E2F0" height="22.1266" rx="1.75" ry="1.75" style="stroke:#181818;stroke-width:0.3499999999999999;" width="100.8" x="75.6" y="30.5266"/><text fill="#000000" font-family="sans-serif" font-size="9.8" lengthAdjust="spacing" textLength="91" x="80.5" y="45.5998">VaccineTypeMapper</text><rect fill="#E2E2F0" height="22.1266" rx="1.75" ry="1.75" style="stroke:#181818;stroke-width:0.3499999999999999;" width="197.4" x="428.4" y="30.5266"/><text fill="#000000" font-family="sans-serif" font-size="9.8" lengthAdjust="spacing" textLength="187.6" x="433.3" y="45.5998">vaccineTypeList : ArrayList&lt;VaccineType&gt;</text><rect fill="#E2E2F0" height="22.1266" rx="1.75" ry="1.75" style="stroke:#181818;stroke-width:0.3499999999999999;" width="131.6" x="632.8" y="30.5266"/><text fill="#000000" font-family="sans-serif" font-size="9.8" lengthAdjust="spacing" textLength="121.8" x="637.7" y="45.5998">vaccineType : VaccineType</text><rect fill="#FFFFFF" height="330.1758" style="stroke:#181818;stroke-width:0.6999999999999998;" width="7" x="122.5" y="75.9992"/><rect fill="#FFFFFF" height="151.4844" style="stroke:#181818;stroke-width:0.6999999999999998;" width="7" x="126" y="192.6641"/><rect fill="#FFFFFF" height="21" style="stroke:#181818;stroke-width:0.6999999999999998;" width="7" x="299.6" y="373.975"/><rect fill="#FFFFFF" height="21" style="stroke:#181818;stroke-width:0.6999999999999998;" width="7" x="523.6" y="144.818"/><rect fill="#FFFFFF" height="21" style="stroke:#181818;stroke-width:0.6999999999999998;" width="7" x="695.1" y="217.4102"/><rect fill="#FFFFFF" height="21" style="stroke:#181818;stroke-width:0.6999999999999998;" width="7" x="695.1" y="259.6562"/><rect fill="#FFFFFF" height="21" style="stroke:#181818;stroke-width:0.6999999999999998;" width="7" x="695.1" y="301.9023"/><ellipse cx="5.25" cy="75.4742" fill="none" rx="2.8" ry="2.8" style="stroke:#181818;stroke-width:1.0499999999999998;"/><polygon fill="#181818" points="114.1,73.1992,121.1,75.9992,114.1,78.7992,116.9,75.9992" style="stroke:#181818;stroke-width:0.6999999999999998;"/><line style="stroke:#181818;stroke-width:0.6999999999999998;" x1="8.4" x2="118.3" y1="75.9992" y2="75.9992"/><text fill="#000000" font-family="sans-serif" font-size="9.1" font-weight="bold" lengthAdjust="spacing" textLength="4.9" x="10.5" y="72.5997">1</text><text fill="#000000" font-family="sans-serif" font-size="9.1" lengthAdjust="spacing" textLength="95.9" x="18.2" y="72.5997">toDTO(vaccineTypeList)</text><polygon fill="#181818" points="176.4,94.4453,183.4,97.2453,176.4,100.0453,179.2,97.2453" style="stroke:#181818;stroke-width:0.6999999999999998;"/><line style="stroke:#181818;stroke-width:0.6999999999999998;stroke-dasharray:2.0,2.0;" x1="129.5" x2="180.6" y1="97.2453" y2="97.2453"/><text fill="#000000" font-family="sans-serif" font-size="9.1" font-weight="bold" lengthAdjust="spacing" textLength="4.9" x="134.4" y="93.8458">2</text><text fill="#000000" font-family="sans-serif" font-size="9.1" lengthAdjust="spacing" textLength="30.8" x="142.1" y="93.8458">create()</text><rect fill="#E2E2F0" height="22.1266" rx="1.75" ry="1.75" style="stroke:#181818;stroke-width:0.3499999999999999;" width="236.6" x="184.8" y="81.5992"/><text fill="#000000" font-family="sans-serif" font-size="9.8" lengthAdjust="spacing" textLength="226.8" x="189.7" y="96.6725">vaccineTypeListDTO: ArrayList&lt;VaccineTypeDTO&gt;</text><path d="M68.6,116.3258 L119.7,116.3258 L119.7,122.1719 L112.7,129.1719 L68.6,129.1719 L68.6,116.3258 " fill="#EEEEEE" style="stroke:#000000;stroke-width:1.0499999999999998;"/><rect fill="none" height="284.2492" style="stroke:#000000;stroke-width:1.0499999999999998;" width="835.1" x="68.6" y="116.3258"/><text fill="#000000" font-family="sans-serif" font-size="9.1" font-weight="bold" lengthAdjust="spacing" textLength="19.6" x="79.1" y="126.4724">loop</text><text fill="#000000" font-family="sans-serif" font-size="7.7" font-weight="bold" lengthAdjust="spacing" textLength="160.3" x="130.2" y="125.719">[for each vaccine type in vaccineTypeList]</text><polygon fill="#181818" points="515.2,142.018,522.2,144.818,515.2,147.618,518,144.818" style="stroke:#181818;stroke-width:0.6999999999999998;"/><line style="stroke:#181818;stroke-width:0.6999999999999998;" x1="129.5" x2="519.4" y1="144.818" y2="144.818"/><text fill="#000000" font-family="sans-serif" font-size="9.1" font-weight="bold" lengthAdjust="spacing" textLength="4.9" x="134.4" y="141.4185">3</text><text fill="#000000" font-family="sans-serif" font-size="9.1" lengthAdjust="spacing" textLength="81.2" x="142.1" y="141.4185">vaccineType = get(i)</text><line style="stroke:#181818;stroke-width:0.6999999999999998;" x1="129.5" x2="162.4" y1="183.5641" y2="183.5641"/><line style="stroke:#181818;stroke-width:0.6999999999999998;" x1="162.4" x2="162.4" y1="183.5641" y2="192.6641"/><line style="stroke:#181818;stroke-width:0.6999999999999998;" x1="133.7" x2="162.4" y1="192.6641" y2="192.6641"/><polygon fill="#181818" points="140.7,189.8641,133.7,192.6641,140.7,195.4641,137.9,192.6641" style="stroke:#181818;stroke-width:0.6999999999999998;"/><text fill="#000000" font-family="sans-serif" font-size="9.1" font-weight="bold" lengthAdjust="spacing" textLength="4.9" x="137.9" y="180.1646">4</text><text fill="#000000" font-family="sans-serif" font-size="9.1" lengthAdjust="spacing" textLength="69.3" x="145.6" y="180.1646">vtDto = toDTO(vt)</text><polygon fill="#181818" points="686.7,214.6102,693.7,217.4102,686.7,220.2102,689.5,217.4102" style="stroke:#181818;stroke-width:0.6999999999999998;"/><line style="stroke:#181818;stroke-width:0.6999999999999998;" x1="133" x2="690.9" y1="217.4102" y2="217.4102"/><text fill="#000000" font-family="sans-serif" font-size="9.1" font-weight="bold" lengthAdjust="spacing" textLength="4.9" x="137.9" y="214.0106">5</text><text fill="#000000" font-family="sans-serif" font-size="9.1" lengthAdjust="spacing" textLength="70" x="145.6" y="214.0106">code = getCode()</text><polygon fill="#181818" points="686.7,256.8562,693.7,259.6562,686.7,262.4562,689.5,259.6562" style="stroke:#181818;stroke-width:0.6999999999999998;"/><line style="stroke:#181818;stroke-width:0.6999999999999998;" x1="133" x2="690.9" y1="259.6562" y2="259.6562"/><text fill="#000000" font-family="sans-serif" font-size="9.1" font-weight="bold" lengthAdjust="spacing" textLength="4.9" x="137.9" y="256.2567">6</text><text fill="#000000" font-family="sans-serif" font-size="9.1" lengthAdjust="spacing" textLength="119" x="145.6" y="256.2567">description = getDescription()</text><polygon fill="#181818" points="686.7,299.1023,693.7,301.9023,686.7,304.7023,689.5,301.9023" style="stroke:#181818;stroke-width:0.6999999999999998;"/><line style="stroke:#181818;stroke-width:0.6999999999999998;" x1="133" x2="690.9" y1="301.9023" y2="301.9023"/><text fill="#000000" font-family="sans-serif" font-size="9.1" font-weight="bold" lengthAdjust="spacing" textLength="4.9" x="137.9" y="298.5028">7</text><text fill="#000000" font-family="sans-serif" font-size="9.1" lengthAdjust="spacing" textLength="66.5" x="145.6" y="298.5028">tech = getTech()</text><polygon fill="#181818" points="763,341.3484,770,344.1484,763,346.9484,765.8,344.1484" style="stroke:#181818;stroke-width:0.6999999999999998;"/><line style="stroke:#181818;stroke-width:0.6999999999999998;stroke-dasharray:2.0,2.0;" x1="129.5" x2="767.2" y1="344.1484" y2="344.1484"/><text fill="#000000" font-family="sans-serif" font-size="9.1" font-weight="bold" lengthAdjust="spacing" textLength="4.9" x="134.4" y="340.7489">8</text><text fill="#000000" font-family="sans-serif" font-size="9.1" lengthAdjust="spacing" textLength="117.6" x="142.1" y="340.7489">create(code,description,tech)</text><rect fill="#E2E2F0" height="22.1266" rx="1.75" ry="1.75" style="stroke:#181818;stroke-width:0.3499999999999999;" width="125.3" x="771.4" y="328.5023"/><text fill="#000000" font-family="sans-serif" font-size="9.8" lengthAdjust="spacing" textLength="115.5" x="776.3" y="343.5756">vtDTO : VaccineTypeDTO</text><polygon fill="#181818" points="291.2,371.175,298.2,373.975,291.2,376.775,294,373.975" style="stroke:#181818;stroke-width:0.6999999999999998;"/><line style="stroke:#181818;stroke-width:0.6999999999999998;" x1="129.5" x2="295.4" y1="373.975" y2="373.975"/><text fill="#000000" font-family="sans-serif" font-size="9.1" font-weight="bold" lengthAdjust="spacing" textLength="4.9" x="134.4" y="370.5755">9</text><text fill="#000000" font-family="sans-serif" font-size="9.1" lengthAdjust="spacing" textLength="88.2" x="142.1" y="370.5755">add(vaccineTypeDTO)</text><!--MD5=[6fe4df9b3e5c5f198dfe150d04542203]
@startuml
title SD_VaccineTypeListToDTO
hide footbox
autonumber
participant VaccineTypeMapper as VTM
participant "vaccineTypeListDTO: ArrayList<VaccineTypeDTO>" as DTOList
participant "vaccineTypeList : ArrayList<VaccineType>" as list
participant "vaccineType : VaccineType" as VT
participant "vtDTO : VaccineTypeDTO" as DTOObj


[o-> VTM : toDTO(vaccineTypeList)
activate VTM
VTM - -> DTOList ** : create()
loop for each vaccine type in vaccineTypeList
VTM -> list : vaccineType = get(i)
activate list
deactivate list
VTM -> VTM : vtDto = toDTO(vt)
activate VTM
VTM -> VT : code = getCode()
activate VT
deactivate VT
VTM -> VT : description = getDescription()
activate VT
deactivate VT
VTM -> VT : tech = getTech()
activate VT
deactivate VT
VTM - -> DTOObj ** : create(code,description,tech)
deactivate VTM
VTM -> DTOList : add(vaccineTypeDTO)
activate DTOList
deactivate DTOList
end
@enduml

PlantUML version 1.2022.4(Sat Apr 09 14:29:17 BST 2022)
(GPL source distribution)
Java Runtime: OpenJDK Runtime Environment
JVM: OpenJDK 64-Bit Server VM
Default Encoding: Cp1252
Language: pt
Country: PT
--></g></svg>