<?xml version="1.0" encoding="UTF-8" standalone="no"?><svg xmlns="http://www.w3.org/2000/svg" xmlns:xlink="http://www.w3.org/1999/xlink" contentScriptType="application/ecmascript" contentStyleType="text/css" height="377px" preserveAspectRatio="none" style="width:437px;height:377px;background:#FFFFFF;" version="1.1" viewBox="0 0 437 377" width="437px" zoomAndPan="magnify"><defs><filter height="300%" id="fqsvgig2i4vhf" width="300%" x="-1" y="-1"><feGaussianBlur result="blurOut" stdDeviation="2.0"/><feColorMatrix in="blurOut" result="blurOut2" type="matrix" values="0 0 0 0 0 0 0 0 0 0 0 0 0 0 0 0 0 0 .4 0"/><feOffset dx="4.0" dy="4.0" in="blurOut2" result="blurOut3"/><feBlend in="SourceGraphic" in2="blurOut3" mode="normal"/></filter></defs><g><rect fill="#FFFFFF" filter="url(#fqsvgig2i4vhf)" height="174.1094" style="stroke:#A80036;stroke-width:1.0;" width="10" x="44.5" y="99.6094"/><rect fill="#FFFFFF" filter="url(#fqsvgig2i4vhf)" height="30.3516" style="stroke:#A80036;stroke-width:1.0;" width="10" x="385.5" y="121.9609"/><rect fill="#FFFFFF" filter="url(#fqsvgig2i4vhf)" height="30.3516" style="stroke:#A80036;stroke-width:1.0;" width="10" x="385.5" y="182.6641"/><rect fill="#FFFFFF" filter="url(#fqsvgig2i4vhf)" height="30.3516" style="stroke:#A80036;stroke-width:1.0;" width="10" x="385.5" y="243.3672"/><line style="stroke:#A80036;stroke-width:1.0;stroke-dasharray:5.0,5.0;" x1="49" x2="49" y1="89.6094" y2="291.7188"/><line style="stroke:#A80036;stroke-width:1.0;stroke-dasharray:5.0,5.0;" x1="390.5" x2="390.5" y1="89.6094" y2="291.7188"/><text fill="#000000" font-family="sans-serif" font-size="14" lengthAdjust="spacing" textLength="83" x="5" y="86.5332">Administrator</text><ellipse cx="49.5" cy="15" fill="#FEFECE" filter="url(#fqsvgig2i4vhf)" rx="8" ry="8" style="stroke:#A80036;stroke-width:2.0;"/><path d="M49.5,23 L49.5,50 M36.5,31 L62.5,31 M49.5,50 L36.5,65 M49.5,50 L62.5,65 " fill="none" filter="url(#fqsvgig2i4vhf)" style="stroke:#A80036;stroke-width:2.0;"/><text fill="#000000" font-family="sans-serif" font-size="14" lengthAdjust="spacing" textLength="83" x="5" y="305.252">Administrator</text><ellipse cx="49.5" cy="318.3281" fill="#FEFECE" filter="url(#fqsvgig2i4vhf)" rx="8" ry="8" style="stroke:#A80036;stroke-width:2.0;"/><path d="M49.5,326.3281 L49.5,353.3281 M36.5,334.3281 L62.5,334.3281 M49.5,353.3281 L36.5,368.3281 M49.5,353.3281 L62.5,368.3281 " fill="none" filter="url(#fqsvgig2i4vhf)" style="stroke:#A80036;stroke-width:2.0;"/><rect fill="#FEFECE" filter="url(#fqsvgig2i4vhf)" height="31.6094" style="stroke:#A80036;stroke-width:1.5;" width="70" x="353.5" y="53"/><text fill="#000000" font-family="sans-serif" font-size="14" lengthAdjust="spacing" textLength="56" x="360.5" y="74.5332">SYSTEM</text><rect fill="#FEFECE" filter="url(#fqsvgig2i4vhf)" height="31.6094" style="stroke:#A80036;stroke-width:1.5;" width="70" x="353.5" y="290.7188"/><text fill="#000000" font-family="sans-serif" font-size="14" lengthAdjust="spacing" textLength="56" x="360.5" y="312.252">SYSTEM</text><rect fill="#FFFFFF" filter="url(#fqsvgig2i4vhf)" height="174.1094" style="stroke:#A80036;stroke-width:1.0;" width="10" x="44.5" y="99.6094"/><rect fill="#FFFFFF" filter="url(#fqsvgig2i4vhf)" height="30.3516" style="stroke:#A80036;stroke-width:1.0;" width="10" x="385.5" y="121.9609"/><rect fill="#FFFFFF" filter="url(#fqsvgig2i4vhf)" height="30.3516" style="stroke:#A80036;stroke-width:1.0;" width="10" x="385.5" y="182.6641"/><rect fill="#FFFFFF" filter="url(#fqsvgig2i4vhf)" height="30.3516" style="stroke:#A80036;stroke-width:1.0;" width="10" x="385.5" y="243.3672"/><polygon fill="#A80036" points="373.5,117.9609,383.5,121.9609,373.5,125.9609,377.5,121.9609" style="stroke:#A80036;stroke-width:1.0;"/><line style="stroke:#A80036;stroke-width:1.0;" x1="54.5" x2="379.5" y1="121.9609" y2="121.9609"/><text fill="#000000" font-family="sans-serif" font-size="13" font-weight="bold" lengthAdjust="spacing" textLength="7" x="61.5" y="117.1045">1</text><text fill="#000000" font-family="sans-serif" font-size="13" lengthAdjust="spacing" textLength="123" x="72.5" y="117.1045">Get list of employees</text><polygon fill="#A80036" points="65.5,148.3125,55.5,152.3125,65.5,156.3125,61.5,152.3125" style="stroke:#A80036;stroke-width:1.0;"/><line style="stroke:#A80036;stroke-width:1.0;stroke-dasharray:2.0,2.0;" x1="59.5" x2="389.5" y1="152.3125" y2="152.3125"/><text fill="#000000" font-family="sans-serif" font-size="13" font-weight="bold" lengthAdjust="spacing" textLength="7" x="71.5" y="147.4561">2</text><text fill="#000000" font-family="sans-serif" font-size="13" lengthAdjust="spacing" textLength="268" x="82.5" y="147.4561">Requests selection of provided options of roles</text><polygon fill="#A80036" points="373.5,178.6641,383.5,182.6641,373.5,186.6641,377.5,182.6641" style="stroke:#A80036;stroke-width:1.0;"/><line style="stroke:#A80036;stroke-width:1.0;" x1="54.5" x2="379.5" y1="182.6641" y2="182.6641"/><text fill="#000000" font-family="sans-serif" font-size="13" font-weight="bold" lengthAdjust="spacing" textLength="7" x="61.5" y="177.8076">3</text><text fill="#000000" font-family="sans-serif" font-size="13" lengthAdjust="spacing" textLength="176" x="72.5" y="177.8076">Selects one role of the options</text><polygon fill="#A80036" points="65.5,209.0156,55.5,213.0156,65.5,217.0156,61.5,213.0156" style="stroke:#A80036;stroke-width:1.0;"/><line style="stroke:#A80036;stroke-width:1.0;stroke-dasharray:2.0,2.0;" x1="59.5" x2="389.5" y1="213.0156" y2="213.0156"/><text fill="#000000" font-family="sans-serif" font-size="13" font-weight="bold" lengthAdjust="spacing" textLength="7" x="71.5" y="208.1592">4</text><text fill="#000000" font-family="sans-serif" font-size="13" lengthAdjust="spacing" textLength="296" x="82.5" y="208.1592">Shows the role selected and request a confirmation</text><polygon fill="#A80036" points="373.5,239.3672,383.5,243.3672,373.5,247.3672,377.5,243.3672" style="stroke:#A80036;stroke-width:1.0;"/><line style="stroke:#A80036;stroke-width:1.0;" x1="54.5" x2="379.5" y1="243.3672" y2="243.3672"/><text fill="#000000" font-family="sans-serif" font-size="13" font-weight="bold" lengthAdjust="spacing" textLength="7" x="61.5" y="238.5107">5</text><text fill="#000000" font-family="sans-serif" font-size="13" lengthAdjust="spacing" textLength="98" x="72.5" y="238.5107">Confirms the role</text><polygon fill="#A80036" points="60.5,269.7188,50.5,273.7188,60.5,277.7188,56.5,273.7188" style="stroke:#A80036;stroke-width:1.0;"/><line style="stroke:#A80036;stroke-width:1.0;stroke-dasharray:2.0,2.0;" x1="54.5" x2="389.5" y1="273.7188" y2="273.7188"/><text fill="#000000" font-family="sans-serif" font-size="13" font-weight="bold" lengthAdjust="spacing" textLength="7" x="66.5" y="268.8623">6</text><text fill="#000000" font-family="sans-serif" font-size="13" lengthAdjust="spacing" textLength="141" x="77.5" y="268.8623">Shows list of employees</text><!--MD5=[de333b4f78457faab8c1fa91d227acdb]
@startuml

autonumber

actor "Administrator" as Admin

activate Admin

"Admin" -> SYSTEM: Get list of employees
activate "SYSTEM"
"Admin" <- - SYSTEM: Requests selection of provided options of roles
deactivate "SYSTEM"

"Admin" -> SYSTEM: Selects one role of the options
activate "SYSTEM"

"Admin" <- - SYSTEM: Shows the role selected and request a confirmation
deactivate "SYSTEM"

"Admin" -> SYSTEM: Confirms the role
activate "SYSTEM"

"Admin" <- - SYSTEM: Shows list of employees
deactivate "SYSTEM"

deactivate Admin

@enduml

PlantUML version 1.2022.1(Tue Feb 01 18:19:58 GMT 2022)
(GPL source distribution)
Java Runtime: OpenJDK Runtime Environment
JVM: OpenJDK 64-Bit Server VM
Default Encoding: Cp1252
Language: pt
Country: PT
--></g></svg>