<?xml version="1.0" encoding="UTF-8" standalone="no"?><svg xmlns="http://www.w3.org/2000/svg" xmlns:xlink="http://www.w3.org/1999/xlink" contentScriptType="application/ecmascript" contentStyleType="text/css" height="529.9px" preserveAspectRatio="none" style="width:832px;height:529px;background:#FFFFFF;" version="1.1" viewBox="0 0 832 529" width="832.3px" zoomAndPan="magnify"><defs><filter height="300%" id="f1gvppvgzjuhfp" width="300%" x="-1" y="-1"><feGaussianBlur result="blurOut" stdDeviation="1.3999999999999997"/><feColorMatrix in="blurOut" result="blurOut2" type="matrix" values="0 0 0 0 0 0 0 0 0 0 0 0 0 0 0 0 0 0 .4 0"/><feOffset dx="2.7999999999999994" dy="2.7999999999999994" in="blurOut2" result="blurOut3"/><feBlend in="SourceGraphic" in2="blurOut3" mode="normal"/></filter></defs><g><!--MD5=[9de91121ea4b6cecbb5f82aca8f29660]
class RegisterNewSNSUserUI--><rect codeLine="2" fill="#FEFECE" filter="url(#f1gvppvgzjuhfp)" height="33.6" id="RegisterNewSNSUserUI" style="stroke:#A80036;stroke-width:1.0499999999999998;" width="117.6" x="141.4" y="4.9"/><ellipse cx="151.9" cy="16.1" fill="#ADD1B2" rx="7.7" ry="7.7" style="stroke:#A80036;stroke-width:0.6999999999999998;"/><path d="M153.3,13.65 Q153.4422,13.3 153.6062,13.125 Q153.7703,12.95 153.9562,12.95 Q154.2844,12.95 154.4922,13.1469 Q154.7,13.3437 154.7,13.8031 L154.7,14.8969 Q154.7,15.3562 154.5031,15.5531 Q154.3062,15.75 154,15.75 Q153.7266,15.75 153.5516,15.6297 Q153.3766,15.5094 153.3,15.1922 Q153.2672,14.9734 153.1469,14.8531 Q152.9281,14.6234 152.5344,14.4922 Q152.1406,14.35 151.7469,14.35 Q151.2547,14.35 150.8391,14.5469 Q150.4344,14.7437 150.1172,15.1812 Q149.8,15.6187 149.8,16.2203 L149.8,16.8656 Q149.8,17.5875 150.3906,18.0687 Q150.9812,18.55 152.0312,18.55 Q152.6547,18.55 153.0922,18.4078 Q153.3437,18.3312 153.6281,18.0797 Q153.8141,17.9375 153.9125,17.8937 Q154.0109,17.85 154.1312,17.85 Q154.3609,17.85 154.525,18.0359 Q154.7,18.2109 154.7,18.4625 Q154.7,18.7031 154.4594,18.9875 Q154.1094,19.4031 153.5516,19.6328 Q152.8187,19.95 151.9219,19.95 Q150.8719,19.95 150.0297,19.5344 Q149.3516,19.2062 148.8703,18.4953 Q148.4,17.7844 148.4,16.9422 L148.4,16.1766 Q148.4,15.3016 148.8156,14.5359 Q149.2422,13.7703 149.975,13.3656 Q150.7187,12.95 151.55,12.95 Q152.0531,12.95 152.4906,13.125 Q152.9281,13.3 153.3,13.65 Z " fill="#000000"/><text fill="#000000" font-family="sans-serif" font-size="8.4" lengthAdjust="spacing" textLength="95.2" x="161.7" y="19.5371">RegisterNewSNSUserUI</text><line style="stroke:#A80036;stroke-width:1.0499999999999998;" x1="142.1" x2="258.3" y1="27.3" y2="27.3"/><line style="stroke:#A80036;stroke-width:1.0499999999999998;" x1="142.1" x2="258.3" y1="32.9" y2="32.9"/><!--MD5=[80a19da3f35abd9be5e003fae8289769]
class RegisterNewSNSUserController--><rect codeLine="5" fill="#FEFECE" filter="url(#f1gvppvgzjuhfp)" height="62.6555" id="RegisterNewSNSUserController" style="stroke:#A80036;stroke-width:1.0499999999999998;" width="390.6" x="4.9" y="81.2"/><ellipse cx="134.925" cy="92.4" fill="#ADD1B2" rx="7.7" ry="7.7" style="stroke:#A80036;stroke-width:0.6999999999999998;"/><path d="M136.325,89.95 Q136.4672,89.6 136.6312,89.425 Q136.7953,89.25 136.9812,89.25 Q137.3094,89.25 137.5172,89.4469 Q137.725,89.6437 137.725,90.1031 L137.725,91.1969 Q137.725,91.6562 137.5281,91.8531 Q137.3312,92.05 137.025,92.05 Q136.7516,92.05 136.5766,91.9297 Q136.4016,91.8094 136.325,91.4922 Q136.2922,91.2734 136.1719,91.1531 Q135.9531,90.9234 135.5594,90.7922 Q135.1656,90.65 134.7719,90.65 Q134.2797,90.65 133.8641,90.8469 Q133.4594,91.0437 133.1422,91.4812 Q132.825,91.9187 132.825,92.5203 L132.825,93.1656 Q132.825,93.8875 133.4156,94.3687 Q134.0062,94.85 135.0562,94.85 Q135.6797,94.85 136.1172,94.7078 Q136.3687,94.6312 136.6531,94.3797 Q136.8391,94.2375 136.9375,94.1937 Q137.0359,94.15 137.1562,94.15 Q137.3859,94.15 137.55,94.3359 Q137.725,94.5109 137.725,94.7625 Q137.725,95.0031 137.4844,95.2875 Q137.1344,95.7031 136.5766,95.9328 Q135.8437,96.25 134.9469,96.25 Q133.8969,96.25 133.0547,95.8344 Q132.3766,95.5062 131.8953,94.7953 Q131.425,94.0844 131.425,93.2422 L131.425,92.4766 Q131.425,91.6016 131.8406,90.8359 Q132.2672,90.0703 133,89.6656 Q133.7437,89.25 134.575,89.25 Q135.0781,89.25 135.5156,89.425 Q135.9531,89.6 136.325,89.95 Z " fill="#000000"/><text fill="#000000" font-family="sans-serif" font-size="8.4" lengthAdjust="spacing" textLength="124.6" x="149.275" y="95.8371">RegisterNewSNSUserController</text><line style="stroke:#A80036;stroke-width:1.0499999999999998;" x1="5.6" x2="394.8" y1="103.6" y2="103.6"/><line style="stroke:#A80036;stroke-width:1.0499999999999998;" x1="5.6" x2="394.8" y1="109.2" y2="109.2"/><ellipse cx="12.6" cy="116.9" fill="#84BE84" rx="2.1" ry="2.1" style="stroke:#038048;stroke-width:0.6999999999999998;"/><text fill="#000000" font-family="sans-serif" font-size="7.7" lengthAdjust="spacing" textLength="372.4" x="18.9" y="119.9933">createSNSUser(name, address, sex, phone number, e-mail, birth date, SNS User number, citizen card number)</text><ellipse cx="12.6" cy="126.5852" fill="#84BE84" rx="2.1" ry="2.1" style="stroke:#038048;stroke-width:0.6999999999999998;"/><text fill="#000000" font-family="sans-serif" font-size="7.7" lengthAdjust="spacing" textLength="77.7" x="18.9" y="129.6784">validateSNSUser(user)</text><ellipse cx="12.6" cy="136.2703" fill="#84BE84" rx="2.1" ry="2.1" style="stroke:#038048;stroke-width:0.6999999999999998;"/><text fill="#000000" font-family="sans-serif" font-size="7.7" lengthAdjust="spacing" textLength="53.2" x="18.9" y="139.3636">saveSNSUser()</text><!--MD5=[02e4b9b7573f1156f41e60aa5b4e25a4]
class Company--><rect codeLine="10" fill="#FEFECE" filter="url(#f1gvppvgzjuhfp)" height="52.9703" id="Company" style="stroke:#A80036;stroke-width:1.0499999999999998;" width="83.3" x="223.65" y="186.9"/><ellipse cx="244.86" cy="198.1" fill="#ADD1B2" rx="7.7" ry="7.7" style="stroke:#A80036;stroke-width:0.6999999999999998;"/><path d="M246.26,195.65 Q246.4022,195.3 246.5662,195.125 Q246.7303,194.95 246.9162,194.95 Q247.2444,194.95 247.4522,195.1469 Q247.66,195.3437 247.66,195.8031 L247.66,196.8969 Q247.66,197.3562 247.4631,197.5531 Q247.2662,197.75 246.96,197.75 Q246.6866,197.75 246.5116,197.6297 Q246.3366,197.5094 246.26,197.1922 Q246.2272,196.9734 246.1069,196.8531 Q245.8881,196.6234 245.4944,196.4922 Q245.1006,196.35 244.7069,196.35 Q244.2147,196.35 243.7991,196.5469 Q243.3944,196.7437 243.0772,197.1812 Q242.76,197.6187 242.76,198.2203 L242.76,198.8656 Q242.76,199.5875 243.3506,200.0687 Q243.9412,200.55 244.9912,200.55 Q245.6147,200.55 246.0522,200.4078 Q246.3037,200.3312 246.5881,200.0797 Q246.7741,199.9375 246.8725,199.8937 Q246.9709,199.85 247.0912,199.85 Q247.3209,199.85 247.485,200.0359 Q247.66,200.2109 247.66,200.4625 Q247.66,200.7031 247.4194,200.9875 Q247.0694,201.4031 246.5116,201.6328 Q245.7787,201.95 244.8819,201.95 Q243.8319,201.95 242.9897,201.5344 Q242.3116,201.2062 241.8303,200.4953 Q241.36,199.7844 241.36,198.9422 L241.36,198.1766 Q241.36,197.3016 241.7756,196.5359 Q242.2022,195.7703 242.935,195.3656 Q243.6787,194.95 244.51,194.95 Q245.0131,194.95 245.4506,195.125 Q245.8881,195.3 246.26,195.65 Z " fill="#000000"/><text fill="#000000" font-family="sans-serif" font-size="8.4" lengthAdjust="spacing" textLength="37.1" x="257.04" y="201.5371">Company</text><line style="stroke:#A80036;stroke-width:1.0499999999999998;" x1="224.35" x2="306.25" y1="209.3" y2="209.3"/><rect fill="none" height="4.2" style="stroke:#C82930;stroke-width:0.6999999999999998;" width="4.2" x="229.25" y="214.9"/><text fill="#000000" font-family="sans-serif" font-size="7.7" lengthAdjust="spacing" textLength="38.5" x="237.65" y="220.0933">designation</text><line style="stroke:#A80036;stroke-width:1.0499999999999998;" x1="224.35" x2="306.25" y1="224.5852" y2="224.5852"/><ellipse cx="231.35" cy="232.2852" fill="#84BE84" rx="2.1" ry="2.1" style="stroke:#038048;stroke-width:0.6999999999999998;"/><text fill="#000000" font-family="sans-serif" font-size="7.7" lengthAdjust="spacing" textLength="65.1" x="237.65" y="235.3784">getSNSUserStore()</text><!--MD5=[a5ad3856b0c65e07b10297b4477b22bb]
class SNSUserStore--><rect codeLine="15" fill="#FEFECE" filter="url(#f1gvppvgzjuhfp)" height="72.3406" id="SNSUserStore" style="stroke:#A80036;stroke-width:1.0499999999999998;" width="390.6" x="11.2" y="328.65"/><ellipse cx="175.175" cy="339.85" fill="#ADD1B2" rx="7.7" ry="7.7" style="stroke:#A80036;stroke-width:0.6999999999999998;"/><path d="M176.575,337.4 Q176.7172,337.05 176.8812,336.875 Q177.0453,336.7 177.2312,336.7 Q177.5594,336.7 177.7672,336.8969 Q177.975,337.0937 177.975,337.5531 L177.975,338.6469 Q177.975,339.1062 177.7781,339.3031 Q177.5812,339.5 177.275,339.5 Q177.0016,339.5 176.8266,339.3797 Q176.6516,339.2594 176.575,338.9422 Q176.5422,338.7234 176.4219,338.6031 Q176.2031,338.3734 175.8094,338.2422 Q175.4156,338.1 175.0219,338.1 Q174.5297,338.1 174.1141,338.2969 Q173.7094,338.4937 173.3922,338.9312 Q173.075,339.3687 173.075,339.9703 L173.075,340.6156 Q173.075,341.3375 173.6656,341.8187 Q174.2562,342.3 175.3062,342.3 Q175.9297,342.3 176.3672,342.1578 Q176.6187,342.0812 176.9031,341.8297 Q177.0891,341.6875 177.1875,341.6437 Q177.2859,341.6 177.4062,341.6 Q177.6359,341.6 177.8,341.7859 Q177.975,341.9609 177.975,342.2125 Q177.975,342.4531 177.7344,342.7375 Q177.3844,343.1531 176.8266,343.3828 Q176.0937,343.7 175.1969,343.7 Q174.1469,343.7 173.3047,343.2844 Q172.6266,342.9562 172.1453,342.2453 Q171.675,341.5344 171.675,340.6922 L171.675,339.9266 Q171.675,339.0516 172.0906,338.2859 Q172.5172,337.5203 173.25,337.1156 Q173.9937,336.7 174.825,336.7 Q175.3281,336.7 175.7656,336.875 Q176.2031,337.05 176.575,337.4 Z " fill="#000000"/><text fill="#000000" font-family="sans-serif" font-size="8.4" lengthAdjust="spacing" textLength="56.7" x="189.525" y="343.2871">SNSUserStore</text><line style="stroke:#A80036;stroke-width:1.0499999999999998;" x1="11.9" x2="401.1" y1="351.05" y2="351.05"/><line style="stroke:#A80036;stroke-width:1.0499999999999998;" x1="11.9" x2="401.1" y1="356.65" y2="356.65"/><ellipse cx="18.9" cy="364.35" fill="#84BE84" rx="2.1" ry="2.1" style="stroke:#038048;stroke-width:0.6999999999999998;"/><text fill="#000000" font-family="sans-serif" font-size="7.7" lengthAdjust="spacing" textLength="372.4" x="25.2" y="367.4433">createSNSUser(name, address, sex, phone number, e-mail, birth date, SNS User number, citizen card number)</text><ellipse cx="18.9" cy="374.0352" fill="#84BE84" rx="2.1" ry="2.1" style="stroke:#038048;stroke-width:0.6999999999999998;"/><text fill="#000000" font-family="sans-serif" font-size="7.7" lengthAdjust="spacing" textLength="77.7" x="25.2" y="377.1284">validateSNSUser(user)</text><ellipse cx="18.9" cy="383.7203" fill="#84BE84" rx="2.1" ry="2.1" style="stroke:#038048;stroke-width:0.6999999999999998;"/><text fill="#000000" font-family="sans-serif" font-size="7.7" lengthAdjust="spacing" textLength="53.2" x="25.2" y="386.8136">saveSNSUser()</text><ellipse cx="18.9" cy="393.4055" fill="#84BE84" rx="2.1" ry="2.1" style="stroke:#038048;stroke-width:0.6999999999999998;"/><text fill="#000000" font-family="sans-serif" font-size="7.7" lengthAdjust="spacing" textLength="64.4" x="25.2" y="396.4987">addSNSUser(user)</text><!--MD5=[72be06cc7ae02ccc98efe28a50e62246]
class SNSUser--><rect codeLine="22" fill="#FEFECE" filter="url(#f1gvppvgzjuhfp)" height="140.1367" id="SNSUser" style="stroke:#A80036;stroke-width:1.0499999999999998;" width="359.8" x="462.7" y="294.7"/><ellipse cx="621.425" cy="305.9" fill="#ADD1B2" rx="7.7" ry="7.7" style="stroke:#A80036;stroke-width:0.6999999999999998;"/><path d="M622.825,303.45 Q622.9672,303.1 623.1312,302.925 Q623.2953,302.75 623.4812,302.75 Q623.8094,302.75 624.0172,302.9469 Q624.225,303.1437 624.225,303.6031 L624.225,304.6969 Q624.225,305.1562 624.0281,305.3531 Q623.8312,305.55 623.525,305.55 Q623.2516,305.55 623.0766,305.4297 Q622.9016,305.3094 622.825,304.9922 Q622.7922,304.7734 622.6719,304.6531 Q622.4531,304.4234 622.0594,304.2922 Q621.6656,304.15 621.2719,304.15 Q620.7797,304.15 620.3641,304.3469 Q619.9594,304.5437 619.6422,304.9812 Q619.325,305.4187 619.325,306.0203 L619.325,306.6656 Q619.325,307.3875 619.9156,307.8687 Q620.5062,308.35 621.5562,308.35 Q622.1797,308.35 622.6172,308.2078 Q622.8687,308.1312 623.1531,307.8797 Q623.3391,307.7375 623.4375,307.6937 Q623.5359,307.65 623.6562,307.65 Q623.8859,307.65 624.05,307.8359 Q624.225,308.0109 624.225,308.2625 Q624.225,308.5031 623.9844,308.7875 Q623.6344,309.2031 623.0766,309.4328 Q622.3437,309.75 621.4469,309.75 Q620.3969,309.75 619.5547,309.3344 Q618.8766,309.0062 618.3953,308.2953 Q617.925,307.5844 617.925,306.7422 L617.925,305.9766 Q617.925,305.1016 618.3406,304.3359 Q618.7672,303.5703 619.5,303.1656 Q620.2437,302.75 621.075,302.75 Q621.5781,302.75 622.0156,302.925 Q622.4531,303.1 622.825,303.45 Z " fill="#000000"/><text fill="#000000" font-family="sans-serif" font-size="8.4" lengthAdjust="spacing" textLength="36.4" x="635.775" y="309.3371">SNSUser</text><line style="stroke:#A80036;stroke-width:1.0499999999999998;" x1="463.4" x2="821.8" y1="317.1" y2="317.1"/><rect fill="none" height="4.2" style="stroke:#C82930;stroke-width:0.6999999999999998;" width="4.2" x="468.3" y="322.7"/><text fill="#000000" font-family="sans-serif" font-size="7.7" lengthAdjust="spacing" textLength="18.2" x="476.7" y="327.8933">name</text><rect fill="none" height="4.2" style="stroke:#C82930;stroke-width:0.6999999999999998;" width="4.2" x="468.3" y="332.3852"/><text fill="#000000" font-family="sans-serif" font-size="7.7" lengthAdjust="spacing" textLength="28" x="476.7" y="337.5784">address</text><rect fill="none" height="4.2" style="stroke:#C82930;stroke-width:0.6999999999999998;" width="4.2" x="468.3" y="342.0703"/><text fill="#000000" font-family="sans-serif" font-size="7.7" lengthAdjust="spacing" textLength="12.6" x="476.7" y="347.2636">sex</text><rect fill="none" height="4.2" style="stroke:#C82930;stroke-width:0.6999999999999998;" width="4.2" x="468.3" y="351.7555"/><text fill="#000000" font-family="sans-serif" font-size="7.7" lengthAdjust="spacing" textLength="46.9" x="476.7" y="356.9487">phoneNumber</text><rect fill="none" height="4.2" style="stroke:#C82930;stroke-width:0.6999999999999998;" width="4.2" x="468.3" y="361.4406"/><text fill="#000000" font-family="sans-serif" font-size="7.7" lengthAdjust="spacing" textLength="16.8" x="476.7" y="366.6339">email</text><rect fill="none" height="4.2" style="stroke:#C82930;stroke-width:0.6999999999999998;" width="4.2" x="468.3" y="371.1258"/><text fill="#000000" font-family="sans-serif" font-size="7.7" lengthAdjust="spacing" textLength="30.1" x="476.7" y="376.319">birthDate</text><rect fill="none" height="4.2" style="stroke:#C82930;stroke-width:0.6999999999999998;" width="4.2" x="468.3" y="380.8109"/><text fill="#000000" font-family="sans-serif" font-size="7.7" lengthAdjust="spacing" textLength="56.7" x="476.7" y="386.0042">SNSUserNumber</text><rect fill="none" height="4.2" style="stroke:#C82930;stroke-width:0.6999999999999998;" width="4.2" x="468.3" y="390.4961"/><text fill="#000000" font-family="sans-serif" font-size="7.7" lengthAdjust="spacing" textLength="63.7" x="476.7" y="395.6894">citizenCardNumber</text><line style="stroke:#A80036;stroke-width:1.0499999999999998;" x1="463.4" x2="821.8" y1="400.1812" y2="400.1812"/><ellipse cx="470.4" cy="407.8812" fill="#84BE84" rx="2.1" ry="2.1" style="stroke:#038048;stroke-width:0.6999999999999998;"/><text fill="#000000" font-family="sans-serif" font-size="7.7" lengthAdjust="spacing" textLength="341.6" x="476.7" y="410.9745">create(name, address, sex, phone number, e-mail, birth date, SNS User number, citizen card number)</text><ellipse cx="470.4" cy="417.5664" fill="#84BE84" rx="2.1" ry="2.1" style="stroke:#038048;stroke-width:0.6999999999999998;"/><text fill="#000000" font-family="sans-serif" font-size="7.7" lengthAdjust="spacing" textLength="35" x="476.7" y="420.6597">getName()</text><ellipse cx="470.4" cy="427.2516" fill="#84BE84" rx="2.1" ry="2.1" style="stroke:#038048;stroke-width:0.6999999999999998;"/><text fill="#000000" font-family="sans-serif" font-size="7.7" lengthAdjust="spacing" textLength="32.9" x="476.7" y="430.3448">getEmail()</text><!--MD5=[8ae808d068a8995f06b9b3ec51357f0b]
class AuthFacade--><rect codeLine="35" fill="#FEFECE" filter="url(#f1gvppvgzjuhfp)" height="43.2852" id="AuthFacade" style="stroke:#A80036;stroke-width:1.0499999999999998;" width="188.3" x="33.95" y="477.4"/><ellipse cx="102.375" cy="488.6" fill="#ADD1B2" rx="7.7" ry="7.7" style="stroke:#A80036;stroke-width:0.6999999999999998;"/><path d="M103.775,486.15 Q103.9172,485.8 104.0812,485.625 Q104.2453,485.45 104.4312,485.45 Q104.7594,485.45 104.9672,485.6469 Q105.175,485.8437 105.175,486.3031 L105.175,487.3969 Q105.175,487.8562 104.9781,488.0531 Q104.7812,488.25 104.475,488.25 Q104.2016,488.25 104.0266,488.1297 Q103.8516,488.0094 103.775,487.6922 Q103.7422,487.4734 103.6219,487.3531 Q103.4031,487.1234 103.0094,486.9922 Q102.6156,486.85 102.2219,486.85 Q101.7297,486.85 101.3141,487.0469 Q100.9094,487.2437 100.5922,487.6812 Q100.275,488.1187 100.275,488.7203 L100.275,489.3656 Q100.275,490.0875 100.8656,490.5687 Q101.4562,491.05 102.5062,491.05 Q103.1297,491.05 103.5672,490.9078 Q103.8187,490.8312 104.1031,490.5797 Q104.2891,490.4375 104.3875,490.3937 Q104.4859,490.35 104.6062,490.35 Q104.8359,490.35 105,490.5359 Q105.175,490.7109 105.175,490.9625 Q105.175,491.2031 104.9344,491.4875 Q104.5844,491.9031 104.0266,492.1328 Q103.2937,492.45 102.3969,492.45 Q101.3469,492.45 100.5047,492.0344 Q99.8266,491.7062 99.3453,490.9953 Q98.875,490.2844 98.875,489.4422 L98.875,488.6766 Q98.875,487.8016 99.2906,487.0359 Q99.7172,486.2703 100.45,485.8656 Q101.1937,485.45 102.025,485.45 Q102.5281,485.45 102.9656,485.625 Q103.4031,485.8 103.775,486.15 Z " fill="#000000"/><text fill="#000000" font-family="sans-serif" font-size="8.4" lengthAdjust="spacing" textLength="45.5" x="116.725" y="492.0371">AuthFacade</text><line style="stroke:#A80036;stroke-width:1.0499999999999998;" x1="34.65" x2="221.55" y1="499.8" y2="499.8"/><line style="stroke:#A80036;stroke-width:1.0499999999999998;" x1="34.65" x2="221.55" y1="505.4" y2="505.4"/><ellipse cx="41.65" cy="513.1" fill="#84BE84" rx="2.1" ry="2.1" style="stroke:#038048;stroke-width:0.6999999999999998;"/><text fill="#000000" font-family="sans-serif" font-size="7.7" lengthAdjust="spacing" textLength="170.1" x="47.95" y="516.1933">addUserWithRole(name, email, pwd, "SNS_USER")</text><!--MD5=[9c6939c8e2c89225f8e2f7f3c317ffce]
class PwdGenerator--><rect codeLine="38" fill="#FEFECE" filter="url(#f1gvppvgzjuhfp)" height="43.2852" id="PwdGenerator" style="stroke:#A80036;stroke-width:1.0499999999999998;" width="77.7" x="246.75" y="477.4"/><ellipse cx="257.25" cy="488.6" fill="#ADD1B2" rx="7.7" ry="7.7" style="stroke:#A80036;stroke-width:0.6999999999999998;"/><path d="M258.65,486.15 Q258.7922,485.8 258.9562,485.625 Q259.1203,485.45 259.3062,485.45 Q259.6344,485.45 259.8422,485.6469 Q260.05,485.8437 260.05,486.3031 L260.05,487.3969 Q260.05,487.8562 259.8531,488.0531 Q259.6562,488.25 259.35,488.25 Q259.0766,488.25 258.9016,488.1297 Q258.7266,488.0094 258.65,487.6922 Q258.6172,487.4734 258.4969,487.3531 Q258.2781,487.1234 257.8844,486.9922 Q257.4906,486.85 257.0969,486.85 Q256.6047,486.85 256.1891,487.0469 Q255.7844,487.2437 255.4672,487.6812 Q255.15,488.1187 255.15,488.7203 L255.15,489.3656 Q255.15,490.0875 255.7406,490.5687 Q256.3312,491.05 257.3812,491.05 Q258.0047,491.05 258.4422,490.9078 Q258.6937,490.8312 258.9781,490.5797 Q259.1641,490.4375 259.2625,490.3937 Q259.3609,490.35 259.4812,490.35 Q259.7109,490.35 259.875,490.5359 Q260.05,490.7109 260.05,490.9625 Q260.05,491.2031 259.8094,491.4875 Q259.4594,491.9031 258.9016,492.1328 Q258.1687,492.45 257.2719,492.45 Q256.2219,492.45 255.3797,492.0344 Q254.7016,491.7062 254.2203,490.9953 Q253.75,490.2844 253.75,489.4422 L253.75,488.6766 Q253.75,487.8016 254.1656,487.0359 Q254.5922,486.2703 255.325,485.8656 Q256.0687,485.45 256.9,485.45 Q257.4031,485.45 257.8406,485.625 Q258.2781,485.8 258.65,486.15 Z " fill="#000000"/><text fill="#000000" font-family="sans-serif" font-size="8.4" lengthAdjust="spacing" textLength="55.3" x="267.05" y="492.0371">PwdGenerator</text><line style="stroke:#A80036;stroke-width:1.0499999999999998;" x1="247.45" x2="323.75" y1="499.8" y2="499.8"/><line style="stroke:#A80036;stroke-width:1.0499999999999998;" x1="247.45" x2="323.75" y1="505.4" y2="505.4"/><ellipse cx="254.45" cy="513.1" fill="#84BE84" rx="2.1" ry="2.1" style="stroke:#038048;stroke-width:0.6999999999999998;"/><text fill="#000000" font-family="sans-serif" font-size="7.7" lengthAdjust="spacing" textLength="51.1" x="260.75" y="516.1933">generatePwd()</text><!--MD5=[f950ff3dcc691b1d54d9b62137f6f734]
link RegisterNewSNSUserUI to RegisterNewSNSUserController--><path codeLine="43" d="M200.2,38.626 C200.2,49.413 200.2,63.994 200.2,77.315 " fill="none" id="RegisterNewSNSUserUI-to-RegisterNewSNSUserController" style="stroke:#A80036;stroke-width:0.6999999999999998;stroke-dasharray:7.0,7.0;"/><polygon fill="#A80036" points="200.2,81.032,203,74.732,200.2,77.532,197.4,74.732,200.2,81.032" style="stroke:#A80036;stroke-width:0.6999999999999998;"/><!--MD5=[a6d31702f049763ac1b1d834b9a34bb7]
link RegisterNewSNSUserController to Company--><path codeLine="44" d="M220.444,144.305 C228.627,156.807 238.042,171.178 246.12,183.512 " fill="none" id="RegisterNewSNSUserController-to-Company" style="stroke:#A80036;stroke-width:0.6999999999999998;stroke-dasharray:7.0,7.0;"/><polygon fill="#A80036" points="248.143,186.599,247.032,179.7949,246.2247,183.6715,242.348,182.8642,248.143,186.599" style="stroke:#A80036;stroke-width:0.6999999999999998;"/><!--MD5=[de925a5d477511859d38216ef4f90bf5]
link RegisterNewSNSUserController to SNSUserStore--><path codeLine="45" d="M200.977,144.382 C202.125,189.973 204.267,275.107 205.52,324.926 " fill="none" id="RegisterNewSNSUserController-to-SNSUserStore" style="stroke:#A80036;stroke-width:0.6999999999999998;stroke-dasharray:7.0,7.0;"/><polygon fill="#A80036" points="205.604,328.447,208.2411,322.0771,205.514,324.9482,202.643,322.2211,205.604,328.447" style="stroke:#A80036;stroke-width:0.6999999999999998;"/><!--MD5=[1bd9080c7e199931e49bc5a1616681ac]
link Company to SNSUserStore--><path codeLine="46" d="M255.059,240.296 C245.896,263.641 232.33,298.186 221.872,324.849 " fill="none" id="Company-to-SNSUserStore" style="stroke:#A80036;stroke-width:0.6999999999999998;"/><polygon fill="#A80036" points="220.479,328.384,225.3878,323.5432,221.7582,325.1261,220.1752,321.4965,220.479,328.384" style="stroke:#A80036;stroke-width:0.6999999999999998;"/><text fill="#000000" font-family="sans-serif" font-size="9.1" lengthAdjust="spacing" textLength="19.6" x="246.4" y="271.2466">uses</text><text fill="#000000" font-family="sans-serif" font-size="9.1" lengthAdjust="spacing" textLength="4.9" x="248.1364" y="254.9436">1</text><text fill="#000000" font-family="sans-serif" font-size="9.1" lengthAdjust="spacing" textLength="4.9" x="217.1282" y="320.9985">1</text><!--MD5=[b01d27099955aced792f1ce85db49798]
link SNSUserStore to SNSUser--><path codeLine="47" d="M401.905,364.7 C420.896,364.7 440.111,364.7 458.976,364.7 " fill="none" id="SNSUserStore-to-SNSUser" style="stroke:#A80036;stroke-width:0.6999999999999998;"/><polygon fill="#A80036" points="462.497,364.7,456.197,361.9,458.997,364.7,456.197,367.5,462.497,364.7" style="stroke:#A80036;stroke-width:0.6999999999999998;"/><polygon fill="#000000" points="421.05,356.423,414.7184,354.3658,414.7184,358.4803,421.05,356.423" style="stroke:#000000;stroke-width:0.6999999999999998;"/><text fill="#000000" font-family="sans-serif" font-size="9.1" lengthAdjust="spacing" textLength="25.9" x="423.85" y="360.1466">knows</text><text fill="#000000" font-family="sans-serif" font-size="9.1" lengthAdjust="spacing" textLength="4.9" x="407.1605" y="362.7979">1</text><text fill="#000000" font-family="sans-serif" font-size="9.1" lengthAdjust="spacing" textLength="3.5" x="453.5982" y="362.782">*</text><!--MD5=[bc3349464b4fa8eddccb337858e655b4]
link SNSUserStore to AuthFacade--><path codeLine="48" d="M185.493,401.044 C171.885,424.123 154.525,453.572 142.478,474.012 " fill="none" id="SNSUserStore-to-AuthFacade" style="stroke:#A80036;stroke-width:0.6999999999999998;stroke-dasharray:7.0,7.0;"/><polygon fill="#A80036" points="140.588,477.211,146.1991,473.2053,142.3652,474.1958,141.3748,470.3618,140.588,477.211" style="stroke:#A80036;stroke-width:0.6999999999999998;"/><!--MD5=[e1f3a2d9e30f9559e64785294db5762b]
link SNSUserStore to PwdGenerator--><path codeLine="49" d="M227.696,401.044 C241.423,424.123 258.937,453.572 271.096,474.012 " fill="none" id="SNSUserStore-to-PwdGenerator" style="stroke:#A80036;stroke-width:0.6999999999999998;stroke-dasharray:7.0,7.0;"/><polygon fill="#A80036" points="273,477.211,272.1865,470.365,271.211,474.2027,267.3733,473.2273,273,477.211" style="stroke:#A80036;stroke-width:0.6999999999999998;"/><!--MD5=[c60b8a7294b96612ff0bb323a0dc528f]
@startuml

class RegisterNewSNSUserUI {

}
class RegisterNewSNSUserController{
+ createSNSUser(name, address, sex, phone number, e-mail, birth date, SNS User number, citizen card number)
+ validateSNSUser(user)
+ saveSNSUser()
}
class Company{
- designation
+ getSNSUserStore()
}

class SNSUserStore{
+ createSNSUser(name, address, sex, phone number, e-mail, birth date, SNS User number, citizen card number)
+ validateSNSUser(user)
+ saveSNSUser()
+ addSNSUser(user)
}

class SNSUser{
- name
- address
- sex
- phoneNumber
- email
- birthDate
- SNSUserNumber
- citizenCardNumber
+ create(name, address, sex, phone number, e-mail, birth date, SNS User number, citizen card number)
+ getName()
+ getEmail()
}
class AuthFacade {
+ addUserWithRole(name, email, pwd, "SNS_USER")
}
class PwdGenerator{
+ generatePwd()
}


RegisterNewSNSUserUI ..> RegisterNewSNSUserController
RegisterNewSNSUserController  ..> Company
RegisterNewSNSUserController ..> SNSUserStore
Company"1" - -> "1"SNSUserStore : uses
SNSUserStore"1" -right-> "*"SNSUser : knows >
SNSUserStore ..> AuthFacade
SNSUserStore ..> PwdGenerator

@enduml

PlantUML version 1.2022.1(Tue Feb 01 18:19:58 GMT 2022)
(GPL source distribution)
Java Runtime: OpenJDK Runtime Environment
JVM: OpenJDK 64-Bit Server VM
Default Encoding: Cp1252
Language: pt
Country: PT
--></g></svg>