<?xml version="1.0" encoding="UTF-8" standalone="no"?><svg xmlns="http://www.w3.org/2000/svg" xmlns:xlink="http://www.w3.org/1999/xlink" contentScriptType="application/ecmascript" contentStyleType="text/css" height="794px" preserveAspectRatio="none" style="width:1661px;height:794px;background:#FFFFFF;" version="1.1" viewBox="0 0 1661 794" width="1661px" zoomAndPan="magnify"><defs><filter height="300%" id="f1pzja3bwkg8k9" width="300%" x="-1" y="-1"><feGaussianBlur result="blurOut" stdDeviation="2.0"/><feColorMatrix in="blurOut" result="blurOut2" type="matrix" values="0 0 0 0 0 0 0 0 0 0 0 0 0 0 0 0 0 0 .4 0"/><feOffset dx="4.0" dy="4.0" in="blurOut2" result="blurOut3"/><feBlend in="SourceGraphic" in2="blurOut3" mode="normal"/></filter></defs><g><!--MD5=[5c2fa8d608deccfa455fcbc3db73f6f5]
class RegisterTheArrivalUI--><rect codeLine="2" fill="#FEFECE" filter="url(#f1pzja3bwkg8k9)" height="61.8359" id="RegisterTheArrivalUI" style="stroke:#A80036;stroke-width:1.5;" width="145" x="402.5" y="7"/><ellipse cx="417.5" cy="23" fill="#ADD1B2" rx="11" ry="11" style="stroke:#A80036;stroke-width:1.0;"/><path d="M419.5,19.5 Q419.7031,19 419.9375,18.75 Q420.1719,18.5 420.4375,18.5 Q420.9063,18.5 421.2031,18.7813 Q421.5,19.0625 421.5,19.7188 L421.5,21.2813 Q421.5,21.9375 421.2188,22.2188 Q420.9375,22.5 420.5,22.5 Q420.1094,22.5 419.8594,22.3281 Q419.6094,22.1563 419.5,21.7031 Q419.4531,21.3906 419.2813,21.2188 Q418.9688,20.8906 418.4063,20.7031 Q417.8438,20.5 417.2813,20.5 Q416.5781,20.5 415.9844,20.7813 Q415.4063,21.0625 414.9531,21.6875 Q414.5,22.3125 414.5,23.1719 L414.5,24.0938 Q414.5,25.125 415.3438,25.8125 Q416.1875,26.5 417.6875,26.5 Q418.5781,26.5 419.2031,26.2969 Q419.5625,26.1875 419.9688,25.8281 Q420.2344,25.625 420.375,25.5625 Q420.5156,25.5 420.6875,25.5 Q421.0156,25.5 421.25,25.7656 Q421.5,26.0156 421.5,26.375 Q421.5,26.7188 421.1563,27.125 Q420.6563,27.7188 419.8594,28.0469 Q418.8125,28.5 417.5313,28.5 Q416.0313,28.5 414.8281,27.9063 Q413.8594,27.4375 413.1719,26.4219 Q412.5,25.4063 412.5,24.2031 L412.5,23.1094 Q412.5,21.8594 413.0938,20.7656 Q413.7031,19.6719 414.75,19.0938 Q415.8125,18.5 417,18.5 Q417.7188,18.5 418.3438,18.75 Q418.9688,19 419.5,19.5 Z " fill="#000000"/><text fill="#000000" font-family="sans-serif" font-size="12" lengthAdjust="spacing" textLength="113" x="431.5" y="27.9102">RegisterTheArrivalUI</text><line style="stroke:#A80036;stroke-width:1.5;" x1="403.5" x2="546.5" y1="39" y2="39"/><line style="stroke:#A80036;stroke-width:1.5;" x1="403.5" x2="546.5" y1="47" y2="47"/><ellipse cx="413.5" cy="58" fill="#84BE84" rx="3" ry="3" style="stroke:#038048;stroke-width:1.0;"/><text fill="#000000" font-family="sans-serif" font-size="11" lengthAdjust="spacing" textLength="24" x="422.5" y="62.4189">run()</text><!--MD5=[c5b19695fbfbd90c801ca4ffce01ce8f]
class RegisterTheArrivalController--><rect codeLine="6" fill="#FEFECE" filter="url(#f1pzja3bwkg8k9)" height="103.3438" id="RegisterTheArrivalController" style="stroke:#A80036;stroke-width:1.5;" width="212" x="369" y="129"/><ellipse cx="395.25" cy="145" fill="#ADD1B2" rx="11" ry="11" style="stroke:#A80036;stroke-width:1.0;"/><path d="M397.25,141.5 Q397.4531,141 397.6875,140.75 Q397.9219,140.5 398.1875,140.5 Q398.6563,140.5 398.9531,140.7813 Q399.25,141.0625 399.25,141.7188 L399.25,143.2813 Q399.25,143.9375 398.9688,144.2188 Q398.6875,144.5 398.25,144.5 Q397.8594,144.5 397.6094,144.3281 Q397.3594,144.1563 397.25,143.7031 Q397.2031,143.3906 397.0313,143.2188 Q396.7188,142.8906 396.1563,142.7031 Q395.5938,142.5 395.0313,142.5 Q394.3281,142.5 393.7344,142.7813 Q393.1563,143.0625 392.7031,143.6875 Q392.25,144.3125 392.25,145.1719 L392.25,146.0938 Q392.25,147.125 393.0938,147.8125 Q393.9375,148.5 395.4375,148.5 Q396.3281,148.5 396.9531,148.2969 Q397.3125,148.1875 397.7188,147.8281 Q397.9844,147.625 398.125,147.5625 Q398.2656,147.5 398.4375,147.5 Q398.7656,147.5 399,147.7656 Q399.25,148.0156 399.25,148.375 Q399.25,148.7188 398.9063,149.125 Q398.4063,149.7188 397.6094,150.0469 Q396.5625,150.5 395.2813,150.5 Q393.7813,150.5 392.5781,149.9063 Q391.6094,149.4375 390.9219,148.4219 Q390.25,147.4063 390.25,146.2031 L390.25,145.1094 Q390.25,143.8594 390.8438,142.7656 Q391.4531,141.6719 392.5,141.0938 Q393.5625,140.5 394.75,140.5 Q395.4688,140.5 396.0938,140.75 Q396.7188,141 397.25,141.5 Z " fill="#000000"/><text fill="#000000" font-family="sans-serif" font-size="12" lengthAdjust="spacing" textLength="155" x="411.75" y="149.9102">RegisterTheArrivalController</text><line style="stroke:#A80036;stroke-width:1.5;" x1="370" x2="580" y1="161" y2="161"/><rect fill="none" height="6" style="stroke:#C82930;stroke-width:1.0;" width="6" x="377" y="169"/><text fill="#000000" font-family="sans-serif" font-size="11" lengthAdjust="spacing" textLength="47" x="389" y="176.4189">App : app</text><rect fill="none" height="6" style="stroke:#C82930;stroke-width:1.0;" width="6" x="377" y="182.8359"/><text fill="#000000" font-family="sans-serif" font-size="11" lengthAdjust="spacing" textLength="152" x="389" y="190.2549">VaccinationCenter: actorCenter</text><line style="stroke:#A80036;stroke-width:1.5;" x1="370" x2="580" y1="196.6719" y2="196.6719"/><ellipse cx="380" cy="207.6719" fill="#84BE84" rx="3" ry="3" style="stroke:#038048;stroke-width:1.0;"/><text fill="#000000" font-family="sans-serif" font-size="11" lengthAdjust="spacing" textLength="186" x="389" y="212.0908">checkAppointmentList(int: snsNumber)</text><ellipse cx="380" cy="221.5078" fill="#84BE84" rx="3" ry="3" style="stroke:#038048;stroke-width:1.0;"/><text fill="#000000" font-family="sans-serif" font-size="11" lengthAdjust="spacing" textLength="156" x="389" y="225.9268">addWaitingUser(int: snsNumber)</text><!--MD5=[02e4b9b7573f1156f41e60aa5b4e25a4]
class Company--><rect codeLine="13" fill="#FEFECE" filter="url(#f1pzja3bwkg8k9)" height="117.1797" id="Company" style="stroke:#A80036;stroke-width:1.5;" width="178" x="136" y="361.5"/><ellipse cx="194.25" cy="377.5" fill="#ADD1B2" rx="11" ry="11" style="stroke:#A80036;stroke-width:1.0;"/><path d="M196.25,374 Q196.4531,373.5 196.6875,373.25 Q196.9219,373 197.1875,373 Q197.6563,373 197.9531,373.2813 Q198.25,373.5625 198.25,374.2188 L198.25,375.7813 Q198.25,376.4375 197.9688,376.7188 Q197.6875,377 197.25,377 Q196.8594,377 196.6094,376.8281 Q196.3594,376.6563 196.25,376.2031 Q196.2031,375.8906 196.0313,375.7188 Q195.7188,375.3906 195.1563,375.2031 Q194.5938,375 194.0313,375 Q193.3281,375 192.7344,375.2813 Q192.1563,375.5625 191.7031,376.1875 Q191.25,376.8125 191.25,377.6719 L191.25,378.5938 Q191.25,379.625 192.0938,380.3125 Q192.9375,381 194.4375,381 Q195.3281,381 195.9531,380.7969 Q196.3125,380.6875 196.7188,380.3281 Q196.9844,380.125 197.125,380.0625 Q197.2656,380 197.4375,380 Q197.7656,380 198,380.2656 Q198.25,380.5156 198.25,380.875 Q198.25,381.2188 197.9063,381.625 Q197.4063,382.2188 196.6094,382.5469 Q195.5625,383 194.2813,383 Q192.7813,383 191.5781,382.4063 Q190.6094,381.9375 189.9219,380.9219 Q189.25,379.9063 189.25,378.7031 L189.25,377.6094 Q189.25,376.3594 189.8438,375.2656 Q190.4531,374.1719 191.5,373.5938 Q192.5625,373 193.75,373 Q194.4688,373 195.0938,373.25 Q195.7188,373.5 196.25,374 Z " fill="#000000"/><text fill="#000000" font-family="sans-serif" font-size="12" lengthAdjust="spacing" textLength="53" x="214.75" y="382.4102">Company</text><line style="stroke:#A80036;stroke-width:1.5;" x1="137" x2="313" y1="393.5" y2="393.5"/><rect fill="none" height="6" style="stroke:#C82930;stroke-width:1.0;" width="6" x="144" y="401.5"/><text fill="#000000" font-family="sans-serif" font-size="11" lengthAdjust="spacing" textLength="55" x="156" y="408.9189">designation</text><rect fill="none" height="6" style="stroke:#C82930;stroke-width:1.0;" width="6" x="144" y="415.3359"/><text fill="#000000" font-family="sans-serif" font-size="11" lengthAdjust="spacing" textLength="152" x="156" y="422.7549">VaccinationCenter: actorCenter</text><rect fill="none" height="6" style="stroke:#C82930;stroke-width:1.0;" width="6" x="144" y="429.1719"/><text fill="#000000" font-family="sans-serif" font-size="11" lengthAdjust="spacing" textLength="103" x="156" y="436.5908">UserStore: userStore</text><line style="stroke:#A80036;stroke-width:1.5;" x1="137" x2="313" y1="443.0078" y2="443.0078"/><ellipse cx="147" cy="454.0078" fill="#84BE84" rx="3" ry="3" style="stroke:#038048;stroke-width:1.0;"/><text fill="#000000" font-family="sans-serif" font-size="11" lengthAdjust="spacing" textLength="82" x="156" y="458.4268">getActorCenter()</text><ellipse cx="147" cy="467.8438" fill="#84BE84" rx="3" ry="3" style="stroke:#038048;stroke-width:1.0;"/><text fill="#000000" font-family="sans-serif" font-size="11" lengthAdjust="spacing" textLength="72" x="156" y="472.2627">getUserStore()</text><!--MD5=[335f4d9be48430461c68bf6d6fdba145]
class App--><rect codeLine="21" fill="#FEFECE" filter="url(#f1pzja3bwkg8k9)" height="75.6719" id="App" style="stroke:#A80036;stroke-width:1.5;" width="94" x="7" y="382"/><ellipse cx="40.45" cy="398" fill="#ADD1B2" rx="11" ry="11" style="stroke:#A80036;stroke-width:1.0;"/><path d="M42.45,394.5 Q42.6531,394 42.8875,393.75 Q43.1219,393.5 43.3875,393.5 Q43.8563,393.5 44.1531,393.7813 Q44.45,394.0625 44.45,394.7188 L44.45,396.2813 Q44.45,396.9375 44.1688,397.2188 Q43.8875,397.5 43.45,397.5 Q43.0594,397.5 42.8094,397.3281 Q42.5594,397.1563 42.45,396.7031 Q42.4031,396.3906 42.2313,396.2188 Q41.9188,395.8906 41.3563,395.7031 Q40.7938,395.5 40.2313,395.5 Q39.5281,395.5 38.9344,395.7813 Q38.3563,396.0625 37.9031,396.6875 Q37.45,397.3125 37.45,398.1719 L37.45,399.0938 Q37.45,400.125 38.2938,400.8125 Q39.1375,401.5 40.6375,401.5 Q41.5281,401.5 42.1531,401.2969 Q42.5125,401.1875 42.9188,400.8281 Q43.1844,400.625 43.325,400.5625 Q43.4656,400.5 43.6375,400.5 Q43.9656,400.5 44.2,400.7656 Q44.45,401.0156 44.45,401.375 Q44.45,401.7188 44.1063,402.125 Q43.6063,402.7188 42.8094,403.0469 Q41.7625,403.5 40.4813,403.5 Q38.9813,403.5 37.7781,402.9063 Q36.8094,402.4375 36.1219,401.4219 Q35.45,400.4063 35.45,399.2031 L35.45,398.1094 Q35.45,396.8594 36.0438,395.7656 Q36.6531,394.6719 37.7,394.0938 Q38.7625,393.5 39.95,393.5 Q40.6688,393.5 41.2938,393.75 Q41.9188,394 42.45,394.5 Z " fill="#000000"/><text fill="#000000" font-family="sans-serif" font-size="12" lengthAdjust="spacing" textLength="21" x="58.55" y="402.9102">App</text><line style="stroke:#A80036;stroke-width:1.5;" x1="8" x2="100" y1="414" y2="414"/><line style="stroke:#A80036;stroke-width:1.5;" x1="8" x2="100" y1="422" y2="422"/><ellipse cx="18" cy="433" fill="#84BE84" rx="3" ry="3" style="stroke:#038048;stroke-width:1.0;"/><text fill="#000000" font-family="sans-serif" font-size="11" lengthAdjust="spacing" textLength="64" x="27" y="437.4189">getInstance()</text><ellipse cx="18" cy="446.8359" fill="#84BE84" rx="3" ry="3" style="stroke:#038048;stroke-width:1.0;"/><text fill="#000000" font-family="sans-serif" font-size="11" lengthAdjust="spacing" textLength="68" x="27" y="451.2549">getCompany()</text><!--MD5=[de60e6d4f424ae4d0522096f76a59010]
class VaccinationCenter--><rect codeLine="26" fill="#FEFECE" filter="url(#f1pzja3bwkg8k9)" height="255.5391" id="VaccinationCenter" style="stroke:#A80036;stroke-width:1.5;" width="252" x="349" y="292"/><ellipse cx="420.75" cy="308" fill="#ADD1B2" rx="11" ry="11" style="stroke:#A80036;stroke-width:1.0;"/><path d="M422.75,304.5 Q422.9531,304 423.1875,303.75 Q423.4219,303.5 423.6875,303.5 Q424.1563,303.5 424.4531,303.7813 Q424.75,304.0625 424.75,304.7188 L424.75,306.2813 Q424.75,306.9375 424.4688,307.2188 Q424.1875,307.5 423.75,307.5 Q423.3594,307.5 423.1094,307.3281 Q422.8594,307.1563 422.75,306.7031 Q422.7031,306.3906 422.5313,306.2188 Q422.2188,305.8906 421.6563,305.7031 Q421.0938,305.5 420.5313,305.5 Q419.8281,305.5 419.2344,305.7813 Q418.6563,306.0625 418.2031,306.6875 Q417.75,307.3125 417.75,308.1719 L417.75,309.0938 Q417.75,310.125 418.5938,310.8125 Q419.4375,311.5 420.9375,311.5 Q421.8281,311.5 422.4531,311.2969 Q422.8125,311.1875 423.2188,310.8281 Q423.4844,310.625 423.625,310.5625 Q423.7656,310.5 423.9375,310.5 Q424.2656,310.5 424.5,310.7656 Q424.75,311.0156 424.75,311.375 Q424.75,311.7188 424.4063,312.125 Q423.9063,312.7188 423.1094,313.0469 Q422.0625,313.5 420.7813,313.5 Q419.2813,313.5 418.0781,312.9063 Q417.1094,312.4375 416.4219,311.4219 Q415.75,310.4063 415.75,309.2031 L415.75,308.1094 Q415.75,306.8594 416.3438,305.7656 Q416.9531,304.6719 418,304.0938 Q419.0625,303.5 420.25,303.5 Q420.9688,303.5 421.5938,303.75 Q422.2188,304 422.75,304.5 Z " fill="#000000"/><text fill="#000000" font-family="sans-serif" font-size="12" lengthAdjust="spacing" textLength="100" x="441.25" y="312.9102">VaccinationCenter</text><line style="stroke:#A80036;stroke-width:1.5;" x1="350" x2="600" y1="324" y2="324"/><rect fill="none" height="6" style="stroke:#C82930;stroke-width:1.0;" width="6" x="357" y="332"/><text fill="#000000" font-family="sans-serif" font-size="11" lengthAdjust="spacing" textLength="60" x="369" y="339.4189">String: name</text><rect fill="none" height="6" style="stroke:#C82930;stroke-width:1.0;" width="6" x="357" y="345.8359"/><text fill="#000000" font-family="sans-serif" font-size="11" lengthAdjust="spacing" textLength="74" x="369" y="353.2549">String: address</text><rect fill="none" height="6" style="stroke:#C82930;stroke-width:1.0;" width="6" x="357" y="359.6719"/><text fill="#000000" font-family="sans-serif" font-size="11" lengthAdjust="spacing" textLength="101" x="369" y="367.0908">String: phoneNumber</text><rect fill="none" height="6" style="stroke:#C82930;stroke-width:1.0;" width="6" x="357" y="373.5078"/><text fill="#000000" font-family="sans-serif" font-size="11" lengthAdjust="spacing" textLength="54" x="369" y="380.9268">Email: email</text><rect fill="none" height="6" style="stroke:#C82930;stroke-width:1.0;" width="6" x="357" y="387.3438"/><text fill="#000000" font-family="sans-serif" font-size="11" lengthAdjust="spacing" textLength="87" x="369" y="394.7627">String: faxNumber</text><rect fill="none" height="6" style="stroke:#C82930;stroke-width:1.0;" width="6" x="357" y="401.1797"/><text fill="#000000" font-family="sans-serif" font-size="11" lengthAdjust="spacing" textLength="115" x="369" y="408.5986">String: websiteAddress</text><rect fill="none" height="6" style="stroke:#C82930;stroke-width:1.0;" width="6" x="357" y="415.0156"/><text fill="#000000" font-family="sans-serif" font-size="11" lengthAdjust="spacing" textLength="95" x="369" y="422.4346">Time: openingHours</text><rect fill="none" height="6" style="stroke:#C82930;stroke-width:1.0;" width="6" x="357" y="428.8516"/><text fill="#000000" font-family="sans-serif" font-size="11" lengthAdjust="spacing" textLength="91" x="369" y="436.2705">Time: closingHours</text><rect fill="none" height="6" style="stroke:#C82930;stroke-width:1.0;" width="6" x="357" y="442.6875"/><text fill="#000000" font-family="sans-serif" font-size="11" lengthAdjust="spacing" textLength="91" x="369" y="450.1064">String: slotDuration</text><rect fill="none" height="6" style="stroke:#C82930;stroke-width:1.0;" width="6" x="357" y="456.5234"/><text fill="#000000" font-family="sans-serif" font-size="11" lengthAdjust="spacing" textLength="163" x="369" y="463.9424">String: maximumNumVaccinesSlot</text><rect fill="none" height="6" style="stroke:#C82930;stroke-width:1.0;" width="6" x="357" y="470.3594"/><text fill="#000000" font-family="sans-serif" font-size="11" lengthAdjust="spacing" textLength="136" x="369" y="477.7783">boolean: isHealthcareCenter</text><rect fill="none" height="6" style="stroke:#C82930;stroke-width:1.0;" width="6" x="357" y="484.1953"/><text fill="#000000" font-family="sans-serif" font-size="11" lengthAdjust="spacing" textLength="226" x="369" y="491.6143">VaccineScheduleStore: vaccineScheduleStore</text><rect fill="none" height="6" style="stroke:#C82930;stroke-width:1.0;" width="6" x="357" y="498.0313"/><text fill="#000000" font-family="sans-serif" font-size="11" lengthAdjust="spacing" textLength="142" x="369" y="505.4502">WaitingUser: waitingListStore</text><line style="stroke:#A80036;stroke-width:1.5;" x1="350" x2="600" y1="511.8672" y2="511.8672"/><ellipse cx="360" cy="522.8672" fill="#84BE84" rx="3" ry="3" style="stroke:#038048;stroke-width:1.0;"/><text fill="#000000" font-family="sans-serif" font-size="11" lengthAdjust="spacing" textLength="134" x="369" y="527.2861">getVaccineScheduleStore()</text><ellipse cx="360" cy="536.7031" fill="#84BE84" rx="3" ry="3" style="stroke:#038048;stroke-width:1.0;"/><text fill="#000000" font-family="sans-serif" font-size="11" lengthAdjust="spacing" textLength="107" x="369" y="541.1221">getWaitingUserStore()</text><!--MD5=[0477ed937fc025f73336243a9c4b23f5]
class VaccineScheduleStore--><rect codeLine="44" fill="#FEFECE" filter="url(#f1pzja3bwkg8k9)" height="75.6719" id="VaccineScheduleStore" style="stroke:#A80036;stroke-width:1.5;" width="277" x="1180.5" y="382"/><ellipse cx="1252.75" cy="398" fill="#ADD1B2" rx="11" ry="11" style="stroke:#A80036;stroke-width:1.0;"/><path d="M1254.75,394.5 Q1254.9531,394 1255.1875,393.75 Q1255.4219,393.5 1255.6875,393.5 Q1256.1563,393.5 1256.4531,393.7813 Q1256.75,394.0625 1256.75,394.7188 L1256.75,396.2813 Q1256.75,396.9375 1256.4688,397.2188 Q1256.1875,397.5 1255.75,397.5 Q1255.3594,397.5 1255.1094,397.3281 Q1254.8594,397.1563 1254.75,396.7031 Q1254.7031,396.3906 1254.5313,396.2188 Q1254.2188,395.8906 1253.6563,395.7031 Q1253.0938,395.5 1252.5313,395.5 Q1251.8281,395.5 1251.2344,395.7813 Q1250.6563,396.0625 1250.2031,396.6875 Q1249.75,397.3125 1249.75,398.1719 L1249.75,399.0938 Q1249.75,400.125 1250.5938,400.8125 Q1251.4375,401.5 1252.9375,401.5 Q1253.8281,401.5 1254.4531,401.2969 Q1254.8125,401.1875 1255.2188,400.8281 Q1255.4844,400.625 1255.625,400.5625 Q1255.7656,400.5 1255.9375,400.5 Q1256.2656,400.5 1256.5,400.7656 Q1256.75,401.0156 1256.75,401.375 Q1256.75,401.7188 1256.4063,402.125 Q1255.9063,402.7188 1255.1094,403.0469 Q1254.0625,403.5 1252.7813,403.5 Q1251.2813,403.5 1250.0781,402.9063 Q1249.1094,402.4375 1248.4219,401.4219 Q1247.75,400.4063 1247.75,399.2031 L1247.75,398.1094 Q1247.75,396.8594 1248.3438,395.7656 Q1248.9531,394.6719 1250,394.0938 Q1251.0625,393.5 1252.25,393.5 Q1252.9688,393.5 1253.5938,393.75 Q1254.2188,394 1254.75,394.5 Z " fill="#000000"/><text fill="#000000" font-family="sans-serif" font-size="12" lengthAdjust="spacing" textLength="124" x="1273.25" y="402.9102">VaccineScheduleStore</text><line style="stroke:#A80036;stroke-width:1.5;" x1="1181.5" x2="1456.5" y1="414" y2="414"/><rect fill="none" height="6" style="stroke:#C82930;stroke-width:1.0;" width="6" x="1188.5" y="422"/><text fill="#000000" font-family="sans-serif" font-size="11" lengthAdjust="spacing" textLength="251" x="1200.5" y="429.4189">ArrayList&lt;VaccineSchedule&gt; vaccineSchedulesList</text><line style="stroke:#A80036;stroke-width:1.5;" x1="1181.5" x2="1456.5" y1="435.8359" y2="435.8359"/><ellipse cx="1191.5" cy="446.8359" fill="#84BE84" rx="3" ry="3" style="stroke:#038048;stroke-width:1.0;"/><text fill="#000000" font-family="sans-serif" font-size="11" lengthAdjust="spacing" textLength="208" x="1200.5" y="451.2549">checkIfThereIsAnAppointment(snsNumber)</text><!--MD5=[b4592b5d401d490afd33493a1b0d6223]
class WaitingUserStore--><rect codeLine="49" fill="#FEFECE" filter="url(#f1pzja3bwkg8k9)" height="103.3438" id="WaitingUserStore" style="stroke:#A80036;stroke-width:1.5;" width="301" x="636.5" y="368.5"/><ellipse cx="734.25" cy="384.5" fill="#ADD1B2" rx="11" ry="11" style="stroke:#A80036;stroke-width:1.0;"/><path d="M736.25,381 Q736.4531,380.5 736.6875,380.25 Q736.9219,380 737.1875,380 Q737.6563,380 737.9531,380.2813 Q738.25,380.5625 738.25,381.2188 L738.25,382.7813 Q738.25,383.4375 737.9688,383.7188 Q737.6875,384 737.25,384 Q736.8594,384 736.6094,383.8281 Q736.3594,383.6563 736.25,383.2031 Q736.2031,382.8906 736.0313,382.7188 Q735.7188,382.3906 735.1563,382.2031 Q734.5938,382 734.0313,382 Q733.3281,382 732.7344,382.2813 Q732.1563,382.5625 731.7031,383.1875 Q731.25,383.8125 731.25,384.6719 L731.25,385.5938 Q731.25,386.625 732.0938,387.3125 Q732.9375,388 734.4375,388 Q735.3281,388 735.9531,387.7969 Q736.3125,387.6875 736.7188,387.3281 Q736.9844,387.125 737.125,387.0625 Q737.2656,387 737.4375,387 Q737.7656,387 738,387.2656 Q738.25,387.5156 738.25,387.875 Q738.25,388.2188 737.9063,388.625 Q737.4063,389.2188 736.6094,389.5469 Q735.5625,390 734.2813,390 Q732.7813,390 731.5781,389.4063 Q730.6094,388.9375 729.9219,387.9219 Q729.25,386.9063 729.25,385.7031 L729.25,384.6094 Q729.25,383.3594 729.8438,382.2656 Q730.4531,381.1719 731.5,380.5938 Q732.5625,380 733.75,380 Q734.4688,380 735.0938,380.25 Q735.7188,380.5 736.25,381 Z " fill="#000000"/><text fill="#000000" font-family="sans-serif" font-size="12" lengthAdjust="spacing" textLength="97" x="754.75" y="389.4102">WaitingUserStore</text><line style="stroke:#A80036;stroke-width:1.5;" x1="637.5" x2="936.5" y1="400.5" y2="400.5"/><rect fill="none" height="6" style="stroke:#C82930;stroke-width:1.0;" width="6" x="644.5" y="408.5"/><text fill="#000000" font-family="sans-serif" font-size="11" lengthAdjust="spacing" textLength="196" x="656.5" y="415.9189">ArrayList&lt;WaitingUser&gt;: WaitingUserList</text><line style="stroke:#A80036;stroke-width:1.5;" x1="637.5" x2="936.5" y1="422.3359" y2="422.3359"/><ellipse cx="647.5" cy="433.3359" fill="#84BE84" rx="3" ry="3" style="stroke:#038048;stroke-width:1.0;"/><text fill="#000000" font-family="sans-serif" font-size="11" lengthAdjust="spacing" textLength="275" x="656.5" y="437.7549">createWaitingUser(int: snsNumber, UserStore userStore)</text><ellipse cx="647.5" cy="447.1719" fill="#84BE84" rx="3" ry="3" style="stroke:#038048;stroke-width:1.0;"/><text fill="#000000" font-family="sans-serif" font-size="11" lengthAdjust="spacing" textLength="228" x="656.5" y="451.5908">validateWaitingUser(Waiting User: waitingUser)</text><ellipse cx="647.5" cy="461.0078" fill="#84BE84" rx="3" ry="3" style="stroke:#038048;stroke-width:1.0;"/><text fill="#000000" font-family="sans-serif" font-size="11" lengthAdjust="spacing" textLength="235" x="656.5" y="465.4268">addtoWaitingUserList(Waiting User: waitingUser)</text><!--MD5=[e8a0ea5a19ad3a152fb07fead0fc0529]
class WaitingUser--><rect codeLine="56" fill="#FEFECE" filter="url(#f1pzja3bwkg8k9)" height="89.5078" id="WaitingUser" style="stroke:#A80036;stroke-width:1.5;" width="172" x="973" y="375"/><ellipse cx="1020.75" cy="391" fill="#ADD1B2" rx="11" ry="11" style="stroke:#A80036;stroke-width:1.0;"/><path d="M1022.75,387.5 Q1022.9531,387 1023.1875,386.75 Q1023.4219,386.5 1023.6875,386.5 Q1024.1563,386.5 1024.4531,386.7813 Q1024.75,387.0625 1024.75,387.7188 L1024.75,389.2813 Q1024.75,389.9375 1024.4688,390.2188 Q1024.1875,390.5 1023.75,390.5 Q1023.3594,390.5 1023.1094,390.3281 Q1022.8594,390.1563 1022.75,389.7031 Q1022.7031,389.3906 1022.5313,389.2188 Q1022.2188,388.8906 1021.6563,388.7031 Q1021.0938,388.5 1020.5313,388.5 Q1019.8281,388.5 1019.2344,388.7813 Q1018.6563,389.0625 1018.2031,389.6875 Q1017.75,390.3125 1017.75,391.1719 L1017.75,392.0938 Q1017.75,393.125 1018.5938,393.8125 Q1019.4375,394.5 1020.9375,394.5 Q1021.8281,394.5 1022.4531,394.2969 Q1022.8125,394.1875 1023.2188,393.8281 Q1023.4844,393.625 1023.625,393.5625 Q1023.7656,393.5 1023.9375,393.5 Q1024.2656,393.5 1024.5,393.7656 Q1024.75,394.0156 1024.75,394.375 Q1024.75,394.7188 1024.4063,395.125 Q1023.9063,395.7188 1023.1094,396.0469 Q1022.0625,396.5 1020.7813,396.5 Q1019.2813,396.5 1018.0781,395.9063 Q1017.1094,395.4375 1016.4219,394.4219 Q1015.75,393.4063 1015.75,392.2031 L1015.75,391.1094 Q1015.75,389.8594 1016.3438,388.7656 Q1016.9531,387.6719 1018,387.0938 Q1019.0625,386.5 1020.25,386.5 Q1020.9688,386.5 1021.5938,386.75 Q1022.2188,387 1022.75,387.5 Z " fill="#000000"/><text fill="#000000" font-family="sans-serif" font-size="12" lengthAdjust="spacing" textLength="68" x="1041.25" y="395.9102">WaitingUser</text><line style="stroke:#A80036;stroke-width:1.5;" x1="974" x2="1144" y1="407" y2="407"/><rect fill="none" height="6" style="stroke:#C82930;stroke-width:1.0;" width="6" x="981" y="415"/><text fill="#000000" font-family="sans-serif" font-size="11" lengthAdjust="spacing" textLength="51" x="993" y="422.4189">User: user</text><rect fill="none" height="6" style="stroke:#C82930;stroke-width:1.0;" width="6" x="981" y="428.8359"/><text fill="#000000" font-family="sans-serif" font-size="11" lengthAdjust="spacing" textLength="80" x="993" y="436.2549">Time: arrivalTime</text><line style="stroke:#A80036;stroke-width:1.5;" x1="974" x2="1144" y1="442.6719" y2="442.6719"/><ellipse cx="984" cy="453.6719" fill="#84BE84" rx="3" ry="3" style="stroke:#038048;stroke-width:1.0;"/><text fill="#000000" font-family="sans-serif" font-size="11" lengthAdjust="spacing" textLength="146" x="993" y="458.0908">WaitingUser(user, arrivalTime)</text><!--MD5=[cd4ce1c0d44638ff9f42448de30e6b92]
class VaccineSchedule--><rect codeLine="62" fill="#FEFECE" filter="url(#f1pzja3bwkg8k9)" height="158.6875" id="VaccineSchedule" style="stroke:#A80036;stroke-width:1.5;" width="155" x="1492.5" y="340.5"/><ellipse cx="1520.1" cy="356.5" fill="#ADD1B2" rx="11" ry="11" style="stroke:#A80036;stroke-width:1.0;"/><path d="M1522.1,353 Q1522.3031,352.5 1522.5375,352.25 Q1522.7719,352 1523.0375,352 Q1523.5063,352 1523.8031,352.2813 Q1524.1,352.5625 1524.1,353.2188 L1524.1,354.7813 Q1524.1,355.4375 1523.8188,355.7188 Q1523.5375,356 1523.1,356 Q1522.7094,356 1522.4594,355.8281 Q1522.2094,355.6563 1522.1,355.2031 Q1522.0531,354.8906 1521.8813,354.7188 Q1521.5688,354.3906 1521.0063,354.2031 Q1520.4438,354 1519.8813,354 Q1519.1781,354 1518.5844,354.2813 Q1518.0063,354.5625 1517.5531,355.1875 Q1517.1,355.8125 1517.1,356.6719 L1517.1,357.5938 Q1517.1,358.625 1517.9438,359.3125 Q1518.7875,360 1520.2875,360 Q1521.1781,360 1521.8031,359.7969 Q1522.1625,359.6875 1522.5688,359.3281 Q1522.8344,359.125 1522.975,359.0625 Q1523.1156,359 1523.2875,359 Q1523.6156,359 1523.85,359.2656 Q1524.1,359.5156 1524.1,359.875 Q1524.1,360.2188 1523.7563,360.625 Q1523.2563,361.2188 1522.4594,361.5469 Q1521.4125,362 1520.1313,362 Q1518.6313,362 1517.4281,361.4063 Q1516.4594,360.9375 1515.7719,359.9219 Q1515.1,358.9063 1515.1,357.7031 L1515.1,356.6094 Q1515.1,355.3594 1515.6938,354.2656 Q1516.3031,353.1719 1517.35,352.5938 Q1518.4125,352 1519.6,352 Q1520.3188,352 1520.9438,352.25 Q1521.5688,352.5 1522.1,353 Z " fill="#000000"/><text fill="#000000" font-family="sans-serif" font-size="12" lengthAdjust="spacing" textLength="95" x="1536.9" y="361.4102">VaccineSchedule</text><line style="stroke:#A80036;stroke-width:1.5;" x1="1493.5" x2="1646.5" y1="372.5" y2="372.5"/><rect fill="none" height="6" style="stroke:#C82930;stroke-width:1.0;" width="6" x="1500.5" y="380.5"/><text fill="#000000" font-family="sans-serif" font-size="11" lengthAdjust="spacing" textLength="69" x="1512.5" y="387.9189">int snsNumber</text><rect fill="none" height="6" style="stroke:#C82930;stroke-width:1.0;" width="6" x="1500.5" y="394.3359"/><text fill="#000000" font-family="sans-serif" font-size="11" lengthAdjust="spacing" textLength="129" x="1512.5" y="401.7549">VaccineType vaccineType</text><rect fill="none" height="6" style="stroke:#C82930;stroke-width:1.0;" width="6" x="1500.5" y="408.1719"/><text fill="#000000" font-family="sans-serif" font-size="11" lengthAdjust="spacing" textLength="46" x="1512.5" y="415.5908">Date date</text><rect fill="none" height="6" style="stroke:#C82930;stroke-width:1.0;" width="6" x="1500.5" y="422.0078"/><text fill="#000000" font-family="sans-serif" font-size="11" lengthAdjust="spacing" textLength="44" x="1512.5" y="429.4268">Time time</text><line style="stroke:#A80036;stroke-width:1.5;" x1="1493.5" x2="1646.5" y1="435.8438" y2="435.8438"/><ellipse cx="1503.5" cy="446.8438" fill="#84BE84" rx="3" ry="3" style="stroke:#038048;stroke-width:1.0;"/><text fill="#000000" font-family="sans-serif" font-size="11" lengthAdjust="spacing" textLength="45" x="1512.5" y="451.2627">getTime()</text><ellipse cx="1503.5" cy="460.6797" fill="#84BE84" rx="3" ry="3" style="stroke:#038048;stroke-width:1.0;"/><text fill="#000000" font-family="sans-serif" font-size="11" lengthAdjust="spacing" textLength="45" x="1512.5" y="465.0986">getDate()</text><ellipse cx="1503.5" cy="474.5156" fill="#84BE84" rx="3" ry="3" style="stroke:#038048;stroke-width:1.0;"/><text fill="#000000" font-family="sans-serif" font-size="11" lengthAdjust="spacing" textLength="87" x="1512.5" y="478.9346">getVaccineType()</text><ellipse cx="1503.5" cy="488.3516" fill="#84BE84" rx="3" ry="3" style="stroke:#038048;stroke-width:1.0;"/><text fill="#000000" font-family="sans-serif" font-size="11" lengthAdjust="spacing" textLength="79" x="1512.5" y="492.7705">getSnsNumber()</text><!--MD5=[c4ad296dddf90fa34908325dd6bdc879]
class VaccineScheduleDto--><rect codeLine="73" fill="#FEFECE" filter="url(#f1pzja3bwkg8k9)" height="117.1797" id="VaccineScheduleDto" style="stroke:#A80036;stroke-width:1.5;" width="305" x="1166.5" y="636"/><ellipse cx="1257.75" cy="652" fill="#ADD1B2" rx="11" ry="11" style="stroke:#A80036;stroke-width:1.0;"/><path d="M1259.75,648.5 Q1259.9531,648 1260.1875,647.75 Q1260.4219,647.5 1260.6875,647.5 Q1261.1563,647.5 1261.4531,647.7813 Q1261.75,648.0625 1261.75,648.7188 L1261.75,650.2813 Q1261.75,650.9375 1261.4688,651.2188 Q1261.1875,651.5 1260.75,651.5 Q1260.3594,651.5 1260.1094,651.3281 Q1259.8594,651.1563 1259.75,650.7031 Q1259.7031,650.3906 1259.5313,650.2188 Q1259.2188,649.8906 1258.6563,649.7031 Q1258.0938,649.5 1257.5313,649.5 Q1256.8281,649.5 1256.2344,649.7813 Q1255.6563,650.0625 1255.2031,650.6875 Q1254.75,651.3125 1254.75,652.1719 L1254.75,653.0938 Q1254.75,654.125 1255.5938,654.8125 Q1256.4375,655.5 1257.9375,655.5 Q1258.8281,655.5 1259.4531,655.2969 Q1259.8125,655.1875 1260.2188,654.8281 Q1260.4844,654.625 1260.625,654.5625 Q1260.7656,654.5 1260.9375,654.5 Q1261.2656,654.5 1261.5,654.7656 Q1261.75,655.0156 1261.75,655.375 Q1261.75,655.7188 1261.4063,656.125 Q1260.9063,656.7188 1260.1094,657.0469 Q1259.0625,657.5 1257.7813,657.5 Q1256.2813,657.5 1255.0781,656.9063 Q1254.1094,656.4375 1253.4219,655.4219 Q1252.75,654.4063 1252.75,653.2031 L1252.75,652.1094 Q1252.75,650.8594 1253.3438,649.7656 Q1253.9531,648.6719 1255,648.0938 Q1256.0625,647.5 1257.25,647.5 Q1257.9688,647.5 1258.5938,647.75 Q1259.2188,648 1259.75,648.5 Z " fill="#000000"/><text fill="#000000" font-family="sans-serif" font-size="12" lengthAdjust="spacing" textLength="114" x="1278.25" y="656.9102">VaccineScheduleDto</text><line style="stroke:#A80036;stroke-width:1.5;" x1="1167.5" x2="1470.5" y1="668" y2="668"/><rect fill="none" height="6" style="stroke:#C82930;stroke-width:1.0;" width="6" x="1174.5" y="676"/><text fill="#000000" font-family="sans-serif" font-size="11" lengthAdjust="spacing" textLength="72" x="1186.5" y="683.4189">int: snsNumber</text><rect fill="none" height="6" style="stroke:#C82930;stroke-width:1.0;" width="6" x="1174.5" y="689.8359"/><text fill="#000000" font-family="sans-serif" font-size="11" lengthAdjust="spacing" textLength="132" x="1186.5" y="697.2549">VaccineType: vaccineType</text><rect fill="none" height="6" style="stroke:#C82930;stroke-width:1.0;" width="6" x="1174.5" y="703.6719"/><text fill="#000000" font-family="sans-serif" font-size="11" lengthAdjust="spacing" textLength="49" x="1186.5" y="711.0908">Date: date</text><rect fill="none" height="6" style="stroke:#C82930;stroke-width:1.0;" width="6" x="1174.5" y="717.5078"/><text fill="#000000" font-family="sans-serif" font-size="11" lengthAdjust="spacing" textLength="47" x="1186.5" y="724.9268">Time: time</text><line style="stroke:#A80036;stroke-width:1.5;" x1="1167.5" x2="1470.5" y1="731.3438" y2="731.3438"/><text fill="#000000" font-family="sans-serif" font-size="11" lengthAdjust="spacing" textLength="293" x="1172.5" y="746.7627">VaccineScheduleDTO(snsNumber, vaccineType, date, time)}</text><!--MD5=[93af8b4494db78ec46e98fad8955a5aa]
class UserStore--><rect codeLine="81" fill="#FEFECE" filter="url(#f1pzja3bwkg8k9)" height="61.8359" id="UserStore" style="stroke:#A80036;stroke-width:1.5;" width="213" x="399.5" y="663.5"/><ellipse cx="473.75" cy="679.5" fill="#ADD1B2" rx="11" ry="11" style="stroke:#A80036;stroke-width:1.0;"/><path d="M475.75,676 Q475.9531,675.5 476.1875,675.25 Q476.4219,675 476.6875,675 Q477.1563,675 477.4531,675.2813 Q477.75,675.5625 477.75,676.2188 L477.75,677.7813 Q477.75,678.4375 477.4688,678.7188 Q477.1875,679 476.75,679 Q476.3594,679 476.1094,678.8281 Q475.8594,678.6563 475.75,678.2031 Q475.7031,677.8906 475.5313,677.7188 Q475.2188,677.3906 474.6563,677.2031 Q474.0938,677 473.5313,677 Q472.8281,677 472.2344,677.2813 Q471.6563,677.5625 471.2031,678.1875 Q470.75,678.8125 470.75,679.6719 L470.75,680.5938 Q470.75,681.625 471.5938,682.3125 Q472.4375,683 473.9375,683 Q474.8281,683 475.4531,682.7969 Q475.8125,682.6875 476.2188,682.3281 Q476.4844,682.125 476.625,682.0625 Q476.7656,682 476.9375,682 Q477.2656,682 477.5,682.2656 Q477.75,682.5156 477.75,682.875 Q477.75,683.2188 477.4063,683.625 Q476.9063,684.2188 476.1094,684.5469 Q475.0625,685 473.7813,685 Q472.2813,685 471.0781,684.4063 Q470.1094,683.9375 469.4219,682.9219 Q468.75,681.9063 468.75,680.7031 L468.75,679.6094 Q468.75,678.3594 469.3438,677.2656 Q469.9531,676.1719 471,675.5938 Q472.0625,675 473.25,675 Q473.9688,675 474.5938,675.25 Q475.2188,675.5 475.75,676 Z " fill="#000000"/><text fill="#000000" font-family="sans-serif" font-size="12" lengthAdjust="spacing" textLength="56" x="494.25" y="684.4102">UserStore</text><line style="stroke:#A80036;stroke-width:1.5;" x1="400.5" x2="611.5" y1="695.5" y2="695.5"/><line style="stroke:#A80036;stroke-width:1.5;" x1="400.5" x2="611.5" y1="703.5" y2="703.5"/><ellipse cx="410.5" cy="714.5" fill="#84BE84" rx="3" ry="3" style="stroke:#038048;stroke-width:1.0;"/><text fill="#000000" font-family="sans-serif" font-size="11" lengthAdjust="spacing" textLength="187" x="419.5" y="718.9189">getUserBySnsNumber(int: snsNumber)</text><!--MD5=[3fd616f346a44cd59a91eb10b19e157c]
class User--><rect codeLine="84" fill="#FEFECE" filter="url(#f1pzja3bwkg8k9)" height="172.5234" id="User" style="stroke:#A80036;stroke-width:1.5;" width="107" x="647.5" y="608"/><ellipse cx="684.1" cy="624" fill="#ADD1B2" rx="11" ry="11" style="stroke:#A80036;stroke-width:1.0;"/><path d="M686.1,620.5 Q686.3031,620 686.5375,619.75 Q686.7719,619.5 687.0375,619.5 Q687.5063,619.5 687.8031,619.7813 Q688.1,620.0625 688.1,620.7188 L688.1,622.2813 Q688.1,622.9375 687.8188,623.2188 Q687.5375,623.5 687.1,623.5 Q686.7094,623.5 686.4594,623.3281 Q686.2094,623.1563 686.1,622.7031 Q686.0531,622.3906 685.8813,622.2188 Q685.5688,621.8906 685.0063,621.7031 Q684.4438,621.5 683.8813,621.5 Q683.1781,621.5 682.5844,621.7813 Q682.0063,622.0625 681.5531,622.6875 Q681.1,623.3125 681.1,624.1719 L681.1,625.0938 Q681.1,626.125 681.9438,626.8125 Q682.7875,627.5 684.2875,627.5 Q685.1781,627.5 685.8031,627.2969 Q686.1625,627.1875 686.5688,626.8281 Q686.8344,626.625 686.975,626.5625 Q687.1156,626.5 687.2875,626.5 Q687.6156,626.5 687.85,626.7656 Q688.1,627.0156 688.1,627.375 Q688.1,627.7188 687.7563,628.125 Q687.2563,628.7188 686.4594,629.0469 Q685.4125,629.5 684.1313,629.5 Q682.6313,629.5 681.4281,628.9063 Q680.4594,628.4375 679.7719,627.4219 Q679.1,626.4063 679.1,625.2031 L679.1,624.1094 Q679.1,622.8594 679.6938,621.7656 Q680.3031,620.6719 681.35,620.0938 Q682.4125,619.5 683.6,619.5 Q684.3188,619.5 684.9438,619.75 Q685.5688,620 686.1,620.5 Z " fill="#000000"/><text fill="#000000" font-family="sans-serif" font-size="12" lengthAdjust="spacing" textLength="27" x="702.9" y="628.9102">User</text><line style="stroke:#A80036;stroke-width:1.5;" x1="648.5" x2="753.5" y1="640" y2="640"/><rect fill="none" height="6" style="stroke:#C82930;stroke-width:1.0;" width="6" x="655.5" y="648"/><text fill="#000000" font-family="sans-serif" font-size="11" lengthAdjust="spacing" textLength="22" x="667.5" y="655.4189">int id</text><rect fill="none" height="6" style="stroke:#C82930;stroke-width:1.0;" width="6" x="655.5" y="661.8359"/><text fill="#000000" font-family="sans-serif" font-size="11" lengthAdjust="spacing" textLength="57" x="667.5" y="669.2549">String name</text><rect fill="none" height="6" style="stroke:#C82930;stroke-width:1.0;" width="6" x="655.5" y="675.6719"/><text fill="#000000" font-family="sans-serif" font-size="11" lengthAdjust="spacing" textLength="49" x="667.5" y="683.0908">String sex</text><rect fill="none" height="6" style="stroke:#C82930;stroke-width:1.0;" width="6" x="655.5" y="689.5078"/><text fill="#000000" font-family="sans-serif" font-size="11" lengthAdjust="spacing" textLength="68" x="667.5" y="696.9268">Date birthDate</text><rect fill="none" height="6" style="stroke:#C82930;stroke-width:1.0;" width="6" x="655.5" y="703.3438"/><text fill="#000000" font-family="sans-serif" font-size="11" lengthAdjust="spacing" textLength="71" x="667.5" y="710.7627">String address</text><rect fill="none" height="6" style="stroke:#C82930;stroke-width:1.0;" width="6" x="655.5" y="717.1797"/><text fill="#000000" font-family="sans-serif" font-size="11" lengthAdjust="spacing" textLength="81" x="667.5" y="724.5986">int phoneNumber</text><rect fill="none" height="6" style="stroke:#C82930;stroke-width:1.0;" width="6" x="655.5" y="731.0156"/><text fill="#000000" font-family="sans-serif" font-size="11" lengthAdjust="spacing" textLength="51" x="667.5" y="738.4346">Email eMail</text><rect fill="none" height="6" style="stroke:#C82930;stroke-width:1.0;" width="6" x="655.5" y="744.8516"/><text fill="#000000" font-family="sans-serif" font-size="11" lengthAdjust="spacing" textLength="69" x="667.5" y="752.2705">int snsNumber</text><rect fill="none" height="6" style="stroke:#C82930;stroke-width:1.0;" width="6" x="655.5" y="758.6875"/><text fill="#000000" font-family="sans-serif" font-size="11" lengthAdjust="spacing" textLength="63" x="667.5" y="766.1064">int ccNumber</text><line style="stroke:#A80036;stroke-width:1.5;" x1="648.5" x2="753.5" y1="772.5234" y2="772.5234"/><!--MD5=[e33d72f35604a98551d7d3c692582d2c]
link RegisterTheArrivalUI to RegisterTheArrivalController--><path codeLine="96" d="M475,69.14 C475,85.06 475,105.11 475,123.74 " fill="none" id="RegisterTheArrivalUI-to-RegisterTheArrivalController" style="stroke:#A80036;stroke-width:1.0;stroke-dasharray:7.0,7.0;"/><polygon fill="#A80036" points="475,128.96,479,119.96,475,123.96,471,119.96,475,128.96" style="stroke:#A80036;stroke-width:1.0;"/><!--MD5=[909430b876e8fa00fb774683ba696521]
link RegisterTheArrivalController to Company--><path codeLine="97" d="M402.51,232.21 C378.8,250.06 352.94,270.94 331,292 C310.23,311.94 289.47,335.74 271.89,357.32 " fill="none" id="RegisterTheArrivalController-to-Company" style="stroke:#A80036;stroke-width:1.0;stroke-dasharray:7.0,7.0;"/><polygon fill="#A80036" points="268.65,361.32,277.4298,356.8573,271.803,357.4394,271.2209,351.8126,268.65,361.32" style="stroke:#A80036;stroke-width:1.0;"/><!--MD5=[022f39c950471fcc1e5e9a123a657e23]
link RegisterTheArrivalController to WaitingUserStore--><path codeLine="98" d="M541.55,232.16 C593,271.33 664.07,325.42 716.49,365.33 " fill="none" id="RegisterTheArrivalController-to-WaitingUserStore" style="stroke:#A80036;stroke-width:1.0;stroke-dasharray:7.0,7.0;"/><polygon fill="#A80036" points="720.55,368.42,715.819,359.7818,716.5742,365.3881,710.9679,366.1432,720.55,368.42" style="stroke:#A80036;stroke-width:1.0;"/><!--MD5=[024a6b29b835df164f17c4908ff47eda]
link RegisterTheArrivalController to VaccinationCenter--><path codeLine="99" d="M475,232.16 C475,248.35 475,267.08 475,286.32 " fill="none" id="RegisterTheArrivalController-to-VaccinationCenter" style="stroke:#A80036;stroke-width:1.0;stroke-dasharray:7.0,7.0;"/><polygon fill="#A80036" points="475,291.75,479,282.75,475,286.75,471,282.75,475,291.75" style="stroke:#A80036;stroke-width:1.0;"/><!--MD5=[54ece4dad7b4cd3342f656e8b11a738c]
link RegisterTheArrivalController to VaccineScheduleStore--><path codeLine="100" d="M581.22,181.72 C720.67,185.69 970.35,205.68 1163,292 C1208.29,312.3 1251.38,349.2 1280.74,378.01 " fill="none" id="RegisterTheArrivalController-to-VaccineScheduleStore" style="stroke:#A80036;stroke-width:1.0;stroke-dasharray:7.0,7.0;"/><polygon fill="#A80036" points="1284.61,381.84,1281.0188,372.6692,1281.0531,378.326,1275.3964,378.3602,1284.61,381.84" style="stroke:#A80036;stroke-width:1.0;"/><!--MD5=[5220bf07e819e23cc27093ade84b4c07]
link RegisterTheArrivalController to App--><path codeLine="101" d="M368.73,192.13 C291.57,204.72 188.71,232.19 118,292 C91.89,314.08 75.3,349.44 65.57,377.25 " fill="none" id="RegisterTheArrivalController-to-App" style="stroke:#A80036;stroke-width:1.0;stroke-dasharray:7.0,7.0;"/><polygon fill="#A80036" points="63.95,381.99,70.6627,374.7831,65.5782,377.2625,63.0988,372.178,63.95,381.99" style="stroke:#A80036;stroke-width:1.0;"/><!--MD5=[5b0f1873c15ced29becf7ded48d12cb7]
link App to Company--><path codeLine="102" d="M101.09,420 C110.98,420 120.88,420 130.77,420 " fill="none" id="App-to-Company" style="stroke:#A80036;stroke-width:1.0;"/><polygon fill="#A80036" points="135.94,420,126.94,416,130.94,420,126.94,424,135.94,420" style="stroke:#A80036;stroke-width:1.0;"/><!--MD5=[000ba0c27d2bbda440890e2cf0d6ec94]
link VaccineScheduleStore to VaccineScheduleDto--><path codeLine="103" d="M1319,458.03 C1319,502.37 1319,577.32 1319,630.75 " fill="none" id="VaccineScheduleStore-to-VaccineScheduleDto" style="stroke:#A80036;stroke-width:1.0;stroke-dasharray:7.0,7.0;"/><polygon fill="#A80036" points="1319,635.85,1323,626.85,1319,630.85,1315,626.85,1319,635.85" style="stroke:#A80036;stroke-width:1.0;"/><!--MD5=[eebe9b198877275d05dd12630ed9e401]
link Company to VaccinationCenter--><path codeLine="104" d="M314.36,420 C324.15,420 333.95,420 343.75,420 " fill="none" id="Company-to-VaccinationCenter" style="stroke:#A80036;stroke-width:1.0;"/><polygon fill="#A80036" points="348.87,420,339.87,416,343.87,420,339.87,424,348.87,420" style="stroke:#A80036;stroke-width:1.0;"/><!--MD5=[f8d27bb308878290111e715992c59714]
link VaccinationCenter to VaccineScheduleStore--><path codeLine="105" d="M585.63,291.75 C601.46,279.74 618.52,269.33 636.5,262 C688.87,240.64 1092.76,241.58 1145.5,262 C1205.07,285.06 1256.75,339.14 1287.86,377.59 " fill="none" id="VaccinationCenter-to-VaccineScheduleStore" style="stroke:#A80036;stroke-width:1.0;"/><polygon fill="#A80036" points="1291.18,381.73,1288.6685,372.2068,1288.0513,377.8298,1282.4282,377.2127,1291.18,381.73" style="stroke:#A80036;stroke-width:1.0;"/><!--MD5=[afd5f794700056691b350b1d4b8cfb6d]
link VaccinationCenter to WaitingUserStore--><path codeLine="106" d="M601.14,420 C611.14,420 621.13,420 631.13,420 " fill="none" id="VaccinationCenter-to-WaitingUserStore" style="stroke:#A80036;stroke-width:1.0;"/><polygon fill="#A80036" points="636.35,420,627.35,416,631.35,420,627.35,424,636.35,420" style="stroke:#A80036;stroke-width:1.0;"/><!--MD5=[1d18162f8ed280e2c85e4aebff0b3fcc]
link VaccineScheduleStore to VaccineSchedule--><path codeLine="107" d="M1457.74,420 C1467.57,420 1477.4,420 1487.24,420 " fill="none" id="VaccineScheduleStore-to-VaccineSchedule" style="stroke:#A80036;stroke-width:1.0;"/><polygon fill="#A80036" points="1492.38,420,1483.38,416,1487.38,420,1483.38,424,1492.38,420" style="stroke:#A80036;stroke-width:1.0;"/><!--MD5=[f1a113e84f75d2f26ba72b6a0c102f4d]
link WaitingUserStore to WaitingUser--><path codeLine="108" d="M937.61,420 C947.57,420 957.53,420 967.49,420 " fill="none" id="WaitingUserStore-to-WaitingUser" style="stroke:#A80036;stroke-width:1.0;"/><polygon fill="#A80036" points="972.7,420,963.7,416,967.7,420,963.7,424,972.7,420" style="stroke:#A80036;stroke-width:1.0;"/><!--MD5=[102f1b3c68b20fc6574790ee0d106773]
link Company to UserStore--><path codeLine="109" d="M269.34,478.56 C287.58,501.02 309.45,526.49 331,548 C372.52,589.44 424.74,631.75 461.28,659.98 " fill="none" id="Company-to-UserStore" style="stroke:#A80036;stroke-width:1.0;"/><polygon fill="#A80036" points="465.66,663.36,460.9833,654.6923,461.7033,660.3032,456.0924,661.0231,465.66,663.36" style="stroke:#A80036;stroke-width:1.0;"/><!--MD5=[d1e0f6ecc4becbdb384d024f9b519f21]
link UserStore to User--><path codeLine="110" d="M612.64,694.5 C622.44,694.5 632.24,694.5 642.03,694.5 " fill="none" id="UserStore-to-User" style="stroke:#A80036;stroke-width:1.0;"/><polygon fill="#A80036" points="647.16,694.5,638.16,690.5,642.16,694.5,638.16,698.5,647.16,694.5" style="stroke:#A80036;stroke-width:1.0;"/><!--MD5=[04fcacd00b0a8807f7ccd34436442237]
link WaitingUserStore to UserStore--><path codeLine="111" d="M734.8,471.62 C678.19,526.52 589.4,612.62 540.75,659.8 " fill="none" id="WaitingUserStore-to-UserStore" style="stroke:#A80036;stroke-width:1.0;stroke-dasharray:7.0,7.0;"/><polygon fill="#A80036" points="537.03,663.41,546.2715,660.0048,540.6152,659.9248,540.6952,654.2685,537.03,663.41" style="stroke:#A80036;stroke-width:1.0;"/><!--MD5=[44fdb9b63d6835e3448485debfce8641]
@startuml

class RegisterTheArrivalUI {
+run()
}

class RegisterTheArrivalController{
-App : app
-VaccinationCenter: actorCenter
+checkAppointmentList(int: snsNumber)
+addWaitingUser(int: snsNumber)
}

class Company{
- designation
- VaccinationCenter: actorCenter
- UserStore: userStore
+ getActorCenter()
+ getUserStore()
}

class App {
+ getInstance()
+ getCompany()
}

class VaccinationCenter{
-String: name
-String: address
-String: phoneNumber
-Email: email
-String: faxNumber
-String: websiteAddress
-Time: openingHours
-Time: closingHours
-String: slotDuration
-String: maximumNumVaccinesSlot
-boolean: isHealthcareCenter
-VaccineScheduleStore: vaccineScheduleStore
-WaitingUser: waitingListStore
+ getVaccineScheduleStore()
+ getWaitingUserStore()
}

class VaccineScheduleStore{
-ArrayList<VaccineSchedule> vaccineSchedulesList
+ checkIfThereIsAnAppointment(snsNumber)
}

class WaitingUserStore{
- ArrayList<WaitingUser>: WaitingUserList
+ createWaitingUser(int: snsNumber, UserStore userStore)
+ validateWaitingUser(Waiting User: waitingUser)
+ addtoWaitingUserList(Waiting User: waitingUser)
}

class WaitingUser{
-User: user
-Time: arrivalTime
+WaitingUser(user, arrivalTime)
}

class VaccineSchedule{
-int snsNumber
-VaccineType vaccineType
-Date date
-Time time
+getTime()
+getDate()
+getVaccineType()
+getSnsNumber()
}

class VaccineScheduleDto{
-int: snsNumber
-VaccineType: vaccineType
-Date: date
-Time: time

VaccineScheduleDTO(snsNumber, vaccineType, date, time)}
}
class UserStore{
+getUserBySnsNumber(int: snsNumber)
}
class User{
-int id
-String name
-String sex
-Date birthDate
-String address
-int phoneNumber
-Email eMail
-int snsNumber
-int ccNumber
}

RegisterTheArrivalUI ..> RegisterTheArrivalController
RegisterTheArrivalController ..> Company
RegisterTheArrivalController ..> WaitingUserStore
RegisterTheArrivalController ..> VaccinationCenter
RegisterTheArrivalController ..> VaccineScheduleStore
RegisterTheArrivalController ..> App
App -> Company
VaccineScheduleStore ..>VaccineScheduleDto
Company -> VaccinationCenter
VaccinationCenter -> VaccineScheduleStore
VaccinationCenter -> WaitingUserStore
VaccineScheduleStore -> VaccineSchedule
WaitingUserStore -> WaitingUser
Company -down-> UserStore
UserStore ->User
WaitingUserStore ..> UserStore
@enduml

PlantUML version 1.2022.1(Tue Feb 01 18:19:58 GMT 2022)
(GPL source distribution)
Java Runtime: OpenJDK Runtime Environment
JVM: OpenJDK 64-Bit Server VM
Default Encoding: Cp1252
Language: pt
Country: PT
--></g></svg>