<?xml version="1.0" encoding="UTF-8" standalone="no"?><svg xmlns="http://www.w3.org/2000/svg" xmlns:xlink="http://www.w3.org/1999/xlink" contentScriptType="application/ecmascript" contentStyleType="text/css" height="983px" preserveAspectRatio="none" style="width:1145px;height:983px;background:#FFFFFF;" version="1.1" viewBox="0 0 1145 983" width="1145px" zoomAndPan="magnify"><defs><filter height="300%" id="f1wxeyfoe4y645" width="300%" x="-1" y="-1"><feGaussianBlur result="blurOut" stdDeviation="2.0"/><feColorMatrix in="blurOut" result="blurOut2" type="matrix" values="0 0 0 0 0 0 0 0 0 0 0 0 0 0 0 0 0 0 .4 0"/><feOffset dx="4.0" dy="4.0" in="blurOut2" result="blurOut3"/><feBlend in="SourceGraphic" in2="blurOut3" mode="normal"/></filter></defs><g><path d="M684.5,52 L684.5,78.3516 L998.5,78.3516 L998.5,62 L988.5,52 L684.5,52 " fill="#FBFB77" filter="url(#f1wxeyfoe4y645)" style="stroke:#A80036;stroke-width:1.0;"/><path d="M988.5,52 L988.5,62 L998.5,62 L988.5,52 " fill="#FBFB77" style="stroke:#A80036;stroke-width:1.0;"/><text fill="#000000" font-family="sans-serif" font-size="13" lengthAdjust="spacing" textLength="293" x="690.5" y="70.4951">All changes introduced in Sprint B are colored blue</text><!--MD5=[da547346deef918ea16944ba046651ef]
class Administrator--><rect codeLine="5" fill="#FEFECE" filter="url(#f1wxeyfoe4y645)" height="33.0938" id="Administrator" style="stroke:#A80036;stroke-width:1.5;" width="79" x="480" y="561.5"/><text fill="#000000" font-family="sans-serif" font-size="12" lengthAdjust="spacing" textLength="73" x="483" y="578.957">Administrator</text><line style="stroke:#A80036;stroke-width:1.5;" x1="481" x2="558" y1="586.5938" y2="586.5938"/><!--MD5=[a059576e163b46f56762f12600c49258]
class Nurse--><rect codeLine="8" fill="#FEFECE" filter="url(#f1wxeyfoe4y645)" height="33.0938" id="Nurse" style="stroke:#A80036;stroke-width:1.5;" width="40" x="684.5" y="201"/><text fill="#000000" font-family="sans-serif" font-size="12" lengthAdjust="spacing" textLength="34" x="687.5" y="218.457">Nurse</text><line style="stroke:#A80036;stroke-width:1.5;" x1="685.5" x2="723.5" y1="226.0938" y2="226.0938"/><!--MD5=[bc9474904c93394f6b59770801b96c22]
class SNS User--><rect codeLine="11" fill="#FEFECE" filter="url(#f1wxeyfoe4y645)" height="143.7813" id="SNS User" style="stroke:#A80036;stroke-width:1.5;" width="122" x="413.5" y="312"/><text fill="#000000" font-family="sans-serif" font-size="12" lengthAdjust="spacing" textLength="55" x="447" y="329.457">SNS User</text><line style="stroke:#A80036;stroke-width:1.5;" x1="414.5" x2="534.5" y1="337.0938" y2="337.0938"/><rect fill="none" height="6" style="stroke:#C82930;stroke-width:1.0;" width="6" x="421.5" y="345.0938"/><text fill="#000000" font-family="sans-serif" font-size="11" lengthAdjust="spacing" textLength="27" x="433.5" y="352.5127">Name</text><rect fill="none" height="6" style="stroke:#C82930;stroke-width:1.0;" width="6" x="421.5" y="358.9297"/><text fill="#000000" font-family="sans-serif" font-size="11" lengthAdjust="spacing" textLength="42" x="433.5" y="366.3486">Address</text><rect fill="none" height="6" style="stroke:#C82930;stroke-width:1.0;" width="6" x="421.5" y="372.7656"/><text fill="#000000" font-family="sans-serif" font-size="11" lengthAdjust="spacing" textLength="24" x="433.5" y="380.1846">Email</text><rect fill="none" height="6" style="stroke:#C82930;stroke-width:1.0;" width="6" x="421.5" y="386.6016"/><text fill="#000000" font-family="sans-serif" font-size="11" lengthAdjust="spacing" textLength="19" x="433.5" y="394.0205">Sex</text><rect fill="none" height="6" style="stroke:#C82930;stroke-width:1.0;" width="6" x="421.5" y="400.4375"/><text fill="#000000" font-family="sans-serif" font-size="11" lengthAdjust="spacing" textLength="69" x="433.5" y="407.8564">Phone number</text><rect fill="none" height="6" style="stroke:#C82930;stroke-width:1.0;" width="6" x="421.5" y="414.2734"/><text fill="#000000" font-family="sans-serif" font-size="11" lengthAdjust="spacing" textLength="46" x="433.5" y="421.6924">Birth date</text><rect fill="none" height="6" style="stroke:#C82930;stroke-width:1.0;" width="6" x="421.5" y="428.1094"/><text fill="#000000" font-family="sans-serif" font-size="11" lengthAdjust="spacing" textLength="86" x="433.5" y="435.5283">SNS User number</text><rect fill="none" height="6" style="stroke:#C82930;stroke-width:1.0;" width="6" x="421.5" y="441.9453"/><text fill="#000000" font-family="sans-serif" font-size="11" lengthAdjust="spacing" textLength="96" x="433.5" y="449.3643">Citizen card number</text><!--MD5=[5d2bdee92db0d01b75732190da037553]
class Coordinator--><rect codeLine="22" fill="#FEFECE" filter="url(#f1wxeyfoe4y645)" height="33.0938" id="Coordinator" style="stroke:#A80036;stroke-width:1.5;" width="71" x="760" y="201"/><text fill="#000000" font-family="sans-serif" font-size="12" lengthAdjust="spacing" textLength="65" x="763" y="218.457">Coordinator</text><line style="stroke:#A80036;stroke-width:1.5;" x1="761" x2="830" y1="226.0938" y2="226.0938"/><!--MD5=[03960189e81aa2c066c762ffabbee709]
class Receptionist--><rect codeLine="25" fill="#FEFECE" filter="url(#f1wxeyfoe4y645)" height="33.0938" id="Receptionist" style="stroke:#A80036;stroke-width:1.5;" width="75" x="437" y="201"/><text fill="#000000" font-family="sans-serif" font-size="12" lengthAdjust="spacing" textLength="69" x="440" y="218.457">Receptionist</text><line style="stroke:#A80036;stroke-width:1.5;" x1="438" x2="511" y1="226.0938" y2="226.0938"/><!--MD5=[19e445fc4d3b48519cbe33da05496394]
class Vaccine--><rect codeLine="28" fill="#FEFECE" filter="url(#f1wxeyfoe4y645)" height="102.2734" id="Vaccine" style="stroke:#A80036;stroke-width:1.5;" width="136" x="673.5" y="728"/><text fill="#000000" font-family="sans-serif" font-size="12" lengthAdjust="spacing" textLength="43" x="720" y="745.457">Vaccine</text><line style="stroke:#A80036;stroke-width:1.5;" x1="674.5" x2="808.5" y1="753.0938" y2="753.0938"/><rect fill="none" height="6" style="stroke:#C82930;stroke-width:1.0;" width="6" x="681.5" y="761.0938"/><text fill="#000000" font-family="sans-serif" font-size="11" lengthAdjust="spacing" textLength="55" x="693.5" y="768.5127">designation</text><rect fill="none" height="6" style="stroke:#C82930;stroke-width:1.0;" width="6" x="681.5" y="774.9297"/><text fill="#000000" font-family="sans-serif" font-size="11" lengthAdjust="spacing" textLength="54" x="693.5" y="782.3486">ageGroups</text><rect fill="none" height="6" style="stroke:#C82930;stroke-width:1.0;" width="6" x="681.5" y="788.7656"/><text fill="#000000" font-family="sans-serif" font-size="11" lengthAdjust="spacing" textLength="36" x="693.5" y="796.1846">dosage</text><rect fill="none" height="6" style="stroke:#C82930;stroke-width:1.0;" width="6" x="681.5" y="802.6016"/><text fill="#000000" font-family="sans-serif" font-size="11" lengthAdjust="spacing" textLength="79" x="693.5" y="810.0205">numberOfDoses</text><rect fill="none" height="6" style="stroke:#C82930;stroke-width:1.0;" width="6" x="681.5" y="816.4375"/><text fill="#000000" font-family="sans-serif" font-size="11" lengthAdjust="spacing" textLength="110" x="693.5" y="823.8564">intervalBetweenDoses</text><!--MD5=[0e501da62322464167c8ec4d233a6b7e]
class VaccineType--><rect codeLine="36" fill="#FEFECE" filter="url(#f1wxeyfoe4y645)" height="33.0938" id="VaccineType" style="stroke:#A80036;stroke-width:1.5;" width="75" x="539" y="762.5"/><text fill="#000000" font-family="sans-serif" font-size="12" lengthAdjust="spacing" textLength="69" x="542" y="779.957">VaccineType</text><line style="stroke:#A80036;stroke-width:1.5;" x1="540" x2="613" y1="787.5938" y2="787.5938"/><!--MD5=[cd4ce1c0d44638ff9f42448de30e6b92]
class VaccineSchedule--><rect codeLine="39" fill="#FEFECE" filter="url(#f1wxeyfoe4y645)" height="88.4375" id="VaccineSchedule" style="stroke:#A80036;stroke-width:1.5;" width="101" x="344" y="534"/><text fill="#000000" font-family="sans-serif" font-size="12" lengthAdjust="spacing" textLength="95" x="347" y="551.457">VaccineSchedule</text><line style="stroke:#A80036;stroke-width:1.5;" x1="345" x2="444" y1="559.0938" y2="559.0938"/><rect fill="none" height="6" style="stroke:#C82930;stroke-width:1.0;" width="6" x="352" y="567.0938"/><text fill="#000000" font-family="sans-serif" font-size="11" lengthAdjust="spacing" textLength="32" x="364" y="574.5127">Center</text><rect fill="none" height="6" style="stroke:#C82930;stroke-width:1.0;" width="6" x="352" y="580.9297"/><text fill="#000000" font-family="sans-serif" font-size="11" lengthAdjust="spacing" textLength="22" x="364" y="588.3486">Time</text><rect fill="none" height="6" style="stroke:#C82930;stroke-width:1.0;" width="6" x="352" y="594.7656"/><text fill="#000000" font-family="sans-serif" font-size="11" lengthAdjust="spacing" textLength="22" x="364" y="602.1846">Date</text><rect fill="none" height="6" style="stroke:#C82930;stroke-width:1.0;" width="6" x="352" y="608.6016"/><text fill="#000000" font-family="sans-serif" font-size="11" lengthAdjust="spacing" textLength="61" x="364" y="616.0205">SNS Number</text><!--MD5=[02e4b9b7573f1156f41e60aa5b4e25a4]
class Company--><rect codeLine="46" fill="#FEFECE" filter="url(#f1wxeyfoe4y645)" height="46.9297" id="Company" style="stroke:#A80036;stroke-width:1.5;" width="82" x="273.5" y="360.5"/><text fill="#000000" font-family="sans-serif" font-size="12" lengthAdjust="spacing" textLength="53" x="288" y="377.957">Company</text><line style="stroke:#A80036;stroke-width:1.5;" x1="274.5" x2="354.5" y1="385.5938" y2="385.5938"/><rect fill="none" height="6" style="stroke:#C82930;stroke-width:1.0;" width="6" x="281.5" y="393.5938"/><text fill="#000000" font-family="sans-serif" font-size="11" lengthAdjust="spacing" textLength="56" x="293.5" y="401.0127">Designation</text><!--MD5=[56872536300a053cf9fd13853ad6ab1e]
class CommunityMassVaccinationCenter--><rect codeLine="50" fill="#FEFECE" filter="url(#f1wxeyfoe4y645)" height="33.0938" id="CommunityMassVaccinationCenter" style="stroke:#A80036;stroke-width:1.5;" width="199" x="7" y="936"/><text fill="#000000" font-family="sans-serif" font-size="12" lengthAdjust="spacing" textLength="193" x="10" y="953.457">CommunityMassVaccinationCenter</text><line style="stroke:#A80036;stroke-width:1.5;" x1="8" x2="205" y1="961.0938" y2="961.0938"/><!--MD5=[1db03e903fe0a044a2ca0dcbef10799a]
class HealthCareCenter--><rect codeLine="53" fill="#FEFECE" filter="url(#f1wxeyfoe4y645)" height="33.0938" id="HealthCareCenter" style="stroke:#A80036;stroke-width:1.5;" width="106" x="241.5" y="936"/><text fill="#000000" font-family="sans-serif" font-size="12" lengthAdjust="spacing" textLength="100" x="244.5" y="953.457">HealthCareCenter</text><line style="stroke:#A80036;stroke-width:1.5;" x1="242.5" x2="346.5" y1="961.0938" y2="961.0938"/><!--MD5=[7421f545a0d8420c5bec41e74b387d9c]
class Employee--><rect codeLine="56" fill="#FEFECE" filter="url(#f1wxeyfoe4y645)" height="116.1094" id="Employee" style="stroke:#A80036;stroke-width:1.5;" width="121" x="528" y="7"/><text fill="#000000" font-family="sans-serif" font-size="12" lengthAdjust="spacing" textLength="55" x="561" y="24.457">Employee</text><line style="stroke:#A80036;stroke-width:1.5;" x1="529" x2="648" y1="32.0938" y2="32.0938"/><rect fill="none" height="6" style="stroke:#C82930;stroke-width:1.0;" width="6" x="536" y="40.0938"/><text fill="#000000" font-family="sans-serif" font-size="11" lengthAdjust="spacing" textLength="8" x="548" y="47.5127">id</text><rect fill="none" height="6" style="stroke:#C82930;stroke-width:1.0;" width="6" x="536" y="53.9297"/><text fill="#000000" font-family="sans-serif" font-size="11" lengthAdjust="spacing" textLength="26" x="548" y="61.3486">name</text><rect fill="none" height="6" style="stroke:#C82930;stroke-width:1.0;" width="6" x="536" y="67.7656"/><text fill="#000000" font-family="sans-serif" font-size="11" lengthAdjust="spacing" textLength="40" x="548" y="75.1846">address</text><rect fill="none" height="6" style="stroke:#C82930;stroke-width:1.0;" width="6" x="536" y="81.6016"/><text fill="#000000" font-family="sans-serif" font-size="11" lengthAdjust="spacing" textLength="69" x="548" y="89.0205">phone number</text><rect fill="none" height="6" style="stroke:#C82930;stroke-width:1.0;" width="6" x="536" y="95.4375"/><text fill="#000000" font-family="sans-serif" font-size="11" lengthAdjust="spacing" textLength="28" x="548" y="102.8564">e-mail</text><rect fill="none" height="6" style="stroke:#C82930;stroke-width:1.0;" width="6" x="536" y="109.2734"/><text fill="#000000" font-family="sans-serif" font-size="11" lengthAdjust="spacing" textLength="95" x="548" y="116.6924">citizen card number</text><!--MD5=[bbd32abb87742158d8b9937325662454]
class Center--><rect codeLine="65" fill="#FEFECE" filter="url(#f1wxeyfoe4y645)" height="157.6172" id="Center" style="stroke:#A80036;stroke-width:1.5;" width="213" x="188" y="700"/><text fill="#000000" font-family="sans-serif" font-size="12" lengthAdjust="spacing" textLength="37" x="276" y="717.457">Center</text><line style="stroke:#A80036;stroke-width:1.5;" x1="189" x2="400" y1="725.0938" y2="725.0938"/><rect fill="none" height="6" style="stroke:#C82930;stroke-width:1.0;" width="6" x="196" y="733.0938"/><text fill="#000000" font-family="sans-serif" font-size="11" lengthAdjust="spacing" textLength="27" x="208" y="740.5127">Name</text><rect fill="none" height="6" style="stroke:#C82930;stroke-width:1.0;" width="6" x="196" y="746.9297"/><text fill="#000000" font-family="sans-serif" font-size="11" lengthAdjust="spacing" textLength="42" x="208" y="754.3486">Address</text><rect fill="none" height="6" style="stroke:#C82930;stroke-width:1.0;" width="6" x="196" y="760.7656"/><text fill="#000000" font-family="sans-serif" font-size="11" lengthAdjust="spacing" textLength="69" x="208" y="768.1846">Phone number</text><rect fill="none" height="6" style="stroke:#C82930;stroke-width:1.0;" width="6" x="196" y="774.6016"/><text fill="#000000" font-family="sans-serif" font-size="11" lengthAdjust="spacing" textLength="71" x="208" y="782.0205">E-mail address</text><rect fill="none" height="6" style="stroke:#C82930;stroke-width:1.0;" width="6" x="196" y="788.4375"/><text fill="#000000" font-family="sans-serif" font-size="11" lengthAdjust="spacing" textLength="57" x="208" y="795.8564">Fax number</text><rect fill="none" height="6" style="stroke:#C82930;stroke-width:1.0;" width="6" x="196" y="802.2734"/><text fill="#000000" font-family="sans-serif" font-size="11" lengthAdjust="spacing" textLength="82" x="208" y="809.6924">Website address</text><rect fill="none" height="6" style="stroke:#C82930;stroke-width:1.0;" width="6" x="196" y="816.1094"/><text fill="#000000" font-family="sans-serif" font-size="11" lengthAdjust="spacing" textLength="129" x="208" y="823.5283">Opening and closing hours</text><rect fill="none" height="6" style="stroke:#C82930;stroke-width:1.0;" width="6" x="196" y="829.9453"/><text fill="#000000" font-family="sans-serif" font-size="11" lengthAdjust="spacing" textLength="60" x="208" y="837.3643">Slot duration</text><rect fill="none" height="6" style="stroke:#C82930;stroke-width:1.0;" width="6" x="196" y="843.7813"/><text fill="#000000" font-family="sans-serif" font-size="11" lengthAdjust="spacing" textLength="187" x="208" y="851.2002">Max number of vaccines given per slot</text><!--MD5=[107cfa23aa516ff83d0cf17a6f9fe7ba]
class VaccineAdministration--><rect codeLine="78" fill="#FEFECE" filter="url(#f1wxeyfoe4y645)" height="60.7656" id="VaccineAdministration" style="stroke:#A80036;stroke-width:1.5;" width="128" x="594.5" y="547.5"/><text fill="#000000" font-family="sans-serif" font-size="12" lengthAdjust="spacing" textLength="122" x="597.5" y="564.957">VaccineAdministration</text><line style="stroke:#A80036;stroke-width:1.5;" x1="595.5" x2="721.5" y1="572.5938" y2="572.5938"/><rect fill="none" height="6" style="stroke:#C82930;stroke-width:1.0;" width="6" x="602.5" y="580.5938"/><text fill="#000000" font-family="sans-serif" font-size="11" lengthAdjust="spacing" textLength="40" x="614.5" y="588.0127">Vaccine</text><rect fill="none" height="6" style="stroke:#C82930;stroke-width:1.0;" width="6" x="602.5" y="594.4297"/><text fill="#000000" font-family="sans-serif" font-size="11" lengthAdjust="spacing" textLength="54" x="614.5" y="601.8486">Lot number</text><!--MD5=[76eac13229bb3104da58745d70961dbd]
class CenterStatistics--><rect codeLine="83" fill="#FEFECE" filter="url(#f1wxeyfoe4y645)" height="33.0938" id="CenterStatistics" style="stroke:#A80036;stroke-width:1.5;" width="93" x="383" y="936"/><text fill="#000000" font-family="sans-serif" font-size="12" lengthAdjust="spacing" textLength="87" x="386" y="953.457">CenterStatistics</text><line style="stroke:#A80036;stroke-width:1.5;" x1="384" x2="475" y1="961.0938" y2="961.0938"/><!--MD5=[f037a2adb9b7ded7782c970d443a81c6]
class VaccinationQueue--><rect codeLine="86" fill="#BFDDF3" filter="url(#f1wxeyfoe4y645)" height="33.0938" id="VaccinationQueue" style="stroke:#0000FF;stroke-width:1.5;" width="106" x="11.5" y="762.5"/><text fill="#000000" font-family="sans-serif" font-size="12" lengthAdjust="spacing" textLength="100" x="14.5" y="779.957">VaccinationQueue</text><line style="stroke:#0000FF;stroke-width:1.5;" x1="12.5" x2="116.5" y1="787.5938" y2="787.5938"/><!--MD5=[76b5e19c9337179d2d7ae334371d68c8]
class Notification--><rect codeLine="90" fill="#FEFECE" filter="url(#f1wxeyfoe4y645)" height="46.9297" id="Notification" style="stroke:#A80036;stroke-width:1.5;" width="70" x="976.5" y="554.5"/><text fill="#000000" font-family="sans-serif" font-size="12" lengthAdjust="spacing" textLength="61" x="981" y="571.957">Notification</text><line style="stroke:#A80036;stroke-width:1.5;" x1="977.5" x2="1045.5" y1="579.5938" y2="579.5938"/><rect fill="none" height="6" style="stroke:#C82930;stroke-width:1.0;" width="6" x="984.5" y="587.5938"/><text fill="#000000" font-family="sans-serif" font-size="11" lengthAdjust="spacing" textLength="44" x="996.5" y="595.0127">Message</text><!--MD5=[7e2bc2f128e759c5889ccd6a2666d576]
class EmailNotification--><rect codeLine="94" fill="#FEFECE" filter="url(#f1wxeyfoe4y645)" height="33.0938" id="EmailNotification" style="stroke:#A80036;stroke-width:1.5;" width="99" x="1032" y="762.5"/><text fill="#000000" font-family="sans-serif" font-size="12" lengthAdjust="spacing" textLength="93" x="1035" y="779.957">EmailNotification</text><line style="stroke:#A80036;stroke-width:1.5;" x1="1033" x2="1130" y1="787.5938" y2="787.5938"/><!--MD5=[17d776304760d17bcc13ba401441cbdd]
class SMSNotification--><rect codeLine="97" fill="#FEFECE" filter="url(#f1wxeyfoe4y645)" height="33.0938" id="SMSNotification" style="stroke:#A80036;stroke-width:1.5;" width="92" x="904.5" y="762.5"/><text fill="#000000" font-family="sans-serif" font-size="12" lengthAdjust="spacing" textLength="86" x="907.5" y="779.957">SMSNotification</text><line style="stroke:#A80036;stroke-width:1.5;" x1="905.5" x2="995.5" y1="787.5938" y2="787.5938"/><!--MD5=[39a1638d7cb0f602b18d7d12f49fdc2b]
class RecoveryPeriod--><rect codeLine="100" fill="#FEFECE" filter="url(#f1wxeyfoe4y645)" height="33.0938" id="RecoveryPeriod" style="stroke:#A80036;stroke-width:1.5;" width="92" x="818.5" y="561.5"/><text fill="#000000" font-family="sans-serif" font-size="12" lengthAdjust="spacing" textLength="86" x="821.5" y="578.957">RecoveryPeriod</text><line style="stroke:#A80036;stroke-width:1.5;" x1="819.5" x2="909.5" y1="586.5938" y2="586.5938"/><!--MD5=[5caa3f0ba00b2514d1e7cfd1693627cc]
class VaccineCertificate--><rect codeLine="102" fill="#FEFECE" filter="url(#f1wxeyfoe4y645)" height="33.0938" id="VaccineCertificate" style="stroke:#A80036;stroke-width:1.5;" width="104" x="894.5" y="367.5"/><text fill="#000000" font-family="sans-serif" font-size="12" lengthAdjust="spacing" textLength="98" x="897.5" y="384.957">VaccineCertificate</text><line style="stroke:#A80036;stroke-width:1.5;" x1="895.5" x2="997.5" y1="392.5938" y2="392.5938"/><!--MD5=[a107f497ebdb6fa60e16f0035ef62d40]
link Receptionist to VaccinationQueue--><path codeLine="105" d="M436.88,232.76 C377.9,255.39 268.96,298.35 255.5,312 C119.55,449.93 75.87,698.04 66.56,762.41 " fill="none" id="Receptionist-VaccinationQueue" style="stroke:#A80036;stroke-width:1.0;"/><polygon fill="#000000" points="145.6349,499.2735,153.2265,493.5447,148.4093,490.1766,145.6349,499.2735" style="stroke:#000000;stroke-width:1.0;"/><text fill="#000000" font-family="sans-serif" font-size="13" lengthAdjust="spacing" textLength="50" x="157.5" y="500.4951">registers</text><text fill="#000000" font-family="sans-serif" font-size="13" lengthAdjust="spacing" textLength="20" x="408.9929" y="250.1289">1..*</text><text fill="#000000" font-family="sans-serif" font-size="13" lengthAdjust="spacing" textLength="7" x="21.565" y="751.4966">1</text><!--MD5=[b8278040bc29cfdb50b0e6ecdd020091]
link VaccinationQueue to Center--><path codeLine="106" d="M117.56,779 C138.52,779 163.39,779 187.77,779 " fill="none" id="VaccinationQueue-Center" style="stroke:#A80036;stroke-width:1.0;"/><polygon fill="#000000" points="134.75,767.1758,143.7951,770.1147,143.7951,764.2369,134.75,767.1758" style="stroke:#000000;stroke-width:1.0;"/><text fill="#000000" font-family="sans-serif" font-size="13" lengthAdjust="spacing" textLength="21" x="148.75" y="772.4951">has</text><text fill="#000000" font-family="sans-serif" font-size="13" lengthAdjust="spacing" textLength="5" x="125.3731" y="775.3882">*</text><text fill="#000000" font-family="sans-serif" font-size="13" lengthAdjust="spacing" textLength="7" x="173.0195" y="775.9584">1</text><!--MD5=[3750c237b4ea394a5e9f0da3d5f61914]
link Center to CenterStatistics--><path codeLine="107" d="M356.07,858.22 C379.16,887.55 403.18,918.07 417.22,935.89 " fill="none" id="Center-CenterStatistics" style="stroke:#A80036;stroke-width:1.0;"/><text fill="#000000" font-family="sans-serif" font-size="13" lengthAdjust="spacing" textLength="21" x="394.5" y="902.4951">has</text><text fill="#000000" font-family="sans-serif" font-size="13" lengthAdjust="spacing" textLength="7" x="354.0604" y="879.2421">1</text><text fill="#000000" font-family="sans-serif" font-size="13" lengthAdjust="spacing" textLength="20" x="389.8398" y="925.2758">1..*</text><!--MD5=[fe2b08b580c47e7e82a42562d6e9b750]
link Center to CommunityMassVaccinationCenter--><path codeLine="108" d="M208.75,858.22 C176.6,887.55 143.15,918.07 123.61,935.89 " fill="none" id="Center-CommunityMassVaccinationCenter" style="stroke:#A80036;stroke-width:1.0;"/><polygon fill="#000000" points="182.1939,893.806,173.5309,897.7308,177.4923,902.0732,182.1939,893.806" style="stroke:#000000;stroke-width:1.0;"/><text fill="#000000" font-family="sans-serif" font-size="13" lengthAdjust="spacing" textLength="21" x="187.5" y="902.4951">is a</text><text fill="#000000" font-family="sans-serif" font-size="13" lengthAdjust="spacing" textLength="7" x="194.0801" y="879.2421">1</text><text fill="#000000" font-family="sans-serif" font-size="13" lengthAdjust="spacing" textLength="20" x="105.9652" y="925.2758">1..*</text><!--MD5=[a86c7da9692c76d88ab2e4d6be1a3060]
link Center to HealthCareCenter--><path codeLine="109" d="M294.5,858.22 C294.5,887.55 294.5,918.07 294.5,935.89 " fill="none" id="Center-HealthCareCenter" style="stroke:#A80036;stroke-width:1.0;"/><polygon fill="#000000" points="299.5,892.1758,296.5611,901.2209,302.4389,901.2209,299.5,892.1758" style="stroke:#000000;stroke-width:1.0;"/><text fill="#000000" font-family="sans-serif" font-size="13" lengthAdjust="spacing" textLength="21" x="308.5" y="902.4951">is a</text><text fill="#000000" font-family="sans-serif" font-size="13" lengthAdjust="spacing" textLength="7" x="287.1992" y="879.2421">1</text><text fill="#000000" font-family="sans-serif" font-size="13" lengthAdjust="spacing" textLength="20" x="271.1875" y="925.2758">1..*</text><!--MD5=[d7ace9ce94145b54e26b24a174e1b7b9]
link Employee to Company--><path codeLine="110" d="M527.62,93.17 C482.35,116.12 422,152.94 383.5,201 C344.31,249.92 325.69,323.51 318.4,360.32 " fill="none" id="Employee-Company" style="stroke:#A80036;stroke-width:1.0;"/><polygon fill="#000000" points="391.5829,213.7393,383.6921,219.0484,388.3197,222.6725,391.5829,213.7393" style="stroke:#000000;stroke-width:1.0;"/><text fill="#000000" font-family="sans-serif" font-size="13" lengthAdjust="spacing" textLength="21" x="397.5" y="222.9951">has</text><text fill="#000000" font-family="sans-serif" font-size="13" lengthAdjust="spacing" textLength="20" x="499.8675" y="92.8845">1..*</text><text fill="#000000" font-family="sans-serif" font-size="13" lengthAdjust="spacing" textLength="7" x="311.5025" y="349.7512">1</text><!--MD5=[2f2a2833bfdf763dd6e1ab7659ef1042]
link Company to Center--><path codeLine="111" d="M312.56,407.7 C310.13,436.9 305.98,489.2 303.5,534 C300.43,589.45 298.15,652.04 296.65,699.95 " fill="none" id="Company-Center" style="stroke:#A80036;stroke-width:1.0;"/><text fill="#000000" font-family="sans-serif" font-size="13" lengthAdjust="spacing" textLength="21" x="304.5" y="583.4951">has</text><text fill="#000000" font-family="sans-serif" font-size="13" lengthAdjust="spacing" textLength="7" x="304.234" y="428.9734">1</text><text fill="#000000" font-family="sans-serif" font-size="13" lengthAdjust="spacing" textLength="20" x="275.9018" y="689.1832">1..*</text><!--MD5=[d0cadfdf65c87de1901cff2e300b58e1]
link Company to SNS User--><path codeLine="112" d="M355.7,384 C373.2,384 393.97,384 413.21,384 " fill="none" id="Company-SNS User" style="stroke:#A80036;stroke-width:1.0;"/><text fill="#000000" font-family="sans-serif" font-size="13" lengthAdjust="spacing" textLength="21" x="374" y="377.4951">has</text><text fill="#000000" font-family="sans-serif" font-size="13" lengthAdjust="spacing" textLength="7" x="363.3828" y="380.1564">1</text><text fill="#000000" font-family="sans-serif" font-size="13" lengthAdjust="spacing" textLength="20" x="385.4127" y="398.4013">1..*</text><!--MD5=[ba57ada7c290c24db55e6c1c98f5c156]
link SNS User to VaccineSchedule--><path codeLine="113" d="M413.22,423.84 C392.82,440.29 372.51,461.38 361.5,486 C354.64,501.34 358.17,518.58 365.03,533.9 " fill="none" id="SNS User-VaccineSchedule" style="stroke:#A80036;stroke-width:1.0;"/><polygon fill="#000000" points="368.5054,490.5956,362.1854,497.7025,367.5697,500.06,368.5054,490.5956" style="stroke:#000000;stroke-width:1.0;"/><text fill="#000000" font-family="sans-serif" font-size="13" lengthAdjust="spacing" textLength="61" x="375.5" y="500.4951">created for</text><text fill="#000000" font-family="sans-serif" font-size="13" lengthAdjust="spacing" textLength="7" x="398.3249" y="425.2504">1</text><text fill="#000000" font-family="sans-serif" font-size="13" lengthAdjust="spacing" textLength="5" x="354.9348" y="523.0848">*</text><!--MD5=[3caf13aaa2024aa22c821e0b9522d554]
link SNS User to VaccineAdministration--><path codeLine="114" d="M535.52,425.63 C558.43,442.64 583.69,463.65 603.5,486 C619.91,504.51 634.21,528.58 644.11,547.31 " fill="none" id="SNS User-VaccineAdministration" style="stroke:#A80036;stroke-width:1.0;"/><polygon fill="#000000" points="618.1708,491.4453,622.0006,500.1507,626.3861,496.237,618.1708,491.4453" style="stroke:#000000;stroke-width:1.0;"/><text fill="#000000" font-family="sans-serif" font-size="13" lengthAdjust="spacing" textLength="92" x="630.5" y="500.4951">administered on</text><text fill="#000000" font-family="sans-serif" font-size="13" lengthAdjust="spacing" textLength="7" x="543.3834" y="427.2585">1</text><text fill="#000000" font-family="sans-serif" font-size="13" lengthAdjust="spacing" textLength="7" x="633.1966" y="536.4058">1</text><!--MD5=[d96ee281cdb1021d3c4ed227c45512e2]
link VaccineAdministration to Vaccine--><path codeLine="115" d="M679.94,608.85 C688.45,621.67 697.78,637.12 704.5,652 C715.38,676.11 724,704.24 730.17,727.79 " fill="none" id="VaccineAdministration-Vaccine" style="stroke:#A80036;stroke-width:1.0;"/><text fill="#000000" font-family="sans-serif" font-size="13" lengthAdjust="spacing" textLength="10" x="711.5" y="666.4951">of</text><text fill="#000000" font-family="sans-serif" font-size="13" lengthAdjust="spacing" textLength="7" x="676.3598" y="629.8067">1</text><text fill="#000000" font-family="sans-serif" font-size="13" lengthAdjust="spacing" textLength="20" x="707.1705" y="716.9642">1..*</text><!--MD5=[7991057a0b57fcb72665747661b5eb1a]
link VaccineType to Vaccine--><path codeLine="116" d="M614.35,779 C631.86,779 653.21,779 673.37,779 " fill="none" id="VaccineType-Vaccine" style="stroke:#A80036;stroke-width:1.0;"/><polygon fill="#000000" points="631.25,767.1758,640.2951,770.1147,640.2951,764.2369,631.25,767.1758" style="stroke:#000000;stroke-width:1.0;"/><text fill="#000000" font-family="sans-serif" font-size="13" lengthAdjust="spacing" textLength="10" x="645.25" y="772.4951">of</text><text fill="#000000" font-family="sans-serif" font-size="13" lengthAdjust="spacing" textLength="20" x="621.9761" y="793.7907">1..*</text><text fill="#000000" font-family="sans-serif" font-size="13" lengthAdjust="spacing" textLength="7" x="658.5355" y="775.6244">1</text><!--MD5=[edce63056464daa8e6845febad089514]
link Center to VaccineType--><path codeLine="117" d="M401.11,779 C449.46,779 503.56,779 538.72,779 " fill="none" id="Center-VaccineType" style="stroke:#A80036;stroke-width:1.0;"/><polygon fill="#000000" points="418.5,767.1758,427.5451,770.1147,427.5451,764.2369,418.5,767.1758" style="stroke:#000000;stroke-width:1.0;"/><text fill="#000000" font-family="sans-serif" font-size="13" lengthAdjust="spacing" textLength="88" x="432.5" y="772.4951">administered in</text><text fill="#000000" font-family="sans-serif" font-size="13" lengthAdjust="spacing" textLength="20" x="408.9447" y="793.0573">1..*</text><text fill="#000000" font-family="sans-serif" font-size="13" lengthAdjust="spacing" textLength="20" x="511.1051" y="793.7907">1..*</text><!--MD5=[1550803902f9bf253453d1d93b02be0f]
link VaccineSchedule to VaccinationQueue--><path codeLine="118" d="M343.78,607.08 C334.71,612.07 325.33,617.21 316.5,622 C251.84,657.09 232.73,660.76 170.5,700 C139,719.86 104.64,746.05 83.83,762.46 " fill="none" id="VaccineSchedule-VaccinationQueue" style="stroke:#A80036;stroke-width:1.0;"/><polygon fill="#000000" points="267.7918,658.6105,258.52,660.7285,261.5357,665.7738,267.7918,658.6105" style="stroke:#000000;stroke-width:1.0;"/><text fill="#000000" font-family="sans-serif" font-size="13" lengthAdjust="spacing" textLength="78" x="272.5" y="666.4951">depends from</text><text fill="#000000" font-family="sans-serif" font-size="13" lengthAdjust="spacing" textLength="7" x="329.1553" y="607.5334">1</text><text fill="#000000" font-family="sans-serif" font-size="13" lengthAdjust="spacing" textLength="7" x="93.7403" y="751.5638">1</text><!--MD5=[0627282f411ece888f894017ff17802b]
link VaccineSchedule to VaccineType--><path codeLine="119" d="M378.62,622.05 C375.37,638.03 375.13,655.72 383.5,670 C392.63,685.57 492.44,736.52 544.81,762.48 " fill="none" id="VaccineSchedule-VaccineType" style="stroke:#A80036;stroke-width:1.0;"/><text fill="#000000" font-family="sans-serif" font-size="13" lengthAdjust="spacing" textLength="53" x="384.5" y="666.4951">for taking</text><text fill="#000000" font-family="sans-serif" font-size="13" lengthAdjust="spacing" textLength="5" x="370.6907" y="643.8337">*</text><text fill="#000000" font-family="sans-serif" font-size="13" lengthAdjust="spacing" textLength="7" x="525.7134" y="751.5907">1</text><!--MD5=[195cd4b2065cc6507c3064f693e1e4c8]
link Nurse to VaccineAdministration--><path codeLine="120" d="M710.92,234.12 C728.13,278.41 771.32,407.87 731.5,504 C724.64,520.56 712,535.32 699.14,547.16 " fill="none" id="Nurse-VaccineAdministration" style="stroke:#A80036;stroke-width:1.0;"/><polygon fill="#000000" points="752.688,379.1793,749.411,388.1075,755.2847,388.3285,752.688,379.1793" style="stroke:#000000;stroke-width:1.0;"/><text fill="#000000" font-family="sans-serif" font-size="13" lengthAdjust="spacing" textLength="96" x="761.5" y="389.4951">administrated by</text><text fill="#000000" font-family="sans-serif" font-size="13" lengthAdjust="spacing" textLength="7" x="704.8508" y="255.5038">1</text><text fill="#000000" font-family="sans-serif" font-size="13" lengthAdjust="spacing" textLength="20" x="685.4595" y="536.7048">1..*</text><!--MD5=[ecc0e8a895b555d527d34f0459c0acd2]
link Notification to SMSNotification--><path codeLine="121" d="M1004.5,601.83 C991.98,642.66 966.07,727.22 955.32,762.26 " fill="none" id="Notification-SMSNotification" style="stroke:#A80036;stroke-width:1.0;"/><polygon fill="#000000" points="993.9654,656.3954,988.5046,664.1819,994.1243,665.9046,993.9654,656.3954" style="stroke:#000000;stroke-width:1.0;"/><text fill="#000000" font-family="sans-serif" font-size="13" lengthAdjust="spacing" textLength="21" x="1001.5" y="666.4951">is a</text><text fill="#000000" font-family="sans-serif" font-size="13" lengthAdjust="spacing" textLength="7" x="995.0719" y="622.7346">1</text><text fill="#000000" font-family="sans-serif" font-size="13" lengthAdjust="spacing" textLength="7" x="948.7573" y="751.6027">1</text><!--MD5=[cad0a8c9b3da72803d693c5b0fb7e1c0]
link Notification to EmailNotification--><path codeLine="122" d="M1019.53,601.83 C1033.89,642.66 1063.64,727.22 1075.96,762.26 " fill="none" id="Notification-EmailNotification" style="stroke:#A80036;stroke-width:1.0;"/><polygon fill="#000000" points="1044.8409,656.4591,1045.0698,665.9669,1050.6146,664.0165,1044.8409,656.4591" style="stroke:#000000;stroke-width:1.0;"/><text fill="#000000" font-family="sans-serif" font-size="13" lengthAdjust="spacing" textLength="21" x="1055.5" y="666.4951">is a</text><text fill="#000000" font-family="sans-serif" font-size="13" lengthAdjust="spacing" textLength="7" x="1013.5776" y="622.7346">1</text><text fill="#000000" font-family="sans-serif" font-size="13" lengthAdjust="spacing" textLength="7" x="1065.9655" y="751.6027">1</text><!--MD5=[fcde09df24315c7099b93e176a3fbe92]
link VaccineSchedule to Notification--><path codeLine="123" d="M445.01,543.57 C450.8,540.15 456.71,536.88 462.5,534 C503.15,513.76 513.78,506.9 558.5,499 C610.77,489.77 783.51,489.59 928.5,534 C945.03,539.06 962.1,547.48 976.43,555.6 " fill="none" id="VaccineSchedule-Notification" style="stroke:#A80036;stroke-width:1.0;"/><polygon fill="#000000" points="568.4987,495.2889,559.5225,492.1461,559.3894,498.0224,568.4987,495.2889" style="stroke:#000000;stroke-width:1.0;"/><text fill="#000000" font-family="sans-serif" font-size="13" lengthAdjust="spacing" textLength="29" x="572.5" y="500.4951">gives</text><text fill="#000000" font-family="sans-serif" font-size="13" lengthAdjust="spacing" textLength="7" x="452.9427" y="534.8269">1</text><text fill="#000000" font-family="sans-serif" font-size="13" lengthAdjust="spacing" textLength="22" x="946.5117" y="547.9064">0..1</text><!--MD5=[597adfa5cd97faff78364fd9ec4a6fdd]
link RecoveryPeriod to Notification--><path codeLine="124" d="M910.61,578 C931.83,578 956.6,578 976.29,578 " fill="none" id="RecoveryPeriod-Notification" style="stroke:#A80036;stroke-width:1.0;"/><text fill="#000000" font-family="sans-serif" font-size="13" lengthAdjust="spacing" textLength="29" x="929" y="571.4951">gives</text><text fill="#000000" font-family="sans-serif" font-size="13" lengthAdjust="spacing" textLength="7" x="918.5166" y="574.2407">1</text><text fill="#000000" font-family="sans-serif" font-size="13" lengthAdjust="spacing" textLength="7" x="961.3061" y="573.8886">1</text><!--MD5=[129e453d88ce182620d85adb40676abd]
link VaccineAdministration to RecoveryPeriod--><path codeLine="125" d="M722.55,578 C753.61,578 790.22,578 818.48,578 " fill="none" id="VaccineAdministration-RecoveryPeriod" style="stroke:#0000FF;stroke-width:1.0;"/><polygon fill="#000000" points="740,566.1758,749.0451,569.1147,749.0451,563.2369,740,566.1758" style="stroke:#000000;stroke-width:1.0;"/><text fill="#000000" font-family="sans-serif" font-size="13" lengthAdjust="spacing" textLength="46" x="754" y="571.4951">requires</text><text fill="#000000" font-family="sans-serif" font-size="13" lengthAdjust="spacing" textLength="7" x="730.3605" y="574.604">1</text><text fill="#000000" font-family="sans-serif" font-size="13" lengthAdjust="spacing" textLength="7" x="803.5878" y="574.2407">1</text><!--MD5=[9923cd98abc1e146bb70de29ece18795]
link SNS User to VaccineCertificate--><path codeLine="126" d="M535.84,339.66 C570.11,317.63 614.65,293.34 658.5,282 C720.28,266.02 857.95,307.22 867.5,312 C894.38,325.45 918.88,350.71 933.24,367.45 " fill="none" id="SNS User-VaccineCertificate" style="stroke:#A80036;stroke-width:1.0;"/><text fill="#000000" font-family="sans-serif" font-size="13" lengthAdjust="spacing" textLength="50" x="659.5" y="278.4951">requests</text><text fill="#000000" font-family="sans-serif" font-size="13" lengthAdjust="spacing" textLength="5" x="543.6205" y="330.8109">*</text><text fill="#000000" font-family="sans-serif" font-size="13" lengthAdjust="spacing" textLength="22" x="932.4631" y="356.5504">0..1</text><!--MD5=[b614735c6119107e093c4d9c2b3c4f8d]
link Nurse to VaccineCertificate--><path codeLine="127" d="M724.65,228.3 C756.28,244.08 819,276.9 867.5,312 C891.1,329.08 915.66,352.12 931.01,367.26 " fill="none" id="Nurse-VaccineCertificate" style="stroke:#A80036;stroke-width:1.0;"/><text fill="#000000" font-family="sans-serif" font-size="13" lengthAdjust="spacing" textLength="38" x="820.5" y="278.4951">issues</text><text fill="#000000" font-family="sans-serif" font-size="13" lengthAdjust="spacing" textLength="20" x="731.9609" y="226.5744">1..*</text><text fill="#000000" font-family="sans-serif" font-size="13" lengthAdjust="spacing" textLength="7" x="917.7196" y="356.6027">1</text><!--MD5=[08dccc1a29a516c72e0e44237ba55b7b]
link Receptionist to SNS User--><path codeLine="128" d="M474.5,234.27 C474.5,252.29 474.5,283.01 474.5,311.86 " fill="none" id="Receptionist-SNS User" style="stroke:#0000FF;stroke-width:1.0;"/><text fill="#000000" font-family="sans-serif" font-size="13" lengthAdjust="spacing" textLength="50" x="475.5" y="278.4951">registers</text><text fill="#000000" font-family="sans-serif" font-size="13" lengthAdjust="spacing" textLength="7" x="466.3844" y="255.7016">1</text><text fill="#000000" font-family="sans-serif" font-size="13" lengthAdjust="spacing" textLength="20" x="453.4688" y="301.1201">1..*</text><!--MD5=[72531b444543ac01843e372b65c8a5ab]
link Administrator to Center--><path codeLine="129" d="M507.99,594.79 C493.76,613.77 468.26,646.03 442.5,670 C429.69,681.92 415.56,693.7 401.26,704.85 " fill="none" id="Administrator-Center" style="stroke:#0000FF;stroke-width:1.0;"/><text fill="#000000" font-family="sans-serif" font-size="13" lengthAdjust="spacing" textLength="50" x="460.5" y="666.4951">registers</text><text fill="#000000" font-family="sans-serif" font-size="13" lengthAdjust="spacing" textLength="7" x="496.2056" y="616.228">1</text><text fill="#000000" font-family="sans-serif" font-size="13" lengthAdjust="spacing" textLength="20" x="409.1048" y="696.8503">1..*</text><!--MD5=[0e439f75a3d966f965fe5f237a1bacbe]
link Administrator to Vaccine--><path codeLine="130" d="M536.92,594.62 C568.5,622.93 636.48,683.86 685.42,727.73 " fill="none" id="Administrator-Vaccine" style="stroke:#0000FF;stroke-width:1.0;"/><text fill="#000000" font-family="sans-serif" font-size="13" lengthAdjust="spacing" textLength="43" x="618.5" y="666.4951">creates</text><text fill="#000000" font-family="sans-serif" font-size="13" lengthAdjust="spacing" textLength="7" x="534.357" y="616.0038">1</text><text fill="#000000" font-family="sans-serif" font-size="13" lengthAdjust="spacing" textLength="20" x="656.5405" y="717.266">1..*</text><!--MD5=[d0b477519989ed3601cd00d052224350]
link Administrator to VaccineType--><path codeLine="131" d="M523.97,594.62 C534.63,631.82 561.41,725.33 572.05,762.46 " fill="none" id="Administrator-VaccineType" style="stroke:#0000FF;stroke-width:1.0;"/><text fill="#000000" font-family="sans-serif" font-size="13" lengthAdjust="spacing" textLength="43" x="546.5" y="666.4951">creates</text><text fill="#000000" font-family="sans-serif" font-size="13" lengthAdjust="spacing" textLength="7" x="517.2792" y="616.0038">1</text><text fill="#000000" font-family="sans-serif" font-size="13" lengthAdjust="spacing" textLength="20" x="547.0828" y="751.5638">1..*</text><!--MD5=[ebf22afb56e1f0d2945fcbe4c1d3c4d8]
link SNS User to Notification--><path codeLine="132" d="M535.82,403.78 C642.08,436.55 856.03,503.57 928.5,534 C944.51,540.72 961.64,549.34 976.15,557.09 " fill="none" id="SNS User-Notification" style="stroke:#0000FF;stroke-width:1.0;"/><text fill="#000000" font-family="sans-serif" font-size="13" lengthAdjust="spacing" textLength="47" x="844.5" y="500.4951">receives</text><text fill="#000000" font-family="sans-serif" font-size="13" lengthAdjust="spacing" textLength="7" x="543.3148" y="402.6702">1</text><text fill="#000000" font-family="sans-serif" font-size="13" lengthAdjust="spacing" textLength="22" x="966.8666" y="543.6436">0..1</text><!--MD5=[8f7dd94d56b58fc07b233ccd3dd98f8c]
link Administrator to Employee--><path codeLine="133" d="M524.78,561.15 C532.19,538.23 545.55,494.35 552.5,456 C573.7,338.91 582.74,199.66 586.34,123.26 " fill="none" id="Administrator-Employee" style="stroke:#0000FF;stroke-width:1.0;"/><polygon fill="#000000" points="583.1961,268.2245,579.0266,276.7723,584.8472,277.5906,583.1961,268.2245" style="stroke:#000000;stroke-width:1.0;"/><text fill="#000000" font-family="sans-serif" font-size="13" lengthAdjust="spacing" textLength="43" x="591.5" y="278.4951">creates</text><text fill="#000000" font-family="sans-serif" font-size="13" lengthAdjust="spacing" textLength="7" x="518.3474" y="550.7653">1</text><text fill="#000000" font-family="sans-serif" font-size="13" lengthAdjust="spacing" textLength="20" x="564.934" y="144.4304">1..*</text><!--MD5=[b71b66caf67976638439c0d1a3790473]
link Employee to Nurse--><path codeLine="134" d="M632.69,123.33 C654.2,151.24 678.4,182.64 692.5,200.93 " fill="none" id="Employee-Nurse" style="stroke:#0000FF;stroke-width:1.0;"/><polygon fill="#000000" points="674.5523,166.136,671.3584,157.1778,666.7029,160.766,674.5523,166.136" style="stroke:#000000;stroke-width:1.0;"/><text fill="#000000" font-family="sans-serif" font-size="13" lengthAdjust="spacing" textLength="42" x="680.5" y="167.4951">play as</text><text fill="#000000" font-family="sans-serif" font-size="13" lengthAdjust="spacing" textLength="7" x="630.3948" y="144.5085">1</text><text fill="#000000" font-family="sans-serif" font-size="13" lengthAdjust="spacing" textLength="20" x="664.9375" y="190.0235">1..*</text><!--MD5=[1da12df22706e73e1def33b218b7f412]
link Employee to Receptionist--><path codeLine="135" d="M529.19,123.31 C520.74,132.82 512.54,142.89 505.5,153 C494.92,168.2 486.03,187.57 480.53,200.89 " fill="none" id="Employee-Receptionist" style="stroke:#0000FF;stroke-width:1.0;"/><polygon fill="#000000" points="507.8432,166.4115,515.1391,160.3106,510.1597,157.1874,507.8432,166.4115" style="stroke:#000000;stroke-width:1.0;"/><text fill="#000000" font-family="sans-serif" font-size="13" lengthAdjust="spacing" textLength="42" x="519.5" y="167.4951">play as</text><text fill="#000000" font-family="sans-serif" font-size="13" lengthAdjust="spacing" textLength="7" x="514.9276" y="144.4862">1</text><text fill="#000000" font-family="sans-serif" font-size="13" lengthAdjust="spacing" textLength="20" x="459.2149" y="190.2758">1..*</text><!--MD5=[d8cf155570c2fc8069691ea2f7bdb19f]
link Employee to Coordinator--><path codeLine="136" d="M649.42,111.64 C655.43,115.63 661.52,119.48 667.5,123 C694.58,138.93 705.75,135.01 731.5,153 C751.26,166.81 770.41,186.98 782.53,200.87 " fill="none" id="Employee-Coordinator" style="stroke:#0000FF;stroke-width:1.0;"/><polygon fill="#000000" points="761.6532,164.9599,755.7764,157.4822,752.5036,162.3646,761.6532,164.9599" style="stroke:#000000;stroke-width:1.0;"/><text fill="#000000" font-family="sans-serif" font-size="13" lengthAdjust="spacing" textLength="42" x="766.5" y="167.4951">play as</text><text fill="#000000" font-family="sans-serif" font-size="13" lengthAdjust="spacing" textLength="7" x="656.8686" y="113.6169">1</text><text fill="#000000" font-family="sans-serif" font-size="13" lengthAdjust="spacing" textLength="20" x="754.9212" y="190.2491">1..*</text><!--MD5=[eaea43e34e45c5b9d20b595fc78f1f20]
link Company to Administrator--><path codeLine="137" d="M338.55,407.69 C354.28,422.12 375.53,440.86 395.5,456 C414.95,470.75 423.15,469.91 441.5,486 C468.25,509.46 494.07,542.18 508.26,561.33 " fill="none" id="Company-Administrator" style="stroke:#0000FF;stroke-width:1.0;"/><text fill="#000000" font-family="sans-serif" font-size="13" lengthAdjust="spacing" textLength="30" x="459.5" y="500.4951">owns</text><text fill="#000000" font-family="sans-serif" font-size="13" lengthAdjust="spacing" textLength="7" x="336.5591" y="428.961">1</text><text fill="#000000" font-family="sans-serif" font-size="13" lengthAdjust="spacing" textLength="20" x="481.2243" y="550.6959">1..*</text><!--MD5=[495c22e0dd38642d526a82db95932595]
@startuml
hide methods
hide circle

note "All changes introduced in Sprint B are colored blue" as N1
class Administrator{
}

class Nurse{
}

class "SNS User"{
- Name
- Address
- Email
- Sex
- Phone number
- Birth date
- SNS User number
- Citizen card number
}

class Coordinator{
}

class Receptionist{
}

class Vaccine{
- designation
- ageGroups
- dosage
- numberOfDoses
- intervalBetweenDoses
}

class VaccineType{
}

class VaccineSchedule{
- Center
- Time
- Date
- SNS Number
}

class Company{
- Designation
}

class CommunityMassVaccinationCenter{
}

class HealthCareCenter{
}

class Employee{
-id
-name
-address
-phone number
-e-mail
-citizen card number
}

class Center{

-Name
-Address
-Phone number
-E-mail address
-Fax number
-Website address
-Opening and closing hours
-Slot duration
-Max number of vaccines given per slot
}

class VaccineAdministration{
- Vaccine
- Lot number
}

class CenterStatistics{
}

class VaccinationQueue #BFDDF3 ##0000FF{

}

class Notification{
-Message
}

class EmailNotification{
}

class SMSNotification{
}

class RecoveryPeriod{
}
class VaccineCertificate


Receptionist"1..*" -down- "1        "VaccinationQueue : > registers
Center "1"-left- "*"VaccinationQueue : > has
Center"1" -down- "1..*"CenterStatistics : has
CommunityMassVaccinationCenter"1..*" -up- "1"Center : > is a
HealthCareCenter"1..*" -up- "1"Center : > is a
Company"1" -left- "1..*"Employee : > has
Company"1" -down- "1..*"Center : has
Company"1" -right- "1..*""SNS User" : has
"SNS User" "1" -down- "*"VaccineSchedule : < created for
"SNS User""1" -down- "1"VaccineAdministration : < administered on
VaccineAdministration"1" -down- "1..*"Vaccine : of
Vaccine"1" -left- "1..*"VaccineType : > of
VaccineType"1..*" -left- "1..*"Center : > administered in
VaccinationQueue"1   "-up- "1"VaccineSchedule : > depends from
VaccineSchedule"*" -down- "1"VaccineType : for taking
Nurse"1" -right- "1..*"VaccineAdministration : < administrated by
Notification"1" - - "1"SMSNotification : < is a
Notification"1" - - "1"EmailNotification : < is a
VaccineSchedule"1" -right- "0..1"Notification : > gives
RecoveryPeriod"1" -right- "1"Notification : gives
RecoveryPeriod"1" -left[#0000FF]- "1"VaccineAdministration : > requires
"SNS User" "*" -right- "0..1"VaccineCertificate : requests
Nurse "1..*" -down- "1"VaccineCertificate : issues
Receptionist"1" -[#0000FF]- "1..*" "SNS User" : registers
Administrator"1" -[#0000FF]- "1..*"Center : registers
Administrator"1" -[#0000FF]- "1..*"Vaccine : creates
Administrator"1" -[#0000FF]- "1..*"VaccineType : creates
"SNS User""1" -[#0000FF]- "0..1"Notification : receives
Administrator"1" -[#0000FF]-"1..*"Employee : > creates
Nurse"1..*" -up[#0000FF]- "1"Employee : < play as
Receptionist"1..*" -up[#0000FF]- "1"Employee : < play as
Coordinator"1..*" -up[#0000FF]- "1"Employee : < play as
Company"1"-[#0000FF]-"1..*"Administrator : owns
@enduml

PlantUML version 1.2022.1(Tue Feb 01 18:19:58 GMT 2022)
(GPL source distribution)
Java Runtime: OpenJDK Runtime Environment
JVM: OpenJDK 64-Bit Server VM
Default Encoding: Cp1252
Language: pt
Country: PT
--></g></svg>