<?xml version="1.0" encoding="UTF-8" standalone="no"?><svg xmlns="http://www.w3.org/2000/svg" xmlns:xlink="http://www.w3.org/1999/xlink" contentScriptType="application/ecmascript" contentStyleType="text/css" height="1411px" preserveAspectRatio="none" style="width:611px;height:1411px;background:#FFFFFF;" version="1.1" viewBox="0 0 611 1411" width="611px" zoomAndPan="magnify"><defs><filter height="300%" id="fhu5rp8dh37sq" width="300%" x="-1" y="-1"><feGaussianBlur result="blurOut" stdDeviation="2.0"/><feColorMatrix in="blurOut" result="blurOut2" type="matrix" values="0 0 0 0 0 0 0 0 0 0 0 0 0 0 0 0 0 0 .4 0"/><feOffset dx="4.0" dy="4.0" in="blurOut2" result="blurOut3"/><feBlend in="SourceGraphic" in2="blurOut3" mode="normal"/></filter></defs><g><!--MD5=[8fc3522a43f8c7199df5e09e5bb0188e]
entity user--><ellipse cx="67" cy="1227.5" fill="#FEFECE" filter="url(#fhu5rp8dh37sq)" rx="8" ry="8" style="stroke:#A80036;stroke-width:1.5;"/><path d="M67,1235.5 L67,1262.5 M54,1243.5 L80,1243.5 M67,1262.5 L54,1277.5 M67,1262.5 L80,1277.5 " fill="none" filter="url(#fhu5rp8dh37sq)" style="stroke:#A80036;stroke-width:1.5;"/><text fill="#000000" font-family="sans-serif" font-size="14" lengthAdjust="spacing" textLength="60" x="37" y="1297.5332">SNS User</text><!--MD5=[87d66015e0fe95d70bf3fa68103252e8]
entity nurse--><ellipse cx="67" cy="932.5" fill="#FEFECE" filter="url(#fhu5rp8dh37sq)" rx="8" ry="8" style="stroke:#A80036;stroke-width:1.5;"/><path d="M67,940.5 L67,967.5 M54,948.5 L80,948.5 M67,967.5 L54,982.5 M67,967.5 L80,982.5 " fill="none" filter="url(#fhu5rp8dh37sq)" style="stroke:#A80036;stroke-width:1.5;"/><text fill="#000000" font-family="sans-serif" font-size="14" lengthAdjust="spacing" textLength="37" x="48.5" y="1002.5332">Nurse</text><!--MD5=[0418aaadd4ad327489187e2a2eef2d9f]
entity re--><ellipse cx="67" cy="681.5" fill="#FEFECE" filter="url(#fhu5rp8dh37sq)" rx="8" ry="8" style="stroke:#A80036;stroke-width:1.5;"/><path d="M67,689.5 L67,716.5 M54,697.5 L80,697.5 M67,716.5 L54,731.5 M67,716.5 L80,731.5 " fill="none" filter="url(#fhu5rp8dh37sq)" style="stroke:#A80036;stroke-width:1.5;"/><text fill="#000000" font-family="sans-serif" font-size="14" lengthAdjust="spacing" textLength="78" x="28" y="751.5332">Receptionist</text><!--MD5=[9877f6724d1a276f2a95363da75a191d]
entity adm--><ellipse cx="67" cy="406.5" fill="#FEFECE" filter="url(#fhu5rp8dh37sq)" rx="8" ry="8" style="stroke:#A80036;stroke-width:1.5;"/><path d="M67,414.5 L67,441.5 M54,422.5 L80,422.5 M67,441.5 L54,456.5 M67,441.5 L80,456.5 " fill="none" filter="url(#fhu5rp8dh37sq)" style="stroke:#A80036;stroke-width:1.5;"/><text fill="#000000" font-family="sans-serif" font-size="14" lengthAdjust="spacing" textLength="83" x="25.5" y="476.5332">Administrator</text><!--MD5=[db956f40f2dc50163091c98812b3e6f0]
entity cc--><ellipse cx="67" cy="149.5" fill="#FEFECE" filter="url(#fhu5rp8dh37sq)" rx="8" ry="8" style="stroke:#A80036;stroke-width:1.5;"/><path d="M67,157.5 L67,184.5 M54,165.5 L80,165.5 M67,184.5 L54,199.5 M67,184.5 L80,199.5 " fill="none" filter="url(#fhu5rp8dh37sq)" style="stroke:#A80036;stroke-width:1.5;"/><text fill="#000000" font-family="sans-serif" font-size="14" lengthAdjust="spacing" textLength="122" x="6" y="219.5332">Center Coordinator</text><!--MD5=[a3461900a36ccd3e4d3db0b2b1dee3b1]
entity tim--><ellipse cx="67" cy="14" fill="#FEFECE" filter="url(#fhu5rp8dh37sq)" rx="8" ry="8" style="stroke:#A80036;stroke-width:1.5;"/><path d="M67,22 L67,49 M54,30 L80,30 M67,49 L54,64 M67,49 L80,64 " fill="none" filter="url(#fhu5rp8dh37sq)" style="stroke:#A80036;stroke-width:1.5;"/><text fill="#000000" font-family="sans-serif" font-size="14" lengthAdjust="spacing" textLength="77" x="28.5" y="84.0332">«automatic»</text><text fill="#000000" font-family="sans-serif" font-size="14" lengthAdjust="spacing" textLength="75" x="28.5" y="101.6426">Timer/Clock</text><ellipse cx="393.9447" cy="1163.6889" fill="#FEFECE" filter="url(#fhu5rp8dh37sq)" rx="128.9447" ry="28.1889" style="stroke:#A80036;stroke-width:1.5;"/><text fill="#000000" font-family="sans-serif" font-size="14" lengthAdjust="spacing" textLength="224" x="281.9447" y="1167.4175">US ??? - Schedules the vaccination</text><ellipse cx="393.7982" cy="666.2596" fill="#FEFECE" filter="url(#fhu5rp8dh37sq)" rx="106.7982" ry="23.7596" style="stroke:#A80036;stroke-width:1.5;"/><text fill="#000000" font-family="sans-serif" font-size="14" lengthAdjust="spacing" textLength="176" x="305.7982" y="669.9882">US 003 - Register SNS User</text><ellipse cx="393.7585" cy="1259.3517" fill="#FEFECE" filter="url(#fhu5rp8dh37sq)" rx="149.7585" ry="32.3517" style="stroke:#A80036;stroke-width:1.5;"/><text fill="#000000" font-family="sans-serif" font-size="14" lengthAdjust="spacing" textLength="268" x="259.7585" y="1263.0802">US ??? - Authorize the DGS to send a sms</text><ellipse cx="393.9281" cy="1363.2856" fill="#FEFECE" filter="url(#fhu5rp8dh37sq)" rx="169.4281" ry="36.2856" style="stroke:#A80036;stroke-width:1.5;"/><text fill="#000000" font-family="sans-serif" font-size="14" lengthAdjust="spacing" textLength="309" x="239.4281" y="1367.0141">US ??? - Request the EU Covid Digital Certificate</text><ellipse cx="393.8863" cy="860.4773" fill="#FEFECE" filter="url(#fhu5rp8dh37sq)" rx="137.8863" ry="29.9773" style="stroke:#A80036;stroke-width:1.5;"/><text fill="#000000" font-family="sans-serif" font-size="14" lengthAdjust="spacing" textLength="243" x="272.3863" y="864.2058">US ??? - Deliver vaccination certificate</text><ellipse cx="393.9981" cy="964.2996" fill="#FEFECE" filter="url(#fhu5rp8dh37sq)" rx="181.9981" ry="38.7996" style="stroke:#A80036;stroke-width:1.5;"/><text fill="#000000" font-family="sans-serif" font-size="14" lengthAdjust="spacing" textLength="335" x="226.4981" y="968.0281">US ??? - Check the list of users that are in the center</text><ellipse cx="394.0463" cy="1069.7093" fill="#FEFECE" filter="url(#fhu5rp8dh37sq)" rx="144.0463" ry="31.2093" style="stroke:#A80036;stroke-width:1.5;"/><text fill="#000000" font-family="sans-serif" font-size="14" lengthAdjust="spacing" textLength="256" x="266.0463" y="1073.4378">US ??? - Register vaccine administration</text><ellipse cx="393.8066" cy="760.3613" fill="#FEFECE" filter="url(#fhu5rp8dh37sq)" rx="159.8066" ry="34.3613" style="stroke:#A80036;stroke-width:1.5;"/><text fill="#000000" font-family="sans-serif" font-size="14" lengthAdjust="spacing" textLength="289" x="249.3066" y="764.0898">US ??? - Register and confirm the attendance</text><ellipse cx="394.1497" cy="181.6299" fill="#FEFECE" filter="url(#fhu5rp8dh37sq)" rx="163.6497" ry="35.1299" style="stroke:#A80036;stroke-width:1.5;"/><text fill="#000000" font-family="sans-serif" font-size="14" lengthAdjust="spacing" textLength="297" x="245.6497" y="185.3584">US ??? - Analyse and evaluate center statistics</text><ellipse cx="393.9447" cy="279.6889" fill="#FEFECE" filter="url(#fhu5rp8dh37sq)" rx="128.9447" ry="28.1889" style="stroke:#A80036;stroke-width:1.5;"/><text fill="#000000" font-family="sans-serif" font-size="14" lengthAdjust="spacing" textLength="224" x="281.9447" y="283.4175">US 012 - Specify new Vaccine Type</text><ellipse cx="393.8351" cy="386.567" fill="#FEFECE" filter="url(#fhu5rp8dh37sq)" rx="205.8351" ry="43.567" style="stroke:#A80036;stroke-width:1.5;"/><text fill="#000000" font-family="sans-serif" font-size="14" lengthAdjust="spacing" textLength="380" x="201.8351" y="390.2955">US 013 - Specify new Vaccine and its administration process</text><ellipse cx="393.934" cy="489.4868" fill="#FEFECE" filter="url(#fhu5rp8dh37sq)" rx="110.434" ry="24.4868" style="stroke:#A80036;stroke-width:1.5;"/><text fill="#000000" font-family="sans-serif" font-size="14" lengthAdjust="spacing" textLength="184" x="301.934" y="493.2153">US 010 - Register employees</text><ellipse cx="394.2297" cy="578.3459" fill="#FEFECE" filter="url(#fhu5rp8dh37sq)" rx="132.2297" ry="28.8459" style="stroke:#A80036;stroke-width:1.5;"/><text fill="#000000" font-family="sans-serif" font-size="14" lengthAdjust="spacing" textLength="231" x="278.7297" y="582.0745">US 009 - Register vaccination center</text><ellipse cx="394.122" cy="54.4244" fill="#FEFECE" filter="url(#fhu5rp8dh37sq)" rx="142.622" ry="30.9244" style="stroke:#A80036;stroke-width:1.5;"/><text fill="#000000" font-family="sans-serif" font-size="14" lengthAdjust="spacing" textLength="253" x="267.622" y="58.1529">US ??? - Send recovery time notification</text><!--MD5=[e71913910ae60f5842a843a20d6ecd39]
link user to UC1--><path d="M97.06,1245.71 C121.03,1234.75 156.17,1219.62 188,1209.5 C220.83,1199.06 257.34,1190.07 290.34,1182.87 " fill="none" id="user-to-UC1" style="stroke:#A80036;stroke-width:1.0;"/><polygon fill="#A80036" points="295.61,1181.73,285.9676,1179.7238,290.7231,1182.7874,287.6595,1187.5429,295.61,1181.73" style="stroke:#A80036;stroke-width:1.0;"/><!--MD5=[20aeaa20d1880359803c0703a4b24425]
link user to UC2--><path d="M97.13,1259.5 C129.58,1259.5 184.59,1259.5 238.44,1259.5 " fill="none" id="user-to-UC2" style="stroke:#A80036;stroke-width:1.0;"/><polygon fill="#A80036" points="243.64,1259.5,234.64,1255.5,238.64,1259.5,234.64,1263.5,243.64,1259.5" style="stroke:#A80036;stroke-width:1.0;"/><!--MD5=[17d4c6462e07b4f1b5dbb0e87d08d5e6]
link user to UC3--><path d="M97.16,1272.97 C121.19,1283.76 156.36,1298.8 188,1309.5 C215.68,1318.86 245.92,1327.61 274.46,1335.23 " fill="none" id="user-to-UC3" style="stroke:#A80036;stroke-width:1.0;"/><polygon fill="#A80036" points="279.39,1336.54,271.7223,1330.3589,274.5584,1335.2535,269.6638,1338.0896,279.39,1336.54" style="stroke:#A80036;stroke-width:1.0;"/><!--MD5=[2e13f11524f46488bfe6ddb0138c4ecb]
link nurse to UC4--><path d="M85.81,954.76 C108.83,942.51 150.42,921.51 188,908.5 C218.9,897.8 253.24,888.72 284.84,881.43 " fill="none" id="nurse-to-UC4" style="stroke:#A80036;stroke-width:1.0;"/><polygon fill="#A80036" points="289.89,880.27,280.2247,878.3775,285.0159,881.3849,282.0085,886.1761,289.89,880.27" style="stroke:#A80036;stroke-width:1.0;"/><!--MD5=[d68d844c84c5b9178d019b496cb916a6]
link nurse to UC5--><path d="M85.94,964.5 C110.44,964.5 157.05,964.5 206.69,964.5 " fill="none" id="nurse-to-UC5" style="stroke:#A80036;stroke-width:1.0;"/><polygon fill="#A80036" points="211.82,964.5,202.82,960.5,206.82,964.5,202.82,968.5,211.82,964.5" style="stroke:#A80036;stroke-width:1.0;"/><!--MD5=[0bd5187a991de09ca303be6f0594955f]
link nurse to UC6--><path d="M85.79,974.43 C108.78,986.92 150.34,1008.32 188,1021.5 C217.64,1031.87 250.47,1040.69 281.01,1047.83 " fill="none" id="nurse-to-UC6" style="stroke:#A80036;stroke-width:1.0;"/><polygon fill="#A80036" points="285.89,1048.96,278.025,1043.032,281.019,1047.8315,276.2194,1050.8255,285.89,1048.96" style="stroke:#A80036;stroke-width:1.0;"/><!--MD5=[e30609e643ecc4d65ea699cde770bfae]
link re to UC7--><path d="M106.24,719.03 C143.14,724.37 201.24,732.77 255.52,740.62 " fill="none" id="re-to-UC7" style="stroke:#A80036;stroke-width:1.0;"/><polygon fill="#A80036" points="260.77,741.38,252.4346,736.1339,255.8214,740.6649,251.2904,744.0517,260.77,741.38" style="stroke:#A80036;stroke-width:1.0;"/><!--MD5=[8fcb6dda9ab652cbe67b89584388f9f9]
link cc to UC9--><path d="M128.37,181.5 C156.1,181.5 190.51,181.5 225.23,181.5 " fill="none" id="cc-to-UC9" style="stroke:#A80036;stroke-width:1.0;"/><polygon fill="#A80036" points="230.36,181.5,221.36,177.5,225.36,181.5,221.36,185.5,230.36,181.5" style="stroke:#A80036;stroke-width:1.0;"/><!--MD5=[80be5fd46ed95aef3ed89b5575c23c67]
link re to UC10--><path d="M106.24,707.97 C153.25,701.17 234.69,689.39 298.8,680.12 " fill="none" id="re-to-UC10" style="stroke:#0000FF;stroke-width:1.0;"/><polygon fill="#0000FF" points="303.77,679.4,294.2829,676.7552,298.8234,680.1291,295.4495,684.6697,303.77,679.4" style="stroke:#0000FF;stroke-width:1.0;"/><!--MD5=[8c43215468f47a1c3ef5300886655bb4]
link adm to UC11--><path d="M101.96,396.84 C124.01,372.48 154.76,343.15 188,325.5 C215.03,311.15 246.36,301.27 276.27,294.46 " fill="none" id="adm-to-UC11" style="stroke:#0000FF;stroke-width:1.0;"/><polygon fill="#0000FF" points="281.44,293.31,271.7854,291.3636,276.5597,294.3977,273.5257,299.172,281.44,293.31" style="stroke:#0000FF;stroke-width:1.0;"/><!--MD5=[4ee938cc57162c8d201b01a17c10995f]
link adm to UC12--><path d="M108.5,432.02 C138.32,427.25 181.06,420.41 224.38,413.48 " fill="none" id="adm-to-UC12" style="stroke:#0000FF;stroke-width:1.0;"/><polygon fill="#0000FF" points="229.39,412.68,219.8665,410.1693,224.4542,413.4789,221.1447,418.0666,229.39,412.68" style="stroke:#0000FF;stroke-width:1.0;"/><!--MD5=[ecd2b408d1f758b111c4a568090cb321]
link adm to UC13--><path d="M108.5,444.86 C155.67,452.26 235.16,464.73 298.15,474.62 " fill="none" id="adm-to-UC13" style="stroke:#0000FF;stroke-width:1.0;"/><polygon fill="#0000FF" points="303.42,475.44,295.1445,470.1,298.4798,474.669,293.9108,478.0043,303.42,475.44" style="stroke:#0000FF;stroke-width:1.0;"/><!--MD5=[b4cdefa56c0066d4b2abda10026d6614]
link adm to UC14--><path d="M108.6,477.19 C130.56,496.15 159.06,517.79 188,531.5 C216,544.76 247.95,554.39 278.17,561.35 " fill="none" id="adm-to-UC14" style="stroke:#0000FF;stroke-width:1.0;"/><polygon fill="#0000FF" points="283.39,562.53,275.4921,556.6459,278.5128,561.4287,273.73,564.4494,283.39,562.53" style="stroke:#0000FF;stroke-width:1.0;"/><!--MD5=[3c860890beeb1bd27534f2be35592805]
link tim to UC15--><path d="M109.82,54.5 C144.63,54.5 196.36,54.5 246.12,54.5 " fill="none" id="tim-to-UC15" style="stroke:#0000FF;stroke-width:1.0;"/><polygon fill="#0000FF" points="251.24,54.5,242.24,50.5,246.24,54.5,242.24,58.5,251.24,54.5" style="stroke:#0000FF;stroke-width:1.0;"/><!--MD5=[7f9c9b76c70fc2091c6a5a78d33afaf9]
@startuml
'https://plantuml.com/use-case-diagram


left to right direction
actor "SNS User" as user
actor "Nurse" as nurse
actor "Receptionist" as re
actor "Administrator" as adm
actor "Center Coordinator" as cc
actor " «automatic» \n Timer/Clock" as tim

usecase "US ??? - Schedules the vaccination" as UC1
usecase "US ??? - Help to schedule the vaccine" as UC10
usecase "US ??? - Authorize the DGS to send a sms" as UC2
usecase "US ??? - Request the EU Covid Digital Certificate" as UC3
usecase "US ??? - Deliver vaccination certificate" as UC4
usecase "US ??? - Check the list of users that are in the center" as UC5
usecase "US ??? - Register vaccine administration" as UC6
usecase "US ??? - Register and confirm the attendance" as UC7
usecase "US ??? - Analyse and evaluate center statistics" as UC9
usecase "US 003 - Register SNS User" as UC10
usecase "US 012 - Specify new Vaccine Type" as UC11
usecase "US 013 - Specify new Vaccine and its administration process " as UC12
usecase "US 010 - Register employees" as UC13
usecase "US 009 - Register vaccination center" as UC14
usecase "US ??? - Send recovery time notification" as UC15



user - -> UC1
user - -> UC2
user - -> UC3
nurse - -> UC4
nurse - -> UC5
nurse - -> UC6
re - -> UC7
cc - -> UC9
re -[#0000FF]-> UC10
adm -[#0000FF]-> UC11
adm -[#0000FF]-> UC12
adm -[#0000FF]-> UC13
adm -[#0000FF]-> UC14
tim -[#0000FF]-> UC15





@enduml

@startuml


left to right direction
actor "SNS User" as user
actor "Nurse" as nurse
actor "Receptionist" as re
actor "Administrator" as adm
actor "Center Coordinator" as cc
actor " «automatic» \n Timer/Clock" as tim

usecase "US ??? - Schedules the vaccination" as UC1
usecase "US ??? - Help to schedule the vaccine" as UC10
usecase "US ??? - Authorize the DGS to send a sms" as UC2
usecase "US ??? - Request the EU Covid Digital Certificate" as UC3
usecase "US ??? - Deliver vaccination certificate" as UC4
usecase "US ??? - Check the list of users that are in the center" as UC5
usecase "US ??? - Register vaccine administration" as UC6
usecase "US ??? - Register and confirm the attendance" as UC7
usecase "US ??? - Analyse and evaluate center statistics" as UC9
usecase "US 003 - Register SNS User" as UC10
usecase "US 012 - Specify new Vaccine Type" as UC11
usecase "US 013 - Specify new Vaccine and its administration process " as UC12
usecase "US 010 - Register employees" as UC13
usecase "US 009 - Register vaccination center" as UC14
usecase "US ??? - Send recovery time notification" as UC15



user - -> UC1
user - -> UC2
user - -> UC3
nurse - -> UC4
nurse - -> UC5
nurse - -> UC6
re - -> UC7
cc - -> UC9
re -[#0000FF]-> UC10
adm -[#0000FF]-> UC11
adm -[#0000FF]-> UC12
adm -[#0000FF]-> UC13
adm -[#0000FF]-> UC14
tim -[#0000FF]-> UC15





@enduml

PlantUML version 1.2022.1(Tue Feb 01 18:19:58 GMT 2022)
(GPL source distribution)
Java Runtime: OpenJDK Runtime Environment
JVM: OpenJDK 64-Bit Server VM
Default Encoding: Cp1252
Language: pt
Country: PT
--></g></svg>