<?xml version="1.0" encoding="UTF-8" standalone="no"?><svg xmlns="http://www.w3.org/2000/svg" xmlns:xlink="http://www.w3.org/1999/xlink" contentStyleType="text/css" height="734.3px" preserveAspectRatio="none" style="width:1035px;height:734px;background:#FFFFFF;" version="1.1" viewBox="0 0 1035 734" width="1036px" zoomAndPan="magnify"><defs/><g><rect height="19.3266" style="stroke:#00000000;stroke-width:0.6999999999999998;fill:none;" width="171.5" x="433.3" y="7"/><text fill="#000000" font-family="sans-serif" font-size="9.8" font-weight="bold" lengthAdjust="spacing" textLength="164.5" x="436.8" y="20.6732">SD_VaccinationCentersListToDTO</text><rect fill="#FFFFFF" height="647.1445" style="stroke:#181818;stroke-width:0.6999999999999998;" width="7" x="144.2" y="75.9992"/><rect fill="#FFFFFF" height="489.4531" style="stroke:#181818;stroke-width:0.6999999999999998;" width="7" x="147.7" y="192.6641"/><rect fill="#FFFFFF" height="21" style="stroke:#181818;stroke-width:0.6999999999999998;" width="7" x="630" y="144.818"/><rect fill="#FFFFFF" height="21" style="stroke:#181818;stroke-width:0.6999999999999998;" width="7" x="811.3" y="217.4102"/><rect fill="#FFFFFF" height="21" style="stroke:#181818;stroke-width:0.6999999999999998;" width="7" x="811.3" y="259.6562"/><rect fill="#FFFFFF" height="21" style="stroke:#181818;stroke-width:0.6999999999999998;" width="7" x="811.3" y="301.9023"/><rect fill="#FFFFFF" height="21" style="stroke:#181818;stroke-width:0.6999999999999998;" width="7" x="811.3" y="344.1484"/><rect fill="#FFFFFF" height="21" style="stroke:#181818;stroke-width:0.6999999999999998;" width="7" x="811.3" y="386.3945"/><rect fill="#FFFFFF" height="21" style="stroke:#181818;stroke-width:0.6999999999999998;" width="7" x="811.3" y="428.6406"/><rect fill="#FFFFFF" height="21" style="stroke:#181818;stroke-width:0.6999999999999998;" width="7" x="811.3" y="470.8867"/><rect fill="#FFFFFF" height="21" style="stroke:#181818;stroke-width:0.6999999999999998;" width="7" x="811.3" y="513.1328"/><rect fill="#FFFFFF" height="21" style="stroke:#181818;stroke-width:0.6999999999999998;" width="7" x="811.3" y="555.3789"/><rect fill="#FFFFFF" height="21" style="stroke:#181818;stroke-width:0.6999999999999998;" width="7" x="811.3" y="597.625"/><rect fill="#FFFFFF" height="21" style="stroke:#181818;stroke-width:0.6999999999999998;" width="7" x="811.3" y="639.8711"/><rect height="601.218" style="stroke:#000000;stroke-width:1.0499999999999998;fill:none;" width="953.4" x="78.4" y="116.3258"/><line style="stroke:#181818;stroke-width:0.3499999999999999;fill:none;stroke-dasharray:5.0,5.0;" x1="147.7" x2="147.7" y1="53.3531" y2="729.4437"/><line style="stroke:#181818;stroke-width:0.3499999999999999;fill:none;stroke-dasharray:5.0,5.0;" x1="360.5" x2="360.5" y1="103.5125" y2="729.4437"/><line style="stroke:#181818;stroke-width:0.3499999999999999;fill:none;stroke-dasharray:5.0,5.0;" x1="633.5" x2="633.5" y1="53.3531" y2="729.4437"/><line style="stroke:#181818;stroke-width:0.3499999999999999;fill:none;stroke-dasharray:5.0,5.0;" x1="814.8" x2="814.8" y1="53.3531" y2="729.4437"/><line style="stroke:#181818;stroke-width:0.3499999999999999;fill:none;stroke-dasharray:5.0,5.0;" x1="949.2" x2="949.2" y1="688.3844" y2="729.4437"/><rect fill="#E2E2F0" height="22.1266" rx="1.75" ry="1.75" style="stroke:#181818;stroke-width:0.3499999999999999;" width="124.6" x="85.4" y="30.5266"/><text fill="#000000" font-family="sans-serif" font-size="9.8" lengthAdjust="spacing" textLength="114.8" x="90.3" y="45.5998">VaccinationCenterMapper</text><rect fill="#E2E2F0" height="22.1266" rx="1.75" ry="1.75" style="stroke:#181818;stroke-width:0.3499999999999999;" width="245" x="511" y="30.5266"/><text fill="#000000" font-family="sans-serif" font-size="9.8" lengthAdjust="spacing" textLength="235.2" x="515.9" y="45.5998">vaccinationCenterList : ArrayList&lt;VaccinationCenter&gt;</text><rect fill="#E2E2F0" height="22.1266" rx="1.75" ry="1.75" style="stroke:#181818;stroke-width:0.3499999999999999;" width="103.6" x="763" y="30.5266"/><text fill="#000000" font-family="sans-serif" font-size="9.8" lengthAdjust="spacing" textLength="93.8" x="767.9" y="45.5998">vc:VaccinationCenter</text><rect fill="#FFFFFF" height="647.1445" style="stroke:#181818;stroke-width:0.6999999999999998;" width="7" x="144.2" y="75.9992"/><rect fill="#FFFFFF" height="489.4531" style="stroke:#181818;stroke-width:0.6999999999999998;" width="7" x="147.7" y="192.6641"/><rect fill="#FFFFFF" height="21" style="stroke:#181818;stroke-width:0.6999999999999998;" width="7" x="630" y="144.818"/><rect fill="#FFFFFF" height="21" style="stroke:#181818;stroke-width:0.6999999999999998;" width="7" x="811.3" y="217.4102"/><rect fill="#FFFFFF" height="21" style="stroke:#181818;stroke-width:0.6999999999999998;" width="7" x="811.3" y="259.6562"/><rect fill="#FFFFFF" height="21" style="stroke:#181818;stroke-width:0.6999999999999998;" width="7" x="811.3" y="301.9023"/><rect fill="#FFFFFF" height="21" style="stroke:#181818;stroke-width:0.6999999999999998;" width="7" x="811.3" y="344.1484"/><rect fill="#FFFFFF" height="21" style="stroke:#181818;stroke-width:0.6999999999999998;" width="7" x="811.3" y="386.3945"/><rect fill="#FFFFFF" height="21" style="stroke:#181818;stroke-width:0.6999999999999998;" width="7" x="811.3" y="428.6406"/><rect fill="#FFFFFF" height="21" style="stroke:#181818;stroke-width:0.6999999999999998;" width="7" x="811.3" y="470.8867"/><rect fill="#FFFFFF" height="21" style="stroke:#181818;stroke-width:0.6999999999999998;" width="7" x="811.3" y="513.1328"/><rect fill="#FFFFFF" height="21" style="stroke:#181818;stroke-width:0.6999999999999998;" width="7" x="811.3" y="555.3789"/><rect fill="#FFFFFF" height="21" style="stroke:#181818;stroke-width:0.6999999999999998;" width="7" x="811.3" y="597.625"/><rect fill="#FFFFFF" height="21" style="stroke:#181818;stroke-width:0.6999999999999998;" width="7" x="811.3" y="639.8711"/><ellipse cx="5.25" cy="75.4742" fill="none" rx="2.8" ry="2.8" style="stroke:#181818;stroke-width:1.0499999999999998;"/><polygon fill="#181818" points="135.8,73.1992,142.8,75.9992,135.8,78.7992,138.6,75.9992" style="stroke:#181818;stroke-width:0.6999999999999998;"/><line style="stroke:#181818;stroke-width:0.6999999999999998;" x1="8.4" x2="140" y1="75.9992" y2="75.9992"/><text fill="#000000" font-family="sans-serif" font-size="9.1" font-weight="bold" lengthAdjust="spacing" textLength="4.9" x="10.5" y="72.5997">1</text><text fill="#000000" font-family="sans-serif" font-size="9.1" lengthAdjust="spacing" textLength="117.6" x="18.2" y="72.5997">toDTO(vaccinationCenterList)</text><polygon fill="#181818" points="208.6,94.4453,215.6,97.2453,208.6,100.0453,211.4,97.2453" style="stroke:#181818;stroke-width:0.6999999999999998;"/><line style="stroke:#181818;stroke-width:0.6999999999999998;stroke-dasharray:2.0,2.0;" x1="151.2" x2="212.8" y1="97.2453" y2="97.2453"/><text fill="#000000" font-family="sans-serif" font-size="9.1" font-weight="bold" lengthAdjust="spacing" textLength="4.9" x="156.1" y="93.8458">2</text><text fill="#000000" font-family="sans-serif" font-size="9.1" lengthAdjust="spacing" textLength="30.8" x="163.8" y="93.8458">create()</text><rect fill="#E2E2F0" height="22.1266" rx="1.75" ry="1.75" style="stroke:#181818;stroke-width:0.3499999999999999;" width="287" x="217" y="81.5992"/><text fill="#000000" font-family="sans-serif" font-size="9.8" lengthAdjust="spacing" textLength="274.4" x="224.7" y="96.6725">vaccinationCenterListDTO: ArrayList&lt;VaccinationCenterDTO&gt;</text><path d="M78.4,116.3258 L129.5,116.3258 L129.5,122.1719 L122.5,129.1719 L78.4,129.1719 L78.4,116.3258 " fill="#EEEEEE" style="stroke:#000000;stroke-width:1.0499999999999998;"/><rect fill="none" height="601.218" style="stroke:#000000;stroke-width:1.0499999999999998;" width="953.4" x="78.4" y="116.3258"/><text fill="#000000" font-family="sans-serif" font-size="9.1" font-weight="bold" lengthAdjust="spacing" textLength="19.6" x="88.9" y="126.4724">loop</text><text fill="#000000" font-family="sans-serif" font-size="7.7" font-weight="bold" lengthAdjust="spacing" textLength="204.4" x="140" y="125.719">[for each vaccination center in vaccinationCenterList]</text><polygon fill="#181818" points="621.6,142.018,628.6,144.818,621.6,147.618,624.4,144.818" style="stroke:#181818;stroke-width:0.6999999999999998;"/><line style="stroke:#181818;stroke-width:0.6999999999999998;" x1="151.2" x2="625.8" y1="144.818" y2="144.818"/><text fill="#000000" font-family="sans-serif" font-size="9.1" font-weight="bold" lengthAdjust="spacing" textLength="4.9" x="156.1" y="141.4185">3</text><text fill="#000000" font-family="sans-serif" font-size="9.1" lengthAdjust="spacing" textLength="102.9" x="163.8" y="141.4185">vaccinationCenter = get(i)</text><line style="stroke:#181818;stroke-width:0.6999999999999998;" x1="151.2" x2="184.1" y1="183.5641" y2="183.5641"/><line style="stroke:#181818;stroke-width:0.6999999999999998;" x1="184.1" x2="184.1" y1="183.5641" y2="192.6641"/><line style="stroke:#181818;stroke-width:0.6999999999999998;" x1="155.4" x2="184.1" y1="192.6641" y2="192.6641"/><polygon fill="#181818" points="162.4,189.8641,155.4,192.6641,162.4,195.4641,159.6,192.6641" style="stroke:#181818;stroke-width:0.6999999999999998;"/><text fill="#000000" font-family="sans-serif" font-size="9.1" font-weight="bold" lengthAdjust="spacing" textLength="4.9" x="159.6" y="180.1646">4</text><text fill="#000000" font-family="sans-serif" font-size="9.1" lengthAdjust="spacing" textLength="140.7" x="167.3" y="180.1646">vaccinationCenterDTO = toDTO(vc)</text><polygon fill="#181818" points="802.9,214.6102,809.9,217.4102,802.9,220.2102,805.7,217.4102" style="stroke:#181818;stroke-width:0.6999999999999998;"/><line style="stroke:#181818;stroke-width:0.6999999999999998;" x1="154.7" x2="807.1" y1="217.4102" y2="217.4102"/><text fill="#000000" font-family="sans-serif" font-size="9.1" font-weight="bold" lengthAdjust="spacing" textLength="4.9" x="159.6" y="214.0106">5</text><text fill="#000000" font-family="sans-serif" font-size="9.1" lengthAdjust="spacing" textLength="75.6" x="167.3" y="214.0106">name = getName()</text><polygon fill="#181818" points="802.9,256.8562,809.9,259.6562,802.9,262.4562,805.7,259.6562" style="stroke:#181818;stroke-width:0.6999999999999998;"/><line style="stroke:#181818;stroke-width:0.6999999999999998;" x1="154.7" x2="807.1" y1="259.6562" y2="259.6562"/><text fill="#000000" font-family="sans-serif" font-size="9.1" font-weight="bold" lengthAdjust="spacing" textLength="4.9" x="159.6" y="256.2567">6</text><text fill="#000000" font-family="sans-serif" font-size="9.1" lengthAdjust="spacing" textLength="95.2" x="167.3" y="256.2567">address = getAddress()</text><polygon fill="#181818" points="802.9,299.1023,809.9,301.9023,802.9,304.7023,805.7,301.9023" style="stroke:#181818;stroke-width:0.6999999999999998;"/><line style="stroke:#181818;stroke-width:0.6999999999999998;" x1="154.7" x2="807.1" y1="301.9023" y2="301.9023"/><text fill="#000000" font-family="sans-serif" font-size="9.1" font-weight="bold" lengthAdjust="spacing" textLength="4.9" x="159.6" y="298.5028">7</text><text fill="#000000" font-family="sans-serif" font-size="9.1" lengthAdjust="spacing" textLength="142.8" x="167.3" y="298.5028">phoneNumber = getPhoneNumber()</text><polygon fill="#181818" points="802.9,341.3484,809.9,344.1484,802.9,346.9484,805.7,344.1484" style="stroke:#181818;stroke-width:0.6999999999999998;"/><line style="stroke:#181818;stroke-width:0.6999999999999998;" x1="154.7" x2="807.1" y1="344.1484" y2="344.1484"/><text fill="#000000" font-family="sans-serif" font-size="9.1" font-weight="bold" lengthAdjust="spacing" textLength="4.9" x="159.6" y="340.7489">8</text><text fill="#000000" font-family="sans-serif" font-size="9.1" lengthAdjust="spacing" textLength="74.2" x="167.3" y="340.7489">email = getEmail()</text><polygon fill="#181818" points="802.9,383.5945,809.9,386.3945,802.9,389.1945,805.7,386.3945" style="stroke:#181818;stroke-width:0.6999999999999998;"/><line style="stroke:#181818;stroke-width:0.6999999999999998;" x1="154.7" x2="807.1" y1="386.3945" y2="386.3945"/><text fill="#000000" font-family="sans-serif" font-size="9.1" font-weight="bold" lengthAdjust="spacing" textLength="4.9" x="159.6" y="382.995">9</text><text fill="#000000" font-family="sans-serif" font-size="9.1" lengthAdjust="spacing" textLength="119.7" x="167.3" y="382.995">faxNumber = getFaxNumber()</text><polygon fill="#181818" points="802.9,425.8406,809.9,428.6406,802.9,431.4406,805.7,428.6406" style="stroke:#181818;stroke-width:0.6999999999999998;"/><line style="stroke:#181818;stroke-width:0.6999999999999998;" x1="154.7" x2="807.1" y1="428.6406" y2="428.6406"/><text fill="#000000" font-family="sans-serif" font-size="9.1" font-weight="bold" lengthAdjust="spacing" textLength="9.8" x="159.6" y="425.2411">10</text><text fill="#000000" font-family="sans-serif" font-size="9.1" lengthAdjust="spacing" textLength="161" x="172.2" y="425.2411">websiteAddress = getWebsiteAddress()</text><polygon fill="#181818" points="802.9,468.0867,809.9,470.8867,802.9,473.6867,805.7,470.8867" style="stroke:#181818;stroke-width:0.6999999999999998;"/><line style="stroke:#181818;stroke-width:0.6999999999999998;" x1="154.7" x2="807.1" y1="470.8867" y2="470.8867"/><text fill="#000000" font-family="sans-serif" font-size="9.1" font-weight="bold" lengthAdjust="spacing" textLength="9.8" x="159.6" y="467.4872">11</text><text fill="#000000" font-family="sans-serif" font-size="9.1" lengthAdjust="spacing" textLength="142.1" x="172.2" y="467.4872">openingHours = getOpeningHours()</text><polygon fill="#181818" points="802.9,510.3328,809.9,513.1328,802.9,515.9328,805.7,513.1328" style="stroke:#181818;stroke-width:0.6999999999999998;"/><line style="stroke:#181818;stroke-width:0.6999999999999998;" x1="154.7" x2="807.1" y1="513.1328" y2="513.1328"/><text fill="#000000" font-family="sans-serif" font-size="9.1" font-weight="bold" lengthAdjust="spacing" textLength="9.8" x="159.6" y="509.7333">12</text><text fill="#000000" font-family="sans-serif" font-size="9.1" lengthAdjust="spacing" textLength="135.8" x="172.2" y="509.7333">closingHours = getClosingHours()</text><polygon fill="#181818" points="802.9,552.5789,809.9,555.3789,802.9,558.1789,805.7,555.3789" style="stroke:#181818;stroke-width:0.6999999999999998;"/><line style="stroke:#181818;stroke-width:0.6999999999999998;" x1="154.7" x2="807.1" y1="555.3789" y2="555.3789"/><text fill="#000000" font-family="sans-serif" font-size="9.1" font-weight="bold" lengthAdjust="spacing" textLength="9.8" x="159.6" y="551.9794">13</text><text fill="#000000" font-family="sans-serif" font-size="9.1" lengthAdjust="spacing" textLength="127.4" x="172.2" y="551.9794">slotDuration = getSlotDuration()</text><polygon fill="#181818" points="802.9,594.825,809.9,597.625,802.9,600.425,805.7,597.625" style="stroke:#181818;stroke-width:0.6999999999999998;"/><line style="stroke:#181818;stroke-width:0.6999999999999998;" x1="154.7" x2="807.1" y1="597.625" y2="597.625"/><text fill="#000000" font-family="sans-serif" font-size="9.1" font-weight="bold" lengthAdjust="spacing" textLength="9.8" x="159.6" y="594.2255">14</text><text fill="#000000" font-family="sans-serif" font-size="9.1" lengthAdjust="spacing" textLength="254.8" x="172.2" y="594.2255">maximumNumVaccinesSlot = getMaximumNumVaccinesSlot()</text><polygon fill="#181818" points="802.9,637.0711,809.9,639.8711,802.9,642.6711,805.7,639.8711" style="stroke:#181818;stroke-width:0.6999999999999998;"/><line style="stroke:#181818;stroke-width:0.6999999999999998;" x1="154.7" x2="807.1" y1="639.8711" y2="639.8711"/><text fill="#000000" font-family="sans-serif" font-size="9.1" font-weight="bold" lengthAdjust="spacing" textLength="9.8" x="159.6" y="636.4716">15</text><text fill="#000000" font-family="sans-serif" font-size="9.1" lengthAdjust="spacing" textLength="173.6" x="172.2" y="636.4716">isHealthCareCenter = isHealthCareCenter()</text><polygon fill="#181818" points="865.2,679.3172,872.2,682.1172,865.2,684.9172,868,682.1172" style="stroke:#181818;stroke-width:0.6999999999999998;"/><line style="stroke:#181818;stroke-width:0.6999999999999998;stroke-dasharray:2.0,2.0;" x1="151.2" x2="869.4" y1="682.1172" y2="682.1172"/><text fill="#000000" font-family="sans-serif" font-size="9.1" font-weight="bold" lengthAdjust="spacing" textLength="9.8" x="156.1" y="678.7177">16</text><text fill="#000000" font-family="sans-serif" font-size="9.1" lengthAdjust="spacing" textLength="674.1" x="168.7" y="678.7177">create(name, address, phoneNumber, email, faxNumber, websiteAddress, openingHours, closingHours, slotDuration, maximumNumVaccinesSlot, isHealthCareCenter)</text><rect fill="#E2E2F0" height="22.1266" rx="1.75" ry="1.75" style="stroke:#181818;stroke-width:0.3499999999999999;" width="151.2" x="873.6" y="666.4711"/><text fill="#000000" font-family="sans-serif" font-size="9.8" lengthAdjust="spacing" textLength="141.4" x="878.5" y="681.5443">vcDTO : VaccinationCenterDTO</text><polygon fill="#181818" points="352.1,709.1437,359.1,711.9437,352.1,714.7437,354.9,711.9437" style="stroke:#181818;stroke-width:0.6999999999999998;"/><line style="stroke:#181818;stroke-width:0.6999999999999998;" x1="151.2" x2="356.3" y1="711.9437" y2="711.9437"/><text fill="#000000" font-family="sans-serif" font-size="9.1" font-weight="bold" lengthAdjust="spacing" textLength="9.8" x="156.1" y="708.5442">17</text><text fill="#000000" font-family="sans-serif" font-size="9.1" lengthAdjust="spacing" textLength="109.9" x="168.7" y="708.5442">add(vaccinationCenterDTO)</text><!--MD5=[d4512cc79de3378d3fd0c33b10cc2ace]
@startuml
title SD_VaccinationCentersListToDTO
hide footbox
autonumber
participant VaccinationCenterMapper as VCM
participant " vaccinationCenterListDTO: ArrayList<VaccinationCenterDTO>" as DTOList
participant "vaccinationCenterList : ArrayList<VaccinationCenter>" as list
participant "vc:VaccinationCenter" as VC
participant "vcDTO : VaccinationCenterDTO" as DTOObj


[o-> VCM : toDTO(vaccinationCenterList)
activate VCM
VCM - -> DTOList ** : create()
loop for each vaccination center in vaccinationCenterList
VCM -> list : vaccinationCenter = get(i)
activate list
deactivate list
VCM -> VCM : vaccinationCenterDTO = toDTO(vc)
activate VCM
VCM -> VC : name = getName()
activate VC
deactivate VC
VCM -> VC : address = getAddress()
activate VC
deactivate VC
VCM -> VC : phoneNumber = getPhoneNumber()
activate VC
deactivate VC
VCM -> VC : email = getEmail()
activate VC
deactivate VC
VCM -> VC : faxNumber = getFaxNumber()
activate VC
deactivate VC
VCM -> VC : websiteAddress = getWebsiteAddress()
activate VC
deactivate VC
VCM -> VC : openingHours = getOpeningHours()
activate VC
deactivate VC
VCM -> VC : closingHours = getClosingHours()
activate VC
deactivate VC
VCM -> VC : slotDuration = getSlotDuration()
activate VC
deactivate VC
VCM -> VC : maximumNumVaccinesSlot = getMaximumNumVaccinesSlot()
activate VC
deactivate VC
VCM -> VC : isHealthCareCenter = isHealthCareCenter()
activate VC
deactivate VC
VCM - -> DTOObj ** : create(name, address, phoneNumber, email, faxNumber, websiteAddress, openingHours, closingHours, slotDuration, maximumNumVaccinesSlot, isHealthCareCenter)
deactivate VCM
VCM -> DTOList : add(vaccinationCenterDTO)
end
@enduml

PlantUML version 1.2022.4(Sat Apr 09 14:29:17 BST 2022)
(GPL source distribution)
Java Runtime: OpenJDK Runtime Environment
JVM: OpenJDK 64-Bit Server VM
Default Encoding: Cp1252
Language: pt
Country: PT
--></g></svg>