<?xml version="1.0" encoding="UTF-8" standalone="no"?><svg xmlns="http://www.w3.org/2000/svg" xmlns:xlink="http://www.w3.org/1999/xlink" contentScriptType="application/ecmascript" contentStyleType="text/css" height="583px" preserveAspectRatio="none" style="width:644px;height:583px;background:#FFFFFF;" version="1.1" viewBox="0 0 644 583" width="644px" zoomAndPan="magnify"><defs><filter height="300%" id="f8mifl9ejw4dj" width="300%" x="-1" y="-1"><feGaussianBlur result="blurOut" stdDeviation="2.0"/><feColorMatrix in="blurOut" result="blurOut2" type="matrix" values="0 0 0 0 0 0 0 0 0 0 0 0 0 0 0 0 0 0 .4 0"/><feOffset dx="4.0" dy="4.0" in="blurOut2" result="blurOut3"/><feBlend in="SourceGraphic" in2="blurOut3" mode="normal"/></filter></defs><g><!--MD5=[3fd616f346a44cd59a91eb10b19e157c]
class User--><rect codeLine="3" fill="#FEFECE" filter="url(#f8mifl9ejw4dj)" height="48" id="User" style="stroke:#A80036;stroke-width:1.5;" width="59" x="227" y="521"/><ellipse cx="242" cy="537" fill="#ADD1B2" rx="11" ry="11" style="stroke:#A80036;stroke-width:1.0;"/><path d="M244,533.5 Q244.2031,533 244.4375,532.75 Q244.6719,532.5 244.9375,532.5 Q245.4063,532.5 245.7031,532.7813 Q246,533.0625 246,533.7188 L246,535.2813 Q246,535.9375 245.7188,536.2188 Q245.4375,536.5 245,536.5 Q244.6094,536.5 244.3594,536.3281 Q244.1094,536.1563 244,535.7031 Q243.9531,535.3906 243.7813,535.2188 Q243.4688,534.8906 242.9063,534.7031 Q242.3438,534.5 241.7813,534.5 Q241.0781,534.5 240.4844,534.7813 Q239.9063,535.0625 239.4531,535.6875 Q239,536.3125 239,537.1719 L239,538.0938 Q239,539.125 239.8438,539.8125 Q240.6875,540.5 242.1875,540.5 Q243.0781,540.5 243.7031,540.2969 Q244.0625,540.1875 244.4688,539.8281 Q244.7344,539.625 244.875,539.5625 Q245.0156,539.5 245.1875,539.5 Q245.5156,539.5 245.75,539.7656 Q246,540.0156 246,540.375 Q246,540.7188 245.6563,541.125 Q245.1563,541.7188 244.3594,542.0469 Q243.3125,542.5 242.0313,542.5 Q240.5313,542.5 239.3281,541.9063 Q238.3594,541.4375 237.6719,540.4219 Q237,539.4063 237,538.2031 L237,537.1094 Q237,535.8594 237.5938,534.7656 Q238.2031,533.6719 239.25,533.0938 Q240.3125,532.5 241.5,532.5 Q242.2188,532.5 242.8438,532.75 Q243.4688,533 244,533.5 Z " fill="#000000"/><text fill="#000000" font-family="sans-serif" font-size="12" lengthAdjust="spacing" textLength="27" x="256" y="541.9102">User</text><line style="stroke:#A80036;stroke-width:1.5;" x1="228" x2="285" y1="553" y2="553"/><line style="stroke:#A80036;stroke-width:1.5;" x1="228" x2="285" y1="561" y2="561"/><!--MD5=[02e4b9b7573f1156f41e60aa5b4e25a4]
class Company--><rect codeLine="7" fill="#FEFECE" filter="url(#f8mifl9ejw4dj)" height="75.6719" id="Company" style="stroke:#A80036;stroke-width:1.5;" width="111" x="340" y="158"/><ellipse cx="366.7" cy="174" fill="#ADD1B2" rx="11" ry="11" style="stroke:#A80036;stroke-width:1.0;"/><path d="M368.7,170.5 Q368.9031,170 369.1375,169.75 Q369.3719,169.5 369.6375,169.5 Q370.1063,169.5 370.4031,169.7813 Q370.7,170.0625 370.7,170.7188 L370.7,172.2813 Q370.7,172.9375 370.4188,173.2188 Q370.1375,173.5 369.7,173.5 Q369.3094,173.5 369.0594,173.3281 Q368.8094,173.1563 368.7,172.7031 Q368.6531,172.3906 368.4813,172.2188 Q368.1688,171.8906 367.6063,171.7031 Q367.0438,171.5 366.4813,171.5 Q365.7781,171.5 365.1844,171.7813 Q364.6063,172.0625 364.1531,172.6875 Q363.7,173.3125 363.7,174.1719 L363.7,175.0938 Q363.7,176.125 364.5438,176.8125 Q365.3875,177.5 366.8875,177.5 Q367.7781,177.5 368.4031,177.2969 Q368.7625,177.1875 369.1688,176.8281 Q369.4344,176.625 369.575,176.5625 Q369.7156,176.5 369.8875,176.5 Q370.2156,176.5 370.45,176.7656 Q370.7,177.0156 370.7,177.375 Q370.7,177.7188 370.3563,178.125 Q369.8563,178.7188 369.0594,179.0469 Q368.0125,179.5 366.7313,179.5 Q365.2313,179.5 364.0281,178.9063 Q363.0594,178.4375 362.3719,177.4219 Q361.7,176.4063 361.7,175.2031 L361.7,174.1094 Q361.7,172.8594 362.2938,171.7656 Q362.9031,170.6719 363.95,170.0938 Q365.0125,169.5 366.2,169.5 Q366.9188,169.5 367.5438,169.75 Q368.1688,170 368.7,170.5 Z " fill="#000000"/><text fill="#000000" font-family="sans-serif" font-size="12" lengthAdjust="spacing" textLength="53" x="383.3" y="178.9102">Company</text><line style="stroke:#A80036;stroke-width:1.5;" x1="341" x2="450" y1="190" y2="190"/><line style="stroke:#A80036;stroke-width:1.5;" x1="341" x2="450" y1="198" y2="198"/><ellipse cx="351" cy="209" fill="#84BE84" rx="3" ry="3" style="stroke:#038048;stroke-width:1.0;"/><text fill="#000000" font-family="sans-serif" font-size="11" lengthAdjust="spacing" textLength="75" x="360" y="213.4189">getUserStore();</text><ellipse cx="351" cy="222.8359" fill="#84BE84" rx="3" ry="3" style="stroke:#038048;stroke-width:1.0;"/><text fill="#000000" font-family="sans-serif" font-size="11" lengthAdjust="spacing" textLength="85" x="360" y="227.2549">getAuthFacade();</text><!--MD5=[93af8b4494db78ec46e98fad8955a5aa]
class UserStore--><rect codeLine="12" fill="#FEFECE" filter="url(#f8mifl9ejw4dj)" height="131.0156" id="UserStore" style="stroke:#A80036;stroke-width:1.5;" width="350" x="280.5" y="312"/><ellipse cx="423.25" cy="328" fill="#ADD1B2" rx="11" ry="11" style="stroke:#A80036;stroke-width:1.0;"/><path d="M425.25,324.5 Q425.4531,324 425.6875,323.75 Q425.9219,323.5 426.1875,323.5 Q426.6563,323.5 426.9531,323.7813 Q427.25,324.0625 427.25,324.7188 L427.25,326.2813 Q427.25,326.9375 426.9688,327.2188 Q426.6875,327.5 426.25,327.5 Q425.8594,327.5 425.6094,327.3281 Q425.3594,327.1563 425.25,326.7031 Q425.2031,326.3906 425.0313,326.2188 Q424.7188,325.8906 424.1563,325.7031 Q423.5938,325.5 423.0313,325.5 Q422.3281,325.5 421.7344,325.7813 Q421.1563,326.0625 420.7031,326.6875 Q420.25,327.3125 420.25,328.1719 L420.25,329.0938 Q420.25,330.125 421.0938,330.8125 Q421.9375,331.5 423.4375,331.5 Q424.3281,331.5 424.9531,331.2969 Q425.3125,331.1875 425.7188,330.8281 Q425.9844,330.625 426.125,330.5625 Q426.2656,330.5 426.4375,330.5 Q426.7656,330.5 427,330.7656 Q427.25,331.0156 427.25,331.375 Q427.25,331.7188 426.9063,332.125 Q426.4063,332.7188 425.6094,333.0469 Q424.5625,333.5 423.2813,333.5 Q421.7813,333.5 420.5781,332.9063 Q419.6094,332.4375 418.9219,331.4219 Q418.25,330.4063 418.25,329.2031 L418.25,328.1094 Q418.25,326.8594 418.8438,325.7656 Q419.4531,324.6719 420.5,324.0938 Q421.5625,323.5 422.75,323.5 Q423.4688,323.5 424.0938,323.75 Q424.7188,324 425.25,324.5 Z " fill="#000000"/><text fill="#000000" font-family="sans-serif" font-size="12" lengthAdjust="spacing" textLength="56" x="443.75" y="332.9102">UserStore</text><line style="stroke:#A80036;stroke-width:1.5;" x1="281.5" x2="629.5" y1="344" y2="344"/><line style="stroke:#A80036;stroke-width:1.5;" x1="281.5" x2="629.5" y1="352" y2="352"/><rect fill="#F24D5C" height="6" style="stroke:#C82930;stroke-width:1.0;" width="6" x="288.5" y="360"/><text fill="#000000" font-family="sans-serif" font-size="11" lengthAdjust="spacing" textLength="324" x="300.5" y="367.4189">createUser(String name, String sex, Date birthDate, String address,</text><text fill="#000000" font-family="sans-serif" font-size="11" lengthAdjust="spacing" textLength="220" x="300.5" y="381.2549">int phoneNumber, String eMail, int snsNumber,</text><text fill="#000000" font-family="sans-serif" font-size="11" lengthAdjust="spacing" textLength="70" x="300.5" y="395.0908">int ccNumber);</text><ellipse cx="291.5" cy="404.5078" fill="#84BE84" rx="3" ry="3" style="stroke:#038048;stroke-width:1.0;"/><text fill="#000000" font-family="sans-serif" font-size="11" lengthAdjust="spacing" textLength="132" x="300.5" y="408.9268">validateNewUser(User ne);</text><ellipse cx="291.5" cy="418.3438" fill="#84BE84" rx="3" ry="3" style="stroke:#038048;stroke-width:1.0;"/><text fill="#000000" font-family="sans-serif" font-size="11" lengthAdjust="spacing" textLength="179" x="300.5" y="422.7627">addUser(User ne, AuthFacade auth);</text><ellipse cx="291.5" cy="432.1797" fill="#84BE84" rx="3" ry="3" style="stroke:#038048;stroke-width:1.0;"/><text fill="#000000" font-family="sans-serif" font-size="11" lengthAdjust="spacing" textLength="167" x="300.5" y="436.5986">findBySnsNumber(int snsNumber);</text><!--MD5=[6815dd9c9249db96cec83774d73bed04]
class ImportUsersController--><rect codeLine="20" fill="#FEFECE" filter="url(#f8mifl9ejw4dj)" height="89.5078" id="ImportUsersController" style="stroke:#A80036;stroke-width:1.5;" width="218" x="155.5" y="7"/><ellipse cx="198.85" cy="23" fill="#ADD1B2" rx="11" ry="11" style="stroke:#A80036;stroke-width:1.0;"/><path d="M200.85,19.5 Q201.0531,19 201.2875,18.75 Q201.5219,18.5 201.7875,18.5 Q202.2563,18.5 202.5531,18.7813 Q202.85,19.0625 202.85,19.7188 L202.85,21.2813 Q202.85,21.9375 202.5688,22.2188 Q202.2875,22.5 201.85,22.5 Q201.4594,22.5 201.2094,22.3281 Q200.9594,22.1563 200.85,21.7031 Q200.8031,21.3906 200.6313,21.2188 Q200.3188,20.8906 199.7563,20.7031 Q199.1938,20.5 198.6313,20.5 Q197.9281,20.5 197.3344,20.7813 Q196.7563,21.0625 196.3031,21.6875 Q195.85,22.3125 195.85,23.1719 L195.85,24.0938 Q195.85,25.125 196.6938,25.8125 Q197.5375,26.5 199.0375,26.5 Q199.9281,26.5 200.5531,26.2969 Q200.9125,26.1875 201.3188,25.8281 Q201.5844,25.625 201.725,25.5625 Q201.8656,25.5 202.0375,25.5 Q202.3656,25.5 202.6,25.7656 Q202.85,26.0156 202.85,26.375 Q202.85,26.7188 202.5063,27.125 Q202.0063,27.7188 201.2094,28.0469 Q200.1625,28.5 198.8813,28.5 Q197.3813,28.5 196.1781,27.9063 Q195.2094,27.4375 194.5219,26.4219 Q193.85,25.4063 193.85,24.2031 L193.85,23.1094 Q193.85,21.8594 194.4438,20.7656 Q195.0531,19.6719 196.1,19.0938 Q197.1625,18.5 198.35,18.5 Q199.0688,18.5 199.6938,18.75 Q200.3188,19 200.85,19.5 Z " fill="#000000"/><text fill="#000000" font-family="sans-serif" font-size="12" lengthAdjust="spacing" textLength="123" x="219.15" y="27.9102">ImportUsersController</text><line style="stroke:#A80036;stroke-width:1.5;" x1="156.5" x2="372.5" y1="39" y2="39"/><line style="stroke:#A80036;stroke-width:1.5;" x1="156.5" x2="372.5" y1="47" y2="47"/><ellipse cx="166.5" cy="58" fill="#84BE84" rx="3" ry="3" style="stroke:#038048;stroke-width:1.0;"/><text fill="#000000" font-family="sans-serif" font-size="11" lengthAdjust="spacing" textLength="117" x="175.5" y="62.4189">importUsers(List users);</text><rect fill="#F24D5C" height="6" style="stroke:#C82930;stroke-width:1.0;" width="6" x="163.5" y="68.8359"/><text fill="#000000" font-family="sans-serif" font-size="11" lengthAdjust="spacing" textLength="184" x="175.5" y="76.2549">importUsersCsvNoHeader(List users);</text><rect fill="#F24D5C" height="6" style="stroke:#C82930;stroke-width:1.0;" width="6" x="163.5" y="82.6719"/><text fill="#000000" font-family="sans-serif" font-size="11" lengthAdjust="spacing" textLength="192" x="175.5" y="90.0908">importUsersCsvWithHeader(List users);</text><!--MD5=[dd0a35fdb7214e43c957b8413c31e3f1]
class ImportUsersUI--><rect codeLine="26" fill="#FEFECE" filter="url(#f8mifl9ejw4dj)" height="61.8359" id="ImportUsersUI" style="stroke:#A80036;stroke-width:1.5;" width="113" x="7" y="21"/><ellipse cx="22" cy="37" fill="#ADD1B2" rx="11" ry="11" style="stroke:#A80036;stroke-width:1.0;"/><path d="M24,33.5 Q24.2031,33 24.4375,32.75 Q24.6719,32.5 24.9375,32.5 Q25.4063,32.5 25.7031,32.7813 Q26,33.0625 26,33.7188 L26,35.2813 Q26,35.9375 25.7188,36.2188 Q25.4375,36.5 25,36.5 Q24.6094,36.5 24.3594,36.3281 Q24.1094,36.1563 24,35.7031 Q23.9531,35.3906 23.7813,35.2188 Q23.4688,34.8906 22.9063,34.7031 Q22.3438,34.5 21.7813,34.5 Q21.0781,34.5 20.4844,34.7813 Q19.9063,35.0625 19.4531,35.6875 Q19,36.3125 19,37.1719 L19,38.0938 Q19,39.125 19.8438,39.8125 Q20.6875,40.5 22.1875,40.5 Q23.0781,40.5 23.7031,40.2969 Q24.0625,40.1875 24.4688,39.8281 Q24.7344,39.625 24.875,39.5625 Q25.0156,39.5 25.1875,39.5 Q25.5156,39.5 25.75,39.7656 Q26,40.0156 26,40.375 Q26,40.7188 25.6563,41.125 Q25.1563,41.7188 24.3594,42.0469 Q23.3125,42.5 22.0313,42.5 Q20.5313,42.5 19.3281,41.9063 Q18.3594,41.4375 17.6719,40.4219 Q17,39.4063 17,38.2031 L17,37.1094 Q17,35.8594 17.5938,34.7656 Q18.2031,33.6719 19.25,33.0938 Q20.3125,32.5 21.5,32.5 Q22.2188,32.5 22.8438,32.75 Q23.4688,33 24,33.5 Z " fill="#000000"/><text fill="#000000" font-family="sans-serif" font-size="12" lengthAdjust="spacing" textLength="81" x="36" y="41.9102">ImportUsersUI</text><line style="stroke:#A80036;stroke-width:1.5;" x1="8" x2="119" y1="53" y2="53"/><line style="stroke:#A80036;stroke-width:1.5;" x1="8" x2="119" y1="61" y2="61"/><ellipse cx="18" cy="72" fill="#84BE84" rx="3" ry="3" style="stroke:#038048;stroke-width:1.0;"/><text fill="#000000" font-family="sans-serif" font-size="11" lengthAdjust="spacing" textLength="27" x="27" y="76.4189">run();</text><!--MD5=[4c61b691966473d9b39044657bc0da79]
link ImportUsersUI to ImportUsersController--><path codeLine="30" d="M120.03,52 C130.04,52 140.05,52 150.07,52 " fill="none" id="ImportUsersUI-to-ImportUsersController" style="stroke:#A80036;stroke-width:1.0;stroke-dasharray:7.0,7.0;"/><polygon fill="#A80036" points="155.3,52,146.3,48,150.3,52,146.3,56,155.3,52" style="stroke:#A80036;stroke-width:1.0;"/><!--MD5=[d4aac07b68e498c9e7509751119b36a5]
link ImportUsersController to Company--><path codeLine="31" d="M305.23,97.15 C321.85,115.17 340.96,135.88 357.31,153.61 " fill="none" id="ImportUsersController-to-Company" style="stroke:#A80036;stroke-width:1.0;stroke-dasharray:7.0,7.0;"/><polygon fill="#A80036" points="360.97,157.57,357.8273,148.236,357.5875,153.8878,351.9357,153.648,360.97,157.57" style="stroke:#A80036;stroke-width:1.0;"/><!--MD5=[6a89f10bf6c39f07dca9df436ca39a85]
link ImportUsersController to User--><path codeLine="32" d="M263.78,97.01 C262.17,195.93 258.3,433.63 256.96,515.63 " fill="none" id="ImportUsersController-to-User" style="stroke:#A80036;stroke-width:1.0;stroke-dasharray:7.0,7.0;"/><polygon fill="#A80036" points="256.88,520.8,261.0337,511.8699,256.9657,515.8007,253.0349,511.7328,256.88,520.8" style="stroke:#A80036;stroke-width:1.0;"/><!--MD5=[102f1b3c68b20fc6574790ee0d106773]
link Company to UserStore--><path codeLine="33" d="M407.93,234.19 C414.95,255.18 423.94,282.09 432.22,306.84 " fill="none" id="Company-to-UserStore" style="stroke:#A80036;stroke-width:1.0;"/><polygon fill="#A80036" points="433.86,311.76,434.7998,301.9561,432.2746,307.018,427.2126,304.4928,433.86,311.76" style="stroke:#A80036;stroke-width:1.0;"/><text fill="#000000" font-family="sans-serif" font-size="13" lengthAdjust="spacing" textLength="28" x="424.5" y="278.4951">uses</text><text fill="#000000" font-family="sans-serif" font-size="13" lengthAdjust="spacing" textLength="7" x="402.3532" y="255.1008">1</text><text fill="#000000" font-family="sans-serif" font-size="13" lengthAdjust="spacing" textLength="7" x="424.1103" y="301.2082">1</text><!--MD5=[d1e0f6ecc4becbdb384d024f9b519f21]
link UserStore to User--><path codeLine="34" d="M377.71,443.2 C346.59,469.08 312.49,497.44 288.41,517.47 " fill="none" id="UserStore-to-User" style="stroke:#A80036;stroke-width:1.0;"/><polygon fill="#A80036" points="284.33,520.86,293.8057,518.1747,288.1723,517.6605,288.6865,512.027,284.33,520.86" style="stroke:#A80036;stroke-width:1.0;"/><text fill="#000000" font-family="sans-serif" font-size="13" lengthAdjust="spacing" textLength="37" x="338.5" y="487.4951">knows</text><text fill="#000000" font-family="sans-serif" font-size="13" lengthAdjust="spacing" textLength="7" x="362.327" y="464.3128">1</text><text fill="#000000" font-family="sans-serif" font-size="13" lengthAdjust="spacing" textLength="5" x="285.8208" y="510.1643">*</text><!--MD5=[8a75f99df048b304d31495edbf316541]
@startuml
'https://plantuml.com/class-diagram

class User{

}

class Company{
+ getUserStore();
+ getAuthFacade();
}

class UserStore{
- createUser(String name, String sex, Date birthDate, String address,\nint phoneNumber, String eMail, int snsNumber,
                                        int ccNumber);
+ validateNewUser(User ne);
+ addUser(User ne, AuthFacade auth);
+ findBySnsNumber(int snsNumber);
}

class ImportUsersController{
+ importUsers(List users);
- importUsersCsvNoHeader(List users);
- importUsersCsvWithHeader(List users);
}

class ImportUsersUI{
+ run();
}

ImportUsersUI .> ImportUsersController
ImportUsersController ..> Company
ImportUsersController ..> User
Company"1" - ->  "1"UserStore : uses
UserStore"1" - -> "*"User : knows

@enduml

@startuml

class User{

}

class Company{
+ getUserStore();
+ getAuthFacade();
}

class UserStore{
- createUser(String name, String sex, Date birthDate, String address,\nint phoneNumber, String eMail, int snsNumber,
                                        int ccNumber);
+ validateNewUser(User ne);
+ addUser(User ne, AuthFacade auth);
+ findBySnsNumber(int snsNumber);
}

class ImportUsersController{
+ importUsers(List users);
- importUsersCsvNoHeader(List users);
- importUsersCsvWithHeader(List users);
}

class ImportUsersUI{
+ run();
}

ImportUsersUI .> ImportUsersController
ImportUsersController ..> Company
ImportUsersController ..> User
Company"1" - ->  "1"UserStore : uses
UserStore"1" - -> "*"User : knows

@enduml

PlantUML version 1.2022.1(Tue Feb 01 18:19:58 GMT 2022)
(GPL source distribution)
Java Runtime: OpenJDK Runtime Environment
JVM: OpenJDK 64-Bit Server VM
Default Encoding: Cp1252
Language: pt
Country: PT
--></g></svg>