<?xml version="1.0" encoding="UTF-8" standalone="no"?><svg xmlns="http://www.w3.org/2000/svg" xmlns:xlink="http://www.w3.org/1999/xlink" contentScriptType="application/ecmascript" contentStyleType="text/css" height="757px" preserveAspectRatio="none" style="width:928px;height:757px;background:#FFFFFF;" version="1.1" viewBox="0 0 928 757" width="928px" zoomAndPan="magnify"><defs><filter height="300%" id="fakrvphomc5ts" width="300%" x="-1" y="-1"><feGaussianBlur result="blurOut" stdDeviation="2.0"/><feColorMatrix in="blurOut" result="blurOut2" type="matrix" values="0 0 0 0 0 0 0 0 0 0 0 0 0 0 0 0 0 0 .4 0"/><feOffset dx="4.0" dy="4.0" in="blurOut2" result="blurOut3"/><feBlend in="SourceGraphic" in2="blurOut3" mode="normal"/></filter></defs><g><!--MD5=[02e4b9b7573f1156f41e60aa5b4e25a4]
class Company--><rect codeLine="3" fill="#FEFECE" filter="url(#fakrvphomc5ts)" height="73.9102" id="Company" style="stroke:#A80036;stroke-width:1.5;" width="172" x="305" y="251"/><ellipse cx="359.75" cy="267" fill="#ADD1B2" rx="11" ry="11" style="stroke:#A80036;stroke-width:1.0;"/><path d="M362.2231,273.1431 Q361.6421,273.4419 361.0029,273.5913 Q360.3638,273.7407 359.6582,273.7407 Q357.1514,273.7407 355.8315,272.0889 Q354.5117,270.437 354.5117,267.3159 Q354.5117,264.1865 355.8315,262.5347 Q357.1514,260.8828 359.6582,260.8828 Q360.3638,260.8828 361.0112,261.0322 Q361.6587,261.1816 362.2231,261.4805 L362.2231,264.2031 Q361.5923,263.6221 360.9988,263.3523 Q360.4053,263.0825 359.7744,263.0825 Q358.4297,263.0825 357.7449,264.1492 Q357.0601,265.2158 357.0601,267.3159 Q357.0601,269.4077 357.7449,270.4744 Q358.4297,271.541 359.7744,271.541 Q360.4053,271.541 360.9988,271.2712 Q361.5923,271.0015 362.2231,270.4204 Z " fill="#000000"/><text fill="#000000" font-family="sans-serif" font-size="12" lengthAdjust="spacing" textLength="54" x="380.25" y="271.5352">Company</text><line style="stroke:#A80036;stroke-width:1.5;" x1="306" x2="476" y1="283" y2="283"/><text fill="#000000" font-family="sans-serif" font-size="11" lengthAdjust="spacing" textLength="69" x="311" y="297.6348">-designation</text><line style="stroke:#A80036;stroke-width:1.5;" x1="306" x2="476" y1="303.9551" y2="303.9551"/><text fill="#000000" font-family="sans-serif" font-size="11" lengthAdjust="spacing" textLength="160" x="311" y="318.5898">+getVaccinationCenterStore()</text><!--MD5=[95ca56395ae3af557f45ff5848d211a4]
class RequestVaccinationCenterUI--><rect codeLine="8" fill="#FEFECE" filter="url(#fakrvphomc5ts)" height="48" id="RequestVaccinationCenterUI" style="stroke:#A80036;stroke-width:1.5;" width="193" x="363.5" y="7"/><ellipse cx="378.5" cy="23" fill="#ADD1B2" rx="11" ry="11" style="stroke:#A80036;stroke-width:1.0;"/><path d="M380.9731,29.1431 Q380.3921,29.4419 379.7529,29.5913 Q379.1138,29.7407 378.4082,29.7407 Q375.9014,29.7407 374.5815,28.0889 Q373.2617,26.437 373.2617,23.3159 Q373.2617,20.1865 374.5815,18.5347 Q375.9014,16.8828 378.4082,16.8828 Q379.1138,16.8828 379.7612,17.0322 Q380.4087,17.1816 380.9731,17.4805 L380.9731,20.2031 Q380.3423,19.6221 379.7488,19.3523 Q379.1553,19.0825 378.5244,19.0825 Q377.1797,19.0825 376.4949,20.1492 Q375.8101,21.2158 375.8101,23.3159 Q375.8101,25.4077 376.4949,26.4744 Q377.1797,27.541 378.5244,27.541 Q379.1553,27.541 379.7488,27.2712 Q380.3423,27.0015 380.9731,26.4204 Z " fill="#000000"/><text fill="#000000" font-family="sans-serif" font-size="12" lengthAdjust="spacing" textLength="161" x="392.5" y="27.5352">RequestVaccinationCenterUI</text><line style="stroke:#A80036;stroke-width:1.5;" x1="364.5" x2="555.5" y1="39" y2="39"/><line style="stroke:#A80036;stroke-width:1.5;" x1="364.5" x2="555.5" y1="47" y2="47"/><!--MD5=[9a18bebaa2b9432f7e84a12c16b63773]
class RequestVaccinationCenterController--><rect codeLine="9" fill="#FEFECE" filter="url(#fakrvphomc5ts)" height="73.9102" id="RequestVaccinationCenterController" style="stroke:#A80036;stroke-width:1.5;" width="906" x="7" y="116"/><ellipse cx="352.75" cy="132" fill="#ADD1B2" rx="11" ry="11" style="stroke:#A80036;stroke-width:1.0;"/><path d="M355.2231,138.1431 Q354.6421,138.4419 354.0029,138.5913 Q353.3638,138.7407 352.6582,138.7407 Q350.1514,138.7407 348.8315,137.0889 Q347.5117,135.437 347.5117,132.3159 Q347.5117,129.1865 348.8315,127.5347 Q350.1514,125.8828 352.6582,125.8828 Q353.3638,125.8828 354.0112,126.0322 Q354.6587,126.1816 355.2231,126.4805 L355.2231,129.2031 Q354.5923,128.6221 353.9988,128.3523 Q353.4053,128.0825 352.7744,128.0825 Q351.4297,128.0825 350.7449,129.1492 Q350.0601,130.2158 350.0601,132.3159 Q350.0601,134.4077 350.7449,135.4744 Q351.4297,136.541 352.7744,136.541 Q353.4053,136.541 353.9988,136.2712 Q354.5923,136.0015 355.2231,135.4204 Z " fill="#000000"/><text fill="#000000" font-family="sans-serif" font-size="12" lengthAdjust="spacing" textLength="206" x="373.25" y="136.5352">RequestVaccinationCenterController</text><line style="stroke:#A80036;stroke-width:1.5;" x1="8" x2="912" y1="148" y2="148"/><line style="stroke:#A80036;stroke-width:1.5;" x1="8" x2="912" y1="156" y2="156"/><text fill="#000000" font-family="sans-serif" font-size="11" lengthAdjust="spacing" textLength="894" x="13" y="170.6348">+registerVaccinationCenter(name, address, phoneNumber, email, faxNumber, websiteAddress, openingHours, closingHours, slotDuration, maximumNumVaccinesSlot)</text><text fill="#000000" font-family="sans-serif" font-size="11" lengthAdjust="spacing" textLength="139" x="13" y="183.5898">+saveVaccinationCenter()</text><!--MD5=[de60e6d4f424ae4d0522096f76a59010]
class VaccinationCenter--><rect codeLine="13" fill="#FEFECE" filter="url(#fakrvphomc5ts)" height="164.5957" id="VaccinationCenter" style="stroke:#A80036;stroke-width:1.5;" width="163" x="379.5" y="579"/><ellipse cx="407.1" cy="595" fill="#ADD1B2" rx="11" ry="11" style="stroke:#A80036;stroke-width:1.0;"/><path d="M409.5731,601.1431 Q408.9921,601.4419 408.3529,601.5913 Q407.7138,601.7407 407.0082,601.7407 Q404.5014,601.7407 403.1815,600.0889 Q401.8617,598.437 401.8617,595.3159 Q401.8617,592.1865 403.1815,590.5347 Q404.5014,588.8828 407.0082,588.8828 Q407.7138,588.8828 408.3612,589.0322 Q409.0087,589.1816 409.5731,589.4805 L409.5731,592.2031 Q408.9423,591.6221 408.3488,591.3523 Q407.7553,591.0825 407.1244,591.0825 Q405.7797,591.0825 405.0949,592.1492 Q404.4101,593.2158 404.4101,595.3159 Q404.4101,597.4077 405.0949,598.4744 Q405.7797,599.541 407.1244,599.541 Q407.7553,599.541 408.3488,599.2712 Q408.9423,599.0015 409.5731,598.4204 Z " fill="#000000"/><text fill="#000000" font-family="sans-serif" font-size="12" lengthAdjust="spacing" textLength="103" x="423.9" y="599.5352">VaccinationCenter</text><line style="stroke:#A80036;stroke-width:1.5;" x1="380.5" x2="541.5" y1="611" y2="611"/><text fill="#000000" font-family="sans-serif" font-size="11" lengthAdjust="spacing" textLength="35" x="385.5" y="625.6348">-name</text><text fill="#000000" font-family="sans-serif" font-size="11" lengthAdjust="spacing" textLength="49" x="385.5" y="638.5898">-address</text><text fill="#000000" font-family="sans-serif" font-size="11" lengthAdjust="spacing" textLength="83" x="385.5" y="651.5449">-phoneNumber</text><text fill="#000000" font-family="sans-serif" font-size="11" lengthAdjust="spacing" textLength="34" x="385.5" y="664.5">-email</text><text fill="#000000" font-family="sans-serif" font-size="11" lengthAdjust="spacing" textLength="66" x="385.5" y="677.4551">-faxNumber</text><text fill="#000000" font-family="sans-serif" font-size="11" lengthAdjust="spacing" textLength="91" x="385.5" y="690.4102">-websiteAddress</text><text fill="#000000" font-family="sans-serif" font-size="11" lengthAdjust="spacing" textLength="124" x="385.5" y="703.3652">-openingClosingHours</text><text fill="#000000" font-family="sans-serif" font-size="11" lengthAdjust="spacing" textLength="73" x="385.5" y="716.3203">-slotDuration</text><text fill="#000000" font-family="sans-serif" font-size="11" lengthAdjust="spacing" textLength="151" x="385.5" y="729.2754">-maximumNumVaccinesSlot</text><line style="stroke:#A80036;stroke-width:1.5;" x1="380.5" x2="541.5" y1="735.5957" y2="735.5957"/><!--MD5=[a29876ea2f21a6ca48ea477740122fd8]
class VaccinationCenterStore--><rect codeLine="24" fill="#FEFECE" filter="url(#fakrvphomc5ts)" height="99.8203" id="VaccinationCenterStore" style="stroke:#A80036;stroke-width:1.5;" width="906" x="8" y="402"/><ellipse cx="390.75" cy="418" fill="#ADD1B2" rx="11" ry="11" style="stroke:#A80036;stroke-width:1.0;"/><path d="M393.2231,424.1431 Q392.6421,424.4419 392.0029,424.5913 Q391.3638,424.7407 390.6582,424.7407 Q388.1514,424.7407 386.8315,423.0889 Q385.5117,421.437 385.5117,418.3159 Q385.5117,415.1865 386.8315,413.5347 Q388.1514,411.8828 390.6582,411.8828 Q391.3638,411.8828 392.0112,412.0322 Q392.6587,412.1816 393.2231,412.4805 L393.2231,415.2031 Q392.5923,414.6221 391.9988,414.3523 Q391.4053,414.0825 390.7744,414.0825 Q389.4297,414.0825 388.7449,415.1492 Q388.0601,416.2158 388.0601,418.3159 Q388.0601,420.4077 388.7449,421.4744 Q389.4297,422.541 390.7744,422.541 Q391.4053,422.541 391.9988,422.2712 Q392.5923,422.0015 393.2231,421.4204 Z " fill="#000000"/><text fill="#000000" font-family="sans-serif" font-size="12" lengthAdjust="spacing" textLength="132" x="411.25" y="422.5352">VaccinationCenterStore</text><line style="stroke:#A80036;stroke-width:1.5;" x1="9" x2="913" y1="434" y2="434"/><line style="stroke:#A80036;stroke-width:1.5;" x1="9" x2="913" y1="442" y2="442"/><text fill="#000000" font-family="sans-serif" font-size="11" lengthAdjust="spacing" textLength="894" x="14" y="456.6348">+registerVaccinationCenter(name, address, phoneNumber, email, faxNumber, websiteAddress, openingHours, closingHours, slotDuration, maximumNumVaccinesSlot)</text><text fill="#000000" font-family="sans-serif" font-size="11" lengthAdjust="spacing" textLength="168" x="14" y="469.5898">+validateVaccinationCenter(vc)</text><text fill="#000000" font-family="sans-serif" font-size="11" lengthAdjust="spacing" textLength="151" x="14" y="482.5449">+saveVaccinationCenter(vc)</text><text fill="#000000" font-family="sans-serif" font-size="11" lengthAdjust="spacing" textLength="144" x="14" y="495.5">-addVaccinationCenter(vc)</text><!--MD5=[bc0d5b4bfe6e1bf0a8fced13bc4bdd47]
link Company to VaccinationCenterStore--><path codeLine="31" d="M406.71,325.36 C415.85,346.52 427.55,373.6 437.75,397.19 " fill="none" id="Company-to-VaccinationCenterStore" style="stroke:#A80036;stroke-width:1.0;"/><polygon fill="#A80036" points="439.77,401.86,439.8643,392.0116,437.7832,397.2717,432.5231,395.1905,439.77,401.86" style="stroke:#A80036;stroke-width:1.0;"/><text fill="#000000" font-family="sans-serif" font-size="13" lengthAdjust="spacing" textLength="29" x="427" y="368.5684">uses</text><text fill="#000000" font-family="sans-serif" font-size="13" lengthAdjust="spacing" textLength="8" x="400.6495" y="345.3915">1</text><text fill="#000000" font-family="sans-serif" font-size="13" lengthAdjust="spacing" textLength="8" x="428.222" y="391.3572">1</text><!--MD5=[78101cb22aff4ceae33131579015830a]
link RequestVaccinationCenterController to VaccinationCenterStore--><path codeLine="32" d="M476.37,190.03 C483.64,207.96 491.36,230.19 495,251 C503.63,300.34 492.18,356.59 480.29,396.83 " fill="none" id="RequestVaccinationCenterController-to-VaccinationCenterStore" style="stroke:#A80036;stroke-width:1.0;stroke-dasharray:7.0,7.0;"/><polygon fill="#A80036" points="478.84,401.66,485.2677,394.1977,480.2833,396.8728,477.6082,391.8885,478.84,401.66" style="stroke:#A80036;stroke-width:1.0;"/><!--MD5=[3b623b478344855a63efcc7a66cb32ef]
link RequestVaccinationCenterUI to RequestVaccinationCenterController--><path codeLine="33" d="M460,55.14 C460,70.83 460,92 460,110.55 " fill="none" id="RequestVaccinationCenterUI-to-RequestVaccinationCenterController" style="stroke:#A80036;stroke-width:1.0;stroke-dasharray:7.0,7.0;"/><polygon fill="#A80036" points="460,115.71,464,106.71,460,110.71,456,106.71,460,115.71" style="stroke:#A80036;stroke-width:1.0;"/><!--MD5=[72fdf0fc06fd643d8e2012a68c0f1456]
link RequestVaccinationCenterController to Company--><path codeLine="34" d="M441.15,190.34 C432.17,207.64 421.4,228.4 412.15,246.23 " fill="none" id="RequestVaccinationCenterController-to-Company" style="stroke:#A80036;stroke-width:1.0;stroke-dasharray:7.0,7.0;"/><polygon fill="#A80036" points="409.83,250.7,417.5198,244.5464,412.1287,246.2597,410.4154,240.8686,409.83,250.7" style="stroke:#A80036;stroke-width:1.0;"/><!--MD5=[8c304936b446fd8cea914e03fbadd4b7]
link VaccinationCenterStore to VaccinationCenter--><path codeLine="35" d="M461,502.17 C461,523.54 461,549.23 461,573.64 " fill="none" id="VaccinationCenterStore-to-VaccinationCenter" style="stroke:#A80036;stroke-width:1.0;"/><polygon fill="#A80036" points="461,578.83,465,569.83,461,573.83,457,569.83,461,578.83" style="stroke:#A80036;stroke-width:1.0;"/><text fill="#000000" font-family="sans-serif" font-size="13" lengthAdjust="spacing" textLength="133" x="462" y="545.5684">Capable of Analyzing</text><text fill="#000000" font-family="sans-serif" font-size="13" lengthAdjust="spacing" textLength="8" x="452.4625" y="522.5207">1</text><text fill="#000000" font-family="sans-serif" font-size="13" lengthAdjust="spacing" textLength="6" x="454.7234" y="568.1188">*</text><!--MD5=[35aee3bc3fbd49b03b5785a895521311]
@startuml
skinparam classAttributeIconSize 0

class Company{
- designation
+ getVaccinationCenterStore()

}
class RequestVaccinationCenterUI
class RequestVaccinationCenterController{
+ registerVaccinationCenter(name, address, phoneNumber, email, faxNumber, websiteAddress, openingHours, closingHours, slotDuration, maximumNumVaccinesSlot)
+ saveVaccinationCenter()
}
class VaccinationCenter{
- name
- address
- phoneNumber
- email
- faxNumber
- websiteAddress
- openingClosingHours
- slotDuration
- maximumNumVaccinesSlot
}
class VaccinationCenterStore{
+ registerVaccinationCenter(name, address, phoneNumber, email, faxNumber, websiteAddress, openingHours, closingHours, slotDuration, maximumNumVaccinesSlot)
+ validateVaccinationCenter(vc)
+ saveVaccinationCenter(vc)
- addVaccinationCenter(vc)
}

Company "1" - -> "1" VaccinationCenterStore : uses
RequestVaccinationCenterController ..> VaccinationCenterStore
RequestVaccinationCenterUI ..> RequestVaccinationCenterController
RequestVaccinationCenterController ..> Company
VaccinationCenterStore "1" - -> "*" VaccinationCenter : Capable of Analyzing
@enduml

PlantUML version 1.2022.1(Tue Feb 01 18:19:58 WET 2022)
(GPL source distribution)
Java Runtime: OpenJDK Runtime Environment
JVM: OpenJDK 64-Bit Server VM
Default Encoding: UTF-8
Language: en
Country: PT
--></g></svg>