<?xml version="1.0" encoding="UTF-8" standalone="no"?><svg xmlns="http://www.w3.org/2000/svg" xmlns:xlink="http://www.w3.org/1999/xlink" contentScriptType="application/ecmascript" contentStyleType="text/css" height="649.8px" preserveAspectRatio="none" style="width:1015px;height:649px;background:#FFFFFF;" version="1.1" viewBox="0 0 1015 649" width="1015.2px" zoomAndPan="magnify"><defs><filter height="300%" id="f1pao0qo9zzvkr" width="300%" x="-1" y="-1"><feGaussianBlur result="blurOut" stdDeviation="1.8"/><feColorMatrix in="blurOut" result="blurOut2" type="matrix" values="0 0 0 0 0 0 0 0 0 0 0 0 0 0 0 0 0 0 .4 0"/><feOffset dx="3.6" dy="3.6" in="blurOut2" result="blurOut3"/><feBlend in="SourceGraphic" in2="blurOut3" mode="normal"/></filter></defs><g><!--MD5=[9de91121ea4b6cecbb5f82aca8f29660]
class RegisterNewSNSUserUI--><rect codeLine="2" fill="#FEFECE" filter="url(#f1pao0qo9zzvkr)" height="43.2" id="RegisterNewSNSUserUI" style="stroke:#A80036;stroke-width:1.35;" width="151.2" x="181.8" y="6.3"/><ellipse cx="195.3" cy="20.7" fill="#ADD1B2" rx="9.9" ry="9.9" style="stroke:#A80036;stroke-width:0.9;"/><path d="M197.1,17.55 Q197.2828,17.1 197.4938,16.875 Q197.7047,16.65 197.9438,16.65 Q198.3656,16.65 198.6328,16.9031 Q198.9,17.1563 198.9,17.7469 L198.9,19.1531 Q198.9,19.7438 198.6469,19.9969 Q198.3938,20.25 198,20.25 Q197.6484,20.25 197.4234,20.0953 Q197.1984,19.9406 197.1,19.5328 Q197.0578,19.2516 196.9031,19.0969 Q196.6219,18.8016 196.1156,18.6328 Q195.6094,18.45 195.1031,18.45 Q194.4703,18.45 193.9359,18.7031 Q193.4156,18.9563 193.0078,19.5188 Q192.6,20.0813 192.6,20.8547 L192.6,21.6844 Q192.6,22.6125 193.3594,23.2313 Q194.1188,23.85 195.4688,23.85 Q196.2703,23.85 196.8328,23.6672 Q197.1563,23.5688 197.5219,23.2453 Q197.7609,23.0625 197.8875,23.0063 Q198.0141,22.95 198.1688,22.95 Q198.4641,22.95 198.675,23.1891 Q198.9,23.4141 198.9,23.7375 Q198.9,24.0469 198.5906,24.4125 Q198.1406,24.9469 197.4234,25.2422 Q196.4813,25.65 195.3281,25.65 Q193.9781,25.65 192.8953,25.1156 Q192.0234,24.6938 191.4047,23.7797 Q190.8,22.8656 190.8,21.7828 L190.8,20.7984 Q190.8,19.6734 191.3344,18.6891 Q191.8828,17.7047 192.825,17.1844 Q193.7813,16.65 194.85,16.65 Q195.4969,16.65 196.0594,16.875 Q196.6219,17.1 197.1,17.55 Z " fill="#000000"/><text fill="#000000" font-family="sans-serif" font-size="10.8" lengthAdjust="spacing" textLength="122.4" x="207.9" y="25.1191">RegisterNewSNSUserUI</text><line style="stroke:#A80036;stroke-width:1.35;" x1="182.7" x2="332.1" y1="35.1" y2="35.1"/><line style="stroke:#A80036;stroke-width:1.35;" x1="182.7" x2="332.1" y1="42.3" y2="42.3"/><!--MD5=[80a19da3f35abd9be5e003fae8289769]
class RegisterNewSNSUserController--><rect codeLine="5" fill="#FEFECE" filter="url(#f1pao0qo9zzvkr)" height="68.1047" id="RegisterNewSNSUserController" style="stroke:#A80036;stroke-width:1.35;" width="502.2" x="6.3" y="103.5"/><ellipse cx="173.475" cy="117.9" fill="#ADD1B2" rx="9.9" ry="9.9" style="stroke:#A80036;stroke-width:0.9;"/><path d="M175.275,114.75 Q175.4578,114.3 175.6688,114.075 Q175.8797,113.85 176.1188,113.85 Q176.5406,113.85 176.8078,114.1031 Q177.075,114.3563 177.075,114.9469 L177.075,116.3531 Q177.075,116.9438 176.8219,117.1969 Q176.5688,117.45 176.175,117.45 Q175.8234,117.45 175.5984,117.2953 Q175.3734,117.1406 175.275,116.7328 Q175.2328,116.4516 175.0781,116.2969 Q174.7969,116.0016 174.2906,115.8328 Q173.7844,115.65 173.2781,115.65 Q172.6453,115.65 172.1109,115.9031 Q171.5906,116.1563 171.1828,116.7188 Q170.775,117.2813 170.775,118.0547 L170.775,118.8844 Q170.775,119.8125 171.5344,120.4313 Q172.2938,121.05 173.6438,121.05 Q174.4453,121.05 175.0078,120.8672 Q175.3313,120.7688 175.6969,120.4453 Q175.9359,120.2625 176.0625,120.2063 Q176.1891,120.15 176.3438,120.15 Q176.6391,120.15 176.85,120.3891 Q177.075,120.6141 177.075,120.9375 Q177.075,121.2469 176.7656,121.6125 Q176.3156,122.1469 175.5984,122.4422 Q174.6563,122.85 173.5031,122.85 Q172.1531,122.85 171.0703,122.3156 Q170.1984,121.8938 169.5797,120.9797 Q168.975,120.0656 168.975,118.9828 L168.975,117.9984 Q168.975,116.8734 169.5094,115.8891 Q170.0578,114.9047 171,114.3844 Q171.9563,113.85 173.025,113.85 Q173.6719,113.85 174.2344,114.075 Q174.7969,114.3 175.275,114.75 Z " fill="#000000"/><text fill="#000000" font-family="sans-serif" font-size="10.8" lengthAdjust="spacing" textLength="160.2" x="191.925" y="122.3191">RegisterNewSNSUserController</text><line style="stroke:#A80036;stroke-width:1.35;" x1="7.2" x2="507.6" y1="132.3" y2="132.3"/><line style="stroke:#A80036;stroke-width:1.35;" x1="7.2" x2="507.6" y1="139.5" y2="139.5"/><ellipse cx="16.2" cy="149.4" fill="#84BE84" rx="2.7" ry="2.7" style="stroke:#038048;stroke-width:0.9;"/><text fill="#000000" font-family="sans-serif" font-size="9.9" lengthAdjust="spacing" textLength="478.8" x="24.3" y="153.3771">createSNSUser(name, address, sex, phone number, e-mail, birth date, SNS User number, citizen card number)</text><ellipse cx="16.2" cy="161.8523" fill="#84BE84" rx="2.7" ry="2.7" style="stroke:#038048;stroke-width:0.9;"/><text fill="#000000" font-family="sans-serif" font-size="9.9" lengthAdjust="spacing" textLength="68.4" x="24.3" y="165.8294">saveSNSUser()</text><!--MD5=[02e4b9b7573f1156f41e60aa5b4e25a4]
class Company--><rect codeLine="9" fill="#FEFECE" filter="url(#f1pao0qo9zzvkr)" height="68.1047" id="Company" style="stroke:#A80036;stroke-width:1.35;" width="107.1" x="255.15" y="225.9"/><ellipse cx="282.42" cy="240.3" fill="#ADD1B2" rx="9.9" ry="9.9" style="stroke:#A80036;stroke-width:0.9;"/><path d="M284.22,237.15 Q284.4028,236.7 284.6138,236.475 Q284.8247,236.25 285.0638,236.25 Q285.4856,236.25 285.7528,236.5031 Q286.02,236.7563 286.02,237.3469 L286.02,238.7531 Q286.02,239.3438 285.7669,239.5969 Q285.5138,239.85 285.12,239.85 Q284.7684,239.85 284.5434,239.6953 Q284.3184,239.5406 284.22,239.1328 Q284.1778,238.8516 284.0231,238.6969 Q283.7419,238.4016 283.2356,238.2328 Q282.7294,238.05 282.2231,238.05 Q281.5903,238.05 281.0559,238.3031 Q280.5356,238.5563 280.1278,239.1188 Q279.72,239.6813 279.72,240.4547 L279.72,241.2844 Q279.72,242.2125 280.4794,242.8313 Q281.2388,243.45 282.5888,243.45 Q283.3903,243.45 283.9528,243.2672 Q284.2763,243.1688 284.6419,242.8453 Q284.8809,242.6625 285.0075,242.6063 Q285.1341,242.55 285.2888,242.55 Q285.5841,242.55 285.795,242.7891 Q286.02,243.0141 286.02,243.3375 Q286.02,243.6469 285.7106,244.0125 Q285.2606,244.5469 284.5434,244.8422 Q283.6013,245.25 282.4481,245.25 Q281.0981,245.25 280.0153,244.7156 Q279.1434,244.2938 278.5247,243.3797 Q277.92,242.4656 277.92,241.3828 L277.92,240.3984 Q277.92,239.2734 278.4544,238.2891 Q279.0028,237.3047 279.945,236.7844 Q280.9013,236.25 281.97,236.25 Q282.6169,236.25 283.1794,236.475 Q283.7419,236.7 284.22,237.15 Z " fill="#000000"/><text fill="#000000" font-family="sans-serif" font-size="10.8" lengthAdjust="spacing" textLength="47.7" x="298.08" y="244.7191">Company</text><line style="stroke:#A80036;stroke-width:1.35;" x1="256.05" x2="361.35" y1="254.7" y2="254.7"/><rect fill="none" height="5.4" style="stroke:#C82930;stroke-width:0.9;" width="5.4" x="262.35" y="261.9"/><text fill="#000000" font-family="sans-serif" font-size="9.9" lengthAdjust="spacing" textLength="49.5" x="273.15" y="268.5771">designation</text><line style="stroke:#A80036;stroke-width:1.35;" x1="256.05" x2="361.35" y1="274.3523" y2="274.3523"/><ellipse cx="265.05" cy="284.2523" fill="#84BE84" rx="2.7" ry="2.7" style="stroke:#038048;stroke-width:0.9;"/><text fill="#000000" font-family="sans-serif" font-size="9.9" lengthAdjust="spacing" textLength="83.7" x="273.15" y="288.2294">getSNSUserStore()</text><!--MD5=[a5ad3856b0c65e07b10297b4477b22bb]
class SNSUserStore--><rect codeLine="14" fill="#FEFECE" filter="url(#f1pao0qo9zzvkr)" height="93.0094" id="SNSUserStore" style="stroke:#A80036;stroke-width:1.35;" width="502.2" x="6.3" y="391.95"/><ellipse cx="217.125" cy="406.35" fill="#ADD1B2" rx="9.9" ry="9.9" style="stroke:#A80036;stroke-width:0.9;"/><path d="M218.925,403.2 Q219.1078,402.75 219.3188,402.525 Q219.5297,402.3 219.7688,402.3 Q220.1906,402.3 220.4578,402.5531 Q220.725,402.8063 220.725,403.3969 L220.725,404.8031 Q220.725,405.3938 220.4719,405.6469 Q220.2188,405.9 219.825,405.9 Q219.4734,405.9 219.2484,405.7453 Q219.0234,405.5906 218.925,405.1828 Q218.8828,404.9016 218.7281,404.7469 Q218.4469,404.4516 217.9406,404.2828 Q217.4344,404.1 216.9281,404.1 Q216.2953,404.1 215.7609,404.3531 Q215.2406,404.6063 214.8328,405.1688 Q214.425,405.7313 214.425,406.5047 L214.425,407.3344 Q214.425,408.2625 215.1844,408.8813 Q215.9438,409.5 217.2938,409.5 Q218.0953,409.5 218.6578,409.3172 Q218.9813,409.2188 219.3469,408.8953 Q219.5859,408.7125 219.7125,408.6563 Q219.8391,408.6 219.9938,408.6 Q220.2891,408.6 220.5,408.8391 Q220.725,409.0641 220.725,409.3875 Q220.725,409.6969 220.4156,410.0625 Q219.9656,410.5969 219.2484,410.8922 Q218.3063,411.3 217.1531,411.3 Q215.8031,411.3 214.7203,410.7656 Q213.8484,410.3438 213.2297,409.4297 Q212.625,408.5156 212.625,407.4328 L212.625,406.4484 Q212.625,405.3234 213.1594,404.3391 Q213.7078,403.3547 214.65,402.8344 Q215.6063,402.3 216.675,402.3 Q217.3219,402.3 217.8844,402.525 Q218.4469,402.75 218.925,403.2 Z " fill="#000000"/><text fill="#000000" font-family="sans-serif" font-size="10.8" lengthAdjust="spacing" textLength="72.9" x="235.575" y="410.7691">SNSUserStore</text><line style="stroke:#A80036;stroke-width:1.35;" x1="7.2" x2="507.6" y1="420.75" y2="420.75"/><line style="stroke:#A80036;stroke-width:1.35;" x1="7.2" x2="507.6" y1="427.95" y2="427.95"/><ellipse cx="16.2" cy="437.85" fill="#84BE84" rx="2.7" ry="2.7" style="stroke:#038048;stroke-width:0.9;"/><text fill="#000000" font-family="sans-serif" font-size="9.9" lengthAdjust="spacing" textLength="478.8" x="24.3" y="441.8271">createSNSUser(name, address, sex, phone number, e-mail, birth date, SNS User number, citizen card number)</text><ellipse cx="16.2" cy="450.3023" fill="#84BE84" rx="2.7" ry="2.7" style="stroke:#038048;stroke-width:0.9;"/><text fill="#000000" font-family="sans-serif" font-size="9.9" lengthAdjust="spacing" textLength="99.9" x="24.3" y="454.2794">validateSNSUser(user)</text><ellipse cx="16.2" cy="462.7547" fill="#84BE84" rx="2.7" ry="2.7" style="stroke:#038048;stroke-width:0.9;"/><text fill="#000000" font-family="sans-serif" font-size="9.9" lengthAdjust="spacing" textLength="68.4" x="24.3" y="466.7317">saveSNSUser()</text><ellipse cx="16.2" cy="475.207" fill="#84BE84" rx="2.7" ry="2.7" style="stroke:#038048;stroke-width:0.9;"/><text fill="#000000" font-family="sans-serif" font-size="9.9" lengthAdjust="spacing" textLength="82.8" x="24.3" y="479.1841">addSNSUser(user)</text><!--MD5=[72be06cc7ae02ccc98efe28a50e62246]
class SNSUser--><rect codeLine="21" fill="#FEFECE" filter="url(#f1pao0qo9zzvkr)" height="180.1758" id="SNSUser" style="stroke:#A80036;stroke-width:1.35;" width="462.6" x="540" y="348.3"/><ellipse cx="744.075" cy="362.7" fill="#ADD1B2" rx="9.9" ry="9.9" style="stroke:#A80036;stroke-width:0.9;"/><path d="M745.875,359.55 Q746.0578,359.1 746.2688,358.875 Q746.4797,358.65 746.7188,358.65 Q747.1406,358.65 747.4078,358.9031 Q747.675,359.1563 747.675,359.7469 L747.675,361.1531 Q747.675,361.7438 747.4219,361.9969 Q747.1688,362.25 746.775,362.25 Q746.4234,362.25 746.1984,362.0953 Q745.9734,361.9406 745.875,361.5328 Q745.8328,361.2516 745.6781,361.0969 Q745.3969,360.8016 744.8906,360.6328 Q744.3844,360.45 743.8781,360.45 Q743.2453,360.45 742.7109,360.7031 Q742.1906,360.9563 741.7828,361.5188 Q741.375,362.0813 741.375,362.8547 L741.375,363.6844 Q741.375,364.6125 742.1344,365.2313 Q742.8938,365.85 744.2438,365.85 Q745.0453,365.85 745.6078,365.6672 Q745.9313,365.5688 746.2969,365.2453 Q746.5359,365.0625 746.6625,365.0063 Q746.7891,364.95 746.9438,364.95 Q747.2391,364.95 747.45,365.1891 Q747.675,365.4141 747.675,365.7375 Q747.675,366.0469 747.3656,366.4125 Q746.9156,366.9469 746.1984,367.2422 Q745.2563,367.65 744.1031,367.65 Q742.7531,367.65 741.6703,367.1156 Q740.7984,366.6938 740.1797,365.7797 Q739.575,364.8656 739.575,363.7828 L739.575,362.7984 Q739.575,361.6734 740.1094,360.6891 Q740.6578,359.7047 741.6,359.1844 Q742.5563,358.65 743.625,358.65 Q744.2719,358.65 744.8344,358.875 Q745.3969,359.1 745.875,359.55 Z " fill="#000000"/><text fill="#000000" font-family="sans-serif" font-size="10.8" lengthAdjust="spacing" textLength="46.8" x="762.525" y="367.1191">SNSUser</text><line style="stroke:#A80036;stroke-width:1.35;" x1="540.9" x2="1001.7" y1="377.1" y2="377.1"/><rect fill="none" height="5.4" style="stroke:#C82930;stroke-width:0.9;" width="5.4" x="547.2" y="384.3"/><text fill="#000000" font-family="sans-serif" font-size="9.9" lengthAdjust="spacing" textLength="23.4" x="558" y="390.9771">name</text><rect fill="none" height="5.4" style="stroke:#C82930;stroke-width:0.9;" width="5.4" x="547.2" y="396.7523"/><text fill="#000000" font-family="sans-serif" font-size="9.9" lengthAdjust="spacing" textLength="36" x="558" y="403.4294">address</text><rect fill="none" height="5.4" style="stroke:#C82930;stroke-width:0.9;" width="5.4" x="547.2" y="409.2047"/><text fill="#000000" font-family="sans-serif" font-size="9.9" lengthAdjust="spacing" textLength="16.2" x="558" y="415.8817">sex</text><rect fill="none" height="5.4" style="stroke:#C82930;stroke-width:0.9;" width="5.4" x="547.2" y="421.657"/><text fill="#000000" font-family="sans-serif" font-size="9.9" lengthAdjust="spacing" textLength="60.3" x="558" y="428.3341">phoneNumber</text><rect fill="none" height="5.4" style="stroke:#C82930;stroke-width:0.9;" width="5.4" x="547.2" y="434.1094"/><text fill="#000000" font-family="sans-serif" font-size="9.9" lengthAdjust="spacing" textLength="21.6" x="558" y="440.7864">email</text><rect fill="none" height="5.4" style="stroke:#C82930;stroke-width:0.9;" width="5.4" x="547.2" y="446.5617"/><text fill="#000000" font-family="sans-serif" font-size="9.9" lengthAdjust="spacing" textLength="38.7" x="558" y="453.2388">birthDate</text><rect fill="none" height="5.4" style="stroke:#C82930;stroke-width:0.9;" width="5.4" x="547.2" y="459.0141"/><text fill="#000000" font-family="sans-serif" font-size="9.9" lengthAdjust="spacing" textLength="72.9" x="558" y="465.6911">SNSUserNumber</text><rect fill="none" height="5.4" style="stroke:#C82930;stroke-width:0.9;" width="5.4" x="547.2" y="471.4664"/><text fill="#000000" font-family="sans-serif" font-size="9.9" lengthAdjust="spacing" textLength="81.9" x="558" y="478.1435">citizenCardNumber</text><line style="stroke:#A80036;stroke-width:1.35;" x1="540.9" x2="1001.7" y1="483.9188" y2="483.9188"/><ellipse cx="549.9" cy="493.8188" fill="#84BE84" rx="2.7" ry="2.7" style="stroke:#038048;stroke-width:0.9;"/><text fill="#000000" font-family="sans-serif" font-size="9.9" lengthAdjust="spacing" textLength="439.2" x="558" y="497.7958">create(name, address, sex, phone number, e-mail, birth date, SNS User number, citizen card number)</text><ellipse cx="549.9" cy="506.2711" fill="#84BE84" rx="2.7" ry="2.7" style="stroke:#038048;stroke-width:0.9;"/><text fill="#000000" font-family="sans-serif" font-size="9.9" lengthAdjust="spacing" textLength="45" x="558" y="510.2481">getName()</text><ellipse cx="549.9" cy="518.7234" fill="#84BE84" rx="2.7" ry="2.7" style="stroke:#038048;stroke-width:0.9;"/><text fill="#000000" font-family="sans-serif" font-size="9.9" lengthAdjust="spacing" textLength="42.3" x="558" y="522.7005">getEmail()</text><!--MD5=[8ae808d068a8995f06b9b3ec51357f0b]
class AuthFacade--><rect codeLine="34" fill="#FEFECE" filter="url(#f1pao0qo9zzvkr)" height="55.6523" id="AuthFacade" style="stroke:#A80036;stroke-width:1.35;" width="242.1" x="35.55" y="582.3"/><ellipse cx="123.525" cy="596.7" fill="#ADD1B2" rx="9.9" ry="9.9" style="stroke:#A80036;stroke-width:0.9;"/><path d="M125.325,593.55 Q125.5078,593.1 125.7188,592.875 Q125.9297,592.65 126.1688,592.65 Q126.5906,592.65 126.8578,592.9031 Q127.125,593.1563 127.125,593.7469 L127.125,595.1531 Q127.125,595.7438 126.8719,595.9969 Q126.6188,596.25 126.225,596.25 Q125.8734,596.25 125.6484,596.0953 Q125.4234,595.9406 125.325,595.5328 Q125.2828,595.2516 125.1281,595.0969 Q124.8469,594.8016 124.3406,594.6328 Q123.8344,594.45 123.3281,594.45 Q122.6953,594.45 122.1609,594.7031 Q121.6406,594.9563 121.2328,595.5188 Q120.825,596.0813 120.825,596.8547 L120.825,597.6844 Q120.825,598.6125 121.5844,599.2313 Q122.3438,599.85 123.6938,599.85 Q124.4953,599.85 125.0578,599.6672 Q125.3813,599.5688 125.7469,599.2453 Q125.9859,599.0625 126.1125,599.0063 Q126.2391,598.95 126.3938,598.95 Q126.6891,598.95 126.9,599.1891 Q127.125,599.4141 127.125,599.7375 Q127.125,600.0469 126.8156,600.4125 Q126.3656,600.9469 125.6484,601.2422 Q124.7063,601.65 123.5531,601.65 Q122.2031,601.65 121.1203,601.1156 Q120.2484,600.6938 119.6297,599.7797 Q119.025,598.8656 119.025,597.7828 L119.025,596.7984 Q119.025,595.6734 119.5594,594.6891 Q120.1078,593.7047 121.05,593.1844 Q122.0063,592.65 123.075,592.65 Q123.7219,592.65 124.2844,592.875 Q124.8469,593.1 125.325,593.55 Z " fill="#000000"/><text fill="#000000" font-family="sans-serif" font-size="10.8" lengthAdjust="spacing" textLength="58.5" x="141.975" y="601.1191">AuthFacade</text><line style="stroke:#A80036;stroke-width:1.35;" x1="36.45" x2="276.75" y1="611.1" y2="611.1"/><line style="stroke:#A80036;stroke-width:1.35;" x1="36.45" x2="276.75" y1="618.3" y2="618.3"/><ellipse cx="45.45" cy="628.2" fill="#84BE84" rx="2.7" ry="2.7" style="stroke:#038048;stroke-width:0.9;"/><text fill="#000000" font-family="sans-serif" font-size="9.9" lengthAdjust="spacing" textLength="218.7" x="53.55" y="632.1771">addUserWithRole(name, email, pwd, "SNS_USER")</text><!--MD5=[9c6939c8e2c89225f8e2f7f3c317ffce]
class PwdGenerator--><rect codeLine="37" fill="#FEFECE" filter="url(#f1pao0qo9zzvkr)" height="55.6523" id="PwdGenerator" style="stroke:#A80036;stroke-width:1.35;" width="99.9" x="309.15" y="582.3"/><ellipse cx="322.65" cy="596.7" fill="#ADD1B2" rx="9.9" ry="9.9" style="stroke:#A80036;stroke-width:0.9;"/><path d="M324.45,593.55 Q324.6328,593.1 324.8438,592.875 Q325.0547,592.65 325.2938,592.65 Q325.7156,592.65 325.9828,592.9031 Q326.25,593.1563 326.25,593.7469 L326.25,595.1531 Q326.25,595.7438 325.9969,595.9969 Q325.7438,596.25 325.35,596.25 Q324.9984,596.25 324.7734,596.0953 Q324.5484,595.9406 324.45,595.5328 Q324.4078,595.2516 324.2531,595.0969 Q323.9719,594.8016 323.4656,594.6328 Q322.9594,594.45 322.4531,594.45 Q321.8203,594.45 321.2859,594.7031 Q320.7656,594.9563 320.3578,595.5188 Q319.95,596.0813 319.95,596.8547 L319.95,597.6844 Q319.95,598.6125 320.7094,599.2313 Q321.4688,599.85 322.8188,599.85 Q323.6203,599.85 324.1828,599.6672 Q324.5063,599.5688 324.8719,599.2453 Q325.1109,599.0625 325.2375,599.0063 Q325.3641,598.95 325.5188,598.95 Q325.8141,598.95 326.025,599.1891 Q326.25,599.4141 326.25,599.7375 Q326.25,600.0469 325.9406,600.4125 Q325.4906,600.9469 324.7734,601.2422 Q323.8313,601.65 322.6781,601.65 Q321.3281,601.65 320.2453,601.1156 Q319.3734,600.6938 318.7547,599.7797 Q318.15,598.8656 318.15,597.7828 L318.15,596.7984 Q318.15,595.6734 318.6844,594.6891 Q319.2328,593.7047 320.175,593.1844 Q321.1313,592.65 322.2,592.65 Q322.8469,592.65 323.4094,592.875 Q323.9719,593.1 324.45,593.55 Z " fill="#000000"/><text fill="#000000" font-family="sans-serif" font-size="10.8" lengthAdjust="spacing" textLength="71.1" x="335.25" y="601.1191">PwdGenerator</text><line style="stroke:#A80036;stroke-width:1.35;" x1="310.05" x2="408.15" y1="611.1" y2="611.1"/><line style="stroke:#A80036;stroke-width:1.35;" x1="310.05" x2="408.15" y1="618.3" y2="618.3"/><ellipse cx="319.05" cy="628.2" fill="#84BE84" rx="2.7" ry="2.7" style="stroke:#038048;stroke-width:0.9;"/><text fill="#000000" font-family="sans-serif" font-size="9.9" lengthAdjust="spacing" textLength="65.7" x="327.15" y="632.1771">generatePwd()</text><!--MD5=[f950ff3dcc691b1d54d9b62137f6f734]
link RegisterNewSNSUserUI to RegisterNewSNSUserController--><path codeLine="42" d="M257.4,49.626 C257.4,63.522 257.4,82.197 257.4,98.703 " fill="none" id="RegisterNewSNSUserUI-to-RegisterNewSNSUserController" style="stroke:#A80036;stroke-width:0.9;stroke-dasharray:7.0,7.0;"/><polygon fill="#A80036" points="257.4,103.293,261,95.193,257.4,98.793,253.8,95.193,257.4,103.293" style="stroke:#A80036;stroke-width:0.9;"/><!--MD5=[a6d31702f049763ac1b1d834b9a34bb7]
link RegisterNewSNSUserController to Company--><path codeLine="43" d="M271.692,172.197 C278.19,187.479 285.921,205.641 292.626,221.409 " fill="none" id="RegisterNewSNSUserController-to-Company" style="stroke:#A80036;stroke-width:0.9;stroke-dasharray:7.0,7.0;"/><polygon fill="#A80036" points="294.489,225.783,294.6305,216.9202,292.7272,221.6422,288.0052,219.739,294.489,225.783" style="stroke:#A80036;stroke-width:0.9;"/><!--MD5=[de925a5d477511859d38216ef4f90bf5]
link RegisterNewSNSUserController to SNSUserStore--><path codeLine="44" d="M248.868,171.936 C245.151,188.109 241.236,207.891 239.4,225.9 C233.793,280.908 240.939,344.079 247.815,386.955 " fill="none" id="RegisterNewSNSUserController-to-SNSUserStore" style="stroke:#A80036;stroke-width:0.9;stroke-dasharray:7.0,7.0;"/><polygon fill="#A80036" points="248.571,391.563,250.8065,382.9855,247.8395,387.1228,243.7022,384.1559,248.571,391.563" style="stroke:#A80036;stroke-width:0.9;"/><!--MD5=[1bd9080c7e199931e49bc5a1616681ac]
link Company to SNSUserStore--><path codeLine="45" d="M298.926,294.597 C291.285,320.895 280.53,357.867 271.881,387.603 " fill="none" id="Company-to-SNSUserStore" style="stroke:#A80036;stroke-width:0.9;"/><polygon fill="#A80036" points="270.621,391.932,276.345,385.164,271.881,387.612,269.433,383.148,270.621,391.932" style="stroke:#A80036;stroke-width:0.9;"/><!--MD5=[b01d27099955aced792f1ce85db49798]
link SNSUserStore to SNSUser--><path codeLine="46" d="M508.581,438.3 C517.464,438.3 526.347,438.3 535.23,438.3 " fill="none" id="SNSUserStore-to-SNSUser" style="stroke:#A80036;stroke-width:0.9;"/><polygon fill="#A80036" points="539.883,438.3,531.783,434.7,535.383,438.3,531.783,441.9,539.883,438.3" style="stroke:#A80036;stroke-width:0.9;"/><!--MD5=[bc3349464b4fa8eddccb337858e655b4]
link SNSUserStore to AuthFacade--><path codeLine="47" d="M230.391,484.785 C212.895,514.305 190.575,551.97 175.086,578.106 " fill="none" id="SNSUserStore-to-AuthFacade" style="stroke:#A80036;stroke-width:0.9;stroke-dasharray:7.0,7.0;"/><polygon fill="#A80036" points="172.656,582.201,179.8778,577.0613,174.9466,578.3276,173.6803,573.3964,172.656,582.201" style="stroke:#A80036;stroke-width:0.9;"/><!--MD5=[e1f3a2d9e30f9559e64785294db5762b]
link SNSUserStore to PwdGenerator--><path codeLine="48" d="M284.652,484.785 C302.301,514.305 324.819,551.97 340.452,578.106 " fill="none" id="SNSUserStore-to-PwdGenerator" style="stroke:#A80036;stroke-width:0.9;stroke-dasharray:7.0,7.0;"/><polygon fill="#A80036" points="342.9,582.201,341.8196,573.4031,340.5848,578.3423,335.6456,577.1075,342.9,582.201" style="stroke:#A80036;stroke-width:0.9;"/><!--MD5=[9fcdd5556f75307951b913a70a406da5]
@startuml

class RegisterNewSNSUserUI {

}
class RegisterNewSNSUserController{
+ createSNSUser(name, address, sex, phone number, e-mail, birth date, SNS User number, citizen card number)
+ saveSNSUser()
}
class Company{
- designation
+ getSNSUserStore()
}

class SNSUserStore{
+ createSNSUser(name, address, sex, phone number, e-mail, birth date, SNS User number, citizen card number)
+ validateSNSUser(user)
+ saveSNSUser()
+ addSNSUser(user)
}

class SNSUser{
- name
- address
- sex
- phoneNumber
- email
- birthDate
- SNSUserNumber
- citizenCardNumber
+ create(name, address, sex, phone number, e-mail, birth date, SNS User number, citizen card number)
+ getName()
+ getEmail()
}
class AuthFacade {
+ addUserWithRole(name, email, pwd, "SNS_USER")
}
class PwdGenerator{
+ generatePwd()
}


RegisterNewSNSUserUI ..> RegisterNewSNSUserController
RegisterNewSNSUserController  ..> Company
RegisterNewSNSUserController ..> SNSUserStore
Company - -> SNSUserStore
SNSUserStore -right-> SNSUser
SNSUserStore ..> AuthFacade
SNSUserStore ..> PwdGenerator

@enduml

PlantUML version 1.2022.1(Tue Feb 01 18:19:58 GMT 2022)
(GPL source distribution)
Java Runtime: OpenJDK Runtime Environment
JVM: OpenJDK 64-Bit Server VM
Default Encoding: Cp1252
Language: pt
Country: PT
--></g></svg>