<?xml version="1.0" encoding="UTF-8" standalone="no"?><svg xmlns="http://www.w3.org/2000/svg" xmlns:xlink="http://www.w3.org/1999/xlink" contentStyleType="text/css" height="1642px" preserveAspectRatio="none" style="width:664px;height:1642px;background:#FFFFFF;" version="1.1" viewBox="0 0 664 1642" width="664px" zoomAndPan="magnify"><defs/><g><!--MD5=[8fc3522a43f8c7199df5e09e5bb0188e]
entity user--><g id="elem_user"><ellipse cx="67" cy="1306.5" fill="#F1F1F1" rx="8" ry="8" style="stroke:#181818;stroke-width:0.5;"/><path d="M67,1314.5 L67,1341.5 M54,1322.5 L80,1322.5 M67,1341.5 L54,1356.5 M67,1341.5 L80,1356.5 " fill="none" style="stroke:#181818;stroke-width:0.5;"/><text fill="#000000" font-family="sans-serif" font-size="14" lengthAdjust="spacing" textLength="60" x="37" y="1372.5332">SNS User</text></g><!--MD5=[87d66015e0fe95d70bf3fa68103252e8]
entity nurse--><g id="elem_nurse"><ellipse cx="67" cy="1036.5" fill="#F1F1F1" rx="8" ry="8" style="stroke:#181818;stroke-width:0.5;"/><path d="M67,1044.5 L67,1071.5 M54,1052.5 L80,1052.5 M67,1071.5 L54,1086.5 M67,1071.5 L80,1086.5 " fill="none" style="stroke:#181818;stroke-width:0.5;"/><text fill="#000000" font-family="sans-serif" font-size="14" lengthAdjust="spacing" textLength="37" x="48.5" y="1102.5332">Nurse</text></g><!--MD5=[0418aaadd4ad327489187e2a2eef2d9f]
entity re--><g id="elem_re"><ellipse cx="67" cy="1473.5" fill="#F1F1F1" rx="8" ry="8" style="stroke:#181818;stroke-width:0.5;"/><path d="M67,1481.5 L67,1508.5 M54,1489.5 L80,1489.5 M67,1508.5 L54,1523.5 M67,1508.5 L80,1523.5 " fill="none" style="stroke:#181818;stroke-width:0.5;"/><text fill="#000000" font-family="sans-serif" font-size="14" lengthAdjust="spacing" textLength="78" x="28" y="1539.5332">Receptionist</text></g><!--MD5=[9877f6724d1a276f2a95363da75a191d]
entity adm--><g id="elem_adm"><ellipse cx="67" cy="642.5" fill="#F1F1F1" rx="8" ry="8" style="stroke:#181818;stroke-width:0.5;"/><path d="M67,650.5 L67,677.5 M54,658.5 L80,658.5 M67,677.5 L54,692.5 M67,677.5 L80,692.5 " fill="none" style="stroke:#181818;stroke-width:0.5;"/><text fill="#000000" font-family="sans-serif" font-size="14" lengthAdjust="spacing" textLength="83" x="25.5" y="708.5332">Administrator</text></g><!--MD5=[db956f40f2dc50163091c98812b3e6f0]
entity cc--><g id="elem_cc"><ellipse cx="67" cy="232.5" fill="#F1F1F1" rx="8" ry="8" style="stroke:#181818;stroke-width:0.5;"/><path d="M67,240.5 L67,267.5 M54,248.5 L80,248.5 M67,267.5 L54,282.5 M67,267.5 L80,282.5 " fill="none" style="stroke:#181818;stroke-width:0.5;"/><text fill="#000000" font-family="sans-serif" font-size="14" lengthAdjust="spacing" textLength="122" x="6" y="298.5332">Center Coordinator</text></g><!--MD5=[a3461900a36ccd3e4d3db0b2b1dee3b1]
entity tim--><g id="elem_tim"><ellipse cx="67" cy="14" fill="#F1F1F1" rx="8" ry="8" style="stroke:#181818;stroke-width:0.5;"/><path d="M67,22 L67,49 M54,30 L80,30 M67,49 L54,64 M67,49 L80,64 " fill="none" style="stroke:#181818;stroke-width:0.5;"/><text fill="#000000" font-family="sans-serif" font-size="14" lengthAdjust="spacing" textLength="77" x="28.5" y="80.0332">«automatic»</text><text fill="#000000" font-family="sans-serif" font-size="14" lengthAdjust="spacing" textLength="75" x="28.5" y="97.6426">Timer/Clock</text></g><g id="elem_UC1"><ellipse cx="423.1476" cy="1387.8295" fill="#F1F1F1" rx="142.1476" ry="30.8295" style="stroke:#181818;stroke-width:0.5;"/><text fill="#000000" font-family="sans-serif" font-size="14" lengthAdjust="spacing" textLength="252" x="297.1476" y="1391.558">US 001/002 - Schedules the vaccination</text></g><g id="elem_UC3"><ellipse cx="422.9281" cy="1284.7856" fill="#F1F1F1" rx="169.4281" ry="36.2856" style="stroke:#181818;stroke-width:0.5;"/><text fill="#000000" font-family="sans-serif" font-size="14" lengthAdjust="spacing" textLength="309" x="268.4281" y="1288.5141">US ??? - Request the EU Covid Digital Certificate</text></g><g id="elem_UC4"><ellipse cx="422.8863" cy="952.9773" fill="#F1F1F1" rx="137.8863" ry="29.9773" style="stroke:#181818;stroke-width:0.5;"/><text fill="#000000" font-family="sans-serif" font-size="14" lengthAdjust="spacing" textLength="243" x="301.3863" y="956.7058">US ??? - Deliver vaccination certificate</text></g><g id="elem_UC5"><ellipse cx="422.8229" cy="1066.7646" fill="#F1F1F1" rx="229.3229" ry="48.2646" style="stroke:#181818;stroke-width:0.5;"/><text fill="#000000" font-family="sans-serif" font-size="14" lengthAdjust="spacing" textLength="432" x="206.8229" y="1070.4931">US 005 - Consult the users in the waiting room of a vacination center</text></g><g id="elem_UC6"><ellipse cx="423.0463" cy="1182.2093" fill="#F1F1F1" rx="144.0463" ry="31.2093" style="stroke:#181818;stroke-width:0.5;"/><text fill="#000000" font-family="sans-serif" font-size="14" lengthAdjust="spacing" textLength="256" x="295.0463" y="1185.9378">US 008 - Register vaccine administration</text></g><g id="elem_UC7"><ellipse cx="423.2112" cy="1503.9422" fill="#F1F1F1" rx="235.2112" ry="49.4422" style="stroke:#181818;stroke-width:0.5;"/><text fill="#000000" font-family="sans-serif" font-size="14" lengthAdjust="spacing" textLength="444" x="201.2112" y="1507.6708">US 004 - I want to register the arrival of a SNS user to take the vaccine</text></g><g id="elem_UC9"><ellipse cx="423.1523" cy="152.1305" fill="#F1F1F1" rx="193.6523" ry="41.1305" style="stroke:#181818;stroke-width:0.5;"/><text fill="#000000" font-family="sans-serif" font-size="14" lengthAdjust="spacing" textLength="359" x="243.6523" y="155.859">US 015 - Export number of fully vaccinated users per day</text></g><g id="elem_UC10"><ellipse cx="422.7982" cy="1612.7596" fill="#F1F1F1" rx="106.7982" ry="23.7596" style="stroke:#181818;stroke-width:0.5;"/><text fill="#000000" font-family="sans-serif" font-size="14" lengthAdjust="spacing" textLength="176" x="334.7982" y="1616.4882">US 003 - Register SNS User</text></g><g id="elem_UC11"><ellipse cx="422.9447" cy="463.1889" fill="#F1F1F1" rx="128.9447" ry="28.1889" style="stroke:#181818;stroke-width:0.5;"/><text fill="#000000" font-family="sans-serif" font-size="14" lengthAdjust="spacing" textLength="224" x="310.9447" y="466.9175">US 012 - Specify new Vaccine Type</text></g><g id="elem_UC12"><ellipse cx="422.8351" cy="570.067" fill="#F1F1F1" rx="205.8351" ry="43.567" style="stroke:#181818;stroke-width:0.5;"/><text fill="#000000" font-family="sans-serif" font-size="14" lengthAdjust="spacing" textLength="380" x="230.8351" y="573.7955">US 013 - Specify new Vaccine and its administration process</text></g><g id="elem_UC13"><ellipse cx="422.934" cy="672.9868" fill="#F1F1F1" rx="110.434" ry="24.4868" style="stroke:#181818;stroke-width:0.5;"/><text fill="#000000" font-family="sans-serif" font-size="14" lengthAdjust="spacing" textLength="184" x="330.934" y="676.7153">US 010 - Register employees</text></g><g id="elem_UC14"><ellipse cx="423.2297" cy="761.8459" fill="#F1F1F1" rx="132.2297" ry="28.8459" style="stroke:#181818;stroke-width:0.5;"/><text fill="#000000" font-family="sans-serif" font-size="14" lengthAdjust="spacing" textLength="231" x="307.7297" y="765.5745">US 009 - Register vaccination center</text></g><g id="elem_UC15"><ellipse cx="423.0583" cy="52.9117" fill="#F1F1F1" rx="100.0583" ry="22.4117" style="stroke:#181818;stroke-width:0.5;"/><text fill="#000000" font-family="sans-serif" font-size="14" lengthAdjust="spacing" textLength="161" x="342.5583" y="56.6402">US 006 - Generate report</text></g><g id="elem_UC16"><ellipse cx="423.0714" cy="857.1143" fill="#F1F1F1" rx="143.5714" ry="31.1143" style="stroke:#181818;stroke-width:0.5;"/><text fill="#000000" font-family="sans-serif" font-size="14" lengthAdjust="spacing" textLength="255" x="295.5714" y="860.8428">US 014 - Load set of users from CSV file</text></g><g id="elem_UC17"><ellipse cx="422.8268" cy="262.7654" fill="#F1F1F1" rx="159.3268" ry="34.2654" style="stroke:#181818;stroke-width:0.5;"/><text fill="#000000" font-family="sans-serif" font-size="14" lengthAdjust="spacing" textLength="288" x="278.8268" y="266.4939">US 016 - Analyze the performance of a center</text></g><g id="elem_UC18"><ellipse cx="423.0142" cy="365.9028" fill="#F1F1F1" rx="155.0142" ry="33.4028" style="stroke:#181818;stroke-width:0.5;"/><text fill="#000000" font-family="sans-serif" font-size="14" lengthAdjust="spacing" textLength="279" x="283.5142" y="369.6314">US 017 - Import and sort legacy system data</text></g><!--MD5=[e71913910ae60f5842a843a20d6ecd39]
link user to UC1--><g id="link_user_UC1"><path d="M97.27,1341.22 C141.19,1347.54 226.7,1359.86 298.95,1370.27 " fill="none" id="user-to-UC1" style="stroke:#181818;stroke-width:1.0;"/><polygon fill="#181818" points="304.13,1371.02,295.7925,1365.7773,299.1811,1370.3069,294.6515,1373.6955,304.13,1371.02" style="stroke:#181818;stroke-width:1.0;"/></g><!--MD5=[17d4c6462e07b4f1b5dbb0e87d08d5e6]
link user to UC3--><g id="link_user_UC3"><path d="M97.27,1332.7 C136.82,1326.89 210.11,1316.12 277.07,1306.29 " fill="none" id="user-to-UC3" style="stroke:#181818;stroke-width:1.0;"/><polygon fill="#181818" points="282.29,1305.52,272.8104,1302.8483,277.3414,1306.2351,273.9546,1310.7661,282.29,1305.52" style="stroke:#181818;stroke-width:1.0;"/></g><!--MD5=[2e13f11524f46488bfe6ddb0138c4ecb]
link nurse to UC4--><g id="link_nurse_UC4"><path d="M85.88,1054.91 C108.64,1040.06 149.62,1015.12 188,1001 C224.22,987.67 265.04,977.69 302.32,970.38 " fill="none" id="nurse-to-UC4" style="stroke:#181818;stroke-width:1.0;"/><polygon fill="#181818" points="307.31,969.42,297.7101,967.2196,302.4027,970.3786,299.2438,975.0712,307.31,969.42" style="stroke:#181818;stroke-width:1.0;"/></g><!--MD5=[d68d844c84c5b9178d019b496cb916a6]
link nurse to UC5--><g id="link_nurse_UC5"><path d="M85.55,1067 C106.71,1067 144.85,1067 188.06,1067 " fill="none" id="nurse-to-UC5" style="stroke:#181818;stroke-width:1.0;"/><polygon fill="#181818" points="193.08,1067,184.08,1063,188.08,1067,184.08,1071,193.08,1067" style="stroke:#181818;stroke-width:1.0;"/></g><!--MD5=[0bd5187a991de09ca303be6f0594955f]
link nurse to UC6--><g id="link_nurse_UC6"><path d="M85.89,1079.07 C108.66,1093.89 149.65,1118.8 188,1133 C223.15,1146.02 262.62,1155.95 298.99,1163.35 " fill="none" id="nurse-to-UC6" style="stroke:#0000FF;stroke-width:1.0;"/><polygon fill="#0000FF" points="304.33,1164.42,296.2956,1158.7236,299.4282,1163.4339,294.7179,1166.5665,304.33,1164.42" style="stroke:#0000FF;stroke-width:1.0;"/></g><!--MD5=[e30609e643ecc4d65ea699cde770bfae]
link re to UC7--><g id="link_re_UC7"><path d="M106.22,1504 C126.5,1504 153.3,1504 182.72,1504 " fill="none" id="re-to-UC7" style="stroke:#181818;stroke-width:1.0;"/><polygon fill="#181818" points="187.86,1504,178.86,1500,182.86,1504,178.86,1508,187.86,1504" style="stroke:#181818;stroke-width:1.0;"/></g><!--MD5=[8fcb6dda9ab652cbe67b89584388f9f9]
link cc to UC9--><g id="link_cc_UC9"><path d="M128.3,234.6 C147.16,226.34 168.22,217.73 188,211 C218.59,200.59 251.99,191.1 283.72,182.92 " fill="none" id="cc-to-UC9" style="stroke:#0000FF;stroke-width:1.0;"/><polygon fill="#0000FF" points="288.8,181.62,279.0882,179.9828,283.9569,182.8629,281.0768,187.7317,288.8,181.62" style="stroke:#0000FF;stroke-width:1.0;"/></g><!--MD5=[5aa332916ff096385f51bd2150cf4c5a]
link cc to UC17--><g id="link_cc_UC17"><path d="M128.05,263 C164.02,263 211.66,263 258.09,263 " fill="none" id="cc-to-UC17" style="stroke:#0000FF;stroke-width:1.0;"/><polygon fill="#0000FF" points="263.16,263,254.16,259,258.16,263,254.16,267,263.16,263" style="stroke:#0000FF;stroke-width:1.0;"/></g><!--MD5=[7e9147154eb40551087f82803b6bcb6e]
link cc to UC18--><g id="link_cc_UC18"><path d="M128.17,291.79 C147.03,300.08 168.12,308.59 188,315 C223.08,326.3 261.92,335.9 297.71,343.6 " fill="none" id="cc-to-UC18" style="stroke:#0000FF;stroke-width:1.0;"/><polygon fill="#0000FF" points="302.97,344.73,295.0195,338.9171,298.0831,343.6726,293.3276,346.7362,302.97,344.73" style="stroke:#0000FF;stroke-width:1.0;"/></g><!--MD5=[80be5fd46ed95aef3ed89b5575c23c67]
link re to UC10--><g id="link_re_UC10"><path d="M106.16,1529.62 C129.01,1543.84 159.13,1560.68 188,1571 C230.2,1586.09 278.7,1595.94 320.57,1602.27 " fill="none" id="re-to-UC10" style="stroke:#181818;stroke-width:1.0;"/><polygon fill="#181818" points="325.64,1603.03,317.3344,1597.7368,320.6955,1602.2869,316.1455,1605.648,325.64,1603.03" style="stroke:#181818;stroke-width:1.0;"/></g><!--MD5=[8c43215468f47a1c3ef5300886655bb4]
link adm to UC11--><g id="link_adm_UC11"><path d="M85.88,633.89 C105.4,595.79 140.37,539.3 188,509 C219.05,489.25 256.74,477.67 292.73,470.96 " fill="none" id="adm-to-UC11" style="stroke:#181818;stroke-width:1.0;"/><polygon fill="#181818" points="298.02,470.01,288.4544,467.665,293.0988,470.8944,289.8694,475.5388,298.02,470.01" style="stroke:#181818;stroke-width:1.0;"/></g><!--MD5=[4ee938cc57162c8d201b01a17c10995f]
link adm to UC12--><g id="link_adm_UC12"><path d="M108.55,657.88 C131.68,649.49 161.29,639.14 188,631 C218.59,621.68 251.7,612.5 283.11,604.21 " fill="none" id="adm-to-UC12" style="stroke:#181818;stroke-width:1.0;"/><polygon fill="#181818" points="288.14,602.89,278.4138,601.3404,283.3084,604.1765,280.4723,609.0711,288.14,602.89" style="stroke:#181818;stroke-width:1.0;"/></g><!--MD5=[ecd2b408d1f758b111c4a568090cb321]
link adm to UC13--><g id="link_adm_UC13"><path d="M108.61,673 C156.66,673 238.75,673 306.86,673 " fill="none" id="adm-to-UC13" style="stroke:#181818;stroke-width:1.0;"/><polygon fill="#181818" points="312.16,673,303.16,669,307.16,673,303.16,677,312.16,673" style="stroke:#181818;stroke-width:1.0;"/></g><!--MD5=[b4cdefa56c0066d4b2abda10026d6614]
link adm to UC14--><g id="link_adm_UC14"><path d="M108.66,688.81 C131.69,697.36 161.18,707.65 188,715 C228.35,726.06 273.27,735.7 312.88,743.33 " fill="none" id="adm-to-UC14" style="stroke:#181818;stroke-width:1.0;"/><polygon fill="#181818" points="318.18,744.35,310.0979,738.7215,313.2701,743.4052,308.5863,746.5774,318.18,744.35" style="stroke:#181818;stroke-width:1.0;"/></g><!--MD5=[3c860890beeb1bd27534f2be35592805]
link tim to UC15--><g id="link_tim_UC15"><path d="M109.65,53 C160.42,53 248.03,53 317.57,53 " fill="none" id="tim-to-UC15" style="stroke:#0000FF;stroke-width:1.0;"/><polygon fill="#0000FF" points="322.97,53,313.97,49,317.97,53,313.97,57,322.97,53" style="stroke:#0000FF;stroke-width:1.0;"/></g><!--MD5=[76b15942b960691ae8cb1a69c633c79b]
link adm to UC16--><g id="link_adm_UC16"><path d="M92.09,712.09 C113.41,743.27 147.4,785.48 188,809 C217.33,825.99 251.78,837.02 285.1,844.17 " fill="none" id="adm-to-UC16" style="stroke:#181818;stroke-width:1.0;"/><polygon fill="#181818" points="290,845.2,282.0137,839.4364,285.1066,844.1728,280.3702,847.2658,290,845.2" style="stroke:#181818;stroke-width:1.0;"/></g><!--MD5=[42a73f84f01d51fc733ec073e2fe629f]
link re to UC1--><g id="link_re_UC1"><path d="M106.01,1478.85 C128.92,1464.71 159.17,1447.78 188,1437 C223.44,1423.75 263.31,1413.72 299.96,1406.3 " fill="none" id="re-to-UC1" style="stroke:#181818;stroke-width:1.0;"/><polygon fill="#181818" points="304.88,1405.32,295.2691,1403.1681,299.9776,1406.3033,296.8424,1411.0119,304.88,1405.32" style="stroke:#181818;stroke-width:1.0;"/></g><!--MD5=[3361651e01b4da07c0bf335eff0502c3]
@startuml
'https://plantuml.com/use-case-diagram


left to right direction
actor "SNS User" as user
actor "Nurse" as nurse
actor "Receptionist" as re
actor "Administrator" as adm
actor "Center Coordinator" as cc
actor " «automatic» \n Timer/Clock" as tim

usecase "US 001/002 - Schedules the vaccination" as UC1
usecase "US ??? - Request the EU Covid Digital Certificate" as UC3
usecase "US ??? - Deliver vaccination certificate" as UC4
usecase "US 005 - Consult the users in the waiting room of a vacination center" as UC5
usecase "US 008 - Register vaccine administration" as UC6
usecase "US 004 - I want to register the arrival of a SNS user to take the vaccine" as UC7
usecase "US 015 - Export number of fully vaccinated users per day" as UC9
usecase "US 003 - Register SNS User" as UC10
usecase "US 012 - Specify new Vaccine Type" as UC11
usecase "US 013 - Specify new Vaccine and its administration process " as UC12
usecase "US 010 - Register employees" as UC13
usecase "US 009 - Register vaccination center" as UC14
usecase "US 006 - Generate report" as UC15
usecase "US 014 - Load set of users from CSV file" as UC16
usecase "US 016 - Analyze the performance of a center" as UC17
usecase "US 017 - Import and sort legacy system data" as UC18

user - -> UC1
user - -> UC3
nurse - -> UC4
nurse - -> UC5
nurse -[#0000FF]-> UC6
re - -> UC7
cc -[#0000FF]-> UC9
cc -[#0000FF]-> UC17
cc -[#0000FF]-> UC18
re - -> UC10
adm - -> UC11
adm - -> UC12
adm - -> UC13
adm - -> UC14
tim -[#0000FF]-> UC15
adm - -> UC16
re - -> UC1



@enduml

@startuml


left to right direction
actor "SNS User" as user
actor "Nurse" as nurse
actor "Receptionist" as re
actor "Administrator" as adm
actor "Center Coordinator" as cc
actor " «automatic» \n Timer/Clock" as tim

usecase "US 001/002 - Schedules the vaccination" as UC1
usecase "US ??? - Request the EU Covid Digital Certificate" as UC3
usecase "US ??? - Deliver vaccination certificate" as UC4
usecase "US 005 - Consult the users in the waiting room of a vacination center" as UC5
usecase "US 008 - Register vaccine administration" as UC6
usecase "US 004 - I want to register the arrival of a SNS user to take the vaccine" as UC7
usecase "US 015 - Export number of fully vaccinated users per day" as UC9
usecase "US 003 - Register SNS User" as UC10
usecase "US 012 - Specify new Vaccine Type" as UC11
usecase "US 013 - Specify new Vaccine and its administration process " as UC12
usecase "US 010 - Register employees" as UC13
usecase "US 009 - Register vaccination center" as UC14
usecase "US 006 - Generate report" as UC15
usecase "US 014 - Load set of users from CSV file" as UC16
usecase "US 016 - Analyze the performance of a center" as UC17
usecase "US 017 - Import and sort legacy system data" as UC18

user - -> UC1
user - -> UC3
nurse - -> UC4
nurse - -> UC5
nurse -[#0000FF]-> UC6
re - -> UC7
cc -[#0000FF]-> UC9
cc -[#0000FF]-> UC17
cc -[#0000FF]-> UC18
re - -> UC10
adm - -> UC11
adm - -> UC12
adm - -> UC13
adm - -> UC14
tim -[#0000FF]-> UC15
adm - -> UC16
re - -> UC1



@enduml

PlantUML version 1.2022.4(Sat Apr 09 14:29:17 BST 2022)
(GPL source distribution)
Java Runtime: OpenJDK Runtime Environment
JVM: OpenJDK 64-Bit Server VM
Default Encoding: Cp1252
Language: pt
Country: PT
--></g></svg>