<?xml version="1.0" encoding="UTF-8" standalone="no"?><svg xmlns="http://www.w3.org/2000/svg" xmlns:xlink="http://www.w3.org/1999/xlink" contentStyleType="text/css" height="813.6px" preserveAspectRatio="none" style="width:1684px;height:813px;background:#FFFFFF;" version="1.1" viewBox="0 0 1684 813" width="1684.8px" zoomAndPan="magnify"><defs/><g><rect fill="#FFFFFF" height="736.8715" style="stroke:#181818;stroke-width:0.6;" width="6" x="273" y="40.6793"/><rect fill="#FFFFFF" height="719.2852" style="stroke:#181818;stroke-width:0.6;" width="6" x="641.4" y="58.2656"/><rect fill="#FFFFFF" height="16.8" style="stroke:#181818;stroke-width:0.6;" width="6" x="644.4" y="80.652"/><rect fill="#FFFFFF" height="16.8" style="stroke:#181818;stroke-width:0.6;" width="6" x="644.4" y="124.0383"/><rect fill="#FFFFFF" height="334.8223" style="stroke:#181818;stroke-width:0.6;" width="6" x="644.4" y="167.4246"/><rect fill="#FFFFFF" height="16.8" style="stroke:#181818;stroke-width:0.6;" width="6" x="644.4" y="533.0332"/><rect fill="#FFFFFF" height="16.8" style="stroke:#181818;stroke-width:0.6;" width="6" x="644.4" y="717.3645"/><rect fill="#FFFFFF" height="16.8" style="stroke:#181818;stroke-width:0.6;" width="6" x="644.4" y="760.7508"/><rect fill="#FFFFFF" height="138.9316" style="stroke:#181818;stroke-width:0.6;" width="6" x="964.8" y="202.5973"/><rect fill="#FFFFFF" height="138.9316" style="stroke:#181818;stroke-width:0.6;" width="6" x="964.8" y="363.3152"/><rect fill="#FFFFFF" height="121.3453" style="stroke:#181818;stroke-width:0.6;" width="6" x="1285.2" y="220.1836"/><rect fill="#FFFFFF" height="121.3453" style="stroke:#181818;stroke-width:0.6;" width="6" x="1285.2" y="380.9016"/><rect fill="#FFFFFF" height="18" style="stroke:#181818;stroke-width:0.6;" width="6" x="1407.6" y="252.3563"/><rect fill="#FFFFFF" height="18" style="stroke:#181818;stroke-width:0.6;" width="6" x="1407.6" y="287.9426"/><rect fill="#FFFFFF" height="18" style="stroke:#181818;stroke-width:0.6;" width="6" x="1407.6" y="323.5289"/><rect fill="#FFFFFF" height="18" style="stroke:#181818;stroke-width:0.6;" width="6" x="1407.6" y="413.0742"/><rect fill="#FFFFFF" height="18" style="stroke:#181818;stroke-width:0.6;" width="6" x="1407.6" y="448.6605"/><rect fill="#FFFFFF" height="18" style="stroke:#181818;stroke-width:0.6;" width="6" x="1407.6" y="484.2469"/><rect fill="#FFFFFF" height="18" style="stroke:#181818;stroke-width:0.6;" width="6" x="1515.9" y="611.0988"/><rect fill="#FFFFFF" height="18" style="stroke:#181818;stroke-width:0.6;" width="6" x="1621.5" y="672.7781"/><rect height="331.8223" style="stroke:#000000;stroke-width:0.8999999999999999;fill:none;" width="869.7" x="605.7" y="179.4246"/><rect height="117.1453" style="stroke:#000000;stroke-width:0.8999999999999999;fill:none;" width="250.8" x="1218.6" y="229.1836"/><rect height="117.1453" style="stroke:#000000;stroke-width:0.8999999999999999;fill:none;" width="250.8" x="1218.6" y="389.9016"/><rect height="132.5449" style="stroke:#000000;stroke-width:0.8999999999999999;fill:none;" width="1074.9" x="605.7" y="563.0332"/><line style="stroke:#181818;stroke-width:0.3;fill:none;stroke-dasharray:5.0,5.0;" x1="275.7" x2="275.7" y1="21.893" y2="792.5508"/><line style="stroke:#181818;stroke-width:0.3;fill:none;stroke-dasharray:5.0,5.0;" x1="644.1" x2="644.1" y1="21.893" y2="792.5508"/><line style="stroke:#181818;stroke-width:0.3;fill:none;stroke-dasharray:5.0,5.0;" x1="967.5" x2="967.5" y1="21.893" y2="792.5508"/><line style="stroke:#181818;stroke-width:0.3;fill:none;stroke-dasharray:5.0,5.0;" x1="1288.2" x2="1288.2" y1="21.893" y2="792.5508"/><line style="stroke:#181818;stroke-width:0.3;fill:none;stroke-dasharray:5.0,5.0;" x1="1410.6" x2="1410.6" y1="21.893" y2="792.5508"/><line style="stroke:#181818;stroke-width:0.3;fill:none;stroke-dasharray:5.0,5.0;" x1="1518.6" x2="1518.6" y1="591.866" y2="792.5508"/><line style="stroke:#181818;stroke-width:0.3;fill:none;stroke-dasharray:5.0,5.0;" x1="1624.2" x2="1624.2" y1="653.5453" y2="792.5508"/><rect fill="#E2E2F0" height="18.293" rx="1.5" ry="1.5" style="stroke:#181818;stroke-width:0.3;" width="88.2" x="231.9" y="3"/><text fill="#000000" font-family="sans-serif" font-size="8.4" lengthAdjust="spacing" textLength="79.8" x="236.1" y="15.3211">: VaccinationCenter</text><rect fill="#E2E2F0" height="18.293" rx="1.5" ry="1.5" style="stroke:#181818;stroke-width:0.3;" width="88.2" x="231.9" y="791.9508"/><text fill="#000000" font-family="sans-serif" font-size="8.4" lengthAdjust="spacing" textLength="79.8" x="236.1" y="804.2719">: VaccinationCenter</text><rect fill="#E2E2F0" height="18.293" rx="1.5" ry="1.5" style="stroke:#181818;stroke-width:0.3;" width="65.4" x="611.7" y="3"/><text fill="#000000" font-family="sans-serif" font-size="8.4" lengthAdjust="spacing" textLength="57" x="615.9" y="15.3211">: Performance</text><rect fill="#E2E2F0" height="18.293" rx="1.5" ry="1.5" style="stroke:#181818;stroke-width:0.3;" width="65.4" x="611.7" y="791.9508"/><text fill="#000000" font-family="sans-serif" font-size="8.4" lengthAdjust="spacing" textLength="57" x="615.9" y="804.2719">: Performance</text><rect fill="#E2E2F0" height="18.293" rx="1.5" ry="1.5" style="stroke:#181818;stroke-width:0.3;" width="31.8" x="951.9" y="3"/><text fill="#000000" font-family="sans-serif" font-size="8.4" lengthAdjust="spacing" textLength="23.4" x="956.1" y="15.3211">: User</text><rect fill="#E2E2F0" height="18.293" rx="1.5" ry="1.5" style="stroke:#181818;stroke-width:0.3;" width="31.8" x="951.9" y="791.9508"/><text fill="#000000" font-family="sans-serif" font-size="8.4" lengthAdjust="spacing" textLength="23.4" x="956.1" y="804.2719">: User</text><rect fill="#E2E2F0" height="18.293" rx="1.5" ry="1.5" style="stroke:#181818;stroke-width:0.3;" width="127.2" x="1224.6" y="3"/><text fill="#000000" font-family="sans-serif" font-size="8.4" lengthAdjust="spacing" textLength="118.8" x="1228.8" y="15.3211">: VaccineAdministrationStore</text><rect fill="#E2E2F0" height="18.293" rx="1.5" ry="1.5" style="stroke:#181818;stroke-width:0.3;" width="127.2" x="1224.6" y="791.9508"/><text fill="#000000" font-family="sans-serif" font-size="8.4" lengthAdjust="spacing" textLength="118.8" x="1228.8" y="804.2719">: VaccineAdministrationStore</text><rect fill="#E2E2F0" height="18.293" rx="1.5" ry="1.5" style="stroke:#181818;stroke-width:0.3;" width="105.6" x="1357.8" y="3"/><text fill="#000000" font-family="sans-serif" font-size="8.4" lengthAdjust="spacing" textLength="97.2" x="1362" y="15.3211">: VaccineAdministration</text><rect fill="#E2E2F0" height="18.293" rx="1.5" ry="1.5" style="stroke:#181818;stroke-width:0.3;" width="105.6" x="1357.8" y="791.9508"/><text fill="#000000" font-family="sans-serif" font-size="8.4" lengthAdjust="spacing" textLength="97.2" x="1362" y="804.2719">: VaccineAdministration</text><rect fill="#E2E2F0" height="18.293" rx="1.5" ry="1.5" style="stroke:#181818;stroke-width:0.3;" width="99" x="1469.4" y="791.9508"/><text fill="#000000" font-family="sans-serif" font-size="8.4" lengthAdjust="spacing" textLength="90.6" x="1473.6" y="804.2719">: BruteForceAlgorithm</text><rect fill="#E2E2F0" height="18.293" rx="1.5" ry="1.5" style="stroke:#181818;stroke-width:0.3;" width="100.2" x="1574.4" y="791.9508"/><text fill="#000000" font-family="sans-serif" font-size="8.4" lengthAdjust="spacing" textLength="91.8" x="1578.6" y="804.2719">: BenchmarkAlgorithm</text><rect fill="#FFFFFF" height="736.8715" style="stroke:#181818;stroke-width:0.6;" width="6" x="273" y="40.6793"/><rect fill="#FFFFFF" height="719.2852" style="stroke:#181818;stroke-width:0.6;" width="6" x="641.4" y="58.2656"/><rect fill="#FFFFFF" height="16.8" style="stroke:#181818;stroke-width:0.6;" width="6" x="644.4" y="80.652"/><rect fill="#FFFFFF" height="16.8" style="stroke:#181818;stroke-width:0.6;" width="6" x="644.4" y="124.0383"/><rect fill="#FFFFFF" height="334.8223" style="stroke:#181818;stroke-width:0.6;" width="6" x="644.4" y="167.4246"/><rect fill="#FFFFFF" height="16.8" style="stroke:#181818;stroke-width:0.6;" width="6" x="644.4" y="533.0332"/><rect fill="#FFFFFF" height="16.8" style="stroke:#181818;stroke-width:0.6;" width="6" x="644.4" y="717.3645"/><rect fill="#FFFFFF" height="16.8" style="stroke:#181818;stroke-width:0.6;" width="6" x="644.4" y="760.7508"/><rect fill="#FFFFFF" height="138.9316" style="stroke:#181818;stroke-width:0.6;" width="6" x="964.8" y="202.5973"/><rect fill="#FFFFFF" height="138.9316" style="stroke:#181818;stroke-width:0.6;" width="6" x="964.8" y="363.3152"/><rect fill="#FFFFFF" height="121.3453" style="stroke:#181818;stroke-width:0.6;" width="6" x="1285.2" y="220.1836"/><rect fill="#FFFFFF" height="121.3453" style="stroke:#181818;stroke-width:0.6;" width="6" x="1285.2" y="380.9016"/><rect fill="#FFFFFF" height="18" style="stroke:#181818;stroke-width:0.6;" width="6" x="1407.6" y="252.3563"/><rect fill="#FFFFFF" height="18" style="stroke:#181818;stroke-width:0.6;" width="6" x="1407.6" y="287.9426"/><rect fill="#FFFFFF" height="18" style="stroke:#181818;stroke-width:0.6;" width="6" x="1407.6" y="323.5289"/><rect fill="#FFFFFF" height="18" style="stroke:#181818;stroke-width:0.6;" width="6" x="1407.6" y="413.0742"/><rect fill="#FFFFFF" height="18" style="stroke:#181818;stroke-width:0.6;" width="6" x="1407.6" y="448.6605"/><rect fill="#FFFFFF" height="18" style="stroke:#181818;stroke-width:0.6;" width="6" x="1407.6" y="484.2469"/><rect fill="#FFFFFF" height="18" style="stroke:#181818;stroke-width:0.6;" width="6" x="1515.9" y="611.0988"/><rect fill="#FFFFFF" height="18" style="stroke:#181818;stroke-width:0.6;" width="6" x="1621.5" y="672.7781"/><ellipse cx="4.5" cy="40.2293" fill="none" rx="2.4" ry="2.4" style="stroke:#181818;stroke-width:0.8999999999999999;"/><polygon fill="#181818" points="265.8,38.2793,271.8,40.6793,265.8,43.0793,268.2,40.6793" style="stroke:#181818;stroke-width:0.6;"/><line style="stroke:#181818;stroke-width:0.6;" x1="7.2" x2="269.4" y1="40.6793" y2="40.6793"/><text fill="#000000" font-family="sans-serif" font-size="7.8" font-weight="bold" lengthAdjust="spacing" textLength="5.4" x="9" y="37.834">1</text><text fill="#000000" font-family="sans-serif" font-size="7.8" lengthAdjust="spacing" textLength="249" x="16.8" y="37.834">analyzePerformance(date, timeIntervals, algorithmUsed, usersList)</text><polygon fill="#181818" points="634.2,55.8656,640.2,58.2656,634.2,60.6656,636.6,58.2656" style="stroke:#181818;stroke-width:0.6;"/><line style="stroke:#181818;stroke-width:0.6;" x1="279" x2="637.8" y1="58.2656" y2="58.2656"/><text fill="#000000" font-family="sans-serif" font-size="7.8" font-weight="bold" lengthAdjust="spacing" textLength="5.4" x="283.2" y="55.4203">2</text><text fill="#000000" font-family="sans-serif" font-size="7.8" lengthAdjust="spacing" textLength="343.2" x="291" y="55.4203">analyzePerformance(date, timeIntervals, algorithmUsed, usersList, vaccinationCenterName)</text><line style="stroke:#181818;stroke-width:0.6;" x1="650.4" x2="675.6" y1="75.852" y2="75.852"/><line style="stroke:#181818;stroke-width:0.6;" x1="675.6" x2="675.6" y1="75.852" y2="83.652"/><line style="stroke:#181818;stroke-width:0.6;" x1="651" x2="675.6" y1="83.652" y2="83.652"/><polygon fill="#181818" points="657,81.252,651,83.652,657,86.052,654.6,83.652" style="stroke:#181818;stroke-width:0.6;"/><text fill="#000000" font-family="sans-serif" font-size="7.8" font-weight="bold" lengthAdjust="spacing" textLength="5.4" x="654.6" y="73.0066">3</text><text fill="#000000" font-family="sans-serif" font-size="7.8" lengthAdjust="spacing" textLength="116.4" x="662.4" y="73.0066">setTimeIntervals(timeIntervals)</text><line style="stroke:#181818;stroke-width:0.6;" x1="650.4" x2="675.6" y1="119.2383" y2="119.2383"/><line style="stroke:#181818;stroke-width:0.6;" x1="675.6" x2="675.6" y1="119.2383" y2="127.0383"/><line style="stroke:#181818;stroke-width:0.6;" x1="651" x2="675.6" y1="127.0383" y2="127.0383"/><polygon fill="#181818" points="657,124.6383,651,127.0383,657,129.4383,654.6,127.0383" style="stroke:#181818;stroke-width:0.6;"/><text fill="#000000" font-family="sans-serif" font-size="7.8" font-weight="bold" lengthAdjust="spacing" textLength="5.4" x="654.6" y="116.393">4</text><text fill="#000000" font-family="sans-serif" font-size="7.8" lengthAdjust="spacing" textLength="49.8" x="662.4" y="116.393">setDate(date)</text><line style="stroke:#181818;stroke-width:0.6;" x1="647.4" x2="675.6" y1="159.6246" y2="159.6246"/><line style="stroke:#181818;stroke-width:0.6;" x1="675.6" x2="675.6" y1="159.6246" y2="167.4246"/><line style="stroke:#181818;stroke-width:0.6;" x1="651" x2="675.6" y1="167.4246" y2="167.4246"/><polygon fill="#181818" points="657,165.0246,651,167.4246,657,169.8246,654.6,167.4246" style="stroke:#181818;stroke-width:0.6;"/><text fill="#000000" font-family="sans-serif" font-size="7.8" font-weight="bold" lengthAdjust="spacing" textLength="5.4" x="654.6" y="156.7793">5</text><text fill="#000000" font-family="sans-serif" font-size="7.8" lengthAdjust="spacing" textLength="236.4" x="662.4" y="156.7793">inOutList = createInOutList(usersList, vaccinationCenterName)</text><path d="M605.7,179.4246 L650.1,179.4246 L650.1,183.8109 L644.1,189.8109 L605.7,189.8109 L605.7,179.4246 " fill="#EEEEEE" style="stroke:#000000;stroke-width:0.8999999999999999;"/><rect fill="none" height="331.8223" style="stroke:#000000;stroke-width:0.8999999999999999;" width="869.7" x="605.7" y="179.4246"/><text fill="#000000" font-family="sans-serif" font-size="7.8" font-weight="bold" lengthAdjust="spacing" textLength="17.4" x="614.7" y="187.5656">loop</text><text fill="#000000" font-family="sans-serif" font-size="6.6" font-weight="bold" lengthAdjust="spacing" textLength="90.6" x="659.1" y="187.0055">[for each user in usersList]</text><polygon fill="#181818" points="957.6,200.1973,963.6,202.5973,957.6,204.9973,960,202.5973" style="stroke:#181818;stroke-width:0.6;"/><line style="stroke:#181818;stroke-width:0.6;" x1="650.4" x2="961.2" y1="202.5973" y2="202.5973"/><text fill="#000000" font-family="sans-serif" font-size="7.8" font-weight="bold" lengthAdjust="spacing" textLength="5.4" x="654.6" y="199.752">6</text><text fill="#000000" font-family="sans-serif" font-size="7.8" lengthAdjust="spacing" textLength="295.2" x="662.4" y="199.752">checkIfUserArrivedAtCenter(date, time, timeIntervals, vaccinationCenterName)</text><polygon fill="#181818" points="1278,217.7836,1284,220.1836,1278,222.5836,1280.4,220.1836" style="stroke:#181818;stroke-width:0.6;"/><line style="stroke:#181818;stroke-width:0.6;" x1="970.8" x2="1281.6" y1="220.1836" y2="220.1836"/><text fill="#000000" font-family="sans-serif" font-size="7.8" font-weight="bold" lengthAdjust="spacing" textLength="5.4" x="975" y="217.3383">7</text><text fill="#000000" font-family="sans-serif" font-size="7.8" lengthAdjust="spacing" textLength="295.2" x="982.8" y="217.3383">checkIfUserArrivedAtCenter(date, time, timeIntervals, vaccinationCenterName)</text><path d="M1218.6,229.1836 L1263,229.1836 L1263,233.5699 L1257,239.5699 L1218.6,239.5699 L1218.6,229.1836 " fill="#EEEEEE" style="stroke:#000000;stroke-width:0.8999999999999999;"/><rect fill="none" height="117.1453" style="stroke:#000000;stroke-width:0.8999999999999999;" width="250.8" x="1218.6" y="229.1836"/><text fill="#000000" font-family="sans-serif" font-size="7.8" font-weight="bold" lengthAdjust="spacing" textLength="17.4" x="1227.6" y="237.3246">loop</text><text fill="#000000" font-family="sans-serif" font-size="6.6" font-weight="bold" lengthAdjust="spacing" textLength="150.6" x="1272" y="236.7645">[for each vaccine administration of the user]</text><polygon fill="#181818" points="1400.4,249.9562,1406.4,252.3563,1400.4,254.7563,1402.8,252.3563" style="stroke:#181818;stroke-width:0.6;"/><line style="stroke:#181818;stroke-width:0.6;" x1="1291.2" x2="1404" y1="252.3563" y2="252.3563"/><text fill="#000000" font-family="sans-serif" font-size="7.8" font-weight="bold" lengthAdjust="spacing" textLength="5.4" x="1295.4" y="249.5109">8</text><text fill="#000000" font-family="sans-serif" font-size="7.8" lengthAdjust="spacing" textLength="85.2" x="1303.2" y="249.5109">getVaccinationCenter()</text><polygon fill="#181818" points="1400.4,285.5426,1406.4,287.9426,1400.4,290.3426,1402.8,287.9426" style="stroke:#181818;stroke-width:0.6;"/><line style="stroke:#181818;stroke-width:0.6;" x1="1291.2" x2="1404" y1="287.9426" y2="287.9426"/><text fill="#000000" font-family="sans-serif" font-size="7.8" font-weight="bold" lengthAdjust="spacing" textLength="5.4" x="1295.4" y="285.0973">9</text><text fill="#000000" font-family="sans-serif" font-size="7.8" lengthAdjust="spacing" textLength="58.8" x="1303.2" y="285.0973">getArrivalDate()</text><polygon fill="#181818" points="1400.4,321.1289,1406.4,323.5289,1400.4,325.9289,1402.8,323.5289" style="stroke:#181818;stroke-width:0.6;"/><line style="stroke:#181818;stroke-width:0.6;" x1="1291.2" x2="1404" y1="323.5289" y2="323.5289"/><text fill="#000000" font-family="sans-serif" font-size="7.8" font-weight="bold" lengthAdjust="spacing" textLength="10.8" x="1295.4" y="320.6836">10</text><text fill="#000000" font-family="sans-serif" font-size="7.8" lengthAdjust="spacing" textLength="60" x="1308.6" y="320.6836">getArrivalTime()</text><polygon fill="#181818" points="957.6,360.9152,963.6,363.3152,957.6,365.7152,960,363.3152" style="stroke:#181818;stroke-width:0.6;"/><line style="stroke:#181818;stroke-width:0.6;" x1="650.4" x2="961.2" y1="363.3152" y2="363.3152"/><text fill="#000000" font-family="sans-serif" font-size="7.8" font-weight="bold" lengthAdjust="spacing" textLength="10.8" x="654.6" y="360.4699">11</text><text fill="#000000" font-family="sans-serif" font-size="7.8" lengthAdjust="spacing" textLength="288" x="667.8" y="360.4699">checkIfUserLeftTheCenter(date, time, timeIntervals, vaccinationCenterName)</text><polygon fill="#181818" points="1278,378.5016,1284,380.9016,1278,383.3016,1280.4,380.9016" style="stroke:#181818;stroke-width:0.6;"/><line style="stroke:#181818;stroke-width:0.6;" x1="970.8" x2="1281.6" y1="380.9016" y2="380.9016"/><text fill="#000000" font-family="sans-serif" font-size="7.8" font-weight="bold" lengthAdjust="spacing" textLength="10.8" x="975" y="378.0563">12</text><text fill="#000000" font-family="sans-serif" font-size="7.8" lengthAdjust="spacing" textLength="288" x="988.2" y="378.0563">checkIfUserLeftTheCenter(date, time, timeIntervals, vaccinationCenterName)</text><path d="M1218.6,389.9016 L1263,389.9016 L1263,394.2879 L1257,400.2879 L1218.6,400.2879 L1218.6,389.9016 " fill="#EEEEEE" style="stroke:#000000;stroke-width:0.8999999999999999;"/><rect fill="none" height="117.1453" style="stroke:#000000;stroke-width:0.8999999999999999;" width="250.8" x="1218.6" y="389.9016"/><text fill="#000000" font-family="sans-serif" font-size="7.8" font-weight="bold" lengthAdjust="spacing" textLength="17.4" x="1227.6" y="398.0426">loop</text><text fill="#000000" font-family="sans-serif" font-size="6.6" font-weight="bold" lengthAdjust="spacing" textLength="150.6" x="1272" y="397.4824">[for each vaccine administration of the user]</text><polygon fill="#181818" points="1400.4,410.6742,1406.4,413.0742,1400.4,415.4742,1402.8,413.0742" style="stroke:#181818;stroke-width:0.6;"/><line style="stroke:#181818;stroke-width:0.6;" x1="1291.2" x2="1404" y1="413.0742" y2="413.0742"/><text fill="#000000" font-family="sans-serif" font-size="7.8" font-weight="bold" lengthAdjust="spacing" textLength="10.8" x="1295.4" y="410.2289">13</text><text fill="#000000" font-family="sans-serif" font-size="7.8" lengthAdjust="spacing" textLength="85.2" x="1308.6" y="410.2289">getVaccinationCenter()</text><polygon fill="#181818" points="1400.4,446.2605,1406.4,448.6605,1400.4,451.0605,1402.8,448.6605" style="stroke:#181818;stroke-width:0.6;"/><line style="stroke:#181818;stroke-width:0.6;" x1="1291.2" x2="1404" y1="448.6605" y2="448.6605"/><text fill="#000000" font-family="sans-serif" font-size="7.8" font-weight="bold" lengthAdjust="spacing" textLength="10.8" x="1295.4" y="445.8152">14</text><text fill="#000000" font-family="sans-serif" font-size="7.8" lengthAdjust="spacing" textLength="63" x="1308.6" y="445.8152">getLeavingDate()</text><polygon fill="#181818" points="1400.4,481.8469,1406.4,484.2469,1400.4,486.6469,1402.8,484.2469" style="stroke:#181818;stroke-width:0.6;"/><line style="stroke:#181818;stroke-width:0.6;" x1="1291.2" x2="1404" y1="484.2469" y2="484.2469"/><text fill="#000000" font-family="sans-serif" font-size="7.8" font-weight="bold" lengthAdjust="spacing" textLength="10.8" x="1295.4" y="481.4016">15</text><text fill="#000000" font-family="sans-serif" font-size="7.8" lengthAdjust="spacing" textLength="64.2" x="1308.6" y="481.4016">getLeavingTime()</text><line style="stroke:#181818;stroke-width:0.6;" x1="650.4" x2="675.6" y1="528.2332" y2="528.2332"/><line style="stroke:#181818;stroke-width:0.6;" x1="675.6" x2="675.6" y1="528.2332" y2="536.0332"/><line style="stroke:#181818;stroke-width:0.6;" x1="651" x2="675.6" y1="536.0332" y2="536.0332"/><polygon fill="#181818" points="657,533.6332,651,536.0332,657,538.4332,654.6,536.0332" style="stroke:#181818;stroke-width:0.6;"/><text fill="#000000" font-family="sans-serif" font-size="7.8" font-weight="bold" lengthAdjust="spacing" textLength="10.8" x="654.6" y="525.3879">16</text><text fill="#000000" font-family="sans-serif" font-size="7.8" lengthAdjust="spacing" textLength="126" x="667.8" y="525.3879">checkIfThereIsAnyUserInOutList()</text><path d="M605.7,563.0332 L642.9,563.0332 L642.9,567.4195 L636.9,573.4195 L605.7,573.4195 L605.7,563.0332 " fill="#EEEEEE" style="stroke:#000000;stroke-width:0.8999999999999999;"/><rect fill="none" height="132.5449" style="stroke:#000000;stroke-width:0.8999999999999999;" width="1074.9" x="605.7" y="563.0332"/><text fill="#000000" font-family="sans-serif" font-size="7.8" font-weight="bold" lengthAdjust="spacing" textLength="10.2" x="614.7" y="571.1742">alt</text><text fill="#000000" font-family="sans-serif" font-size="6.6" font-weight="bold" lengthAdjust="spacing" textLength="148.2" x="651.9" y="570.6141">[if algorithmUsed is "BruteForceAlgorithm"]</text><polygon fill="#181818" points="1462.2,583.8059,1468.2,586.2059,1462.2,588.6059,1464.6,586.2059" style="stroke:#181818;stroke-width:0.6;"/><line style="stroke:#181818;stroke-width:0.6;" x1="647.4" x2="1465.8" y1="586.2059" y2="586.2059"/><text fill="#000000" font-family="sans-serif" font-size="7.8" font-weight="bold" lengthAdjust="spacing" textLength="10.8" x="651.6" y="583.3605">17</text><text fill="#000000" font-family="sans-serif" font-size="7.8" lengthAdjust="spacing" textLength="82.2" x="664.8" y="583.3605">BruteForceAlgorithm()</text><rect fill="#E2E2F0" height="18.293" rx="1.5" ry="1.5" style="stroke:#181818;stroke-width:0.3;" width="99" x="1469.4" y="573.4195"/><text fill="#000000" font-family="sans-serif" font-size="8.4" lengthAdjust="spacing" textLength="90.6" x="1473.6" y="585.7406">: BruteForceAlgorithm</text><polygon fill="#181818" points="1508.7,608.6988,1514.7,611.0988,1508.7,613.4988,1511.1,611.0988" style="stroke:#181818;stroke-width:0.6;"/><line style="stroke:#181818;stroke-width:0.6;" x1="647.4" x2="1512.3" y1="611.0988" y2="611.0988"/><text fill="#000000" font-family="sans-serif" font-size="7.8" font-weight="bold" lengthAdjust="spacing" textLength="10.8" x="651.6" y="608.2535">18</text><text fill="#000000" font-family="sans-serif" font-size="7.8" lengthAdjust="spacing" textLength="154.2" x="664.8" y="608.2535">maxSumList = getMaxSumList(inOutList)</text><line style="stroke:#000000;stroke-width:0.6;stroke-dasharray:2.0,2.0;" x1="605.7" x2="1680.6" y1="634.4988" y2="634.4988"/><polygon fill="#181818" points="1567.2,645.4852,1573.2,647.8852,1567.2,650.2852,1569.6,647.8852" style="stroke:#181818;stroke-width:0.6;"/><line style="stroke:#181818;stroke-width:0.6;" x1="647.4" x2="1570.8" y1="647.8852" y2="647.8852"/><text fill="#000000" font-family="sans-serif" font-size="7.8" font-weight="bold" lengthAdjust="spacing" textLength="10.8" x="651.6" y="645.0398">19</text><text fill="#000000" font-family="sans-serif" font-size="7.8" lengthAdjust="spacing" textLength="84" x="664.8" y="645.0398">BenchmarkAlgorithm()</text><rect fill="#E2E2F0" height="18.293" rx="1.5" ry="1.5" style="stroke:#181818;stroke-width:0.3;" width="100.2" x="1574.4" y="635.0988"/><text fill="#000000" font-family="sans-serif" font-size="8.4" lengthAdjust="spacing" textLength="91.8" x="1578.6" y="647.4199">: BenchmarkAlgorithm</text><polygon fill="#181818" points="1614.3,670.3781,1620.3,672.7781,1614.3,675.1781,1616.7,672.7781" style="stroke:#181818;stroke-width:0.6;"/><line style="stroke:#181818;stroke-width:0.6;" x1="647.4" x2="1617.9" y1="672.7781" y2="672.7781"/><text fill="#000000" font-family="sans-serif" font-size="7.8" font-weight="bold" lengthAdjust="spacing" textLength="10.8" x="651.6" y="669.9328">20</text><text fill="#000000" font-family="sans-serif" font-size="7.8" lengthAdjust="spacing" textLength="154.2" x="664.8" y="669.9328">maxSumList = getMaxSumList(inOutList)</text><line style="stroke:#181818;stroke-width:0.6;" x1="650.4" x2="675.6" y1="712.5645" y2="712.5645"/><line style="stroke:#181818;stroke-width:0.6;" x1="675.6" x2="675.6" y1="712.5645" y2="720.3645"/><line style="stroke:#181818;stroke-width:0.6;" x1="651" x2="675.6" y1="720.3645" y2="720.3645"/><polygon fill="#181818" points="657,717.9645,651,720.3645,657,722.7645,654.6,720.3645" style="stroke:#181818;stroke-width:0.6;"/><text fill="#000000" font-family="sans-serif" font-size="7.8" font-weight="bold" lengthAdjust="spacing" textLength="10.8" x="654.6" y="709.7191">21</text><text fill="#000000" font-family="sans-serif" font-size="7.8" lengthAdjust="spacing" textLength="267" x="667.8" y="709.7191">maxSumListIndexes = findMaxSumListIndexes(inOutList, maxSumList)</text><line style="stroke:#181818;stroke-width:0.6;" x1="650.4" x2="675.6" y1="755.9508" y2="755.9508"/><line style="stroke:#181818;stroke-width:0.6;" x1="675.6" x2="675.6" y1="755.9508" y2="763.7508"/><line style="stroke:#181818;stroke-width:0.6;" x1="651" x2="675.6" y1="763.7508" y2="763.7508"/><polygon fill="#181818" points="657,761.3508,651,763.7508,657,766.1508,654.6,763.7508" style="stroke:#181818;stroke-width:0.6;"/><text fill="#000000" font-family="sans-serif" font-size="7.8" font-weight="bold" lengthAdjust="spacing" textLength="10.8" x="654.6" y="753.1055">22</text><text fill="#000000" font-family="sans-serif" font-size="7.8" lengthAdjust="spacing" textLength="182.4" x="667.8" y="753.1055">maxSum = calculateMaxSumOfList(maxSumList)</text><!--MD5=[1c17421f9c461ae61edf172952b91df7]
@startuml
autonumber

participant ": VaccinationCenter" as VC
participant ": Performance" as P
participant ": User" as U
participant ": VaccineAdministrationStore" as HRS
participant ": VaccineAdministration" as VA
participant ": BruteForceAlgorithm" as BFA
participant ": BenchmarkAlgorithm" as BA

[o-> VC : analyzePerformance(date, timeIntervals, algorithmUsed, usersList)
activate VC
VC -> P : analyzePerformance(date, timeIntervals, algorithmUsed, usersList, vaccinationCenterName)
activate P
P -> P : setTimeIntervals(timeIntervals)
activate P
deactivate P

P -> P : setDate(date)
activate P
deactivate P
P -> P : inOutList = createInOutList(usersList, vaccinationCenterName)
activate P


loop for each user in usersList
P -> U : checkIfUserArrivedAtCenter(date, time, timeIntervals, vaccinationCenterName)
activate U
U -> HRS : checkIfUserArrivedAtCenter(date, time, timeIntervals, vaccinationCenterName)
activate HRS

loop for each vaccine administration of the user

HRS -> VA : getVaccinationCenter()
activate VA
deactivate VA
HRS -> VA : getArrivalDate()
activate VA
deactivate VA
HRS -> VA : getArrivalTime()
activate VA
deactivate VA
deactivate HRS
deactivate U
end loop


P -> U : checkIfUserLeftTheCenter(date, time, timeIntervals, vaccinationCenterName)
activate U
U -> HRS : checkIfUserLeftTheCenter(date, time, timeIntervals, vaccinationCenterName)
activate HRS
loop for each vaccine administration of the user
HRS -> VA : getVaccinationCenter()
activate VA
deactivate VA
HRS -> VA : getLeavingDate()
activate VA
deactivate VA
HRS -> VA : getLeavingTime()
activate VA
deactivate VA
deactivate P
deactivate HRS
deactivate U
end loop
end loop
deactivate HRS
deactivate U

P -> P : checkIfThereIsAnyUserInOutList()
activate P
deactivate P

alt if algorithmUsed is "BruteForceAlgorithm"
P -> BFA ** : BruteForceAlgorithm()
P -> BFA : maxSumList = getMaxSumList(inOutList)
activate BFA
deactivate BFA

else

P -> BA ** : BenchmarkAlgorithm()
P -> BA : maxSumList = getMaxSumList(inOutList)
activate BA
deactivate BA

end
P -> P : maxSumListIndexes = findMaxSumListIndexes(inOutList, maxSumList)
activate P
deactivate P
P -> P : maxSum = calculateMaxSumOfList(maxSumList)
activate P
deactivate P
deactivate P
deactivate VC
@enduml

PlantUML version 1.2022.5(Sat Apr 30 11:55:52 WEST 2022)
(GPL source distribution)
Java Runtime: OpenJDK Runtime Environment
JVM: OpenJDK 64-Bit Server VM
Default Encoding: UTF-8
Language: en
Country: PT
--></g></svg>