<?xml version="1.0" encoding="UTF-8" standalone="no"?><svg xmlns="http://www.w3.org/2000/svg" xmlns:xlink="http://www.w3.org/1999/xlink" contentStyleType="text/css" height="787.2px" preserveAspectRatio="none" style="width:1150px;height:787px;background:#FFFFFF;" version="1.1" viewBox="0 0 1150 787" width="1150.8px" zoomAndPan="magnify"><defs/><g><rect fill="#FFFFFF" height="678.4582" style="stroke:#181818;stroke-width:0.6;" width="6" x="27" y="54.893"/><rect fill="#FFFFFF" height="42.4793" style="stroke:#181818;stroke-width:0.6;" width="6" x="225" y="67.6793"/><rect fill="#FFFFFF" height="600.2063" style="stroke:#181818;stroke-width:0.6;" width="6" x="225" y="127.7449"/><rect fill="#FFFFFF" height="221.318" style="stroke:#181818;stroke-width:0.6;" width="6" x="460.2" y="145.3312"/><rect fill="#FFFFFF" height="16.8" style="stroke:#181818;stroke-width:0.6;" width="6" x="463.2" y="310.0629"/><rect fill="#FFFFFF" height="299.4633" style="stroke:#181818;stroke-width:0.6;" width="6" x="460.2" y="410.9016"/><rect fill="#FFFFFF" height="18" style="stroke:#181818;stroke-width:0.6;" width="6" x="585" y="162.9176"/><rect fill="#FFFFFF" height="18" style="stroke:#181818;stroke-width:0.6;" width="6" x="585" y="428.4879"/><rect fill="#FFFFFF" height="18" style="stroke:#181818;stroke-width:0.6;" width="6" x="631.2" y="198.5039"/><rect fill="#FFFFFF" height="18" style="stroke:#181818;stroke-width:0.6;" width="6" x="631.2" y="234.0902"/><rect fill="#FFFFFF" height="18" style="stroke:#181818;stroke-width:0.6;" width="6" x="631.2" y="464.0742"/><rect fill="#FFFFFF" height="18" style="stroke:#181818;stroke-width:0.6;" width="6" x="690" y="269.6766"/><rect fill="#FFFFFF" height="18" style="stroke:#181818;stroke-width:0.6;" width="6" x="766.8" y="348.6492"/><rect fill="#FFFFFF" height="210.7043" style="stroke:#181818;stroke-width:0.6;" width="6" x="766.8" y="499.6605"/><rect fill="#FFFFFF" height="193.118" style="stroke:#181818;stroke-width:0.6;" width="6" x="876" y="517.2469"/><rect fill="#FFFFFF" height="38.5863" style="stroke:#181818;stroke-width:0.6;" width="6" x="879" y="610.8059"/><rect fill="#FFFFFF" height="38.5863" style="stroke:#181818;stroke-width:0.6;" width="6" x="879" y="671.7785"/><rect fill="#FFFFFF" height="18" style="stroke:#181818;stroke-width:0.6;" width="6" x="1079.4" y="534.8332"/><rect fill="#FFFFFF" height="18" style="stroke:#181818;stroke-width:0.6;" width="6" x="1079.4" y="570.4195"/><rect fill="#FFFFFF" height="18" style="stroke:#181818;stroke-width:0.6;" width="6" x="1127.4" y="631.3922"/><rect fill="#FFFFFF" height="18" style="stroke:#181818;stroke-width:0.6;" width="6" x="1127.4" y="692.3648"/><line style="stroke:#181818;stroke-width:0.3;stroke-dasharray:5.0,5.0;" x1="30" x2="30" y1="48.893" y2="738.7512"/><line style="stroke:#181818;stroke-width:0.3;stroke-dasharray:5.0,5.0;" x1="227.7" x2="227.7" y1="48.893" y2="738.7512"/><line style="stroke:#181818;stroke-width:0.3;stroke-dasharray:5.0,5.0;" x1="462.9" x2="462.9" y1="90.9258" y2="738.7512"/><line style="stroke:#181818;stroke-width:0.3;stroke-dasharray:5.0,5.0;" x1="588" x2="588" y1="48.893" y2="738.7512"/><line style="stroke:#181818;stroke-width:0.3;stroke-dasharray:5.0,5.0;" x1="633.9" x2="633.9" y1="48.893" y2="738.7512"/><line style="stroke:#181818;stroke-width:0.3;stroke-dasharray:5.0,5.0;" x1="692.7" x2="692.7" y1="48.893" y2="738.7512"/><line style="stroke:#181818;stroke-width:0.3;stroke-dasharray:5.0,5.0;" x1="769.5" x2="769.5" y1="48.893" y2="738.7512"/><line style="stroke:#181818;stroke-width:0.3;stroke-dasharray:5.0,5.0;" x1="878.7" x2="878.7" y1="48.893" y2="738.7512"/><line style="stroke:#181818;stroke-width:0.3;stroke-dasharray:5.0,5.0;" x1="1082.4" x2="1082.4" y1="48.893" y2="738.7512"/><line style="stroke:#181818;stroke-width:0.3;stroke-dasharray:5.0,5.0;" x1="1130.4" x2="1130.4" y1="48.893" y2="738.7512"/><text fill="#000000" font-family="sans-serif" font-size="8.4" lengthAdjust="spacing" textLength="50.4" x="3" y="47.1211">Coordinator</text><ellipse cx="30" cy="8.1" fill="#E2E2F0" rx="4.8" ry="4.8" style="stroke:#181818;stroke-width:0.3;"/><path d="M30,12.9 L30,29.1 M22.2,17.7 L37.8,17.7 M30,29.1 L22.2,38.1 M30,29.1 L37.8,38.1 " fill="none" style="stroke:#181818;stroke-width:0.3;"/><text fill="#000000" font-family="sans-serif" font-size="8.4" lengthAdjust="spacing" textLength="50.4" x="3" y="746.2723">Coordinator</text><ellipse cx="30" cy="753.1441" fill="#E2E2F0" rx="4.8" ry="4.8" style="stroke:#181818;stroke-width:0.3;"/><path d="M30,757.9441 L30,774.1441 M22.2,762.7441 L37.8,762.7441 M30,774.1441 L22.2,783.1441 M30,774.1441 L37.8,783.1441 " fill="none" style="stroke:#181818;stroke-width:0.3;"/><rect fill="#E2E2F0" height="18.293" rx="1.5" ry="1.5" style="stroke:#181818;stroke-width:0.3;" width="103.8" x="176.1" y="30"/><text fill="#000000" font-family="sans-serif" font-size="8.4" lengthAdjust="spacing" textLength="95.4" x="180.3" y="42.3211">:AnalyzePerformanceUI</text><rect fill="#E2E2F0" height="18.293" rx="1.5" ry="1.5" style="stroke:#181818;stroke-width:0.3;" width="103.8" x="176.1" y="738.1512"/><text fill="#000000" font-family="sans-serif" font-size="8.4" lengthAdjust="spacing" textLength="95.4" x="180.3" y="750.4723">:AnalyzePerformanceUI</text><rect fill="#E2E2F0" height="18.293" rx="1.5" ry="1.5" style="stroke:#181818;stroke-width:0.3;" width="137.4" x="394.5" y="738.1512"/><text fill="#000000" font-family="sans-serif" font-size="8.4" lengthAdjust="spacing" textLength="129" x="398.7" y="750.4723">:AnalyzePerformanceController</text><rect fill="#E2E2F0" height="18.293" rx="1.5" ry="1.5" style="stroke:#181818;stroke-width:0.3;" width="27.6" x="574.2" y="30"/><text fill="#000000" font-family="sans-serif" font-size="8.4" lengthAdjust="spacing" textLength="19.2" x="578.4" y="42.3211">:App</text><rect fill="#E2E2F0" height="18.293" rx="1.5" ry="1.5" style="stroke:#181818;stroke-width:0.3;" width="27.6" x="574.2" y="738.1512"/><text fill="#000000" font-family="sans-serif" font-size="8.4" lengthAdjust="spacing" textLength="19.2" x="578.4" y="750.4723">:App</text><rect fill="#E2E2F0" height="18.293" rx="1.5" ry="1.5" style="stroke:#181818;stroke-width:0.3;" width="52.2" x="608.1" y="30"/><text fill="#000000" font-family="sans-serif" font-size="8.4" lengthAdjust="spacing" textLength="43.8" x="612.3" y="42.3211">: Company</text><rect fill="#E2E2F0" height="18.293" rx="1.5" ry="1.5" style="stroke:#181818;stroke-width:0.3;" width="52.2" x="608.1" y="738.1512"/><text fill="#000000" font-family="sans-serif" font-size="8.4" lengthAdjust="spacing" textLength="43.8" x="612.3" y="750.4723">: Company</text><rect fill="#E2E2F0" height="18.293" rx="1.5" ry="1.5" style="stroke:#181818;stroke-width:0.3;" width="53.4" x="666.3" y="30"/><text fill="#000000" font-family="sans-serif" font-size="8.4" lengthAdjust="spacing" textLength="45" x="670.5" y="42.3211">: UserStore</text><rect fill="#E2E2F0" height="18.293" rx="1.5" ry="1.5" style="stroke:#181818;stroke-width:0.3;" width="53.4" x="666.3" y="738.1512"/><text fill="#000000" font-family="sans-serif" font-size="8.4" lengthAdjust="spacing" textLength="45" x="670.5" y="750.4723">: UserStore</text><rect fill="#E2E2F0" height="18.293" rx="1.5" ry="1.5" style="stroke:#181818;stroke-width:0.3;" width="88.2" x="725.7" y="30"/><text fill="#000000" font-family="sans-serif" font-size="8.4" lengthAdjust="spacing" textLength="79.8" x="729.9" y="42.3211">: VaccinationCenter</text><rect fill="#E2E2F0" height="18.293" rx="1.5" ry="1.5" style="stroke:#181818;stroke-width:0.3;" width="88.2" x="725.7" y="738.1512"/><text fill="#000000" font-family="sans-serif" font-size="8.4" lengthAdjust="spacing" textLength="79.8" x="729.9" y="750.4723">: VaccinationCenter</text><rect fill="#E2E2F0" height="18.293" rx="1.5" ry="1.5" style="stroke:#181818;stroke-width:0.3;" width="65.4" x="846.3" y="30"/><text fill="#000000" font-family="sans-serif" font-size="8.4" lengthAdjust="spacing" textLength="57" x="850.5" y="42.3211">: Performance</text><rect fill="#E2E2F0" height="18.293" rx="1.5" ry="1.5" style="stroke:#181818;stroke-width:0.3;" width="65.4" x="846.3" y="738.1512"/><text fill="#000000" font-family="sans-serif" font-size="8.4" lengthAdjust="spacing" textLength="57" x="850.5" y="750.4723">: Performance</text><rect fill="#E2E2F0" height="18.293" rx="1.5" ry="1.5" style="stroke:#181818;stroke-width:0.3;" width="50.4" x="1057.2" y="30"/><text fill="#000000" font-family="sans-serif" font-size="8.4" lengthAdjust="spacing" textLength="42" x="1061.4" y="42.3211">: Calendar</text><rect fill="#E2E2F0" height="18.293" rx="1.5" ry="1.5" style="stroke:#181818;stroke-width:0.3;" width="50.4" x="1057.2" y="738.1512"/><text fill="#000000" font-family="sans-serif" font-size="8.4" lengthAdjust="spacing" textLength="42" x="1061.4" y="750.4723">: Calendar</text><rect fill="#E2E2F0" height="18.293" rx="1.5" ry="1.5" style="stroke:#181818;stroke-width:0.3;" width="33.6" x="1113.6" y="30"/><text fill="#000000" font-family="sans-serif" font-size="8.4" lengthAdjust="spacing" textLength="25.2" x="1117.8" y="42.3211">: Time</text><rect fill="#E2E2F0" height="18.293" rx="1.5" ry="1.5" style="stroke:#181818;stroke-width:0.3;" width="33.6" x="1113.6" y="738.1512"/><text fill="#000000" font-family="sans-serif" font-size="8.4" lengthAdjust="spacing" textLength="25.2" x="1117.8" y="750.4723">: Time</text><rect fill="#FFFFFF" height="678.4582" style="stroke:#181818;stroke-width:0.6;" width="6" x="27" y="54.893"/><rect fill="#FFFFFF" height="42.4793" style="stroke:#181818;stroke-width:0.6;" width="6" x="225" y="67.6793"/><rect fill="#FFFFFF" height="600.2063" style="stroke:#181818;stroke-width:0.6;" width="6" x="225" y="127.7449"/><rect fill="#FFFFFF" height="221.318" style="stroke:#181818;stroke-width:0.6;" width="6" x="460.2" y="145.3312"/><rect fill="#FFFFFF" height="16.8" style="stroke:#181818;stroke-width:0.6;" width="6" x="463.2" y="310.0629"/><rect fill="#FFFFFF" height="299.4633" style="stroke:#181818;stroke-width:0.6;" width="6" x="460.2" y="410.9016"/><rect fill="#FFFFFF" height="18" style="stroke:#181818;stroke-width:0.6;" width="6" x="585" y="162.9176"/><rect fill="#FFFFFF" height="18" style="stroke:#181818;stroke-width:0.6;" width="6" x="585" y="428.4879"/><rect fill="#FFFFFF" height="18" style="stroke:#181818;stroke-width:0.6;" width="6" x="631.2" y="198.5039"/><rect fill="#FFFFFF" height="18" style="stroke:#181818;stroke-width:0.6;" width="6" x="631.2" y="234.0902"/><rect fill="#FFFFFF" height="18" style="stroke:#181818;stroke-width:0.6;" width="6" x="631.2" y="464.0742"/><rect fill="#FFFFFF" height="18" style="stroke:#181818;stroke-width:0.6;" width="6" x="690" y="269.6766"/><rect fill="#FFFFFF" height="18" style="stroke:#181818;stroke-width:0.6;" width="6" x="766.8" y="348.6492"/><rect fill="#FFFFFF" height="210.7043" style="stroke:#181818;stroke-width:0.6;" width="6" x="766.8" y="499.6605"/><rect fill="#FFFFFF" height="193.118" style="stroke:#181818;stroke-width:0.6;" width="6" x="876" y="517.2469"/><rect fill="#FFFFFF" height="38.5863" style="stroke:#181818;stroke-width:0.6;" width="6" x="879" y="610.8059"/><rect fill="#FFFFFF" height="38.5863" style="stroke:#181818;stroke-width:0.6;" width="6" x="879" y="671.7785"/><rect fill="#FFFFFF" height="18" style="stroke:#181818;stroke-width:0.6;" width="6" x="1079.4" y="534.8332"/><rect fill="#FFFFFF" height="18" style="stroke:#181818;stroke-width:0.6;" width="6" x="1079.4" y="570.4195"/><rect fill="#FFFFFF" height="18" style="stroke:#181818;stroke-width:0.6;" width="6" x="1127.4" y="631.3922"/><rect fill="#FFFFFF" height="18" style="stroke:#181818;stroke-width:0.6;" width="6" x="1127.4" y="692.3648"/><polygon fill="#181818" points="217.8,65.2793,223.8,67.6793,217.8,70.0793,220.2,67.6793" style="stroke:#181818;stroke-width:0.6;"/><line style="stroke:#181818;stroke-width:0.6;" x1="33" x2="221.4" y1="67.6793" y2="67.6793"/><text fill="#000000" font-family="sans-serif" font-size="7.8" font-weight="bold" lengthAdjust="spacing" textLength="5.4" x="37.2" y="64.834">1</text><text fill="#000000" font-family="sans-serif" font-size="7.8" lengthAdjust="spacing" textLength="172.8" x="45" y="64.834">asks to analyze the performance of the center</text><polygon fill="#181818" points="387.3,82.8656,393.3,85.2656,387.3,87.6656,389.7,85.2656" style="stroke:#181818;stroke-width:0.6;"/><line style="stroke:#181818;stroke-width:0.6;" x1="231" x2="390.9" y1="85.2656" y2="85.2656"/><text fill="#000000" font-family="sans-serif" font-size="7.8" font-weight="bold" lengthAdjust="spacing" textLength="5.4" x="235.2" y="82.4203">2</text><text fill="#000000" font-family="sans-serif" font-size="7.8" lengthAdjust="spacing" textLength="118.8" x="243" y="82.4203">AnalyzePerformanceController()</text><rect fill="#E2E2F0" height="18.293" rx="1.5" ry="1.5" style="stroke:#181818;stroke-width:0.3;" width="137.4" x="394.5" y="72.4793"/><text fill="#000000" font-family="sans-serif" font-size="8.4" lengthAdjust="spacing" textLength="129" x="398.7" y="84.8004">:AnalyzePerformanceController</text><polygon fill="#181818" points="39.6,107.7586,33.6,110.1586,39.6,112.5586,37.2,110.1586" style="stroke:#181818;stroke-width:0.6;"/><line style="stroke:#181818;stroke-width:0.6;stroke-dasharray:2.0,2.0;" x1="36" x2="227.4" y1="110.1586" y2="110.1586"/><text fill="#000000" font-family="sans-serif" font-size="7.8" font-weight="bold" lengthAdjust="spacing" textLength="5.4" x="43.2" y="107.3133">3</text><text fill="#000000" font-family="sans-serif" font-size="7.8" lengthAdjust="spacing" textLength="128.4" x="51" y="107.3133">requests data (date, timeIntervals)</text><polygon fill="#181818" points="217.8,125.3449,223.8,127.7449,217.8,130.1449,220.2,127.7449" style="stroke:#181818;stroke-width:0.6;"/><line style="stroke:#181818;stroke-width:0.6;" x1="33" x2="221.4" y1="127.7449" y2="127.7449"/><text fill="#000000" font-family="sans-serif" font-size="7.8" font-weight="bold" lengthAdjust="spacing" textLength="5.4" x="37.2" y="124.8996">4</text><text fill="#000000" font-family="sans-serif" font-size="7.8" lengthAdjust="spacing" textLength="99" x="45" y="124.8996">selects the requested data</text><polygon fill="#181818" points="453,142.9313,459,145.3312,453,147.7313,455.4,145.3312" style="stroke:#181818;stroke-width:0.6;"/><line style="stroke:#181818;stroke-width:0.6;" x1="231" x2="456.6" y1="145.3312" y2="145.3312"/><text fill="#000000" font-family="sans-serif" font-size="7.8" font-weight="bold" lengthAdjust="spacing" textLength="5.4" x="235.2" y="142.4859">5</text><text fill="#000000" font-family="sans-serif" font-size="7.8" lengthAdjust="spacing" textLength="210" x="243" y="142.4859">analyzePerformance(date, timeIntervals, algorithmUsed)</text><polygon fill="#181818" points="577.8,160.5176,583.8,162.9176,577.8,165.3176,580.2,162.9176" style="stroke:#181818;stroke-width:0.6;"/><line style="stroke:#181818;stroke-width:0.6;" x1="466.2" x2="581.4" y1="162.9176" y2="162.9176"/><text fill="#000000" font-family="sans-serif" font-size="7.8" font-weight="bold" lengthAdjust="spacing" textLength="5.4" x="470.4" y="160.0723">6</text><text fill="#000000" font-family="sans-serif" font-size="7.8" lengthAdjust="spacing" textLength="73.2" x="478.2" y="160.0723">app = getInstance()</text><polygon fill="#181818" points="624,196.1039,630,198.5039,624,200.9039,626.4,198.5039" style="stroke:#181818;stroke-width:0.6;"/><line style="stroke:#181818;stroke-width:0.6;" x1="466.2" x2="627.6" y1="198.5039" y2="198.5039"/><text fill="#000000" font-family="sans-serif" font-size="7.8" font-weight="bold" lengthAdjust="spacing" textLength="5.4" x="470.4" y="195.6586">7</text><text fill="#000000" font-family="sans-serif" font-size="7.8" lengthAdjust="spacing" textLength="140.4" x="478.2" y="195.6586">vaccinationCenter = getActorCenter()</text><polygon fill="#181818" points="624,231.6902,630,234.0902,624,236.4902,626.4,234.0902" style="stroke:#181818;stroke-width:0.6;"/><line style="stroke:#181818;stroke-width:0.6;" x1="466.2" x2="627.6" y1="234.0902" y2="234.0902"/><text fill="#000000" font-family="sans-serif" font-size="7.8" font-weight="bold" lengthAdjust="spacing" textLength="5.4" x="470.4" y="231.2449">8</text><text fill="#000000" font-family="sans-serif" font-size="7.8" lengthAdjust="spacing" textLength="99" x="478.2" y="231.2449">userStore = getUserStore()</text><polygon fill="#181818" points="682.8,267.2766,688.8,269.6766,682.8,272.0766,685.2,269.6766" style="stroke:#181818;stroke-width:0.6;"/><line style="stroke:#181818;stroke-width:0.6;" x1="466.2" x2="686.4" y1="269.6766" y2="269.6766"/><text fill="#000000" font-family="sans-serif" font-size="7.8" font-weight="bold" lengthAdjust="spacing" textLength="5.4" x="470.4" y="266.8313">9</text><text fill="#000000" font-family="sans-serif" font-size="7.8" lengthAdjust="spacing" textLength="96.6" x="478.2" y="266.8313">usersList = getUsersList()</text><line style="stroke:#181818;stroke-width:0.6;" x1="469.2" x2="494.4" y1="305.2629" y2="305.2629"/><line style="stroke:#181818;stroke-width:0.6;" x1="494.4" x2="494.4" y1="305.2629" y2="313.0629"/><line style="stroke:#181818;stroke-width:0.6;" x1="469.8" x2="494.4" y1="313.0629" y2="313.0629"/><polygon fill="#181818" points="475.8,310.6629,469.8,313.0629,475.8,315.4629,473.4,313.0629" style="stroke:#181818;stroke-width:0.6;"/><text fill="#000000" font-family="sans-serif" font-size="7.8" font-weight="bold" lengthAdjust="spacing" textLength="10.8" x="473.4" y="302.4176">10</text><text fill="#000000" font-family="sans-serif" font-size="7.8" lengthAdjust="spacing" textLength="97.2" x="486.6" y="302.4176">checkIfUsersListIsEmpty()</text><polygon fill="#181818" points="759.6,346.2492,765.6,348.6492,759.6,351.0492,762,348.6492" style="stroke:#181818;stroke-width:0.6;"/><line style="stroke:#181818;stroke-width:0.6;" x1="466.2" x2="763.2" y1="348.6492" y2="348.6492"/><text fill="#000000" font-family="sans-serif" font-size="7.8" font-weight="bold" lengthAdjust="spacing" textLength="10.8" x="470.4" y="345.8039">11</text><text fill="#000000" font-family="sans-serif" font-size="7.8" lengthAdjust="spacing" textLength="249" x="483.6" y="345.8039">analyzePerformance(date, timeIntervals, algorithmUsed, usersList)</text><rect height="23.666" style="stroke:#000000;stroke-width:0.8999999999999999;fill:none;" width="114.6" x="723.9" y="371.4492"/><path d="M723.9,371.4492 L762.3,371.4492 L762.3,375.6492 L756.3,381.6492 L723.9,381.6492 L723.9,371.4492 " fill="#EEEEEE" style="stroke:#000000;stroke-width:1.2;"/><text fill="#000000" font-family="sans-serif" font-size="7.8" font-weight="bold" lengthAdjust="spacing" textLength="11.4" x="731.7" y="380.1902">ref</text><text fill="#000000" font-family="sans-serif" font-size="7.2" lengthAdjust="spacing" textLength="109.8" x="726.3" y="391.0102">US016_SD_AnalyzePerformance</text><polygon fill="#181818" points="453,408.5016,459,410.9016,453,413.3016,455.4,410.9016" style="stroke:#181818;stroke-width:0.6;"/><line style="stroke:#181818;stroke-width:0.6;" x1="231" x2="456.6" y1="410.9016" y2="410.9016"/><text fill="#000000" font-family="sans-serif" font-size="7.8" font-weight="bold" lengthAdjust="spacing" textLength="10.8" x="235.2" y="408.0563">12</text><text fill="#000000" font-family="sans-serif" font-size="7.8" lengthAdjust="spacing" textLength="78.6" x="248.4" y="408.0563">getPerformanceInfo()</text><polygon fill="#181818" points="577.8,426.0879,583.8,428.4879,577.8,430.8879,580.2,428.4879" style="stroke:#181818;stroke-width:0.6;"/><line style="stroke:#181818;stroke-width:0.6;" x1="466.2" x2="581.4" y1="428.4879" y2="428.4879"/><text fill="#000000" font-family="sans-serif" font-size="7.8" font-weight="bold" lengthAdjust="spacing" textLength="10.8" x="470.4" y="425.6426">13</text><text fill="#000000" font-family="sans-serif" font-size="7.8" lengthAdjust="spacing" textLength="73.2" x="483.6" y="425.6426">app = getInstance()</text><polygon fill="#181818" points="624,461.6742,630,464.0742,624,466.4742,626.4,464.0742" style="stroke:#181818;stroke-width:0.6;"/><line style="stroke:#181818;stroke-width:0.6;" x1="466.2" x2="627.6" y1="464.0742" y2="464.0742"/><text fill="#000000" font-family="sans-serif" font-size="7.8" font-weight="bold" lengthAdjust="spacing" textLength="10.8" x="470.4" y="461.2289">14</text><text fill="#000000" font-family="sans-serif" font-size="7.8" lengthAdjust="spacing" textLength="140.4" x="483.6" y="461.2289">vaccinationCenter = getActorCenter()</text><polygon fill="#181818" points="759.6,497.2605,765.6,499.6605,759.6,502.0605,762,499.6605" style="stroke:#181818;stroke-width:0.6;"/><line style="stroke:#181818;stroke-width:0.6;" x1="466.2" x2="763.2" y1="499.6605" y2="499.6605"/><text fill="#000000" font-family="sans-serif" font-size="7.8" font-weight="bold" lengthAdjust="spacing" textLength="10.8" x="470.4" y="496.8152">15</text><text fill="#000000" font-family="sans-serif" font-size="7.8" lengthAdjust="spacing" textLength="78.6" x="483.6" y="496.8152">getPerformanceInfo()</text><polygon fill="#181818" points="868.8,514.8469,874.8,517.2469,868.8,519.6469,871.2,517.2469" style="stroke:#181818;stroke-width:0.6;"/><line style="stroke:#181818;stroke-width:0.6;" x1="772.8" x2="872.4" y1="517.2469" y2="517.2469"/><text fill="#000000" font-family="sans-serif" font-size="7.8" font-weight="bold" lengthAdjust="spacing" textLength="10.8" x="777" y="514.4016">16</text><text fill="#000000" font-family="sans-serif" font-size="7.8" lengthAdjust="spacing" textLength="78.6" x="790.2" y="514.4016">getPerformanceInfo()</text><polygon fill="#181818" points="1072.2,532.4332,1078.2,534.8332,1072.2,537.2332,1074.6,534.8332" style="stroke:#181818;stroke-width:0.6;"/><line style="stroke:#181818;stroke-width:0.6;" x1="882" x2="1075.8" y1="534.8332" y2="534.8332"/><text fill="#000000" font-family="sans-serif" font-size="7.8" font-weight="bold" lengthAdjust="spacing" textLength="10.8" x="886.2" y="531.9879">17</text><text fill="#000000" font-family="sans-serif" font-size="7.8" lengthAdjust="spacing" textLength="91.2" x="899.4" y="531.9879">calendar = getInstance()</text><polygon fill="#181818" points="1072.2,568.0195,1078.2,570.4195,1072.2,572.8195,1074.6,570.4195" style="stroke:#181818;stroke-width:0.6;"/><line style="stroke:#181818;stroke-width:0.6;" x1="882" x2="1075.8" y1="570.4195" y2="570.4195"/><text fill="#000000" font-family="sans-serif" font-size="7.8" font-weight="bold" lengthAdjust="spacing" textLength="10.8" x="886.2" y="567.5742">18</text><text fill="#000000" font-family="sans-serif" font-size="7.8" lengthAdjust="spacing" textLength="34.8" x="899.4" y="567.5742">setTime()</text><line style="stroke:#181818;stroke-width:0.6;" x1="882" x2="910.2" y1="603.0059" y2="603.0059"/><line style="stroke:#181818;stroke-width:0.6;" x1="910.2" x2="910.2" y1="603.0059" y2="610.8059"/><line style="stroke:#181818;stroke-width:0.6;" x1="885.6" x2="910.2" y1="610.8059" y2="610.8059"/><polygon fill="#181818" points="891.6,608.4059,885.6,610.8059,891.6,613.2059,889.2,610.8059" style="stroke:#181818;stroke-width:0.6;"/><text fill="#000000" font-family="sans-serif" font-size="7.8" font-weight="bold" lengthAdjust="spacing" textLength="10.8" x="889.2" y="600.1605">19</text><text fill="#000000" font-family="sans-serif" font-size="7.8" lengthAdjust="spacing" textLength="175.8" x="902.4" y="600.1605">convertIndexesToTime(maxSumListIndexes[0])</text><polygon fill="#181818" points="1120.2,628.9922,1126.2,631.3922,1120.2,633.7922,1122.6,631.3922" style="stroke:#181818;stroke-width:0.6;"/><line style="stroke:#181818;stroke-width:0.6;" x1="885" x2="1123.8" y1="631.3922" y2="631.3922"/><text fill="#000000" font-family="sans-serif" font-size="7.8" font-weight="bold" lengthAdjust="spacing" textLength="10.8" x="889.2" y="628.5469">20</text><text fill="#000000" font-family="sans-serif" font-size="7.8" lengthAdjust="spacing" textLength="127.2" x="902.4" y="628.5469">addMinutes(index * timeIntervals)</text><line style="stroke:#181818;stroke-width:0.6;" x1="882" x2="910.2" y1="663.9785" y2="663.9785"/><line style="stroke:#181818;stroke-width:0.6;" x1="910.2" x2="910.2" y1="663.9785" y2="671.7785"/><line style="stroke:#181818;stroke-width:0.6;" x1="885.6" x2="910.2" y1="671.7785" y2="671.7785"/><polygon fill="#181818" points="891.6,669.3785,885.6,671.7785,891.6,674.1785,889.2,671.7785" style="stroke:#181818;stroke-width:0.6;"/><text fill="#000000" font-family="sans-serif" font-size="7.8" font-weight="bold" lengthAdjust="spacing" textLength="10.8" x="889.2" y="661.1332">21</text><text fill="#000000" font-family="sans-serif" font-size="7.8" lengthAdjust="spacing" textLength="175.8" x="902.4" y="661.1332">convertIndexesToTime(maxSumListIndexes[1])</text><polygon fill="#181818" points="1120.2,689.9648,1126.2,692.3648,1120.2,694.7648,1122.6,692.3648" style="stroke:#181818;stroke-width:0.6;"/><line style="stroke:#181818;stroke-width:0.6;" x1="885" x2="1123.8" y1="692.3648" y2="692.3648"/><text fill="#000000" font-family="sans-serif" font-size="7.8" font-weight="bold" lengthAdjust="spacing" textLength="10.8" x="889.2" y="689.5195">22</text><text fill="#000000" font-family="sans-serif" font-size="7.8" lengthAdjust="spacing" textLength="127.2" x="902.4" y="689.5195">addMinutes(index * timeIntervals)</text><polygon fill="#181818" points="39.6,725.5512,33.6,727.9512,39.6,730.3512,37.2,727.9512" style="stroke:#181818;stroke-width:0.6;"/><line style="stroke:#181818;stroke-width:0.6;stroke-dasharray:2.0,2.0;" x1="36" x2="227.4" y1="727.9512" y2="727.9512"/><text fill="#000000" font-family="sans-serif" font-size="7.8" font-weight="bold" lengthAdjust="spacing" textLength="10.8" x="43.2" y="725.1059">23</text><text fill="#000000" font-family="sans-serif" font-size="7.8" lengthAdjust="spacing" textLength="57" x="56.4" y="725.1059">shows the data</text><!--MD5=[7819ffadf0928e3567f7e1e6919082c8]
@startuml
autonumber
actor "Coordinator" as Cor
participant ":AnalyzePerformanceUI" as UI
participant ":AnalyzePerformanceController" as CTRL
participant ":App" as APP
participant ": Company" as COMP
participant ": UserStore" as US
participant ": VaccinationCenter" as VC
participant ": Performance" as P
participant ": Calendar" as CAL
participant ": Time" as T



activate Cor
Cor -> UI : asks to analyze the performance of the center
activate UI
UI -> CTRL ** : AnalyzePerformanceController()

UI - -> Cor : requests data (date, timeIntervals)
deactivate UI
Cor ->  UI : selects the requested data
activate UI
UI -> CTRL : analyzePerformance(date, timeIntervals, algorithmUsed)
activate CTRL
CTRL -> APP : app = getInstance()
activate APP
deactivate APP
CTRL -> COMP : vaccinationCenter = getActorCenter()
activate COMP
deactivate COMP
CTRL -> COMP: userStore = getUserStore()
activate COMP
deactivate COMP
CTRL -> US : usersList = getUsersList()
activate US
deactivate US
CTRL -> CTRL : checkIfUsersListIsEmpty()
activate CTRL
deactivate CTRL

CTRL -> VC : analyzePerformance(date, timeIntervals, algorithmUsed, usersList)
ref over VC
US016_SD_AnalyzePerformance
end
activate VC
deactivate VC
deactivate CTRL

UI -> CTRL: getPerformanceInfo()
activate CTRL
CTRL -> APP : app = getInstance()
activate APP
deactivate APP
CTRL -> COMP : vaccinationCenter = getActorCenter()
activate COMP
deactivate COMP
CTRL -> VC : getPerformanceInfo()
activate VC
VC -> P : getPerformanceInfo()
activate P
P -> CAL : calendar = getInstance()
activate CAL
deactivate CAL
P -> CAL : setTime()
activate CAL
deactivate CAL
P -> P : convertIndexesToTime(maxSumListIndexes[0])
activate P
P -> T : addMinutes(index * timeIntervals)
activate T
deactivate T
deactivate P
P -> P : convertIndexesToTime(maxSumListIndexes[1])
activate P
P -> T : addMinutes(index * timeIntervals)
activate T
deactivate T
deactivate P
deactivate P
deactivate VC
deactivate CTRL
UI - -> Cor : shows the data
deactivate UI

@enduml

PlantUML version 1.2022.5(Sat Apr 30 11:55:52 WEST 2022)
(GPL source distribution)
Java Runtime: OpenJDK Runtime Environment
JVM: OpenJDK 64-Bit Server VM
Default Encoding: UTF-8
Language: en
Country: PT
--></g></svg>