<?xml version="1.0" encoding="UTF-8" standalone="no"?><svg xmlns="http://www.w3.org/2000/svg" xmlns:xlink="http://www.w3.org/1999/xlink" contentStyleType="text/css" height="376px" preserveAspectRatio="none" style="width:509px;height:376px;background:#FFFFFF;" version="1.1" viewBox="0 0 509 376" width="509px" zoomAndPan="magnify"><defs/><g><!--MD5=[5d2bdee92db0d01b75732190da037553]
class Coordinator--><g id="elem_Coordinator"><rect codeLine="4" fill="#F1F1F1" height="48" id="Coordinator" rx="2.5" ry="2.5" style="stroke:#181818;stroke-width:0.5;" width="107" x="374" y="321.3564"/><ellipse cx="389" cy="337.3564" fill="#ADD1B2" rx="11" ry="11" style="stroke:#181818;stroke-width:1.0;"/><path d="M391,333.8564 Q391.2031,333.3564 391.4375,333.1064 Q391.6719,332.8564 391.9375,332.8564 Q392.4063,332.8564 392.7031,333.1377 Q393,333.4189 393,334.0752 L393,335.6377 Q393,336.2939 392.7188,336.5752 Q392.4375,336.8564 392,336.8564 Q391.6094,336.8564 391.3594,336.6846 Q391.1094,336.5127 391,336.0596 Q390.9531,335.7471 390.7813,335.5752 Q390.4688,335.2471 389.9063,335.0596 Q389.3438,334.8564 388.7813,334.8564 Q388.0781,334.8564 387.4844,335.1377 Q386.9063,335.4189 386.4531,336.0439 Q386,336.6689 386,337.5283 L386,338.4502 Q386,339.4814 386.8438,340.1689 Q387.6875,340.8564 389.1875,340.8564 Q390.0781,340.8564 390.7031,340.6533 Q391.0625,340.5439 391.4688,340.1846 Q391.7344,339.9814 391.875,339.9189 Q392.0156,339.8564 392.1875,339.8564 Q392.5156,339.8564 392.75,340.1221 Q393,340.3721 393,340.7314 Q393,341.0752 392.6563,341.4814 Q392.1563,342.0752 391.3594,342.4033 Q390.3125,342.8564 389.0313,342.8564 Q387.5313,342.8564 386.3281,342.2627 Q385.3594,341.7939 384.6719,340.7783 Q384,339.7627 384,338.5596 L384,337.4658 Q384,336.2158 384.5938,335.1221 Q385.2031,334.0283 386.25,333.4502 Q387.3125,332.8564 388.5,332.8564 Q389.2188,332.8564 389.8438,333.1064 Q390.4688,333.3564 391,333.8564 Z " fill="#000000"/><text fill="#000000" font-family="sans-serif" font-size="14" lengthAdjust="spacing" textLength="75" x="403" y="343.085">Coordinator</text><line style="stroke:#181818;stroke-width:0.5;" x1="375" x2="480" y1="353.3564" y2="353.3564"/><line style="stroke:#181818;stroke-width:0.5;" x1="375" x2="480" y1="361.3564" y2="361.3564"/></g><!--MD5=[bc9474904c93394f6b59770801b96c22]
class SNS User--><g id="elem_SNS User"><rect codeLine="7" fill="#F1F1F1" height="188.875" id="SNS User" rx="2.5" ry="2.5" style="stroke:#181818;stroke-width:0.5;" width="152" x="165.5" y="54.3564"/><ellipse cx="207.5" cy="70.3564" fill="#ADD1B2" rx="11" ry="11" style="stroke:#181818;stroke-width:1.0;"/><path d="M209.5,66.8564 Q209.7031,66.3564 209.9375,66.1064 Q210.1719,65.8564 210.4375,65.8564 Q210.9063,65.8564 211.2031,66.1377 Q211.5,66.4189 211.5,67.0752 L211.5,68.6377 Q211.5,69.2939 211.2188,69.5752 Q210.9375,69.8564 210.5,69.8564 Q210.1094,69.8564 209.8594,69.6846 Q209.6094,69.5127 209.5,69.0596 Q209.4531,68.7471 209.2813,68.5752 Q208.9688,68.2471 208.4063,68.0596 Q207.8438,67.8564 207.2813,67.8564 Q206.5781,67.8564 205.9844,68.1377 Q205.4063,68.4189 204.9531,69.0439 Q204.5,69.6689 204.5,70.5283 L204.5,71.4502 Q204.5,72.4814 205.3438,73.1689 Q206.1875,73.8564 207.6875,73.8564 Q208.5781,73.8564 209.2031,73.6533 Q209.5625,73.5439 209.9688,73.1846 Q210.2344,72.9814 210.375,72.9189 Q210.5156,72.8564 210.6875,72.8564 Q211.0156,72.8564 211.25,73.1221 Q211.5,73.3721 211.5,73.7314 Q211.5,74.0752 211.1563,74.4814 Q210.6563,75.0752 209.8594,75.4033 Q208.8125,75.8564 207.5313,75.8564 Q206.0313,75.8564 204.8281,75.2627 Q203.8594,74.7939 203.1719,73.7783 Q202.5,72.7627 202.5,71.5596 L202.5,70.4658 Q202.5,69.2158 203.0938,68.1221 Q203.7031,67.0283 204.75,66.4502 Q205.8125,65.8564 207,65.8564 Q207.7188,65.8564 208.3438,66.1064 Q208.9688,66.3564 209.5,66.8564 Z " fill="#000000"/><text fill="#000000" font-family="sans-serif" font-size="14" lengthAdjust="spacing" textLength="60" x="227.5" y="76.085">SNS User</text><line style="stroke:#181818;stroke-width:0.5;" x1="166.5" x2="316.5" y1="86.3564" y2="86.3564"/><rect fill="none" height="6" style="stroke:#C82930;stroke-width:1.0;" width="6" x="173.5" y="94.3564"/><text fill="#000000" font-family="sans-serif" font-size="14" lengthAdjust="spacing" textLength="36" x="185.5" y="104.8896">Name</text><rect fill="none" height="6" style="stroke:#C82930;stroke-width:1.0;" width="6" x="173.5" y="111.9658"/><text fill="#000000" font-family="sans-serif" font-size="14" lengthAdjust="spacing" textLength="52" x="185.5" y="122.499">Address</text><rect fill="none" height="6" style="stroke:#C82930;stroke-width:1.0;" width="6" x="173.5" y="129.5752"/><text fill="#000000" font-family="sans-serif" font-size="14" lengthAdjust="spacing" textLength="34" x="185.5" y="140.1084">Email</text><rect fill="none" height="6" style="stroke:#C82930;stroke-width:1.0;" width="6" x="173.5" y="147.1846"/><text fill="#000000" font-family="sans-serif" font-size="14" lengthAdjust="spacing" textLength="23" x="185.5" y="157.7178">Sex</text><rect fill="none" height="6" style="stroke:#C82930;stroke-width:1.0;" width="6" x="173.5" y="164.7939"/><text fill="#000000" font-family="sans-serif" font-size="14" lengthAdjust="spacing" textLength="93" x="185.5" y="175.3271">Phone number</text><rect fill="none" height="6" style="stroke:#C82930;stroke-width:1.0;" width="6" x="173.5" y="182.4033"/><text fill="#000000" font-family="sans-serif" font-size="14" lengthAdjust="spacing" textLength="61" x="185.5" y="192.9365">Birth date</text><rect fill="none" height="6" style="stroke:#C82930;stroke-width:1.0;" width="6" x="173.5" y="200.0127"/><text fill="#000000" font-family="sans-serif" font-size="14" lengthAdjust="spacing" textLength="112" x="185.5" y="210.5459">SNS User number</text><rect fill="none" height="6" style="stroke:#C82930;stroke-width:1.0;" width="6" x="173.5" y="217.6221"/><text fill="#000000" font-family="sans-serif" font-size="14" lengthAdjust="spacing" textLength="126" x="185.5" y="228.1553">Citizen card number</text><line style="stroke:#181818;stroke-width:0.5;" x1="166.5" x2="316.5" y1="235.2314" y2="235.2314"/></g><!--MD5=[7421f545a0d8420c5bec41e74b387d9c]
class Employee--><g id="elem_Employee"><rect codeLine="18" fill="#F1F1F1" height="153.6563" id="Employee" rx="2.5" ry="2.5" style="stroke:#181818;stroke-width:0.5;" width="149" x="353" y="71.8564"/><ellipse cx="392.75" cy="87.8564" fill="#ADD1B2" rx="11" ry="11" style="stroke:#181818;stroke-width:1.0;"/><path d="M394.75,84.3564 Q394.9531,83.8564 395.1875,83.6064 Q395.4219,83.3564 395.6875,83.3564 Q396.1563,83.3564 396.4531,83.6377 Q396.75,83.9189 396.75,84.5752 L396.75,86.1377 Q396.75,86.7939 396.4688,87.0752 Q396.1875,87.3564 395.75,87.3564 Q395.3594,87.3564 395.1094,87.1846 Q394.8594,87.0127 394.75,86.5596 Q394.7031,86.2471 394.5313,86.0752 Q394.2188,85.7471 393.6563,85.5596 Q393.0938,85.3564 392.5313,85.3564 Q391.8281,85.3564 391.2344,85.6377 Q390.6563,85.9189 390.2031,86.5439 Q389.75,87.1689 389.75,88.0283 L389.75,88.9502 Q389.75,89.9814 390.5938,90.6689 Q391.4375,91.3564 392.9375,91.3564 Q393.8281,91.3564 394.4531,91.1533 Q394.8125,91.0439 395.2188,90.6846 Q395.4844,90.4814 395.625,90.4189 Q395.7656,90.3564 395.9375,90.3564 Q396.2656,90.3564 396.5,90.6221 Q396.75,90.8721 396.75,91.2314 Q396.75,91.5752 396.4063,91.9814 Q395.9063,92.5752 395.1094,92.9033 Q394.0625,93.3564 392.7813,93.3564 Q391.2813,93.3564 390.0781,92.7627 Q389.1094,92.2939 388.4219,91.2783 Q387.75,90.2627 387.75,89.0596 L387.75,87.9658 Q387.75,86.7158 388.3438,85.6221 Q388.9531,84.5283 390,83.9502 Q391.0625,83.3564 392.25,83.3564 Q392.9688,83.3564 393.5938,83.6064 Q394.2188,83.8564 394.75,84.3564 Z " fill="#000000"/><text fill="#000000" font-family="sans-serif" font-size="14" lengthAdjust="spacing" textLength="62" x="412.25" y="93.585">Employee</text><line style="stroke:#181818;stroke-width:0.5;" x1="354" x2="501" y1="103.8564" y2="103.8564"/><rect fill="none" height="6" style="stroke:#C82930;stroke-width:1.0;" width="6" x="361" y="111.8564"/><text fill="#000000" font-family="sans-serif" font-size="14" lengthAdjust="spacing" textLength="11" x="373" y="122.3896">id</text><rect fill="none" height="6" style="stroke:#C82930;stroke-width:1.0;" width="6" x="361" y="129.4658"/><text fill="#000000" font-family="sans-serif" font-size="14" lengthAdjust="spacing" textLength="35" x="373" y="139.999">name</text><rect fill="none" height="6" style="stroke:#C82930;stroke-width:1.0;" width="6" x="361" y="147.0752"/><text fill="#000000" font-family="sans-serif" font-size="14" lengthAdjust="spacing" textLength="51" x="373" y="157.6084">address</text><rect fill="none" height="6" style="stroke:#C82930;stroke-width:1.0;" width="6" x="361" y="164.6846"/><text fill="#000000" font-family="sans-serif" font-size="14" lengthAdjust="spacing" textLength="92" x="373" y="175.2178">phone number</text><rect fill="none" height="6" style="stroke:#C82930;stroke-width:1.0;" width="6" x="361" y="182.2939"/><text fill="#000000" font-family="sans-serif" font-size="14" lengthAdjust="spacing" textLength="38" x="373" y="192.8271">e-mail</text><rect fill="none" height="6" style="stroke:#C82930;stroke-width:1.0;" width="6" x="361" y="199.9033"/><text fill="#000000" font-family="sans-serif" font-size="14" lengthAdjust="spacing" textLength="123" x="373" y="210.4365">citizen card number</text><line style="stroke:#181818;stroke-width:0.5;" x1="354" x2="501" y1="217.5127" y2="217.5127"/></g><!--MD5=[02e4b9b7573f1156f41e60aa5b4e25a4]
class Company--><g id="elem_Company"><rect codeLine="27" fill="#F1F1F1" height="65.6094" id="Company" rx="2.5" ry="2.5" style="stroke:#181818;stroke-width:0.5;" width="101" x="7" y="115.8564"/><ellipse cx="26.05" cy="131.8564" fill="#ADD1B2" rx="11" ry="11" style="stroke:#181818;stroke-width:1.0;"/><path d="M28.05,128.3564 Q28.2531,127.8564 28.4875,127.6064 Q28.7219,127.3564 28.9875,127.3564 Q29.4563,127.3564 29.7531,127.6377 Q30.05,127.9189 30.05,128.5752 L30.05,130.1377 Q30.05,130.7939 29.7688,131.0752 Q29.4875,131.3564 29.05,131.3564 Q28.6594,131.3564 28.4094,131.1846 Q28.1594,131.0127 28.05,130.5596 Q28.0031,130.2471 27.8313,130.0752 Q27.5188,129.7471 26.9563,129.5596 Q26.3938,129.3564 25.8313,129.3564 Q25.1281,129.3564 24.5344,129.6377 Q23.9563,129.9189 23.5031,130.5439 Q23.05,131.1689 23.05,132.0283 L23.05,132.9502 Q23.05,133.9814 23.8938,134.6689 Q24.7375,135.3564 26.2375,135.3564 Q27.1281,135.3564 27.7531,135.1533 Q28.1125,135.0439 28.5188,134.6846 Q28.7844,134.4814 28.925,134.4189 Q29.0656,134.3564 29.2375,134.3564 Q29.5656,134.3564 29.8,134.6221 Q30.05,134.8721 30.05,135.2314 Q30.05,135.5752 29.7063,135.9814 Q29.2063,136.5752 28.4094,136.9033 Q27.3625,137.3564 26.0813,137.3564 Q24.5813,137.3564 23.3781,136.7627 Q22.4094,136.2939 21.7219,135.2783 Q21.05,134.2627 21.05,133.0596 L21.05,131.9658 Q21.05,130.7158 21.6438,129.6221 Q22.2531,128.5283 23.3,127.9502 Q24.3625,127.3564 25.55,127.3564 Q26.2688,127.3564 26.8938,127.6064 Q27.5188,127.8564 28.05,128.3564 Z " fill="#000000"/><text fill="#000000" font-family="sans-serif" font-size="14" lengthAdjust="spacing" textLength="60" x="40.95" y="137.585">Company</text><line style="stroke:#181818;stroke-width:0.5;" x1="8" x2="107" y1="147.8564" y2="147.8564"/><rect fill="none" height="6" style="stroke:#C82930;stroke-width:1.0;" width="6" x="15" y="155.8564"/><text fill="#000000" font-family="sans-serif" font-size="14" lengthAdjust="spacing" textLength="75" x="27" y="166.3896">Designation</text><line style="stroke:#181818;stroke-width:0.5;" x1="8" x2="107" y1="173.4658" y2="173.4658"/></g><!--MD5=[d8cf155570c2fc8069691ea2f7bdb19f]
link Employee to Coordinator--><g id="link_Employee_Coordinator"><path codeLine="31" d="M427.5,225.8864 C427.5,259.9864 427.5,297.7364 427.5,321.2564 " fill="none" id="Employee-Coordinator" style="stroke:#181818;stroke-width:1.0;"/><polygon fill="#000000" points="432.5,287.5322,435.4389,278.4871,429.5611,278.4871,432.5,287.5322" style="stroke:#000000;stroke-width:1.0;"/><text fill="#000000" font-family="sans-serif" font-size="13" lengthAdjust="spacing" textLength="42" x="441.5" y="287.8516">play as</text><text fill="#000000" font-family="sans-serif" font-size="13" lengthAdjust="spacing" textLength="7" x="420.1883" y="246.9855">1</text><text fill="#000000" font-family="sans-serif" font-size="13" lengthAdjust="spacing" textLength="20" x="404.9375" y="310.571">1..*</text></g><!--MD5=[d0cadfdf65c87de1901cff2e300b58e1]
link Company to SNS User--><g id="link_Company_SNS User"><path codeLine="32" d="M108.27,148.8564 C125.92,148.8564 146.14,148.8564 165.39,148.8564 " fill="none" id="Company-SNS User" style="stroke:#181818;stroke-width:1.0;"/><text fill="#000000" font-family="sans-serif" font-size="13" lengthAdjust="spacing" textLength="21" x="126.25" y="142.3516">has</text><text fill="#000000" font-family="sans-serif" font-size="13" lengthAdjust="spacing" textLength="7" x="115.9017" y="145.2787">1</text><text fill="#000000" font-family="sans-serif" font-size="13" lengthAdjust="spacing" textLength="20" x="137.4517" y="163.111">1..*</text></g><!--MD5=[09366576ee87d48d594df10cacc83f45]
link Company to Employee--><g id="link_Company_Employee"><path codeLine="33" d="M82.77,115.8464 C99.57,95.7864 123.14,70.9264 148.5,54.3564 C176.46,36.0864 186.12,34.2264 219,28.3564 C271.23,19.0364 289.86,27.3064 335.5,54.3564 C343.87,59.3164 352,65.2364 359.73,71.6564 " fill="none" id="Company-Employee" style="stroke:#181818;stroke-width:1.0;"/><text fill="#000000" font-family="sans-serif" font-size="13" lengthAdjust="spacing" textLength="21" x="220" y="20.8516">has</text><text fill="#000000" font-family="sans-serif" font-size="13" lengthAdjust="spacing" textLength="7" x="80.2601" y="104.9598">1</text><text fill="#000000" font-family="sans-serif" font-size="13" lengthAdjust="spacing" textLength="20" x="332.3175" y="61.0641">1..*</text></g><!--MD5=[e969a4998cc71465f462418ed63fcd2f]
@startuml
'https://plantuml.com/class-diagram


class Coordinator{
}

class "SNS User"{
- Name
- Address
- Email
- Sex
- Phone number
- Birth date
- SNS User number
- Citizen card number
}

class Employee{
-id
-name
-address
-phone number
-e-mail
-citizen card number
}

class Company{
- Designation
}

Coordinator"1..*" -up- "1"Employee : < play as
Company"1" -right- "1..*" "SNS User" : has
Company"1" -right- "1..*"Employee : has
@enduml

@startuml


class Coordinator{
}

class "SNS User"{
- Name
- Address
- Email
- Sex
- Phone number
- Birth date
- SNS User number
- Citizen card number
}

class Employee{
-id
-name
-address
-phone number
-e-mail
-citizen card number
}

class Company{
- Designation
}

Coordinator"1..*" -up- "1"Employee : < play as
Company"1" -right- "1..*" "SNS User" : has
Company"1" -right- "1..*"Employee : has
@enduml

PlantUML version 1.2022.4(Sat Apr 09 14:29:17 BST 2022)
(GPL source distribution)
Java Runtime: OpenJDK Runtime Environment
JVM: OpenJDK 64-Bit Server VM
Default Encoding: Cp1252
Language: pt
Country: PT
--></g></svg>