<?xml version="1.0" encoding="UTF-8" standalone="no"?><svg xmlns="http://www.w3.org/2000/svg" xmlns:xlink="http://www.w3.org/1999/xlink" contentStyleType="text/css" height="427px" preserveAspectRatio="none" style="width:376px;height:427px;background:#FFFFFF;" version="1.1" viewBox="0 0 376 427" width="376px" zoomAndPan="magnify"><defs/><g><rect fill="#FFFFFF" height="243.8125" style="stroke:#181818;stroke-width:1.0;" width="10" x="62" y="92.6094"/><rect fill="#FFFFFF" height="30.3516" style="stroke:#181818;stroke-width:1.0;" width="10" x="330" y="114.9609"/><rect fill="#FFFFFF" height="30.3516" style="stroke:#181818;stroke-width:1.0;" width="10" x="330" y="175.6641"/><rect fill="#FFFFFF" height="30.3516" style="stroke:#181818;stroke-width:1.0;" width="10" x="330" y="236.3672"/><rect fill="#FFFFFF" height="30.3516" style="stroke:#181818;stroke-width:1.0;" width="10" x="330" y="297.0703"/><line style="stroke:#181818;stroke-width:0.5;stroke-dasharray:5.0,5.0;" x1="67" x2="67" y1="82.6094" y2="345.4219"/><line style="stroke:#181818;stroke-width:0.5;stroke-dasharray:5.0,5.0;" x1="335" x2="335" y1="82.6094" y2="345.4219"/><text fill="#000000" font-family="sans-serif" font-size="14" lengthAdjust="spacing" textLength="118" x="5" y="79.5332">CenterCoordinator</text><ellipse cx="67" cy="13.5" fill="#E2E2F0" rx="8" ry="8" style="stroke:#181818;stroke-width:0.5;"/><path d="M67,21.5 L67,48.5 M54,29.5 L80,29.5 M67,48.5 L54,63.5 M67,48.5 L80,63.5 " fill="none" style="stroke:#181818;stroke-width:0.5;"/><text fill="#000000" font-family="sans-serif" font-size="14" lengthAdjust="spacing" textLength="118" x="5" y="358.9551">CenterCoordinator</text><ellipse cx="67" cy="370.5313" fill="#E2E2F0" rx="8" ry="8" style="stroke:#181818;stroke-width:0.5;"/><path d="M67,378.5313 L67,405.5313 M54,386.5313 L80,386.5313 M67,405.5313 L54,420.5313 M67,405.5313 L80,420.5313 " fill="none" style="stroke:#181818;stroke-width:0.5;"/><rect fill="#E2E2F0" height="31.6094" rx="2.5" ry="2.5" style="stroke:#181818;stroke-width:0.5;" width="70" x="300" y="50"/><text fill="#000000" font-family="sans-serif" font-size="14" lengthAdjust="spacing" textLength="56" x="307" y="71.5332">SYSTEM</text><rect fill="#E2E2F0" height="31.6094" rx="2.5" ry="2.5" style="stroke:#181818;stroke-width:0.5;" width="70" x="300" y="344.4219"/><text fill="#000000" font-family="sans-serif" font-size="14" lengthAdjust="spacing" textLength="56" x="307" y="365.9551">SYSTEM</text><rect fill="#FFFFFF" height="243.8125" style="stroke:#181818;stroke-width:1.0;" width="10" x="62" y="92.6094"/><rect fill="#FFFFFF" height="30.3516" style="stroke:#181818;stroke-width:1.0;" width="10" x="330" y="114.9609"/><rect fill="#FFFFFF" height="30.3516" style="stroke:#181818;stroke-width:1.0;" width="10" x="330" y="175.6641"/><rect fill="#FFFFFF" height="30.3516" style="stroke:#181818;stroke-width:1.0;" width="10" x="330" y="236.3672"/><rect fill="#FFFFFF" height="30.3516" style="stroke:#181818;stroke-width:1.0;" width="10" x="330" y="297.0703"/><polygon fill="#181818" points="318,110.9609,328,114.9609,318,118.9609,322,114.9609" style="stroke:#181818;stroke-width:1.0;"/><line style="stroke:#181818;stroke-width:1.0;" x1="72" x2="324" y1="114.9609" y2="114.9609"/><text fill="#000000" font-family="sans-serif" font-size="13" font-weight="bold" lengthAdjust="spacing" textLength="7" x="79" y="110.1045">1</text><text fill="#000000" font-family="sans-serif" font-size="13" lengthAdjust="spacing" textLength="228" x="90" y="110.1045">Selects to export vaccination statistics.</text><polygon fill="#181818" points="83,141.3125,73,145.3125,83,149.3125,79,145.3125" style="stroke:#181818;stroke-width:1.0;"/><line style="stroke:#181818;stroke-width:1.0;stroke-dasharray:2.0,2.0;" x1="77" x2="334" y1="145.3125" y2="145.3125"/><text fill="#000000" font-family="sans-serif" font-size="13" font-weight="bold" lengthAdjust="spacing" textLength="7" x="89" y="140.4561">2</text><text fill="#000000" font-family="sans-serif" font-size="13" lengthAdjust="spacing" textLength="162" x="100" y="140.4561">Requests start date interval.</text><polygon fill="#181818" points="318,171.6641,328,175.6641,318,179.6641,322,175.6641" style="stroke:#181818;stroke-width:1.0;"/><line style="stroke:#181818;stroke-width:1.0;" x1="72" x2="324" y1="175.6641" y2="175.6641"/><text fill="#000000" font-family="sans-serif" font-size="13" font-weight="bold" lengthAdjust="spacing" textLength="7" x="79" y="170.8076">3</text><text fill="#000000" font-family="sans-serif" font-size="13" lengthAdjust="spacing" textLength="167" x="90" y="170.8076">Writes the start date interval.</text><polygon fill="#181818" points="83,202.0156,73,206.0156,83,210.0156,79,206.0156" style="stroke:#181818;stroke-width:1.0;"/><line style="stroke:#181818;stroke-width:1.0;stroke-dasharray:2.0,2.0;" x1="77" x2="334" y1="206.0156" y2="206.0156"/><text fill="#000000" font-family="sans-serif" font-size="13" font-weight="bold" lengthAdjust="spacing" textLength="7" x="89" y="201.1592">4</text><text fill="#000000" font-family="sans-serif" font-size="13" lengthAdjust="spacing" textLength="157" x="100" y="201.1592">Requests end date interval.</text><polygon fill="#181818" points="318,232.3672,328,236.3672,318,240.3672,322,236.3672" style="stroke:#181818;stroke-width:1.0;"/><line style="stroke:#181818;stroke-width:1.0;" x1="72" x2="324" y1="236.3672" y2="236.3672"/><text fill="#000000" font-family="sans-serif" font-size="13" font-weight="bold" lengthAdjust="spacing" textLength="7" x="79" y="231.5107">5</text><text fill="#000000" font-family="sans-serif" font-size="13" lengthAdjust="spacing" textLength="162" x="90" y="231.5107">Writes the end date interval.</text><polygon fill="#181818" points="83,262.7188,73,266.7188,83,270.7188,79,266.7188" style="stroke:#181818;stroke-width:1.0;"/><line style="stroke:#181818;stroke-width:1.0;stroke-dasharray:2.0,2.0;" x1="77" x2="334" y1="266.7188" y2="266.7188"/><text fill="#000000" font-family="sans-serif" font-size="13" font-weight="bold" lengthAdjust="spacing" textLength="7" x="89" y="261.8623">6</text><text fill="#000000" font-family="sans-serif" font-size="13" lengthAdjust="spacing" textLength="198" x="100" y="261.8623">Requests the path to the CSV file.</text><polygon fill="#181818" points="318,293.0703,328,297.0703,318,301.0703,322,297.0703" style="stroke:#181818;stroke-width:1.0;"/><line style="stroke:#181818;stroke-width:1.0;" x1="72" x2="324" y1="297.0703" y2="297.0703"/><text fill="#000000" font-family="sans-serif" font-size="13" font-weight="bold" lengthAdjust="spacing" textLength="7" x="79" y="292.2139">7</text><text fill="#000000" font-family="sans-serif" font-size="13" lengthAdjust="spacing" textLength="150" x="90" y="292.2139">Writes the path to the file.</text><polygon fill="#181818" points="83,323.4219,73,327.4219,83,331.4219,79,327.4219" style="stroke:#181818;stroke-width:1.0;"/><line style="stroke:#181818;stroke-width:1.0;stroke-dasharray:2.0,2.0;" x1="77" x2="334" y1="327.4219" y2="327.4219"/><text fill="#000000" font-family="sans-serif" font-size="13" font-weight="bold" lengthAdjust="spacing" textLength="7" x="89" y="322.5654">8</text><text fill="#000000" font-family="sans-serif" font-size="13" lengthAdjust="spacing" textLength="156" x="100" y="322.5654">Informs operation success.</text><!--MD5=[29d28ab18c6acd02825cdb43674b7a8a]
@startuml
'https://plantuml.com/sequence-diagram

autonumber

actor "CenterCoordinator" as Coord

activate Coord

"Coord" -> SYSTEM: Selects to export vaccination statistics.
activate "SYSTEM"
"Coord" <- - SYSTEM: Requests start date interval.
deactivate "SYSTEM"
"Coord" -> SYSTEM: Writes the start date interval.
activate "SYSTEM"
"Coord" <- - SYSTEM: Requests end date interval.
deactivate "SYSTEM"
"Coord" -> SYSTEM: Writes the end date interval.
activate "SYSTEM"
"Coord" <- - SYSTEM: Requests the path to the CSV file.
deactivate "SYSTEM"
"Coord" -> SYSTEM: Writes the path to the file.

activate "SYSTEM"
"Coord" <- - SYSTEM: Informs operation success.
deactivate "SYSTEM"
@enduml

@startuml

autonumber

actor "CenterCoordinator" as Coord

activate Coord

"Coord" -> SYSTEM: Selects to export vaccination statistics.
activate "SYSTEM"
"Coord" <- - SYSTEM: Requests start date interval.
deactivate "SYSTEM"
"Coord" -> SYSTEM: Writes the start date interval.
activate "SYSTEM"
"Coord" <- - SYSTEM: Requests end date interval.
deactivate "SYSTEM"
"Coord" -> SYSTEM: Writes the end date interval.
activate "SYSTEM"
"Coord" <- - SYSTEM: Requests the path to the CSV file.
deactivate "SYSTEM"
"Coord" -> SYSTEM: Writes the path to the file.

activate "SYSTEM"
"Coord" <- - SYSTEM: Informs operation success.
deactivate "SYSTEM"
@enduml

PlantUML version 1.2022.4(Sat Apr 09 14:29:17 BST 2022)
(GPL source distribution)
Java Runtime: OpenJDK Runtime Environment
JVM: OpenJDK 64-Bit Server VM
Default Encoding: Cp1252
Language: pt
Country: PT
--></g></svg>