<?xml version="1.0" encoding="UTF-8" standalone="no"?><svg xmlns="http://www.w3.org/2000/svg" xmlns:xlink="http://www.w3.org/1999/xlink" contentStyleType="text/css" height="689px" preserveAspectRatio="none" style="width:945px;height:689px;background:#FFFFFF;" version="1.1" viewBox="0 0 945 689" width="945px" zoomAndPan="magnify"><defs/><g><!--MD5=[3fd616f346a44cd59a91eb10b19e157c]
class User--><g id="elem_User"><rect codeLine="3" fill="#F1F1F1" height="65.6094" id="User" rx="2.5" ry="2.5" style="stroke:#181818;stroke-width:0.5;" width="233" x="545.5" y="473"/><ellipse cx="643.25" cy="489" fill="#ADD1B2" rx="11" ry="11" style="stroke:#181818;stroke-width:1.0;"/><path d="M645.25,485.5 Q645.4531,485 645.6875,484.75 Q645.9219,484.5 646.1875,484.5 Q646.6563,484.5 646.9531,484.7813 Q647.25,485.0625 647.25,485.7188 L647.25,487.2813 Q647.25,487.9375 646.9688,488.2188 Q646.6875,488.5 646.25,488.5 Q645.8594,488.5 645.6094,488.3281 Q645.3594,488.1563 645.25,487.7031 Q645.2031,487.3906 645.0313,487.2188 Q644.7188,486.8906 644.1563,486.7031 Q643.5938,486.5 643.0313,486.5 Q642.3281,486.5 641.7344,486.7813 Q641.1563,487.0625 640.7031,487.6875 Q640.25,488.3125 640.25,489.1719 L640.25,490.0938 Q640.25,491.125 641.0938,491.8125 Q641.9375,492.5 643.4375,492.5 Q644.3281,492.5 644.9531,492.2969 Q645.3125,492.1875 645.7188,491.8281 Q645.9844,491.625 646.125,491.5625 Q646.2656,491.5 646.4375,491.5 Q646.7656,491.5 647,491.7656 Q647.25,492.0156 647.25,492.375 Q647.25,492.7188 646.9063,493.125 Q646.4063,493.7188 645.6094,494.0469 Q644.5625,494.5 643.2813,494.5 Q641.7813,494.5 640.5781,493.9063 Q639.6094,493.4375 638.9219,492.4219 Q638.25,491.4063 638.25,490.2031 L638.25,489.1094 Q638.25,487.8594 638.8438,486.7656 Q639.4531,485.6719 640.5,485.0938 Q641.5625,484.5 642.75,484.5 Q643.4688,484.5 644.0938,484.75 Q644.7188,485 645.25,485.5 Z " fill="#000000"/><text fill="#000000" font-family="sans-serif" font-size="14" lengthAdjust="spacing" textLength="29" x="663.75" y="494.7285">User</text><line style="stroke:#181818;stroke-width:0.5;" x1="546.5" x2="777.5" y1="505" y2="505"/><line style="stroke:#181818;stroke-width:0.5;" x1="546.5" x2="777.5" y1="513" y2="513"/><ellipse cx="556.5" cy="524" fill="#84BE84" rx="3" ry="3" style="stroke:#038048;stroke-width:1.0;"/><text fill="#000000" font-family="sans-serif" font-size="14" lengthAdjust="spacing" textLength="207" x="565.5" y="531.5332">getVaccineAdministrationStore();</text></g><!--MD5=[02e4b9b7573f1156f41e60aa5b4e25a4]
class Company--><g id="elem_Company"><rect codeLine="7" fill="#F1F1F1" height="83.2188" id="Company" rx="2.5" ry="2.5" style="stroke:#181818;stroke-width:0.5;" width="137" x="221.5" y="312"/><ellipse cx="256.75" cy="328" fill="#ADD1B2" rx="11" ry="11" style="stroke:#181818;stroke-width:1.0;"/><path d="M258.75,324.5 Q258.9531,324 259.1875,323.75 Q259.4219,323.5 259.6875,323.5 Q260.1563,323.5 260.4531,323.7813 Q260.75,324.0625 260.75,324.7188 L260.75,326.2813 Q260.75,326.9375 260.4688,327.2188 Q260.1875,327.5 259.75,327.5 Q259.3594,327.5 259.1094,327.3281 Q258.8594,327.1563 258.75,326.7031 Q258.7031,326.3906 258.5313,326.2188 Q258.2188,325.8906 257.6563,325.7031 Q257.0938,325.5 256.5313,325.5 Q255.8281,325.5 255.2344,325.7813 Q254.6563,326.0625 254.2031,326.6875 Q253.75,327.3125 253.75,328.1719 L253.75,329.0938 Q253.75,330.125 254.5938,330.8125 Q255.4375,331.5 256.9375,331.5 Q257.8281,331.5 258.4531,331.2969 Q258.8125,331.1875 259.2188,330.8281 Q259.4844,330.625 259.625,330.5625 Q259.7656,330.5 259.9375,330.5 Q260.2656,330.5 260.5,330.7656 Q260.75,331.0156 260.75,331.375 Q260.75,331.7188 260.4063,332.125 Q259.9063,332.7188 259.1094,333.0469 Q258.0625,333.5 256.7813,333.5 Q255.2813,333.5 254.0781,332.9063 Q253.1094,332.4375 252.4219,331.4219 Q251.75,330.4063 251.75,329.2031 L251.75,328.1094 Q251.75,326.8594 252.3438,325.7656 Q252.9531,324.6719 254,324.0938 Q255.0625,323.5 256.25,323.5 Q256.9688,323.5 257.5938,323.75 Q258.2188,324 258.75,324.5 Z " fill="#000000"/><text fill="#000000" font-family="sans-serif" font-size="14" lengthAdjust="spacing" textLength="60" x="275.25" y="333.7285">Company</text><line style="stroke:#181818;stroke-width:0.5;" x1="222.5" x2="357.5" y1="344" y2="344"/><line style="stroke:#181818;stroke-width:0.5;" x1="222.5" x2="357.5" y1="352" y2="352"/><ellipse cx="232.5" cy="363" fill="#84BE84" rx="3" ry="3" style="stroke:#038048;stroke-width:1.0;"/><text fill="#000000" font-family="sans-serif" font-size="14" lengthAdjust="spacing" textLength="97" x="241.5" y="370.5332">getUserStore();</text><ellipse cx="232.5" cy="380.6094" fill="#84BE84" rx="3" ry="3" style="stroke:#038048;stroke-width:1.0;"/><text fill="#000000" font-family="sans-serif" font-size="14" lengthAdjust="spacing" textLength="111" x="241.5" y="388.1426">getAuthFacade();</text></g><!--MD5=[93af8b4494db78ec46e98fad8955a5aa]
class UserStore--><g id="elem_UserStore"><rect codeLine="12" fill="#F1F1F1" height="65.6094" id="UserStore" rx="2.5" ry="2.5" style="stroke:#181818;stroke-width:0.5;" width="460" x="432" y="320.5"/><ellipse cx="626.25" cy="336.5" fill="#ADD1B2" rx="11" ry="11" style="stroke:#181818;stroke-width:1.0;"/><path d="M628.25,333 Q628.4531,332.5 628.6875,332.25 Q628.9219,332 629.1875,332 Q629.6563,332 629.9531,332.2813 Q630.25,332.5625 630.25,333.2188 L630.25,334.7813 Q630.25,335.4375 629.9688,335.7188 Q629.6875,336 629.25,336 Q628.8594,336 628.6094,335.8281 Q628.3594,335.6563 628.25,335.2031 Q628.2031,334.8906 628.0313,334.7188 Q627.7188,334.3906 627.1563,334.2031 Q626.5938,334 626.0313,334 Q625.3281,334 624.7344,334.2813 Q624.1563,334.5625 623.7031,335.1875 Q623.25,335.8125 623.25,336.6719 L623.25,337.5938 Q623.25,338.625 624.0938,339.3125 Q624.9375,340 626.4375,340 Q627.3281,340 627.9531,339.7969 Q628.3125,339.6875 628.7188,339.3281 Q628.9844,339.125 629.125,339.0625 Q629.2656,339 629.4375,339 Q629.7656,339 630,339.2656 Q630.25,339.5156 630.25,339.875 Q630.25,340.2188 629.9063,340.625 Q629.4063,341.2188 628.6094,341.5469 Q627.5625,342 626.2813,342 Q624.7813,342 623.5781,341.4063 Q622.6094,340.9375 621.9219,339.9219 Q621.25,338.9063 621.25,337.7031 L621.25,336.6094 Q621.25,335.3594 621.8438,334.2656 Q622.4531,333.1719 623.5,332.5938 Q624.5625,332 625.75,332 Q626.4688,332 627.0938,332.25 Q627.7188,332.5 628.25,333 Z " fill="#000000"/><text fill="#000000" font-family="sans-serif" font-size="14" lengthAdjust="spacing" textLength="63" x="646.75" y="342.2285">UserStore</text><line style="stroke:#181818;stroke-width:0.5;" x1="433" x2="891" y1="352.5" y2="352.5"/><line style="stroke:#181818;stroke-width:0.5;" x1="433" x2="891" y1="360.5" y2="360.5"/><ellipse cx="443" cy="371.5" fill="#84BE84" rx="3" ry="3" style="stroke:#038048;stroke-width:1.0;"/><text fill="#000000" font-family="sans-serif" font-size="14" lengthAdjust="spacing" textLength="434" x="452" y="379.0332">findUserFullyVaccinatedOnIntervalAndCenter(start,end,actorCenter);</text></g><!--MD5=[5ddb3901a3b177819463bfb72cbada42]
class VaccineAdministrationStore--><g id="elem_VaccineAdministrationStore"><rect codeLine="16" fill="#F1F1F1" height="65.6094" id="VaccineAdministrationStore" rx="2.5" ry="2.5" style="stroke:#181818;stroke-width:0.5;" width="552" x="386" y="617"/><ellipse cx="571.25" cy="633" fill="#ADD1B2" rx="11" ry="11" style="stroke:#181818;stroke-width:1.0;"/><path d="M573.25,629.5 Q573.4531,629 573.6875,628.75 Q573.9219,628.5 574.1875,628.5 Q574.6563,628.5 574.9531,628.7813 Q575.25,629.0625 575.25,629.7188 L575.25,631.2813 Q575.25,631.9375 574.9688,632.2188 Q574.6875,632.5 574.25,632.5 Q573.8594,632.5 573.6094,632.3281 Q573.3594,632.1563 573.25,631.7031 Q573.2031,631.3906 573.0313,631.2188 Q572.7188,630.8906 572.1563,630.7031 Q571.5938,630.5 571.0313,630.5 Q570.3281,630.5 569.7344,630.7813 Q569.1563,631.0625 568.7031,631.6875 Q568.25,632.3125 568.25,633.1719 L568.25,634.0938 Q568.25,635.125 569.0938,635.8125 Q569.9375,636.5 571.4375,636.5 Q572.3281,636.5 572.9531,636.2969 Q573.3125,636.1875 573.7188,635.8281 Q573.9844,635.625 574.125,635.5625 Q574.2656,635.5 574.4375,635.5 Q574.7656,635.5 575,635.7656 Q575.25,636.0156 575.25,636.375 Q575.25,636.7188 574.9063,637.125 Q574.4063,637.7188 573.6094,638.0469 Q572.5625,638.5 571.2813,638.5 Q569.7813,638.5 568.5781,637.9063 Q567.6094,637.4375 566.9219,636.4219 Q566.25,635.4063 566.25,634.2031 L566.25,633.1094 Q566.25,631.8594 566.8438,630.7656 Q567.4531,629.6719 568.5,629.0938 Q569.5625,628.5 570.75,628.5 Q571.4688,628.5 572.0938,628.75 Q572.7188,629 573.25,629.5 Z " fill="#000000"/><text fill="#000000" font-family="sans-serif" font-size="14" lengthAdjust="spacing" textLength="173" x="591.75" y="638.7285">VaccineAdministrationStore</text><line style="stroke:#181818;stroke-width:0.5;" x1="387" x2="937" y1="649" y2="649"/><line style="stroke:#181818;stroke-width:0.5;" x1="387" x2="937" y1="657" y2="657"/><ellipse cx="397" cy="668" fill="#84BE84" rx="3" ry="3" style="stroke:#038048;stroke-width:1.0;"/><text fill="#000000" font-family="sans-serif" font-size="14" lengthAdjust="spacing" textLength="526" x="406" y="675.5332">verifyIfIsFullyVaccinatedOnInterval(Date start, Date end, VaccinationCenter center);</text></g><!--MD5=[526d7920cc1a9eb754bcafb4f73bbd3b]
class ExportVaccinationStatisticsController--><g id="elem_ExportVaccinationStatisticsController"><rect codeLine="20" fill="#F1F1F1" height="83.2188" id="ExportVaccinationStatisticsController" rx="2.5" ry="2.5" style="stroke:#181818;stroke-width:0.5;" width="453" x="288.5" y="151"/><ellipse cx="395.25" cy="167" fill="#ADD1B2" rx="11" ry="11" style="stroke:#181818;stroke-width:1.0;"/><path d="M397.25,163.5 Q397.4531,163 397.6875,162.75 Q397.9219,162.5 398.1875,162.5 Q398.6563,162.5 398.9531,162.7813 Q399.25,163.0625 399.25,163.7188 L399.25,165.2813 Q399.25,165.9375 398.9688,166.2188 Q398.6875,166.5 398.25,166.5 Q397.8594,166.5 397.6094,166.3281 Q397.3594,166.1563 397.25,165.7031 Q397.2031,165.3906 397.0313,165.2188 Q396.7188,164.8906 396.1563,164.7031 Q395.5938,164.5 395.0313,164.5 Q394.3281,164.5 393.7344,164.7813 Q393.1563,165.0625 392.7031,165.6875 Q392.25,166.3125 392.25,167.1719 L392.25,168.0938 Q392.25,169.125 393.0938,169.8125 Q393.9375,170.5 395.4375,170.5 Q396.3281,170.5 396.9531,170.2969 Q397.3125,170.1875 397.7188,169.8281 Q397.9844,169.625 398.125,169.5625 Q398.2656,169.5 398.4375,169.5 Q398.7656,169.5 399,169.7656 Q399.25,170.0156 399.25,170.375 Q399.25,170.7188 398.9063,171.125 Q398.4063,171.7188 397.6094,172.0469 Q396.5625,172.5 395.2813,172.5 Q393.7813,172.5 392.5781,171.9063 Q391.6094,171.4375 390.9219,170.4219 Q390.25,169.4063 390.25,168.2031 L390.25,167.1094 Q390.25,165.8594 390.8438,164.7656 Q391.4531,163.6719 392.5,163.0938 Q393.5625,162.5 394.75,162.5 Q395.4688,162.5 396.0938,162.75 Q396.7188,163 397.25,163.5 Z " fill="#000000"/><text fill="#000000" font-family="sans-serif" font-size="14" lengthAdjust="spacing" textLength="231" x="415.75" y="172.7285">ExportVaccinationStatisticsController</text><line style="stroke:#181818;stroke-width:0.5;" x1="289.5" x2="740.5" y1="183" y2="183"/><line style="stroke:#181818;stroke-width:0.5;" x1="289.5" x2="740.5" y1="191" y2="191"/><ellipse cx="299.5" cy="202" fill="#84BE84" rx="3" ry="3" style="stroke:#038048;stroke-width:1.0;"/><text fill="#000000" font-family="sans-serif" font-size="14" lengthAdjust="spacing" textLength="245" x="308.5" y="209.5332">ExportVaccinationStatisticsController();</text><ellipse cx="299.5" cy="219.6094" fill="#84BE84" rx="3" ry="3" style="stroke:#038048;stroke-width:1.0;"/><text fill="#000000" font-family="sans-serif" font-size="14" lengthAdjust="spacing" textLength="427" x="308.5" y="227.1426">getUsersFullyVaccinatedOnIntervalAndCenter(Date start, Date end)</text></g><!--MD5=[f2f024f57c04e02435ac39d29fe0c809]
class ExportVaccinationStatisticsGUI--><g id="elem_ExportVaccinationStatisticsGUI"><rect codeLine="25" fill="#F1F1F1" height="65.6094" id="ExportVaccinationStatisticsGUI" rx="2.5" ry="2.5" style="stroke:#181818;stroke-width:0.5;" width="224" x="18" y="7"/><ellipse cx="33" cy="23" fill="#ADD1B2" rx="11" ry="11" style="stroke:#181818;stroke-width:1.0;"/><path d="M35,19.5 Q35.2031,19 35.4375,18.75 Q35.6719,18.5 35.9375,18.5 Q36.4063,18.5 36.7031,18.7813 Q37,19.0625 37,19.7188 L37,21.2813 Q37,21.9375 36.7188,22.2188 Q36.4375,22.5 36,22.5 Q35.6094,22.5 35.3594,22.3281 Q35.1094,22.1563 35,21.7031 Q34.9531,21.3906 34.7813,21.2188 Q34.4688,20.8906 33.9063,20.7031 Q33.3438,20.5 32.7813,20.5 Q32.0781,20.5 31.4844,20.7813 Q30.9063,21.0625 30.4531,21.6875 Q30,22.3125 30,23.1719 L30,24.0938 Q30,25.125 30.8438,25.8125 Q31.6875,26.5 33.1875,26.5 Q34.0781,26.5 34.7031,26.2969 Q35.0625,26.1875 35.4688,25.8281 Q35.7344,25.625 35.875,25.5625 Q36.0156,25.5 36.1875,25.5 Q36.5156,25.5 36.75,25.7656 Q37,26.0156 37,26.375 Q37,26.7188 36.6563,27.125 Q36.1563,27.7188 35.3594,28.0469 Q34.3125,28.5 33.0313,28.5 Q31.5313,28.5 30.3281,27.9063 Q29.3594,27.4375 28.6719,26.4219 Q28,25.4063 28,24.2031 L28,23.1094 Q28,21.8594 28.5938,20.7656 Q29.2031,19.6719 30.25,19.0938 Q31.3125,18.5 32.5,18.5 Q33.2188,18.5 33.8438,18.75 Q34.4688,19 35,19.5 Z " fill="#000000"/><text fill="#000000" font-family="sans-serif" font-size="14" lengthAdjust="spacing" textLength="192" x="47" y="28.7285">ExportVaccinationStatisticsGUI</text><line style="stroke:#181818;stroke-width:0.5;" x1="19" x2="241" y1="39" y2="39"/><line style="stroke:#181818;stroke-width:0.5;" x1="19" x2="241" y1="47" y2="47"/><ellipse cx="29" cy="58" fill="#84BE84" rx="3" ry="3" style="stroke:#038048;stroke-width:1.0;"/><text fill="#000000" font-family="sans-serif" font-size="14" lengthAdjust="spacing" textLength="118" x="38" y="65.5332">start(Stage stage);</text></g><!--MD5=[fee4ad4ea2539826ceb4e9da56de0cdc]
class ExportVaccinationStatisticsUI--><g id="elem_ExportVaccinationStatisticsUI"><rect codeLine="29" fill="#F1F1F1" height="65.6094" id="ExportVaccinationStatisticsUI" rx="2.5" ry="2.5" style="stroke:#181818;stroke-width:0.5;" width="246" x="7" y="159.5"/><ellipse cx="36.85" cy="175.5" fill="#ADD1B2" rx="11" ry="11" style="stroke:#181818;stroke-width:1.0;"/><path d="M38.85,172 Q39.0531,171.5 39.2875,171.25 Q39.5219,171 39.7875,171 Q40.2563,171 40.5531,171.2813 Q40.85,171.5625 40.85,172.2188 L40.85,173.7813 Q40.85,174.4375 40.5688,174.7188 Q40.2875,175 39.85,175 Q39.4594,175 39.2094,174.8281 Q38.9594,174.6563 38.85,174.2031 Q38.8031,173.8906 38.6313,173.7188 Q38.3188,173.3906 37.7563,173.2031 Q37.1938,173 36.6313,173 Q35.9281,173 35.3344,173.2813 Q34.7563,173.5625 34.3031,174.1875 Q33.85,174.8125 33.85,175.6719 L33.85,176.5938 Q33.85,177.625 34.6938,178.3125 Q35.5375,179 37.0375,179 Q37.9281,179 38.5531,178.7969 Q38.9125,178.6875 39.3188,178.3281 Q39.5844,178.125 39.725,178.0625 Q39.8656,178 40.0375,178 Q40.3656,178 40.6,178.2656 Q40.85,178.5156 40.85,178.875 Q40.85,179.2188 40.5063,179.625 Q40.0063,180.2188 39.2094,180.5469 Q38.1625,181 36.8813,181 Q35.3813,181 34.1781,180.4063 Q33.2094,179.9375 32.5219,178.9219 Q31.85,177.9063 31.85,176.7031 L31.85,175.6094 Q31.85,174.3594 32.4438,173.2656 Q33.0531,172.1719 34.1,171.5938 Q35.1625,171 36.35,171 Q37.0688,171 37.6938,171.25 Q38.3188,171.5 38.85,172 Z " fill="#000000"/><text fill="#000000" font-family="sans-serif" font-size="14" lengthAdjust="spacing" textLength="181" x="54.15" y="181.2285">ExportVaccinationStatisticsUI</text><line style="stroke:#181818;stroke-width:0.5;" x1="8" x2="252" y1="191.5" y2="191.5"/><line style="stroke:#181818;stroke-width:0.5;" x1="8" x2="252" y1="199.5" y2="199.5"/><ellipse cx="18" cy="210.5" fill="#84BE84" rx="3" ry="3" style="stroke:#038048;stroke-width:1.0;"/><text fill="#000000" font-family="sans-serif" font-size="14" lengthAdjust="spacing" textLength="220" x="27" y="218.0332">submitBtnClick(ActionEvent event);</text></g><!--MD5=[102f1b3c68b20fc6574790ee0d106773]
link Company to UserStore--><g id="link_Company_UserStore"><path codeLine="33" d="M358.66,353.5 C378.85,353.5 402.16,353.5 426.69,353.5 " fill="none" id="Company-to-UserStore" style="stroke:#181818;stroke-width:1.0;stroke-dasharray:7.0,7.0;"/><polygon fill="#181818" points="431.95,353.5,422.95,349.5,426.95,353.5,422.95,357.5,431.95,353.5" style="stroke:#181818;stroke-width:1.0;"/><text fill="#000000" font-family="sans-serif" font-size="13" lengthAdjust="spacing" textLength="37" x="376.75" y="346.9951">knows</text></g><!--MD5=[fef719cadc2b7800a2d36e2d34a3eebe]
link ExportVaccinationStatisticsUI to ExportVaccinationStatisticsController--><g id="link_ExportVaccinationStatisticsUI_ExportVaccinationStatisticsController"><path codeLine="34" d="M253.32,192.5 C263.26,192.5 273.2,192.5 283.13,192.5 " fill="none" id="ExportVaccinationStatisticsUI-to-ExportVaccinationStatisticsController" style="stroke:#181818;stroke-width:1.0;stroke-dasharray:7.0,7.0;"/><polygon fill="#181818" points="288.33,192.5,279.33,188.5,283.33,192.5,279.33,196.5,288.33,192.5" style="stroke:#181818;stroke-width:1.0;"/></g><!--MD5=[e2561f6d5ee872122cbd51390dae307a]
link ExportVaccinationStatisticsController to Company--><g id="link_ExportVaccinationStatisticsController_Company"><path codeLine="35" d="M457.64,234.03 C425.37,256.84 385.05,285.33 352.05,308.65 " fill="none" id="ExportVaccinationStatisticsController-to-Company" style="stroke:#181818;stroke-width:1.0;stroke-dasharray:7.0,7.0;"/><polygon fill="#181818" points="347.65,311.76,357.3089,309.8351,351.734,308.8755,352.6937,303.3006,347.65,311.76" style="stroke:#181818;stroke-width:1.0;"/></g><!--MD5=[61bc9746d90cc7ba8389757fadf6ce9b]
link ExportVaccinationStatisticsController to UserStore--><g id="link_ExportVaccinationStatisticsController_UserStore"><path codeLine="36" d="M552.47,234.03 C575.97,259.45 605.99,291.92 628.66,316.44 " fill="none" id="ExportVaccinationStatisticsController-to-UserStore" style="stroke:#181818;stroke-width:1.0;stroke-dasharray:7.0,7.0;"/><polygon fill="#181818" points="632.23,320.3,629.0496,310.9788,628.8327,316.6315,623.18,316.4145,632.23,320.3" style="stroke:#181818;stroke-width:1.0;"/><text fill="#000000" font-family="sans-serif" font-size="13" lengthAdjust="spacing" textLength="28" x="594" y="278.4951">uses</text></g><!--MD5=[a2374bee1653aec7d143b39473072f1b]
link ExportVaccinationStatisticsGUI to ExportVaccinationStatisticsUI--><g id="link_ExportVaccinationStatisticsGUI_ExportVaccinationStatisticsUI"><path codeLine="37" d="M130,73.29 C130,96.99 130,129.26 130,154.09 " fill="none" id="ExportVaccinationStatisticsGUI-to-ExportVaccinationStatisticsUI" style="stroke:#181818;stroke-width:1.0;stroke-dasharray:7.0,7.0;"/><polygon fill="#181818" points="130,159.27,134,150.27,130,154.27,126,150.27,130,159.27" style="stroke:#181818;stroke-width:1.0;"/><text fill="#000000" font-family="sans-serif" font-size="13" lengthAdjust="spacing" textLength="28" x="131" y="117.4951">uses</text></g><!--MD5=[d1e0f6ecc4becbdb384d024f9b519f21]
link UserStore to User--><g id="link_UserStore_User"><path codeLine="38" d="M662,386.79 C662,410.49 662,442.76 662,467.59 " fill="none" id="UserStore-to-User" style="stroke:#181818;stroke-width:1.0;"/><polygon fill="#181818" points="662,472.77,666,463.77,662,467.77,658,463.77,662,472.77" style="stroke:#181818;stroke-width:1.0;"/><text fill="#000000" font-family="sans-serif" font-size="13" lengthAdjust="spacing" textLength="21" x="663" y="439.4951">has</text><text fill="#000000" font-family="sans-serif" font-size="13" lengthAdjust="spacing" textLength="7" x="654.3766" y="407.706">1</text><text fill="#000000" font-family="sans-serif" font-size="13" lengthAdjust="spacing" textLength="5" x="656.5078" y="462.221">*</text></g><!--MD5=[2213c9dbf28a05743b917808b9f9a5eb]
link User to VaccineAdministrationStore--><g id="link_User_VaccineAdministrationStore"><path codeLine="39" d="M662,539.22 C662,560.83 662,589.34 662,611.9 " fill="none" id="User-to-VaccineAdministrationStore" style="stroke:#181818;stroke-width:1.0;"/><polygon fill="#181818" points="662,616.91,666,607.91,662,611.91,658,607.91,662,616.91" style="stroke:#181818;stroke-width:1.0;"/><text fill="#000000" font-family="sans-serif" font-size="13" lengthAdjust="spacing" textLength="21" x="663" y="583.4951">has</text><text fill="#000000" font-family="sans-serif" font-size="13" lengthAdjust="spacing" textLength="7" x="654.3766" y="560.1235">1</text><text fill="#000000" font-family="sans-serif" font-size="13" lengthAdjust="spacing" textLength="7" x="654.2781" y="606.0068">1</text></g><!--MD5=[48556c9a85a58c649fd1f9c0b051dd48]
@startuml
'https://plantuml.com/class-diagram

class User{
+ getVaccineAdministrationStore();
}

class Company{
+ getUserStore();
+ getAuthFacade();
}

class UserStore{
+ findUserFullyVaccinatedOnIntervalAndCenter(start,end,actorCenter);
}

class VaccineAdministrationStore{
+verifyIfIsFullyVaccinatedOnInterval(Date start, Date end, VaccinationCenter center);
}

class ExportVaccinationStatisticsController{
+ ExportVaccinationStatisticsController();
+ getUsersFullyVaccinatedOnIntervalAndCenter(Date start, Date end)
}

class ExportVaccinationStatisticsGUI{
+ start(Stage stage);
}

class ExportVaccinationStatisticsUI{
+ submitBtnClick(ActionEvent event);
}

Company .right.> UserStore : knows
ExportVaccinationStatisticsUI .> ExportVaccinationStatisticsController
ExportVaccinationStatisticsController ..> Company
ExportVaccinationStatisticsController ..> UserStore : uses
ExportVaccinationStatisticsGUI ..> ExportVaccinationStatisticsUI : uses
UserStore"1" - -> "*"User : has
User"1" - -> "1"VaccineAdministrationStore : has



@enduml

@startuml

class User{
+ getVaccineAdministrationStore();
}

class Company{
+ getUserStore();
+ getAuthFacade();
}

class UserStore{
+ findUserFullyVaccinatedOnIntervalAndCenter(start,end,actorCenter);
}

class VaccineAdministrationStore{
+verifyIfIsFullyVaccinatedOnInterval(Date start, Date end, VaccinationCenter center);
}

class ExportVaccinationStatisticsController{
+ ExportVaccinationStatisticsController();
+ getUsersFullyVaccinatedOnIntervalAndCenter(Date start, Date end)
}

class ExportVaccinationStatisticsGUI{
+ start(Stage stage);
}

class ExportVaccinationStatisticsUI{
+ submitBtnClick(ActionEvent event);
}

Company .right.> UserStore : knows
ExportVaccinationStatisticsUI .> ExportVaccinationStatisticsController
ExportVaccinationStatisticsController ..> Company
ExportVaccinationStatisticsController ..> UserStore : uses
ExportVaccinationStatisticsGUI ..> ExportVaccinationStatisticsUI : uses
UserStore"1" - -> "*"User : has
User"1" - -> "1"VaccineAdministrationStore : has



@enduml

PlantUML version 1.2022.4(Sat Apr 09 14:29:17 BST 2022)
(GPL source distribution)
Java Runtime: OpenJDK Runtime Environment
JVM: OpenJDK 64-Bit Server VM
Default Encoding: Cp1252
Language: pt
Country: PT
--></g></svg>