<?xml version="1.0" encoding="UTF-8" standalone="no"?><svg xmlns="http://www.w3.org/2000/svg" xmlns:xlink="http://www.w3.org/1999/xlink" contentScriptType="application/ecmascript" contentStyleType="text/css" height="1465px" preserveAspectRatio="none" style="width:670px;height:1465px;background:#FFFFFF;" version="1.1" viewBox="0 0 670 1465" width="670px" zoomAndPan="magnify"><defs><filter height="300%" id="f1smj2g3m5xx0a" width="300%" x="-1" y="-1"><feGaussianBlur result="blurOut" stdDeviation="2.0"/><feColorMatrix in="blurOut" result="blurOut2" type="matrix" values="0 0 0 0 0 0 0 0 0 0 0 0 0 0 0 0 0 0 .4 0"/><feOffset dx="4.0" dy="4.0" in="blurOut2" result="blurOut3"/><feBlend in="SourceGraphic" in2="blurOut3" mode="normal"/></filter></defs><g><!--MD5=[8fc3522a43f8c7199df5e09e5bb0188e]
entity user--><ellipse cx="67" cy="1119.5" fill="#FEFECE" filter="url(#f1smj2g3m5xx0a)" rx="8" ry="8" style="stroke:#A80036;stroke-width:1.5;"/><path d="M67,1127.5 L67,1154.5 M54,1135.5 L80,1135.5 M67,1154.5 L54,1169.5 M67,1154.5 L80,1169.5 " fill="none" filter="url(#f1smj2g3m5xx0a)" style="stroke:#A80036;stroke-width:1.5;"/><text fill="#000000" font-family="sans-serif" font-size="14" lengthAdjust="spacing" textLength="60" x="37" y="1189.5332">SNS User</text><!--MD5=[87d66015e0fe95d70bf3fa68103252e8]
entity nurse--><ellipse cx="67" cy="851.5" fill="#FEFECE" filter="url(#f1smj2g3m5xx0a)" rx="8" ry="8" style="stroke:#A80036;stroke-width:1.5;"/><path d="M67,859.5 L67,886.5 M54,867.5 L80,867.5 M67,886.5 L54,901.5 M67,886.5 L80,901.5 " fill="none" filter="url(#f1smj2g3m5xx0a)" style="stroke:#A80036;stroke-width:1.5;"/><text fill="#000000" font-family="sans-serif" font-size="14" lengthAdjust="spacing" textLength="37" x="48.5" y="921.5332">Nurse</text><!--MD5=[0418aaadd4ad327489187e2a2eef2d9f]
entity re--><ellipse cx="67" cy="1288.5" fill="#FEFECE" filter="url(#f1smj2g3m5xx0a)" rx="8" ry="8" style="stroke:#A80036;stroke-width:1.5;"/><path d="M67,1296.5 L67,1323.5 M54,1304.5 L80,1304.5 M67,1323.5 L54,1338.5 M67,1323.5 L80,1338.5 " fill="none" filter="url(#f1smj2g3m5xx0a)" style="stroke:#A80036;stroke-width:1.5;"/><text fill="#000000" font-family="sans-serif" font-size="14" lengthAdjust="spacing" textLength="78" x="28" y="1358.5332">Receptionist</text><!--MD5=[9877f6724d1a276f2a95363da75a191d]
entity adm--><ellipse cx="67" cy="457.5" fill="#FEFECE" filter="url(#f1smj2g3m5xx0a)" rx="8" ry="8" style="stroke:#A80036;stroke-width:1.5;"/><path d="M67,465.5 L67,492.5 M54,473.5 L80,473.5 M67,492.5 L54,507.5 M67,492.5 L80,507.5 " fill="none" filter="url(#f1smj2g3m5xx0a)" style="stroke:#A80036;stroke-width:1.5;"/><text fill="#000000" font-family="sans-serif" font-size="14" lengthAdjust="spacing" textLength="83" x="25.5" y="527.5332">Administrator</text><!--MD5=[db956f40f2dc50163091c98812b3e6f0]
entity cc--><ellipse cx="67" cy="149.5" fill="#FEFECE" filter="url(#f1smj2g3m5xx0a)" rx="8" ry="8" style="stroke:#A80036;stroke-width:1.5;"/><path d="M67,157.5 L67,184.5 M54,165.5 L80,165.5 M67,184.5 L54,199.5 M67,184.5 L80,199.5 " fill="none" filter="url(#f1smj2g3m5xx0a)" style="stroke:#A80036;stroke-width:1.5;"/><text fill="#000000" font-family="sans-serif" font-size="14" lengthAdjust="spacing" textLength="122" x="6" y="219.5332">Center Coordinator</text><!--MD5=[a3461900a36ccd3e4d3db0b2b1dee3b1]
entity tim--><ellipse cx="67" cy="14" fill="#FEFECE" filter="url(#f1smj2g3m5xx0a)" rx="8" ry="8" style="stroke:#A80036;stroke-width:1.5;"/><path d="M67,22 L67,49 M54,30 L80,30 M67,49 L54,64 M67,49 L80,64 " fill="none" filter="url(#f1smj2g3m5xx0a)" style="stroke:#A80036;stroke-width:1.5;"/><text fill="#000000" font-family="sans-serif" font-size="14" lengthAdjust="spacing" textLength="77" x="28.5" y="84.0332">«automatic»</text><text fill="#000000" font-family="sans-serif" font-size="14" lengthAdjust="spacing" textLength="75" x="28.5" y="101.6426">Timer/Clock</text><ellipse cx="423.1476" cy="1204.3295" fill="#FEFECE" filter="url(#f1smj2g3m5xx0a)" rx="142.1476" ry="30.8295" style="stroke:#A80036;stroke-width:1.5;"/><text fill="#000000" font-family="sans-serif" font-size="14" lengthAdjust="spacing" textLength="252" x="297.1476" y="1208.058">US 001/002 - Schedules the vaccination</text><ellipse cx="422.9281" cy="1101.2856" fill="#FEFECE" filter="url(#f1smj2g3m5xx0a)" rx="169.4281" ry="36.2856" style="stroke:#A80036;stroke-width:1.5;"/><text fill="#000000" font-family="sans-serif" font-size="14" lengthAdjust="spacing" textLength="309" x="268.4281" y="1105.0141">US ??? - Request the EU Covid Digital Certificate</text><ellipse cx="422.8863" cy="769.4773" fill="#FEFECE" filter="url(#f1smj2g3m5xx0a)" rx="137.8863" ry="29.9773" style="stroke:#A80036;stroke-width:1.5;"/><text fill="#000000" font-family="sans-serif" font-size="14" lengthAdjust="spacing" textLength="243" x="301.3863" y="773.2058">US ??? - Deliver vaccination certificate</text><ellipse cx="422.8229" cy="883.2646" fill="#FEFECE" filter="url(#f1smj2g3m5xx0a)" rx="229.3229" ry="48.2646" style="stroke:#A80036;stroke-width:1.5;"/><text fill="#000000" font-family="sans-serif" font-size="14" lengthAdjust="spacing" textLength="432" x="206.8229" y="886.9931">US 005 - Consult the users in the waiting room of a vacination center</text><ellipse cx="423.0463" cy="998.7093" fill="#FEFECE" filter="url(#f1smj2g3m5xx0a)" rx="144.0463" ry="31.2093" style="stroke:#A80036;stroke-width:1.5;"/><text fill="#000000" font-family="sans-serif" font-size="14" lengthAdjust="spacing" textLength="256" x="295.0463" y="1002.4378">US ??? - Register vaccine administration</text><ellipse cx="423.2112" cy="1320.4422" fill="#FEFECE" filter="url(#f1smj2g3m5xx0a)" rx="235.2112" ry="49.4422" style="stroke:#A80036;stroke-width:1.5;"/><text fill="#000000" font-family="sans-serif" font-size="14" lengthAdjust="spacing" textLength="444" x="201.2112" y="1324.1708">US 004 - I want to register the arrival of a SNS user to take the vaccine</text><ellipse cx="423.1497" cy="181.6299" fill="#FEFECE" filter="url(#f1smj2g3m5xx0a)" rx="163.6497" ry="35.1299" style="stroke:#A80036;stroke-width:1.5;"/><text fill="#000000" font-family="sans-serif" font-size="14" lengthAdjust="spacing" textLength="297" x="274.6497" y="185.3584">US ??? - Analyse and evaluate center statistics</text><ellipse cx="422.7982" cy="1429.2596" fill="#FEFECE" filter="url(#f1smj2g3m5xx0a)" rx="106.7982" ry="23.7596" style="stroke:#A80036;stroke-width:1.5;"/><text fill="#000000" font-family="sans-serif" font-size="14" lengthAdjust="spacing" textLength="176" x="334.7982" y="1432.9882">US 003 - Register SNS User</text><ellipse cx="422.9447" cy="279.6889" fill="#FEFECE" filter="url(#f1smj2g3m5xx0a)" rx="128.9447" ry="28.1889" style="stroke:#A80036;stroke-width:1.5;"/><text fill="#000000" font-family="sans-serif" font-size="14" lengthAdjust="spacing" textLength="224" x="310.9447" y="283.4175">US 012 - Specify new Vaccine Type</text><ellipse cx="422.8351" cy="386.567" fill="#FEFECE" filter="url(#f1smj2g3m5xx0a)" rx="205.8351" ry="43.567" style="stroke:#A80036;stroke-width:1.5;"/><text fill="#000000" font-family="sans-serif" font-size="14" lengthAdjust="spacing" textLength="380" x="230.8351" y="390.2955">US 013 - Specify new Vaccine and its administration process</text><ellipse cx="422.934" cy="489.4868" fill="#FEFECE" filter="url(#f1smj2g3m5xx0a)" rx="110.434" ry="24.4868" style="stroke:#A80036;stroke-width:1.5;"/><text fill="#000000" font-family="sans-serif" font-size="14" lengthAdjust="spacing" textLength="184" x="330.934" y="493.2153">US 010 - Register employees</text><ellipse cx="423.2297" cy="578.3459" fill="#FEFECE" filter="url(#f1smj2g3m5xx0a)" rx="132.2297" ry="28.8459" style="stroke:#A80036;stroke-width:1.5;"/><text fill="#000000" font-family="sans-serif" font-size="14" lengthAdjust="spacing" textLength="231" x="307.7297" y="582.0745">US 009 - Register vaccination center</text><ellipse cx="423.122" cy="54.4244" fill="#FEFECE" filter="url(#f1smj2g3m5xx0a)" rx="142.622" ry="30.9244" style="stroke:#A80036;stroke-width:1.5;"/><text fill="#000000" font-family="sans-serif" font-size="14" lengthAdjust="spacing" textLength="253" x="296.622" y="58.1529">US ??? - Send recovery time notification</text><ellipse cx="423.0714" cy="673.6143" fill="#FEFECE" filter="url(#f1smj2g3m5xx0a)" rx="143.5714" ry="31.1143" style="stroke:#A80036;stroke-width:1.5;"/><text fill="#000000" font-family="sans-serif" font-size="14" lengthAdjust="spacing" textLength="255" x="295.5714" y="677.3428">US 014 - Load set of users from CSV file</text><!--MD5=[e71913910ae60f5842a843a20d6ecd39]
link user to UC1--><path d="M97.27,1155.88 C141.43,1162.49 227.65,1175.4 300.15,1186.26 " fill="none" id="user-to-UC1" style="stroke:#A80036;stroke-width:1.0;"/><polygon fill="#A80036" points="305.35,1187.03,297.0422,1181.7404,300.4052,1186.289,295.8566,1189.652,305.35,1187.03" style="stroke:#A80036;stroke-width:1.0;"/><!--MD5=[17d4c6462e07b4f1b5dbb0e87d08d5e6]
link user to UC3--><path d="M97.27,1147.37 C136.5,1141.82 208.92,1131.6 275.43,1122.2 " fill="none" id="user-to-UC3" style="stroke:#A80036;stroke-width:1.0;"/><polygon fill="#A80036" points="280.61,1121.47,271.138,1118.7715,275.6594,1122.1711,272.2598,1126.6925,280.61,1121.47" style="stroke:#A80036;stroke-width:1.0;"/><!--MD5=[2e13f11524f46488bfe6ddb0138c4ecb]
link nurse to UC4--><path d="M85.88,871.41 C108.64,856.56 149.62,831.62 188,817.5 C224.22,804.17 265.04,794.19 302.32,786.88 " fill="none" id="nurse-to-UC4" style="stroke:#A80036;stroke-width:1.0;"/><polygon fill="#A80036" points="307.31,785.92,297.7101,783.7196,302.4027,786.8786,299.2438,791.5712,307.31,785.92" style="stroke:#A80036;stroke-width:1.0;"/><!--MD5=[d68d844c84c5b9178d019b496cb916a6]
link nurse to UC5--><path d="M85.55,883.5 C106.71,883.5 144.85,883.5 188.06,883.5 " fill="none" id="nurse-to-UC5" style="stroke:#A80036;stroke-width:1.0;"/><polygon fill="#A80036" points="193.08,883.5,184.08,879.5,188.08,883.5,184.08,887.5,193.08,883.5" style="stroke:#A80036;stroke-width:1.0;"/><!--MD5=[0bd5187a991de09ca303be6f0594955f]
link nurse to UC6--><path d="M85.89,895.57 C108.66,910.39 149.65,935.3 188,949.5 C223.15,962.52 262.62,972.45 298.99,979.85 " fill="none" id="nurse-to-UC6" style="stroke:#A80036;stroke-width:1.0;"/><polygon fill="#A80036" points="304.33,980.92,296.2956,975.2236,299.4282,979.9339,294.7179,983.0665,304.33,980.92" style="stroke:#A80036;stroke-width:1.0;"/><!--MD5=[e30609e643ecc4d65ea699cde770bfae]
link re to UC7--><path d="M106.22,1320.5 C126.5,1320.5 153.3,1320.5 182.72,1320.5 " fill="none" id="re-to-UC7" style="stroke:#A80036;stroke-width:1.0;"/><polygon fill="#A80036" points="187.86,1320.5,178.86,1316.5,182.86,1320.5,178.86,1324.5,187.86,1320.5" style="stroke:#A80036;stroke-width:1.0;"/><!--MD5=[8fcb6dda9ab652cbe67b89584388f9f9]
link cc to UC9--><path d="M128.05,181.5 C163,181.5 208.96,181.5 254.13,181.5 " fill="none" id="cc-to-UC9" style="stroke:#A80036;stroke-width:1.0;"/><polygon fill="#A80036" points="259.34,181.5,250.34,177.5,254.34,181.5,250.34,185.5,259.34,181.5" style="stroke:#A80036;stroke-width:1.0;"/><!--MD5=[80be5fd46ed95aef3ed89b5575c23c67]
link re to UC10--><path d="M106.16,1346.12 C129.01,1360.34 159.13,1377.18 188,1387.5 C230.2,1402.59 278.7,1412.44 320.57,1418.77 " fill="none" id="re-to-UC10" style="stroke:#A80036;stroke-width:1.0;"/><polygon fill="#A80036" points="325.64,1419.53,317.3344,1414.2368,320.6955,1418.7869,316.1455,1422.148,325.64,1419.53" style="stroke:#A80036;stroke-width:1.0;"/><!--MD5=[8c43215468f47a1c3ef5300886655bb4]
link adm to UC11--><path d="M87.18,447.87 C106.94,409.83 141.41,355.14 188,325.5 C219.05,305.75 256.74,294.17 292.73,287.46 " fill="none" id="adm-to-UC11" style="stroke:#A80036;stroke-width:1.0;"/><polygon fill="#A80036" points="298.02,286.51,288.4544,284.165,293.0988,287.3944,289.8694,292.0388,298.02,286.51" style="stroke:#A80036;stroke-width:1.0;"/><!--MD5=[4ee938cc57162c8d201b01a17c10995f]
link adm to UC12--><path d="M108.55,474.38 C131.68,465.99 161.29,455.64 188,447.5 C218.59,438.18 251.7,429 283.11,420.71 " fill="none" id="adm-to-UC12" style="stroke:#A80036;stroke-width:1.0;"/><polygon fill="#A80036" points="288.14,419.39,278.4138,417.8404,283.3084,420.6765,280.4723,425.5711,288.14,419.39" style="stroke:#A80036;stroke-width:1.0;"/><!--MD5=[ecd2b408d1f758b111c4a568090cb321]
link adm to UC13--><path d="M108.61,489.5 C156.66,489.5 238.75,489.5 306.86,489.5 " fill="none" id="adm-to-UC13" style="stroke:#A80036;stroke-width:1.0;"/><polygon fill="#A80036" points="312.16,489.5,303.16,485.5,307.16,489.5,303.16,493.5,312.16,489.5" style="stroke:#A80036;stroke-width:1.0;"/><!--MD5=[b4cdefa56c0066d4b2abda10026d6614]
link adm to UC14--><path d="M108.66,505.31 C131.69,513.86 161.18,524.15 188,531.5 C228.35,542.56 273.27,552.2 312.88,559.83 " fill="none" id="adm-to-UC14" style="stroke:#A80036;stroke-width:1.0;"/><polygon fill="#A80036" points="318.18,560.85,310.0979,555.2215,313.2701,559.9052,308.5863,563.0774,318.18,560.85" style="stroke:#A80036;stroke-width:1.0;"/><!--MD5=[3c860890beeb1bd27534f2be35592805]
link tim to UC15--><path d="M109.65,54.5 C150.54,54.5 215.33,54.5 275.32,54.5 " fill="none" id="tim-to-UC15" style="stroke:#A80036;stroke-width:1.0;"/><polygon fill="#A80036" points="280.37,54.5,271.37,50.5,275.37,54.5,271.37,58.5,280.37,54.5" style="stroke:#A80036;stroke-width:1.0;"/><!--MD5=[76b15942b960691ae8cb1a69c633c79b]
link adm to UC16--><path d="M93.83,531.12 C115.24,562.02 148.49,602.61 188,625.5 C217.33,642.49 251.78,653.52 285.1,660.67 " fill="none" id="adm-to-UC16" style="stroke:#0000FF;stroke-width:1.0;"/><polygon fill="#0000FF" points="290,661.7,282.0137,655.9364,285.1066,660.6728,280.3702,663.7658,290,661.7" style="stroke:#0000FF;stroke-width:1.0;"/><!--MD5=[42a73f84f01d51fc733ec073e2fe629f]
link re to UC1--><path d="M106.01,1295.35 C128.92,1281.21 159.17,1264.28 188,1253.5 C223.44,1240.25 263.31,1230.22 299.96,1222.8 " fill="none" id="re-to-UC1" style="stroke:#0000FF;stroke-width:1.0;"/><polygon fill="#0000FF" points="304.88,1221.82,295.2691,1219.6681,299.9776,1222.8033,296.8424,1227.5119,304.88,1221.82" style="stroke:#0000FF;stroke-width:1.0;"/><!--MD5=[35590ac2a7600df45cda962bd42532b3]
@startuml
'https://plantuml.com/use-case-diagram


left to right direction
actor "SNS User" as user
actor "Nurse" as nurse
actor "Receptionist" as re
actor "Administrator" as adm
actor "Center Coordinator" as cc
actor " «automatic» \n Timer/Clock" as tim

usecase "US 001/002 - Schedules the vaccination" as UC1
usecase "US ??? - Request the EU Covid Digital Certificate" as UC3
usecase "US ??? - Deliver vaccination certificate" as UC4
usecase "US 005 - Consult the users in the waiting room of a vacination center" as UC5
usecase "US ??? - Register vaccine administration" as UC6
usecase "US 004 - I want to register the arrival of a SNS user to take the vaccine" as UC7
usecase "US ??? - Analyse and evaluate center statistics" as UC9
usecase "US 003 - Register SNS User" as UC10
usecase "US 012 - Specify new Vaccine Type" as UC11
usecase "US 013 - Specify new Vaccine and its administration process " as UC12
usecase "US 010 - Register employees" as UC13
usecase "US 009 - Register vaccination center" as UC14
usecase "US ??? - Send recovery time notification" as UC15
usecase "US 014 - Load set of users from CSV file" as UC16

user - -> UC1
user - -> UC3
nurse - -> UC4
nurse - -> UC5
nurse - -> UC6
re - -> UC7
cc - -> UC9
re - -> UC10
adm - -> UC11
adm - -> UC12
adm - -> UC13
adm - -> UC14
tim - -> UC15
adm -[#0000FF]-> UC16
re -[#0000FF]-> UC1



@enduml

@startuml


left to right direction
actor "SNS User" as user
actor "Nurse" as nurse
actor "Receptionist" as re
actor "Administrator" as adm
actor "Center Coordinator" as cc
actor " «automatic» \n Timer/Clock" as tim

usecase "US 001/002 - Schedules the vaccination" as UC1
usecase "US ??? - Request the EU Covid Digital Certificate" as UC3
usecase "US ??? - Deliver vaccination certificate" as UC4
usecase "US 005 - Consult the users in the waiting room of a vacination center" as UC5
usecase "US ??? - Register vaccine administration" as UC6
usecase "US 004 - I want to register the arrival of a SNS user to take the vaccine" as UC7
usecase "US ??? - Analyse and evaluate center statistics" as UC9
usecase "US 003 - Register SNS User" as UC10
usecase "US 012 - Specify new Vaccine Type" as UC11
usecase "US 013 - Specify new Vaccine and its administration process " as UC12
usecase "US 010 - Register employees" as UC13
usecase "US 009 - Register vaccination center" as UC14
usecase "US ??? - Send recovery time notification" as UC15
usecase "US 014 - Load set of users from CSV file" as UC16

user - -> UC1
user - -> UC3
nurse - -> UC4
nurse - -> UC5
nurse - -> UC6
re - -> UC7
cc - -> UC9
re - -> UC10
adm - -> UC11
adm - -> UC12
adm - -> UC13
adm - -> UC14
tim - -> UC15
adm -[#0000FF]-> UC16
re -[#0000FF]-> UC1



@enduml

PlantUML version 1.2022.1(Tue Feb 01 18:19:58 GMT 2022)
(GPL source distribution)
Java Runtime: OpenJDK Runtime Environment
JVM: OpenJDK 64-Bit Server VM
Default Encoding: Cp1252
Language: pt
Country: PT
--></g></svg>